# Made in Blockbench 5.1.4
mtllib beijing_sign_2.mtl

o sidea
v 0.03125 0.546875 0.046875
v 0.03125 0.546875 -0.046875
v 0.03125 0 0.046875
v 0.03125 0 -0.046875
v 0 0.546875 0.046875
v 0 0.546875 -0.046875
v 0 0 0.046875
v 0 0 -0.046875
v 0.03125 0.546875 0.0625
v 0.03125 0.546875 0.046875
v 0.03125 0 0.0625
v 0.03125 0 0.046875
v 0 0.546875 0.0625
v 0 0.546875 0.046875
v 0 0 0.0625
v 0 0 0.046875
v 0.03125 0.546875 -0.046875
v 0.03125 0.546875 -0.0625
v 0.03125 0 -0.046875
v 0.03125 0 -0.0625
v 0 0.546875 -0.046875
v 0 0.546875 -0.0625
v 0 0 -0.046875
v 0 0 -0.0625
vt 0.109375 0.4375
vt 0.109375 0.984375
vt 0.015625 0.984375
vt 0.015625 0.4375
vt 0.09375 0.890625
vt 0.09375 0.984375
vt 0.0625 0.984375
vt 0.0625 0.890625
vt 0.09375 0.890625
vt 0.09375 0.984375
vt 0.0625 0.984375
vt 0.0625 0.890625
vt 0.015625 0.4375
vt 0.015625 0.984375
vt 0 0.984375
vt 0 0.4375
vt 0.125 0.4375
vt 0.125 0.984375
vt 0.109375 0.984375
vt 0.109375 0.4375
vt 0.09375 0.875
vt 0.09375 0.890625
vt 0.0625 0.890625
vt 0.0625 0.875
vt 0.09375 0.984375
vt 0.09375 1
vt 0.0625 1
vt 0.0625 0.984375
vt 0.09375 0.4375
vt 0.09375 0.984375
vt 0.0625 0.984375
vt 0.0625 0.4375
vt 0.015625 0.4375
vt 0.015625 0.984375
vt 0 0.984375
vt 0 0.4375
vt 0.125 0.4375
vt 0.125 0.984375
vt 0.109375 0.984375
vt 0.109375 0.4375
vt 0.09375 0.875
vt 0.09375 0.890625
vt 0.0625 0.890625
vt 0.0625 0.875
vt 0.09375 0.984375
vt 0.09375 1
vt 0.0625 1
vt 0.0625 0.984375
vt 0.0625 0.4375
vt 0.0625 0.984375
vt 0.03125 0.984375
vt 0.03125 0.4375
vn 1 0 0
vn 0 1 0
vn 0 -1 0
vn 1 0 0
vn -1 0 0
vn 0 1 0
vn 0 -1 0
vn 0 0 1
vn 1 0 0
vn -1 0 0
vn 0 1 0
vn 0 -1 0
vn 0 0 -1
usemtl m_b31cdfc4-27f1-0933-0a13-bd37009ad1f7
f 4/1/1 2/2/1 1/3/1
f 4/1/1 1/3/1 3/4/1
f 1/5/2 2/6/2 6/7/2
f 1/5/2 6/7/2 5/8/2
f 4/9/3 3/10/3 7/11/3
f 4/9/3 7/11/3 8/12/3
usemtl m_4c054f93-b2e4-c754-67f9-a97580b39769
f 12/13/4 10/14/4 9/15/4
f 12/13/4 9/15/4 11/16/4
f 15/17/5 13/18/5 14/19/5
f 15/17/5 14/19/5 16/20/5
f 9/21/6 10/22/6 14/23/6
f 9/21/6 14/23/6 13/24/6
f 12/25/7 11/26/7 15/27/7
f 12/25/7 15/27/7 16/28/7
f 11/29/8 9/30/8 13/31/8
f 11/29/8 13/31/8 15/32/8
f 20/33/9 18/34/9 17/35/9
f 20/33/9 17/35/9 19/36/9
f 23/37/10 21/38/10 22/39/10
f 23/37/10 22/39/10 24/40/10
f 17/41/11 18/42/11 22/43/11
f 17/41/11 22/43/11 21/44/11
f 20/45/12 19/46/12 23/47/12
f 20/45/12 23/47/12 24/48/12
f 24/49/13 22/50/13 18/51/13
f 24/49/13 18/51/13 20/52/13
o sideb
v -0.03125 0.546875 0.046875
v -0.03125 0.546875 -0.046875
v -0.03125 0 0.046875
v -0.03125 0 -0.046875
v 0 0.546875 0.046875
v 0 0.546875 -0.046875
v 0 0 0.046875
v 0 0 -0.046875
v -0.03125 0.546875 0.0625
v -0.03125 0.546875 0.046875
v -0.03125 0 0.0625
v -0.03125 0 0.046875
v 0 0.546875 0.0625
v 0 0.546875 0.046875
v 0 0 0.0625
v 0 0 0.046875
v -0.03125 0.546875 -0.046875
v -0.03125 0.546875 -0.0625
v -0.03125 0 -0.046875
v -0.03125 0 -0.0625
v 0 0.546875 -0.046875
v 0 0.546875 -0.0625
v 0 0 -0.046875
v 0 0 -0.0625
vt 0.015625 0.984375
vt 0.109375 0.984375
vt 0.109375 0.4375
vt 0.015625 0.4375
vt 0.0625 0.984375
vt 0.09375 0.984375
vt 0.09375 0.890625
vt 0.0625 0.890625
vt 0.0625 0.984375
vt 0.09375 0.984375
vt 0.09375 0.890625
vt 0.0625 0.890625
vt 0 0.984375
vt 0.015625 0.984375
vt 0.015625 0.4375
vt 0 0.4375
vt 0.109375 0.984375
vt 0.125 0.984375
vt 0.125 0.4375
vt 0.109375 0.4375
vt 0.0625 0.890625
vt 0.09375 0.890625
vt 0.09375 0.875
vt 0.0625 0.875
vt 0.0625 1
vt 0.09375 1
vt 0.09375 0.984375
vt 0.0625 0.984375
vt 0.0625 0.984375
vt 0.09375 0.984375
vt 0.09375 0.4375
vt 0.0625 0.4375
vt 0 0.984375
vt 0.015625 0.984375
vt 0.015625 0.4375
vt 0 0.4375
vt 0.109375 0.984375
vt 0.125 0.984375
vt 0.125 0.4375
vt 0.109375 0.4375
vt 0.0625 0.890625
vt 0.09375 0.890625
vt 0.09375 0.875
vt 0.0625 0.875
vt 0.0625 1
vt 0.09375 1
vt 0.09375 0.984375
vt 0.0625 0.984375
vt 0.03125 0.984375
vt 0.0625 0.984375
vt 0.0625 0.4375
vt 0.03125 0.4375
vn -1 0 0
vn 0 1 0
vn 0 -1 0
vn -1 0 0
vn 1 0 0
vn 0 1 0
vn 0 -1 0
vn 0 0 1
vn -1 0 0
vn 1 0 0
vn 0 1 0
vn 0 -1 0
vn 0 0 -1
usemtl m_b31cdfc4-27f1-0933-0a13-bd37009ad1f7
f 25/53/14 26/54/14 28/55/14
f 25/53/14 28/55/14 27/56/14
f 30/57/15 26/58/15 25/59/15
f 30/57/15 25/59/15 29/60/15
f 31/61/16 27/62/16 28/63/16
f 31/61/16 28/63/16 32/64/16
usemtl m_4c054f93-b2e4-c754-67f9-a97580b39769
f 33/65/17 34/66/17 36/67/17
f 33/65/17 36/67/17 35/68/17
f 38/69/18 37/70/18 39/71/18
f 38/69/18 39/71/18 40/72/18
f 38/73/19 34/74/19 33/75/19
f 38/73/19 33/75/19 37/76/19
f 39/77/20 35/78/20 36/79/20
f 39/77/20 36/79/20 40/80/20
f 37/81/21 33/82/21 35/83/21
f 37/81/21 35/83/21 39/84/21
f 41/85/22 42/86/22 44/87/22
f 41/85/22 44/87/22 43/88/22
f 46/89/23 45/90/23 47/91/23
f 46/89/23 47/91/23 48/92/23
f 46/93/24 42/94/24 41/95/24
f 46/93/24 41/95/24 45/96/24
f 47/97/25 43/98/25 44/99/25
f 47/97/25 44/99/25 48/100/25
f 42/101/26 46/102/26 48/103/26
f 42/101/26 48/103/26 44/104/26
o pole
v 0 1.25 0
v 0.008373125 0.5 0.03125
v 0.008373125 1.25 0.03125
v 0.022876875 0.5 0.022876875
v 0.022876875 1.25 0.022876875
v 0.03125 0.5 0.008373125
v 0.03125 1.25 0.008373125
v 0.03125 0.5 -0.008373125
v 0.03125 1.25 -0.008373125
v 0.022876875 0.5 -0.022876875
v 0.022876875 1.25 -0.022876875
v 0.008373125 0.5 -0.03125
v 0.008373125 1.25 -0.03125
v -0.008373125 0.5 -0.03125
v -0.008373125 1.25 -0.03125
v -0.022876875 0.5 -0.022876875
v -0.022876875 1.25 -0.022876875
v -0.03125 0.5 -0.008373125
v -0.03125 1.25 -0.008373125
v -0.03125 0.5 0.008373125
v -0.03125 1.25 0.008373125
v -0.022876875 0.5 0.022876875
v -0.022876875 1.25 0.022876875
v -0.008373125 0.5 0.03125
v -0.008373125 1.25 0.03125
vt 0 0.25
vt 0.01675 0.25
vt 0.01675 1
vt 0 1
vt 0 0.9676475
vt 0.01617375 0.971983125
vt 0 1
vt 0 0.25
vt 0.01675 0.25
vt 0.01675 1
vt 0 1
vt 0 0.96765
vt 0.016175 0.971980625
vt 0 1
vt 0 0.25
vt 0.01675 0.25
vt 0.01675 1
vt 0 1
vt 0.03125 0.98325
vt 0.03125 1
vt 0 0.991625
vt 0 0.25
vt 0.01675 0.25
vt 0.01675 1
vt 0 1
vt 0.0323525 0.98382625
vt 0.028016875 1
vt 0 0.98382625
vt 0 0.25
vt 0.01675 0.25
vt 0.01675 1
vt 0 1
vt 0.03235 0.983825
vt 0.028019375 1
vt 0 0.983825
vt 0 0.25
vt 0.01675 0.25
vt 0.01675 1
vt 0 1
vt 0.01675 1
vt 0 1
vt 0.008375 0.96875
vt 0 0.25
vt 0.01675 0.25
vt 0.01675 1
vt 0 1
vt 0.01617375 1
vt 0 0.99566375
vt 0.01617375 0.9676475
vt 0 0.25
vt 0.01675 0.25
vt 0.01675 1
vt 0 1
vt 0.016175 1
vt 0 0.99566875
vt 0.016175 0.96765
vt 0 0.25
vt 0.01675 0.25
vt 0.01675 1
vt 0 1
vt 0 1
vt 0 0.98325
vt 0.03125 0.991625
vt 0 0.25
vt 0.01675 0.25
vt 0.01675 1
vt 0 1
vt 0 1
vt 0.00433625 0.98382625
vt 0.0323525 1
vt 0 0.25
vt 0.01675 0.25
vt 0.01675 1
vt 0 1
vt 0 1
vt 0.00433125 0.983825
vt 0.03235 1
vt 0 0.25
vt 0.01675 0.25
vt 0.01675 1
vt 0 1
vt 0 0.96875
vt 0.01675 0.96875
vt 0.008375 1
vn 0.49997228014499284 0 0.8660414072586927
vn 0 1 0
vn 0.8660414072586927 0 0.49997228014499284
vn 0 1 0
vn 1 0 0
vn 0 1 0
vn 0.8660414072586927 0 -0.49997228014499284
vn 0 1 0
vn 0.49997228014499284 0 -0.8660414072586927
vn 0 1 0
vn 0 0 -1
vn 0 1 0
vn -0.49997228014499284 0 -0.8660414072586927
vn 0 1 0
vn -0.8660414072586927 0 -0.49997228014499284
vn 0 1 0
vn -1 0 0
vn 0 1 0
vn -0.8660414072586927 0 0.49997228014499284
vn 0 1 0
vn -0.49997228014499284 0 0.8660414072586927
vn 0 1 0
vn 0 0 1
vn 0 1 0
usemtl m_64fbd2c4-597e-979b-9f21-31c8b2e6d18a
f 50/105/27 52/106/27 53/107/27
f 50/105/27 53/107/27 51/108/27
f 51/109/28 53/110/28 49/111/28
f 52/112/29 54/113/29 55/114/29
f 52/112/29 55/114/29 53/115/29
f 53/116/30 55/117/30 49/118/30
f 54/119/31 56/120/31 57/121/31
f 54/119/31 57/121/31 55/122/31
f 55/123/32 57/124/32 49/125/32
f 56/126/33 58/127/33 59/128/33
f 56/126/33 59/128/33 57/129/33
f 57/130/34 59/131/34 49/132/34
f 58/133/35 60/134/35 61/135/35
f 58/133/35 61/135/35 59/136/35
f 59/137/36 61/138/36 49/139/36
f 60/140/37 62/141/37 63/142/37
f 60/140/37 63/142/37 61/143/37
f 61/144/38 63/145/38 49/146/38
f 62/147/39 64/148/39 65/149/39
f 62/147/39 65/149/39 63/150/39
f 63/151/40 65/152/40 49/153/40
f 64/154/41 66/155/41 67/156/41
f 64/154/41 67/156/41 65/157/41
f 65/158/42 67/159/42 49/160/42
f 66/161/43 68/162/43 69/163/43
f 66/161/43 69/163/43 67/164/43
f 67/165/44 69/166/44 49/167/44
f 68/168/45 70/169/45 71/170/45
f 68/168/45 71/170/45 69/171/45
f 69/172/46 71/173/46 49/174/46
f 70/175/47 72/176/47 73/177/47
f 70/175/47 73/177/47 71/178/47
f 71/179/48 73/180/48 49/181/48
f 72/182/49 50/183/49 51/184/49
f 72/182/49 51/184/49 73/185/49
f 73/186/50 51/187/50 49/188/50
o main
v 0.25 0.546875 0.046875
v 0.25 0.546875 -0.046875
v 0.25 0 0.046875
v 0.25 0 -0.046875
v -0.25 0.546875 0.046875
v -0.25 0.546875 -0.046875
v -0.25 0 0.046875
v -0.25 0 -0.046875
v 0.25 0.015625 -0.046875
v 0.25 0.015625 -0.0625
v 0.25 0 -0.046875
v 0.25 0 -0.0625
v -0.25 0.015625 -0.046875
v -0.25 0.015625 -0.0625
v -0.25 0 -0.046875
v -0.25 0 -0.0625
v 0.25 0.015625 0.0625
v 0.25 0.015625 0.046875
v 0.25 0 0.0625
v 0.25 0 0.046875
v -0.25 0.015625 0.0625
v -0.25 0.015625 0.046875
v -0.25 0 0.0625
v -0.25 0 0.046875
v 0.25 0.546875 -0.046875
v 0.25 0.546875 -0.0625
v 0.25 0.53125 -0.046875
v 0.25 0.53125 -0.0625
v -0.25 0.546875 -0.046875
v -0.25 0.546875 -0.0625
v -0.25 0.53125 -0.046875
v -0.25 0.53125 -0.0625
v 0.25 0.546875 0.0625
v 0.25 0.546875 0.046875
v 0.25 0.53125 0.0625
v 0.25 0.53125 0.046875
v -0.25 0.546875 0.0625
v -0.25 0.546875 0.046875
v -0.25 0.53125 0.0625
v -0.25 0.53125 0.046875
vt 0.5 0.890625
vt 0.5 0.984375
vt 0 0.984375
vt 0 0.890625
vt 0.5 0.890625
vt 0.5 0.984375
vt 0 0.984375
vt 0 0.890625
vt 0.5 0.4375
vt 0.5 0.984375
vt 0 0.984375
vt 0 0.4375
vt 0.5 0.4375
vt 0.5 0.984375
vt 0 0.984375
vt 0 0.4375
vt 0.5 0.984375
vt 0.5 1
vt 0 1
vt 0 0.984375
vt 0.5 0.875
vt 0.5 0.890625
vt 0 0.890625
vt 0 0.875
vt 0.5 0.875
vt 0.5 0.890625
vt 0 0.890625
vt 0 0.875
vt 0.5 0.984375
vt 0.5 1
vt 0 1
vt 0 0.984375
vt 0.5 0.875
vt 0.5 0.890625
vt 0 0.890625
vt 0 0.875
vt 0.5 0.875
vt 0.5 0.890625
vt 0 0.890625
vt 0 0.875
vt 0.5 0.984375
vt 0.5 1
vt 0 1
vt 0 0.984375
vt 0.5 0.875
vt 0.5 0.890625
vt 0 0.890625
vt 0 0.875
vt 0.5 0.875
vt 0.5 0.890625
vt 0 0.890625
vt 0 0.875
vt 0.5 0.984375
vt 0.5 1
vt 0 1
vt 0 0.984375
vt 0.5 0.875
vt 0.5 0.890625
vt 0 0.890625
vt 0 0.875
vt 0.5 0.875
vt 0.5 0.890625
vt 0 0.890625
vt 0 0.875
vn 0 1 0
vn 0 -1 0
vn 0 0 1
vn 0 0 -1
vn 0 1 0
vn 0 -1 0
vn 0 0 -1
vn 0 1 0
vn 0 -1 0
vn 0 0 1
vn 0 1 0
vn 0 -1 0
vn 0 0 -1
vn 0 1 0
vn 0 -1 0
vn 0 0 1
usemtl m_b31cdfc4-27f1-0933-0a13-bd37009ad1f7
f 74/189/51 75/190/51 79/191/51
f 74/189/51 79/191/51 78/192/51
f 77/193/52 76/194/52 80/195/52
f 77/193/52 80/195/52 81/196/52
usemtl m_183ef9df-9aaf-9784-8308-59ed72349c6c
f 76/197/53 74/198/53 78/199/53
f 76/197/53 78/199/53 80/200/53
f 81/201/54 79/202/54 75/203/54
f 81/201/54 75/203/54 77/204/54
usemtl m_4c054f93-b2e4-c754-67f9-a97580b39769
f 82/205/55 83/206/55 87/207/55
f 82/205/55 87/207/55 86/208/55
f 85/209/56 84/210/56 88/211/56
f 85/209/56 88/211/56 89/212/56
f 89/213/57 87/214/57 83/215/57
f 89/213/57 83/215/57 85/216/57
f 90/217/58 91/218/58 95/219/58
f 90/217/58 95/219/58 94/220/58
f 93/221/59 92/222/59 96/223/59
f 93/221/59 96/223/59 97/224/59
f 92/225/60 90/226/60 94/227/60
f 92/225/60 94/227/60 96/228/60
f 98/229/61 99/230/61 103/231/61
f 98/229/61 103/231/61 102/232/61
f 101/233/62 100/234/62 104/235/62
f 101/233/62 104/235/62 105/236/62
f 105/237/63 103/238/63 99/239/63
f 105/237/63 99/239/63 101/240/63
f 106/241/64 107/242/64 111/243/64
f 106/241/64 111/243/64 110/244/64
f 109/245/65 108/246/65 112/247/65
f 109/245/65 112/247/65 113/248/65
f 108/249/66 106/250/66 110/251/66
f 108/249/66 110/251/66 112/252/66