# Made in Blockbench 5.1.4
mtllib beijing_sign_2_onwall.mtl

o main
v 0.25 0.765625 -0.40625
v 0.25 0.765625 -0.5
v 0.25 0.21875 -0.40625
v 0.25 0.21875 -0.5
v -0.25 0.765625 -0.40625
v -0.25 0.765625 -0.5
v -0.25 0.21875 -0.40625
v -0.25 0.21875 -0.5
v 0.25 0.234375 -0.390625
v 0.25 0.234375 -0.40625
v 0.25 0.21875 -0.390625
v 0.25 0.21875 -0.40625
v -0.25 0.234375 -0.390625
v -0.25 0.234375 -0.40625
v -0.25 0.21875 -0.390625
v -0.25 0.21875 -0.40625
v 0.25 0.765625 -0.390625
v 0.25 0.765625 -0.40625
v 0.25 0.75 -0.390625
v 0.25 0.75 -0.40625
v -0.25 0.765625 -0.390625
v -0.25 0.765625 -0.40625
v -0.25 0.75 -0.390625
v -0.25 0.75 -0.40625
vt 0.5 0.890625
vt 0.5 0.984375
vt 0 0.984375
vt 0 0.890625
vt 0.5 0.890625
vt 0.5 0.984375
vt 0 0.984375
vt 0 0.890625
vt 0.5 0.4375
vt 0.5 0.984375
vt 0 0.984375
vt 0 0.4375
vt 0.5 0.4375
vt 0.5 0.984375
vt 0 0.984375
vt 0 0.4375
vt 0.5 0.984375
vt 0.5 1
vt 0 1
vt 0 0.984375
vt 0.5 0.875
vt 0.5 0.890625
vt 0 0.890625
vt 0 0.875
vt 0.5 0.875
vt 0.5 0.890625
vt 0 0.890625
vt 0 0.875
vt 0.5 0.984375
vt 0.5 1
vt 0 1
vt 0 0.984375
vt 0.5 0.875
vt 0.5 0.890625
vt 0 0.890625
vt 0 0.875
vt 0.5 0.875
vt 0.5 0.890625
vt 0 0.890625
vt 0 0.875
vn 0 1 0
vn 0 -1 0
vn 0 0 1
vn 0 0 -1
vn 0 1 0
vn 0 -1 0
vn 0 0 1
vn 0 1 0
vn 0 -1 0
vn 0 0 1
usemtl m_cb429d96-1a4b-7c16-5770-213a93fbf8f5
f 1/1/1 2/2/1 6/3/1
f 1/1/1 6/3/1 5/4/1
f 4/5/2 3/6/2 7/7/2
f 4/5/2 7/7/2 8/8/2
usemtl m_ea5b743c-635d-0ea7-9c59-1fc4ee3138e5
f 3/9/3 1/10/3 5/11/3
f 3/9/3 5/11/3 7/12/3
f 8/13/4 6/14/4 2/15/4
f 8/13/4 2/15/4 4/16/4
usemtl m_111794b4-b7cd-925a-3bba-78ee987bf0c1
f 9/17/5 10/18/5 14/19/5
f 9/17/5 14/19/5 13/20/5
f 12/21/6 11/22/6 15/23/6
f 12/21/6 15/23/6 16/24/6
f 11/25/7 9/26/7 13/27/7
f 11/25/7 13/27/7 15/28/7
f 17/29/8 18/30/8 22/31/8
f 17/29/8 22/31/8 21/32/8
f 20/33/9 19/34/9 23/35/9
f 20/33/9 23/35/9 24/36/9
f 19/37/10 17/38/10 21/39/10
f 19/37/10 21/39/10 23/40/10
o sideb
v -0.03125 0.765625 -0.40625
v -0.03125 0.765625 -0.5
v -0.03125 0.21875 -0.40625
v -0.03125 0.21875 -0.5
v 0 0.765625 -0.40625
v 0 0.765625 -0.5
v 0 0.21875 -0.40625
v 0 0.21875 -0.5
v -0.03125 0.765625 -0.390625
v -0.03125 0.765625 -0.40625
v -0.03125 0.21875 -0.390625
v -0.03125 0.21875 -0.40625
v 0 0.765625 -0.390625
v 0 0.765625 -0.40625
v 0 0.21875 -0.390625
v 0 0.21875 -0.40625
vt 0.015625 0.984375
vt 0.109375 0.984375
vt 0.109375 0.4375
vt 0.015625 0.4375
vt 0.0625 0.984375
vt 0.09375 0.984375
vt 0.09375 0.890625
vt 0.0625 0.890625
vt 0.0625 0.984375
vt 0.09375 0.984375
vt 0.09375 0.890625
vt 0.0625 0.890625
vt 0 0.984375
vt 0.015625 0.984375
vt 0.015625 0.4375
vt 0 0.4375
vt 0.109375 0.984375
vt 0.125 0.984375
vt 0.125 0.4375
vt 0.109375 0.4375
vt 0.0625 0.890625
vt 0.09375 0.890625
vt 0.09375 0.875
vt 0.0625 0.875
vt 0.0625 1
vt 0.09375 1
vt 0.09375 0.984375
vt 0.0625 0.984375
vt 0.0625 0.984375
vt 0.09375 0.984375
vt 0.09375 0.4375
vt 0.0625 0.4375
vn -1 0 0
vn 0 1 0
vn 0 -1 0
vn -1 0 0
vn 1 0 0
vn 0 1 0
vn 0 -1 0
vn 0 0 1
usemtl m_b31cdfc4-27f1-0933-0a13-bd37009ad1f7
f 25/41/11 26/42/11 28/43/11
f 25/41/11 28/43/11 27/44/11
f 30/45/12 26/46/12 25/47/12
f 30/45/12 25/47/12 29/48/12
f 31/49/13 27/50/13 28/51/13
f 31/49/13 28/51/13 32/52/13
usemtl m_4c054f93-b2e4-c754-67f9-a97580b39769
f 33/53/14 34/54/14 36/55/14
f 33/53/14 36/55/14 35/56/14
f 38/57/15 37/58/15 39/59/15
f 38/57/15 39/59/15 40/60/15
f 38/61/16 34/62/16 33/63/16
f 38/61/16 33/63/16 37/64/16
f 39/65/17 35/66/17 36/67/17
f 39/65/17 36/67/17 40/68/17
f 37/69/18 33/70/18 35/71/18
f 37/69/18 35/71/18 39/72/18
o sidea
v 0.03125 0.765625 -0.40625
v 0.03125 0.765625 -0.5
v 0.03125 0.21875 -0.40625
v 0.03125 0.21875 -0.5
v 0 0.765625 -0.40625
v 0 0.765625 -0.5
v 0 0.21875 -0.40625
v 0 0.21875 -0.5
v 0.03125 0.765625 -0.390625
v 0.03125 0.765625 -0.40625
v 0.03125 0.21875 -0.390625
v 0.03125 0.21875 -0.40625
v 0 0.765625 -0.390625
v 0 0.765625 -0.40625
v 0 0.21875 -0.390625
v 0 0.21875 -0.40625
vt 0.109375 0.4375
vt 0.109375 0.984375
vt 0.015625 0.984375
vt 0.015625 0.4375
vt 0.09375 0.890625
vt 0.09375 0.984375
vt 0.0625 0.984375
vt 0.0625 0.890625
vt 0.09375 0.890625
vt 0.09375 0.984375
vt 0.0625 0.984375
vt 0.0625 0.890625
vt 0.015625 0.4375
vt 0.015625 0.984375
vt 0 0.984375
vt 0 0.4375
vt 0.125 0.4375
vt 0.125 0.984375
vt 0.109375 0.984375
vt 0.109375 0.4375
vt 0.09375 0.875
vt 0.09375 0.890625
vt 0.0625 0.890625
vt 0.0625 0.875
vt 0.09375 0.984375
vt 0.09375 1
vt 0.0625 1
vt 0.0625 0.984375
vt 0.09375 0.4375
vt 0.09375 0.984375
vt 0.0625 0.984375
vt 0.0625 0.4375
vn 1 0 0
vn 0 1 0
vn 0 -1 0
vn 1 0 0
vn -1 0 0
vn 0 1 0
vn 0 -1 0
vn 0 0 1
usemtl m_b31cdfc4-27f1-0933-0a13-bd37009ad1f7
f 44/73/19 42/74/19 41/75/19
f 44/73/19 41/75/19 43/76/19
f 41/77/20 42/78/20 46/79/20
f 41/77/20 46/79/20 45/80/20
f 44/81/21 43/82/21 47/83/21
f 44/81/21 47/83/21 48/84/21
usemtl m_4c054f93-b2e4-c754-67f9-a97580b39769
f 52/85/22 50/86/22 49/87/22
f 52/85/22 49/87/22 51/88/22
f 55/89/23 53/90/23 54/91/23
f 55/89/23 54/91/23 56/92/23
f 49/93/24 50/94/24 54/95/24
f 49/93/24 54/95/24 53/96/24
f 52/97/25 51/98/25 55/99/25
f 52/97/25 55/99/25 56/100/25
f 51/101/26 49/102/26 53/103/26
f 51/101/26 53/103/26 55/104/26