# Made in Blockbench 5.1.4
mtllib beijing_1_wide_l.mtl

o left
v 0.25 0.875 0.03125
v 0.25 0.875 -0.03125
v 0.25 0.25 0.03125
v 0.25 0.25 -0.03125
v 0.21875 0.875 0.03125
v 0.21875 0.875 -0.03125
v 0.21875 0.25 0.03125
v 0.21875 0.25 -0.03125
v 0.1875 0.875 0.875
v 0.1875 0.875 0.859375
v 0.1875 0.6875 0.875
v 0.1875 0.6875 0.859375
v 0 0.875 0.875
v 0 0.875 0.859375
v 0 0.6875 0.875
v 0 0.6875 0.859375
v 0.15625 0.6875 0.875
v 0.15625 0.5 0.875
v 0.03125 0.6875 0.875
v 0.03125 0.5 0.875
v 0.1875 0.6875 0.875
v 0.1875 0.6875 0.859375
v 0.1875 0.5 0.875
v 0.1875 0.5 0.859375
v 0.15625 0.6875 0.859375
v 0.15625 0.5 0.859375
v 0.03125 0.6875 0.859375
v 0.03125 0.5 0.859375
v 0 0.6875 0.875
v 0 0.6875 0.859375
v 0 0.5 0.875
v 0 0.5 0.859375
v 0.1875 0.5 0.875
v 0.1875 0.5 0.859375
v 0.1875 0 0.875
v 0.1875 0 0.859375
v 0 0.5 0.875
v 0 0.5 0.859375
v 0 0 0.875
v 0 0 0.859375
v 0.1875 1.125 0.4375
v 0.1875 1.125 -0.4375
v 0.1875 0.875 0.875
v 0.1875 0.875 -0.875
v 0 1.125 0.4375
v 0 1.125 -0.4375
v 0 0.875 0.875
v 0 0.875 -0.875
v 0 1.03125 -0.4375
v 0.1875 1.03125 -0.4375
v 0.1875 1.03125 0.4375
v 0 1.03125 0.4375
v 0.1875 0.875 0.859375
v 0.1875 0.875 -0.859375
v 0.1875 0 0.859375
v 0.1875 0 -0.859375
v 0 0.875 0.859375
v 0 0.875 -0.859375
v 0 0 0.859375
v 0 0 -0.859375
v 0.1875 0.875 -0.875
v 0.1875 0.875 -0.859375
v 0.1875 0.6875 -0.875
v 0.1875 0.6875 -0.859375
v 0 0.875 -0.875
v 0 0.875 -0.859375
v 0 0.6875 -0.875
v 0 0.6875 -0.859375
v 0.15625 0.6875 -0.875
v 0.15625 0.5 -0.875
v 0.03125 0.6875 -0.875
v 0.03125 0.5 -0.875
v 0.1875 0.6875 -0.875
v 0.1875 0.6875 -0.859375
v 0.1875 0.5 -0.875
v 0.1875 0.5 -0.859375
v 0.15625 0.6875 -0.859375
v 0.15625 0.5 -0.859375
v 0.03125 0.6875 -0.859375
v 0.03125 0.5 -0.859375
v 0 0.6875 -0.875
v 0 0.6875 -0.859375
v 0 0.5 -0.875
v 0 0.5 -0.859375
v 0.1875 0.5 -0.875
v 0.1875 0.5 -0.859375
v 0.1875 0 -0.875
v 0.1875 0 -0.859375
v 0 0.5 -0.875
v 0 0.5 -0.859375
v 0 0 -0.875
v 0 0 -0.859375
v 0.140625 1.375065 0.203451875
v 0.140625 1.3511475 0.145709375
v 0.140625 1.0863525 0.323040625
v 0.140625 1.062435 0.265298125
v 0.046875 1.375065 0.203451875
v 0.046875 1.3511475 0.145709375
v 0.046875 1.0863525 0.323040625
v 0.046875 1.062435 0.265298125
v 0.15625 1.390625 0.328125
v 0.15625 1.390625 -0.328125
v 0.15625 1.296875 0.328125
v 0.15625 1.296875 -0.328125
v 0.03125 1.390625 0.328125
v 0.03125 1.390625 -0.328125
v 0.03125 1.296875 0.328125
v 0.03125 1.296875 -0.328125
v 0.140625 1.3511475 -0.145709375
v 0.140625 1.375065 -0.203451875
v 0.140625 1.062435 -0.265298125
v 0.140625 1.0863525 -0.323040625
v 0.046875 1.3511475 -0.145709375
v 0.046875 1.375065 -0.203451875
v 0.046875 1.062435 -0.265298125
v 0.046875 1.0863525 -0.323040625
v 0.234375 0.9375 0.375
v 0.234375 0.9375 -0.375
v 0.234375 0 0.375
v 0.234375 0 -0.375
v 0.171875 0.9375 0.4375
v 0.171875 0.9375 -0.4375
v 0.171875 0 0.4375
v 0.171875 0 -0.4375
v 0.186875 0.875624375 0.438125
v 0.0006249999999999867 0.875624375 0.438125
v 0.0006249999999999867 0.875625 0.874375
v 0.0006249999999999867 0.948481875 0.840138125
v 0.186875 1.0138037500000001 0.773996875
v 0.0006249999999999867 1.0138037500000001 0.773996875
v 0.186875 1.06713875 0.68046
v 0.0006249999999999867 1.06713875 0.68046
v 0.186875 1.1048525 0.565900625
v 0.0006249999999999867 1.1048525 0.565900625
v 0.186875 1.124374375 0.43812625
v 0.0006249999999999867 1.124374375 0.43812625
v 0.186875 0.875625 0.874375
v 0.186875 0.948481875 0.840138125
v 0.155936875 1.124374375 0.43812625
v 0.155936875 1.1048525 0.565900625
v 0.031563125 1.124374375 0.43812625
v 0.031563125 1.1048525 0.565900625
v 0.155936875 1.06713875 0.68046
v 0.031563125 1.06713875 0.68046
v 0.12479124999999999 1.0138037500000001 0.773996875
v 0.06270875000000001 1.0138037500000001 0.773996875
v 0.12479124999999999 0.948481875 0.840138125
v 0.06270875000000001 0.948481875 0.840138125
v 0.12479124999999999 0.875625 0.874375
v 0.06270875000000001 0.875625 0.874375
v 0.031563125 1.119084375 0.472753125
v 0.0006249999999999867 1.119084375 0.472753125
v 0.155936875 1.119084375 0.472753125
v 0.186875 1.119084375 0.472753125
v 0.031563125 1.0840475 0.629096875
v 0.0006249999999999867 1.0840475 0.629096875
v 0.155936875 1.0840475 0.629096875
v 0.186875 1.0840475 0.629096875
v 0.155781875 1.0892275 0.565900625
v 0.155781875 1.10344125 0.47287
v 0.031718125000000014 1.10344125 0.47287
v 0.031718125000000014 1.0892275 0.565900625
v 0.155781875 1.06844875 0.629018125
v 0.031718125000000014 1.06844875 0.629018125
v 0.186875 0.875624375 -0.438125
v 0.0006249999999999867 0.875624375 -0.438125
v 0.0006249999999999867 0.875625 -0.874375
v 0.0006249999999999867 0.948481875 -0.840138125
v 0.186875 1.0138037500000001 -0.773996875
v 0.0006249999999999867 1.0138037500000001 -0.773996875
v 0.186875 1.06713875 -0.68046
v 0.0006249999999999867 1.06713875 -0.68046
v 0.186875 1.1048525 -0.565900625
v 0.0006249999999999867 1.1048525 -0.565900625
v 0.186875 1.124374375 -0.43812625
v 0.0006249999999999867 1.124374375 -0.43812625
v 0.186875 0.875625 -0.874375
v 0.186875 0.948481875 -0.840138125
v 0.155936875 1.124374375 -0.43812625
v 0.155936875 1.1048525 -0.565900625
v 0.031563125 1.124374375 -0.43812625
v 0.031563125 1.1048525 -0.565900625
v 0.155936875 1.06713875 -0.68046
v 0.031563125 1.06713875 -0.68046
v 0.12479124999999999 1.0138037500000001 -0.773996875
v 0.06270875000000001 1.0138037500000001 -0.773996875
v 0.12479124999999999 0.948481875 -0.840138125
v 0.06270875000000001 0.948481875 -0.840138125
v 0.12479124999999999 0.875625 -0.874375
v 0.06270875000000001 0.875625 -0.874375
v 0.031563125 1.119084375 -0.472753125
v 0.0006249999999999867 1.119084375 -0.472753125
v 0.155936875 1.119084375 -0.472753125
v 0.186875 1.119084375 -0.472753125
v 0.031563125 1.0840475 -0.629096875
v 0.0006249999999999867 1.0840475 -0.629096875
v 0.155936875 1.0840475 -0.629096875
v 0.186875 1.0840475 -0.629096875
v 0.155781875 1.0986025000000001 -0.565900625
v 0.155781875 1.11281625 -0.47287
v 0.031718125000000014 1.11281625 -0.47287
v 0.031718125000000014 1.0986025000000001 -0.565900625
v 0.155781875 1.0778237499999999 -0.629018125
v 0.031718125000000014 1.0778237499999999 -0.629018125
v 0.15625 0.5 0.8687499999999999
v 0.15625 0.6875 0.8687499999999999
v 0.03125 0.6875 0.8687499999999999
v 0.03125 0.5 0.8687499999999999
v 0.03125 0.6875 -0.8687499999999999
v 0.15625 0.6875 -0.8687499999999999
v 0.15625 0.5 -0.8687499999999999
v 0.03125 0.5 -0.8687499999999999
vt 0 0.375
vt 0 1
vt 0.0625 1
vt 0.0625 0.375
vt 0 0.375
vt 0 1
vt 0.0625 1
vt 0.0625 0.375
vt 0 0.9375
vt 0 1
vt 0.03125 1
vt 0.03125 0.9375
vt 0 0.9375
vt 0 1
vt 0.03125 1
vt 0.03125 0.9375
vt 0 0.375
vt 0 1
vt 0.03125 1
vt 0.03125 0.375
vt 0 0.375
vt 0 1
vt 0.03125 1
vt 0.03125 0.375
vt 4.375 -3.875
vt 4.375 -3
vt 3.75 -3
vt 3.75 -3.875
vt 5.1875 -3.875
vt 5.1875 -3
vt 4.5625 -3
vt 4.5625 -3.875
vt 4.375 -2.375
vt 4.375 -3
vt 4.5625 -3
vt 4.5625 -2.375
vt 4.5625 -3
vt 4.5625 -2.375
vt 4.75 -2.375
vt 4.75 -3
vt 5.375 -3.875
vt 5.375 -3
vt 5.1875 -3
vt 5.1875 -3.875
vt 1 -2.220446049250313e-16
vt 1 1
vt 0 1
vt 0 -2.220446049250313e-16
vt 4.375 -3.875
vt 4.375 -3
vt 3.75 -3
vt 3.75 -3.875
vt 5.1875 -3.875
vt 5.1875 -3
vt 4.5625 -3
vt 4.5625 -3.875
vt 4.375 -2.375
vt 4.375 -3
vt 4.5625 -3
vt 4.5625 -2.375
vt 4.5625 -3
vt 4.5625 -2.375
vt 4.75 -2.375
vt 4.75 -3
vt 5.375 -3.875
vt 5.375 -3
vt 5.1875 -3
vt 5.1875 -3.875
vt 4.375 -3.875
vt 4.375 -3
vt 3.75 -3
vt 3.75 -3.875
vt 5.1875 -3.875
vt 5.1875 -3
vt 4.5625 -3
vt 4.5625 -3.875
vt 4.375 -2.375
vt 4.375 -3
vt 4.5625 -3
vt 4.5625 -2.375
vt 4.5625 -3
vt 4.5625 -2.375
vt 4.75 -2.375
vt 4.75 -3
vt 5.375 -3.875
vt 5.375 -3
vt 5.1875 -3
vt 5.1875 -3.875
vt 4.375 -3.875
vt 4.375 -3
vt 3.75 -3
vt 3.75 -3.875
vt 5.1875 -3.875
vt 5.1875 -3
vt 4.5625 -3
vt 4.5625 -3.875
vt 4.375 -2.375
vt 4.375 -3
vt 4.5625 -3
vt 4.5625 -2.375
vt 4.5625 -3
vt 4.5625 -2.375
vt 4.75 -2.375
vt 4.75 -3
vt 5.375 -3.875
vt 5.375 -3
vt 5.1875 -3
vt 5.1875 -3.875
vt 1.25 -1
vt 1.25 -1.421875
vt 2.125 -1.421875
vt 2.125 -1
vt 2.3125 -1
vt 2.3125 -1.421875
vt 3.1875 -1.421875
vt 3.1875 -1
vt 2.125 -0.125
vt 2.125 -1
vt 2.3125 -1
vt 2.3125 -0.125
vt 2.3125 -1
vt 2.3125 -0.125
vt 2.5 -0.125
vt 2.5 -1
vt 3.1875 -1
vt 3.1875 -1.421875
vt 3.375 -1.421875
vt 3.375 -1
vt 2.125 -1
vt 2.125 -1.421875
vt 2.3125 -1.421875
vt 2.3125 -1
vt 2.3125 -2.125
vt 2.3125 -1.421875
vt 2.125 -1.421875
vt 2.125 -2.125
vt 2.125 -2.125
vt 2.125 -1.421875
vt 1.25 -1.421875
vt 1.25 -2.125
vt 3.375 -2.125
vt 3.375 -1.421875
vt 3.1875 -1.421875
vt 3.1875 -2.125
vt 3.1875 -2.125
vt 3.1875 -1.421875
vt 2.3125 -1.421875
vt 2.3125 -2.125
vt 4.375 -3.875
vt 4.375 -3
vt 3.75 -3
vt 3.75 -3.875
vt 5.1875 -3.875
vt 5.1875 -3
vt 4.5625 -3
vt 4.5625 -3.875
vt 4.375 -2.375
vt 4.375 -3
vt 4.5625 -3
vt 4.5625 -2.375
vt 4.5625 -3
vt 4.5625 -2.375
vt 4.75 -2.375
vt 4.75 -3
vt 5.375 -3.875
vt 5.375 -3
vt 5.1875 -3
vt 5.1875 -3.875
vt 4.5625 -3.875
vt 4.5625 -3
vt 4.375 -3
vt 4.375 -3.875
vt 3.75 -3
vt 4.375 -3
vt 4.375 -3.875
vt 3.75 -3.875
vt 4.5625 -3
vt 5.1875 -3
vt 5.1875 -3.875
vt 4.5625 -3.875
vt 4.5625 -3
vt 4.375 -3
vt 4.375 -2.375
vt 4.5625 -2.375
vt 4.75 -2.375
vt 4.5625 -2.375
vt 4.5625 -3
vt 4.75 -3
vt 5.1875 -3
vt 5.375 -3
vt 5.375 -3.875
vt 5.1875 -3.875
vt 1.0000000000000002 1
vt 0 1
vt 0 -2.220446049250313e-16
vt 1.0000000000000002 -2.220446049250313e-16
vt 3.75 -3
vt 4.375 -3
vt 4.375 -3.875
vt 3.75 -3.875
vt 4.5625 -3
vt 5.1875 -3
vt 5.1875 -3.875
vt 4.5625 -3.875
vt 4.5625 -3
vt 4.375 -3
vt 4.375 -2.375
vt 4.5625 -2.375
vt 4.75 -2.375
vt 4.5625 -2.375
vt 4.5625 -3
vt 4.75 -3
vt 5.1875 -3
vt 5.375 -3
vt 5.375 -3.875
vt 5.1875 -3.875
vt 3.75 -3
vt 4.375 -3
vt 4.375 -3.875
vt 3.75 -3.875
vt 4.5625 -3
vt 5.1875 -3
vt 5.1875 -3.875
vt 4.5625 -3.875
vt 4.5625 -3
vt 4.375 -3
vt 4.375 -2.375
vt 4.5625 -2.375
vt 4.75 -2.375
vt 4.5625 -2.375
vt 4.5625 -3
vt 4.75 -3
vt 5.1875 -3
vt 5.375 -3
vt 5.375 -3.875
vt 5.1875 -3.875
vt 3.75 -3
vt 4.375 -3
vt 4.375 -3.875
vt 3.75 -3.875
vt 4.5625 -3
vt 5.1875 -3
vt 5.1875 -3.875
vt 4.5625 -3.875
vt 4.5625 -3
vt 4.375 -3
vt 4.375 -2.375
vt 4.5625 -2.375
vt 4.75 -2.375
vt 4.5625 -2.375
vt 4.5625 -3
vt 4.75 -3
vt 5.1875 -3
vt 5.375 -3
vt 5.375 -3.875
vt 5.1875 -3.875
vt 2.5 0.4375
vt 2.5 0.75
vt 2.5625 0.75
vt 2.5625 0.4375
vt 2.375 0.4375
vt 2.375 0.75
vt 2.4375 0.75
vt 2.4375 0.4375
vt 2.5 0.8125
vt 2.5 0.75
vt 2.4375 0.75
vt 2.4375 0.8125
vt 2.5625 0.75
vt 2.5625 0.8125
vt 2.5 0.8125
vt 2.5 0.75
vt 2.5625 0.4375
vt 2.5625 0.75
vt 2.625 0.75
vt 2.625 0.4375
vt 2.4375 0.4375
vt 2.4375 0.75
vt 2.5 0.75
vt 2.5 0.4375
vt 5 0.1875
vt 5 0.25
vt 5.75 0.25
vt 5.75 0.1875
vt 4.125 0.1875
vt 4.125 0.25
vt 4.875 0.25
vt 4.875 0.1875
vt 5 1
vt 5 0.25
vt 4.875 0.25
vt 4.875 1
vt 5.125 0.25
vt 5.125 1
vt 5 1
vt 5 0.25
vt 5.75 0.1875
vt 5.75 0.25
vt 5.875 0.25
vt 5.875 0.1875
vt 4.875 0.1875
vt 4.875 0.25
vt 5 0.25
vt 5 0.1875
vt 2.5 0.4375
vt 2.5 0.75
vt 2.5625 0.75
vt 2.5625 0.4375
vt 2.375 0.4375
vt 2.375 0.75
vt 2.4375 0.75
vt 2.4375 0.4375
vt 2.5 0.8125
vt 2.5 0.75
vt 2.4375 0.75
vt 2.4375 0.8125
vt 2.5625 0.75
vt 2.5625 0.8125
vt 2.5 0.8125
vt 2.5 0.75
vt 2.5625 0.4375
vt 2.5625 0.75
vt 2.625 0.75
vt 2.625 0.4375
vt 2.4375 0.4375
vt 2.4375 0.75
vt 2.5 0.75
vt 2.5 0.4375
vt 3.25 -0.6875
vt 3.25 0.25
vt 2.5 0.25
vt 2.5 -0.6875
vt 3.25 1
vt 3.25 0.25
vt 3.3125 0.25
vt 3.3125 1
vt 3.3125 0.25
vt 3.3125 1
vt 3.375 1
vt 3.375 0.25
vt 4.125 -0.6875
vt 4.125 0.25
vt 4.0625 0.25
vt 4.0625 -0.6875
vt 3.3125 -0.6875
vt 3.3125 0.25
vt 3.25 0.25
vt 3.25 -0.6875
vt 0 0.495685625
vt 0.13052875 0.512870625
vt 0 1
vt 0 0.495685625
vt 0.13052375 0.512869375
vt 0 1
vt 0 1
vt 0 0.833333125
vt 0.13165 0.833333125
vt 0.13165 1
vt 0 0.495685625
vt 0.130528125 0.512870625
vt 0 1
vt 0 0.86947625
vt 0.49661 0.927996875
vt 0.487130625 1
vt 0 1
vt 0.058520625 0.50339
vt 0.13052375 0.512869375
vt 0 0.86947125
vt 0.49178625 0.96462625
vt 0.487129375 1
vt 0 1
vt 0.095155 0.5082131249999999
vt 0.13052875 0.512870625
vt 0 1
vt 0 0.833333125
vt 0.13165 0.833333125
vt 0.13165 1
vt 0 1
vt 0 0.833333125
vt 0.13165 0.833333125
vt 0.13165 1
vt 0.13165 1
vt 0.059025625 1
vt 0.059025625 0.833333125
vt 0.13165 0.833333125
vt 0.13165 1
vt 0.0959725 1
vt 0.0959725 0.833333125
vt 0.13165 0.833333125
vt 0.504314375 0.869471875
vt 0.487129375 1
vt 0 0.869471875
vt 0.504314375 0.86947625
vt 0.487130625 1
vt 0 0.86947625
vt 0.504314375 0.86947125
vt 0.487129375 1
vt 0 0.86947125
vt 0.13165 0.666666875
vt 0.0959725 0.666666875
vt 0.0959725 0.5
vt 0.13165 0.5
vt 0.13165 0.833333125
vt 0.0959725 0.833333125
vt 0.0959725 0.666666875
vt 0.13165 0.666666875
vt 0.13165 0.666666875
vt 0.059025625 0.666666875
vt 0.059025625 0.5
vt 0.13165 0.5
vt 0 0.421875
vt 0 0.0703125
vt 1 0.0703125
vt 1 0.421875
vt 0.13165 0.5
vt 0.13165 0.666666875
vt 0 0.666666875
vt 0 0.5
vt 0.13165 0.666666875
vt 0.13165 0.833333125
vt 0 0.833333125
vt 0 0.666666875
vt 0.13165 0.5
vt 0.13165 0.666666875
vt 0 0.666666875
vt 0 0.5
vt 0.13165 0.666666875
vt 0.13165 0.833333125
vt 0 0.833333125
vt 0 0.666666875
vt 0.13165 0.5
vt 0.13165 0.666666875
vt 0 0.666666875
vt 0 0.5
vt 0.13165 0.666666875
vt 0.13165 0.833333125
vt 0 0.833333125
vt 0 0.666666875
vt 0 0.833333125
vt 0.0959725 0.833333125
vt 0.0959725 1
vt 0 1
vt 0 0.495685625
vt 0.095155 0.5082131249999999
vt 0 1
vt 1 0.4140625
vt 1 1
vt 0 1
vt 0 0.4140625
vt 0 0.5
vt 0.0959725 0.5
vt 0.0959725 0.666666875
vt 0 0.666666875
vt 0.504314375 0.86947125
vt 0.49178625 0.96462625
vt 0 0.86947125
vt 0 0.833333125
vt 0.059025625 0.833333125
vt 0.059025625 1
vt 0 1
vt 0 0.495685625
vt 0.058520625 0.50339
vt 0 1
vt 0 0.666666875
vt 0.059025625 0.666666875
vt 0.059025625 0.833333125
vt 0 0.833333125
vt 0 0.5
vt 0.059025625 0.5
vt 0.059025625 0.666666875
vt 0 0.666666875
vt 0.504314375 0.86947625
vt 0.49661 0.927996875
vt 0 0.86947625
vt 0.0625 0.68738125
vt 0.0625 0.593
vt 0.06265625 0.593
vt 0.06265625 0.6875
vt 0.06265625 0.74988125
vt 0.18713125 0.74988125
vt 0.1872875 0.75
vt 0.0625 0.75
vt 0.06265625 0.7805
vt 0.06265625 0.87488125
vt 0.0625 0.875
vt 0.0625 0.7805
vt 0.12515625 0.80834375
vt 0.12515625 0.875
vt 0.125 0.875
vt 0.125 0.8082625
vt 0.12463125 0.75
vt 0.00015625 0.75
vt 0 0.74991875
vt 0.1247875 0.74991875
vt 0.125 0.6875
vt 0.125 0.62084375
vt 0.12515625 0.6207625
vt 0.12515625 0.6875
vt 0.13052875 0.512870625
vt 0 0.495685625
vt 0 1
vt 0.13052375 0.512869375
vt 0 0.495685625
vt 0 1
vt 0.13165 0.833333125
vt 0 0.833333125
vt 0 1
vt 0.13165 1
vt 0.130528125 0.512870625
vt 0 0.495685625
vt 0 1
vt 0.49661 0.927996875
vt 0 0.86947625
vt 0.487130625 1
vt 0.058520625 0.50339
vt 0 1
vt 0.13052375 0.512869375
vt 0.49178625 0.96462625
vt 0 0.86947125
vt 0.487129375 1
vt 0.095155 0.5082131249999999
vt 0 1
vt 0.13052875 0.512870625
vt 0.13165 0.833333125
vt 0 0.833333125
vt 0 1
vt 0.13165 1
vt 0.13165 0.833333125
vt 0 0.833333125
vt 0 1
vt 0.13165 1
vt 0.059025625 0.833333125
vt 0.059025625 1
vt 0.13165 1
vt 0.13165 0.833333125
vt 0.0959725 0.833333125
vt 0.0959725 1
vt 0.13165 1
vt 0.13165 0.833333125
vt 0.487129375 1
vt 0.504314375 0.869471875
vt 0 0.869471875
vt 0.487130625 1
vt 0.504314375 0.86947625
vt 0 0.86947625
vt 0.487129375 1
vt 0.504314375 0.86947125
vt 0 0.86947125
vt 0.0959725 0.5
vt 0.0959725 0.666666875
vt 0.13165 0.666666875
vt 0.13165 0.5
vt 0.0959725 0.666666875
vt 0.0959725 0.833333125
vt 0.13165 0.833333125
vt 0.13165 0.666666875
vt 0.059025625 0.5
vt 0.059025625 0.666666875
vt 0.13165 0.666666875
vt 0.13165 0.5
vt 0 0.0703125
vt 1 0.0703125
vt 1 0.421875
vt 0 0.421875
vt 0 0.666666875
vt 0.13165 0.666666875
vt 0.13165 0.5
vt 0 0.5
vt 0 0.833333125
vt 0.13165 0.833333125
vt 0.13165 0.666666875
vt 0 0.666666875
vt 0 0.666666875
vt 0.13165 0.666666875
vt 0.13165 0.5
vt 0 0.5
vt 0 0.833333125
vt 0.13165 0.833333125
vt 0.13165 0.666666875
vt 0 0.666666875
vt 0 0.666666875
vt 0.13165 0.666666875
vt 0.13165 0.5
vt 0 0.5
vt 0 0.833333125
vt 0.13165 0.833333125
vt 0.13165 0.666666875
vt 0 0.666666875
vt 0.0959725 1
vt 0.0959725 0.833333125
vt 0 0.833333125
vt 0 1
vt 0.095155 0.5082131249999999
vt 0 0.495685625
vt 0 1
vt 1 1
vt 0 1
vt 0 0.4140625
vt 1 0.4140625
vt 0.0959725 0.666666875
vt 0.0959725 0.5
vt 0 0.5
vt 0 0.666666875
vt 0.49178625 0.96462625
vt 0.504314375 0.86947125
vt 0 0.86947125
vt 0.059025625 1
vt 0.059025625 0.833333125
vt 0 0.833333125
vt 0 1
vt 0.058520625 0.50339
vt 0 0.495685625
vt 0 1
vt 0.059025625 0.833333125
vt 0.059025625 0.666666875
vt 0 0.666666875
vt 0 0.833333125
vt 0.059025625 0.666666875
vt 0.059025625 0.5
vt 0 0.5
vt 0 0.666666875
vt 0.49661 0.927996875
vt 0.504314375 0.86947625
vt 0 0.86947625
vt 0.06265625 0.593
vt 0.0625 0.593
vt 0.0625 0.68738125
vt 0.06265625 0.6875
vt 0.1872875 0.75
vt 0.18713125 0.74988125
vt 0.06265625 0.74988125
vt 0.0625 0.75
vt 0.0625 0.875
vt 0.06265625 0.87488125
vt 0.06265625 0.7805
vt 0.0625 0.7805
vt 0.125 0.875
vt 0.12515625 0.875
vt 0.12515625 0.80834375
vt 0.125 0.8082625
vt 0 0.74991875
vt 0.00015625 0.75
vt 0.12463125 0.75
vt 0.1247875 0.74991875
vt 0.12515625 0.6207625
vt 0.125 0.62084375
vt 0.125 0.6875
vt 0.12515625 0.6875
vt 1 0
vt 1 0
vt 1 0
vt 1 0
vt 0.875 1
vt 1 1
vt 1 1
vt 0.875 1
vt 0 0
vt 0 0
vt 0 0
vt 0 0
vt 1 0
vt 0.875 0
vt 0.875 0
vt 1 0
vt 1 1
vt 0.875 1
vt 0.875 1
vt 1 1
vt 1 0
vt 1 0
vt 1 0
vt 1 0
vt 0.875 0
vt 1 0
vt 1 0
vt 0.875 0
vt 0 0
vt 0 0
vt 0 0
vt 0 0
vn 1 0 0
vn -1 0 0
vn 0 1 0
vn 0 -1 0
vn 0 0 1
vn 0 0 -1
vn 1 0 0
vn -1 0 0
vn 0 1 0
vn 0 -1 0
vn 0 0 1
vn 0 0 1
vn 1 0 0
vn -1 0 0
vn 0 1 0
vn 0 -1 0
vn 0 0 1
vn 1 0 0
vn -1 0 0
vn 0 1 0
vn 0 -1 0
vn 0 0 1
vn 1 0 0
vn -1 0 0
vn 0 1 0
vn 0 -1 0
vn 0 0 1
vn 1 0 0
vn -1 0 0
vn 0 1 0
vn 0 -1 0
vn 0 0 1
vn 0 0 -1
vn 0 0.9417419115948374 -0.33633639699815626
vn 1 0 0
vn 0 0.9417419115948374 0.33633639699815626
vn -1 0 0
vn 1 0 0
vn -1 0 0
vn 0 1 0
vn 0 -1 0
vn 0 0 1
vn 0 0 -1
vn 1 0 0
vn -1 0 0
vn 0 1 0
vn 0 -1 0
vn 0 0 -1
vn 0 0 -1
vn 1 0 0
vn -1 0 0
vn 0 1 0
vn 0 -1 0
vn 0 0 -1
vn 1 0 0
vn -1 0 0
vn 0 1 0
vn 0 -1 0
vn 0 0 -1
vn 1 0 0
vn -1 0 0
vn 0 1 0
vn 0 -1 0
vn 0 0 -1
vn 1 0 0
vn -1 0 0
vn 0 0.923880814493685 -0.38268033737113466
vn 0 -0.923880814493685 0.38268033737113444
vn 0 0.3826837515893425 0.9238794002842072
vn 0 -0.38268375158934237 -0.9238794002842073
vn 1 0 0
vn -1 0 0
vn 0 1 0
vn 0 -1 0
vn 0 0 1
vn 0 0 -1
vn 1 0 0
vn -1 0 0
vn 0 0.923880814493685 0.38268033737113466
vn 0 -0.923880814493685 -0.38268033737113444
vn 0 -0.38268375158934237 0.9238794002842073
vn 0 0.3826837515893425 -0.9238794002842072
vn 1 0 0
vn 0 1 0
vn 0 -1 0
vn 0.7071067811865476 0 0.7071067811865476
vn 0.7071067811865476 0 -0.7071067811865476
vn -1 0 0
vn -1 0 0
vn 0 0.8687014189709803 0.49533609264599887
vn -1 0 0
vn 1 0 0
vn -1 0 0
vn 1 0 0
vn -1 0 0
vn 0 0.4253015531565592 0.9050517050879573
vn 0 0.7115001716461252 0.7026859225482851
vn 0 0.9498509904828341 0.3127028875446777
vn 0 0.9885308075733148 0.1510193447160003
vn 1 0 0
vn 1 0 0
vn 1 0 0
vn 0 0.9885308075733148 0.15101934471600026
vn 0 0.9885308075733149 0.1510193447160003
vn 0 0.949850990482834 0.31270288754467773
vn 0 0.9498524409860493 0.3126984815326804
vn 0 0.8687014189709803 0.4953360926459988
vn 0 0.8687014189709802 0.4953360926459988
vn 0 0.7115001716461252 0.7026859225482851
vn 0 0.7115001716461251 0.7026859225482851
vn 0 0.4253015531565592 0.9050517050879573
vn 0 0.42530155315655915 0.9050517050879572
vn 0 0.9885282872400257 0.1510358411977148
vn -1 0 0
vn 0 0.9885287121469605 0.15103306015926346
vn 0 0.9885282872400257 0.1510358411977148
vn 1 0 0
vn 0 0.9498544864996323 0.3126922680152483
vn -1 0 0
vn 0 0.9498544864996324 0.3126922680152483
vn 0 0.9498544864996323 0.3126922680152483
vn 1 0 0
vn -0.9999496520290679 0.009919500548129394 0.0015155579242424133
vn 0 0.007471124734180292 0.9999720907581403
vn 0.999949653757127 0.009919330320830849 0.001515531915943913
vn 0.999945468739412 0.009919459049896008 0.0032655596266174605
vn 0 0.005048417114325139 -0.9999872566611238
vn -0.9999454664716209 0.009919665302374047 0.0032656275264658077
vn -1 0 0
vn -1 0 0
vn 0 0.8687014189709803 -0.4953360926459988
vn -1 0 0
vn 1 0 0
vn -1 0 0
vn 1 0 0
vn -1 0 0
vn 0 0.4253015531565592 -0.9050517050879573
vn 0 0.7115001716461252 -0.7026859225482851
vn 0 0.9498509904828341 -0.3127028875446777
vn 0 0.9885308075733148 -0.1510193447160003
vn 1 0 0
vn 1 0 0
vn 1 0 0
vn 0 0.9885308075733148 -0.15101934471600026
vn 0 0.9885308075733149 -0.1510193447160003
vn 0 0.949850990482834 -0.31270288754467773
vn 0 0.9498524409860493 -0.3126984815326804
vn 0 0.8687014189709803 -0.4953360926459988
vn 0 0.8687014189709802 -0.4953360926459988
vn 0 0.7115001716461252 -0.7026859225482851
vn 0 0.7115001716461251 -0.7026859225482851
vn 0 0.4253015531565592 -0.9050517050879573
vn 0 0.42530155315655915 -0.9050517050879572
vn 0 0.9885282872400257 -0.1510358411977148
vn -1 0 0
vn 0 0.9885287121469605 -0.15103306015926346
vn 0 0.9885282872400257 -0.1510358411977148
vn 1 0 0
vn 0 0.9498544864996323 -0.3126922680152483
vn -1 0 0
vn 0 0.9498544864996324 -0.3126922680152483
vn 0 0.9498544864996323 -0.3126922680152483
vn 1 0 0
vn -0.9996854498901472 0.024792199157278334 -0.003787893726090364
vn 0 0.018642686337029105 -0.9998262100215914
vn 0.9996854768686323 0.024791136107079188 -0.003787731307211978
vn 0.9996593259086157 0.024791551282536357 -0.008161562897960226
vn 0 0.012652130426083034 0.9999199585945274
vn -0.9996592905031334 0.024792839294311367 -0.00816198692100724
vn -1 0 0
vn 0 -1 0
vn 1 0 0
vn 0 1 0
vn 0 -1 0
vn -1 0 0
vn 0 1 0
vn 1 0 0
usemtl m_c4ef035f-6b10-f66f-55f4-3296f0e79dee
f 4/1/1 2/2/1 1/3/1
f 4/1/1 1/3/1 3/4/1
f 7/5/2 5/6/2 6/7/2
f 7/5/2 6/7/2 8/8/2
f 1/9/3 2/10/3 6/11/3
f 1/9/3 6/11/3 5/12/3
f 4/13/4 3/14/4 7/15/4
f 4/13/4 7/15/4 8/16/4
f 3/17/5 1/18/5 5/19/5
f 3/17/5 5/19/5 7/20/5
f 8/21/6 6/22/6 2/23/6
f 8/21/6 2/23/6 4/24/6
usemtl m_fae77e0a-5028-f195-caba-20d89c450eac
f 12/25/7 10/26/7 9/27/7
f 12/25/7 9/27/7 11/28/7
f 15/29/8 13/30/8 14/31/8
f 15/29/8 14/31/8 16/32/8
f 9/33/9 10/34/9 14/35/9
f 9/33/9 14/35/9 13/36/9
f 12/37/10 11/38/10 15/39/10
f 12/37/10 15/39/10 16/40/10
f 11/41/11 9/42/11 13/43/11
f 11/41/11 13/43/11 15/44/11
usemtl m_ce8b381d-1a9b-f02a-1bd0-823c7d8a42df
f 205/45/12 206/46/12 207/47/12
f 205/45/12 207/47/12 208/48/12
usemtl m_fae77e0a-5028-f195-caba-20d89c450eac
f 24/49/13 22/50/13 21/51/13
f 24/49/13 21/51/13 23/52/13
f 18/53/14 17/54/14 25/55/14
f 18/53/14 25/55/14 26/56/14
f 21/57/15 22/58/15 25/59/15
f 21/57/15 25/59/15 17/60/15
f 24/61/16 23/62/16 18/63/16
f 24/61/16 18/63/16 26/64/16
f 23/65/17 21/66/17 17/67/17
f 23/65/17 17/67/17 18/68/17
f 28/69/18 27/70/18 19/71/18
f 28/69/18 19/71/18 20/72/18
f 31/73/19 29/74/19 30/75/19
f 31/73/19 30/75/19 32/76/19
f 19/77/20 27/78/20 30/79/20
f 19/77/20 30/79/20 29/80/20
f 28/81/21 20/82/21 31/83/21
f 28/81/21 31/83/21 32/84/21
f 20/85/22 19/86/22 29/87/22
f 20/85/22 29/87/22 31/88/22
f 36/89/23 34/90/23 33/91/23
f 36/89/23 33/91/23 35/92/23
f 39/93/24 37/94/24 38/95/24
f 39/93/24 38/95/24 40/96/24
f 33/97/25 34/98/25 38/99/25
f 33/97/25 38/99/25 37/100/25
f 36/101/26 35/102/26 39/103/26
f 36/101/26 39/103/26 40/104/26
f 35/105/27 33/106/27 37/107/27
f 35/105/27 37/107/27 39/108/27
f 41/109/28 51/110/28 50/111/28
f 41/109/28 50/111/28 42/112/28
f 46/113/29 49/114/29 52/115/29
f 46/113/29 52/115/29 45/116/29
f 41/117/30 42/118/30 46/119/30
f 41/117/30 46/119/30 45/120/30
f 44/121/31 43/122/31 47/123/31
f 44/121/31 47/123/31 48/124/31
f 45/125/32 52/126/32 51/127/32
f 45/125/32 51/127/32 41/128/32
f 42/129/33 50/130/33 49/131/33
f 42/129/33 49/131/33 46/132/33
f 48/133/34 49/134/34 50/135/34
f 48/133/34 50/135/34 44/136/34
f 44/137/35 50/138/35 51/139/35
f 44/137/35 51/139/35 43/140/35
f 43/141/36 51/142/36 52/143/36
f 43/141/36 52/143/36 47/144/36
f 47/145/37 52/146/37 49/147/37
f 47/145/37 49/147/37 48/148/37
f 56/149/38 54/150/38 53/151/38
f 56/149/38 53/151/38 55/152/38
f 59/153/39 57/154/39 58/155/39
f 59/153/39 58/155/39 60/156/39
f 53/157/40 54/158/40 58/159/40
f 53/157/40 58/159/40 57/160/40
f 56/161/41 55/162/41 59/163/41
f 56/161/41 59/163/41 60/164/41
f 55/165/42 53/166/42 57/167/42
f 55/165/42 57/167/42 59/168/42
f 60/169/43 58/170/43 54/171/43
f 60/169/43 54/171/43 56/172/43
f 61/173/44 62/174/44 64/175/44
f 61/173/44 64/175/44 63/176/44
f 66/177/45 65/178/45 67/179/45
f 66/177/45 67/179/45 68/180/45
f 66/181/46 62/182/46 61/183/46
f 66/181/46 61/183/46 65/184/46
f 67/185/47 63/186/47 64/187/47
f 67/185/47 64/187/47 68/188/47
f 65/189/48 61/190/48 63/191/48
f 65/189/48 63/191/48 67/192/48
usemtl m_ce8b381d-1a9b-f02a-1bd0-823c7d8a42df
f 209/193/49 210/194/49 211/195/49
f 209/193/49 211/195/49 212/196/49
usemtl m_fae77e0a-5028-f195-caba-20d89c450eac
f 73/197/50 74/198/50 76/199/50
f 73/197/50 76/199/50 75/200/50
f 77/201/51 69/202/51 70/203/51
f 77/201/51 70/203/51 78/204/51
f 77/205/52 74/206/52 73/207/52
f 77/205/52 73/207/52 69/208/52
f 70/209/53 75/210/53 76/211/53
f 70/209/53 76/211/53 78/212/53
f 69/213/54 73/214/54 75/215/54
f 69/213/54 75/215/54 70/216/54
f 71/217/55 79/218/55 80/219/55
f 71/217/55 80/219/55 72/220/55
f 82/221/56 81/222/56 83/223/56
f 82/221/56 83/223/56 84/224/56
f 82/225/57 79/226/57 71/227/57
f 82/225/57 71/227/57 81/228/57
f 83/229/58 72/230/58 80/231/58
f 83/229/58 80/231/58 84/232/58
f 81/233/59 71/234/59 72/235/59
f 81/233/59 72/235/59 83/236/59
f 85/237/60 86/238/60 88/239/60
f 85/237/60 88/239/60 87/240/60
f 90/241/61 89/242/61 91/243/61
f 90/241/61 91/243/61 92/244/61
f 90/245/62 86/246/62 85/247/62
f 90/245/62 85/247/62 89/248/62
f 91/249/63 87/250/63 88/251/63
f 91/249/63 88/251/63 92/252/63
f 89/253/64 85/254/64 87/255/64
f 89/253/64 87/255/64 91/256/64
f 96/257/65 94/258/65 93/259/65
f 96/257/65 93/259/65 95/260/65
f 99/261/66 97/262/66 98/263/66
f 99/261/66 98/263/66 100/264/66
f 93/265/67 94/266/67 98/267/67
f 93/265/67 98/267/67 97/268/67
f 96/269/68 95/270/68 99/271/68
f 96/269/68 99/271/68 100/272/68
f 95/273/69 93/274/69 97/275/69
f 95/273/69 97/275/69 99/276/69
f 100/277/70 98/278/70 94/279/70
f 100/277/70 94/279/70 96/280/70
f 104/281/71 102/282/71 101/283/71
f 104/281/71 101/283/71 103/284/71
f 107/285/72 105/286/72 106/287/72
f 107/285/72 106/287/72 108/288/72
f 101/289/73 102/290/73 106/291/73
f 101/289/73 106/291/73 105/292/73
f 104/293/74 103/294/74 107/295/74
f 104/293/74 107/295/74 108/296/74
f 103/297/75 101/298/75 105/299/75
f 103/297/75 105/299/75 107/300/75
f 108/301/76 106/302/76 102/303/76
f 108/301/76 102/303/76 104/304/76
f 112/305/77 110/306/77 109/307/77
f 112/305/77 109/307/77 111/308/77
f 115/309/78 113/310/78 114/311/78
f 115/309/78 114/311/78 116/312/78
f 109/313/79 110/314/79 114/315/79
f 109/313/79 114/315/79 113/316/79
f 112/317/80 111/318/80 115/319/80
f 112/317/80 115/319/80 116/320/80
f 111/321/81 109/322/81 113/323/81
f 111/321/81 113/323/81 115/324/81
f 116/325/82 114/326/82 110/327/82
f 116/325/82 110/327/82 112/328/82
f 120/329/83 118/330/83 117/331/83
f 120/329/83 117/331/83 119/332/83
f 117/333/84 118/334/84 122/335/84
f 117/333/84 122/335/84 121/336/84
f 120/337/85 119/338/85 123/339/85
f 120/337/85 123/339/85 124/340/85
f 119/341/86 117/342/86 121/343/86
f 119/341/86 121/343/86 123/344/86
f 124/345/87 122/346/87 118/347/87
f 124/345/87 118/347/87 120/348/87
usemtl m_98c56db7-14fd-b5be-a261-db7625093511
f 127/349/88 128/350/88 126/351/88
f 128/352/89 130/353/89 126/354/89
f 130/355/90 146/356/90 144/357/90
f 130/355/90 144/357/90 132/358/90
f 130/359/91 132/360/91 126/361/91
f 125/362/92 158/363/92 131/364/92
f 126/365/93 156/366/93 134/367/93
f 125/368/94 154/369/94 133/370/94
f 126/371/95 152/372/95 136/373/95
f 127/374/96 150/375/96 148/376/96
f 127/374/96 148/376/96 128/377/96
f 128/378/97 148/379/97 146/380/97
f 128/378/97 146/380/97 130/381/97
f 134/382/98 156/383/98 155/384/98
f 134/382/98 155/384/98 142/385/98
f 136/386/99 152/387/99 151/388/99
f 136/386/99 151/388/99 141/389/99
f 131/390/100 129/391/100 125/392/100
f 129/393/101 138/394/101 125/395/101
f 138/396/102 137/397/102 125/398/102
f 139/399/103 153/400/103 154/401/103
f 139/399/103 154/401/103 135/402/103
f 141/403/104 151/404/104 153/405/104
f 141/403/104 153/405/104 139/406/104
f 140/407/105 157/408/105 158/409/105
f 140/407/105 158/409/105 133/410/105
usemtl m_83c5c9d6-2f1f-4d8b-9893-070f5a21dff2
f 162/411/106 164/412/106 163/413/106
f 162/411/106 163/413/106 159/414/106
usemtl m_98c56db7-14fd-b5be-a261-db7625093511
f 131/415/107 143/416/107 145/417/107
f 131/415/107 145/417/107 129/418/107
f 143/419/108 144/420/108 146/421/108
f 143/419/108 146/421/108 145/422/108
f 129/423/109 145/424/109 147/425/109
f 129/423/109 147/425/109 138/426/109
f 145/427/110 146/428/110 148/429/110
f 145/427/110 148/429/110 147/430/110
f 138/431/111 147/432/111 149/433/111
f 138/431/111 149/433/111 137/434/111
f 147/435/112 148/436/112 150/437/112
f 147/435/112 150/437/112 149/438/112
f 142/439/113 151/440/113 152/441/113
f 142/439/113 152/441/113 134/442/113
f 134/443/114 152/444/114 126/445/114
usemtl m_83c5c9d6-2f1f-4d8b-9893-070f5a21dff2
f 159/446/115 160/447/115 161/448/115
f 159/446/115 161/448/115 162/449/115
usemtl m_98c56db7-14fd-b5be-a261-db7625093511
f 133/450/116 154/451/116 153/452/116
f 133/450/116 153/452/116 140/453/116
f 135/454/117 154/455/117 125/456/117
f 144/457/118 155/458/118 156/459/118
f 144/457/118 156/459/118 132/460/118
f 132/461/119 156/462/119 126/463/119
f 143/464/120 157/465/120 155/466/120
f 143/464/120 155/466/120 144/467/120
f 131/468/121 158/469/121 157/470/121
f 131/468/121 157/470/121 143/471/121
f 133/472/122 158/473/122 125/474/122
f 160/475/123 159/476/123 140/477/123
f 160/475/123 140/477/123 153/478/123
f 161/479/124 160/480/124 153/481/124
f 161/479/124 153/481/124 151/482/124
f 162/483/125 161/484/125 151/485/125
f 162/483/125 151/485/125 142/486/125
f 164/487/126 162/488/126 142/489/126
f 164/487/126 142/489/126 155/490/126
f 163/491/127 164/492/127 155/493/127
f 163/491/127 155/493/127 157/494/127
f 159/495/128 163/496/128 157/497/128
f 159/495/128 157/497/128 140/498/128
f 168/499/129 167/500/129 166/501/129
f 170/502/130 168/503/130 166/504/130
f 184/505/131 186/506/131 170/507/131
f 184/505/131 170/507/131 172/508/131
f 172/509/132 170/510/132 166/511/132
f 198/512/133 165/513/133 171/514/133
f 196/515/134 166/516/134 174/517/134
f 194/518/135 165/519/135 173/520/135
f 192/521/136 166/522/136 176/523/136
f 188/524/137 190/525/137 167/526/137
f 188/524/137 167/526/137 168/527/137
f 186/528/138 188/529/138 168/530/138
f 186/528/138 168/530/138 170/531/138
f 195/532/139 196/533/139 174/534/139
f 195/532/139 174/534/139 182/535/139
f 191/536/140 192/537/140 176/538/140
f 191/536/140 176/538/140 181/539/140
f 169/540/141 171/541/141 165/542/141
f 178/543/142 169/544/142 165/545/142
f 177/546/143 178/547/143 165/548/143
f 194/549/144 193/550/144 179/551/144
f 194/549/144 179/551/144 175/552/144
f 193/553/145 191/554/145 181/555/145
f 193/553/145 181/555/145 179/556/145
f 198/557/146 197/558/146 180/559/146
f 198/557/146 180/559/146 173/560/146
usemtl m_83c5c9d6-2f1f-4d8b-9893-070f5a21dff2
f 203/561/147 204/562/147 202/563/147
f 203/561/147 202/563/147 199/564/147
usemtl m_98c56db7-14fd-b5be-a261-db7625093511
f 185/565/148 183/566/148 171/567/148
f 185/565/148 171/567/148 169/568/148
f 186/569/149 184/570/149 183/571/149
f 186/569/149 183/571/149 185/572/149
f 187/573/150 185/574/150 169/575/150
f 187/573/150 169/575/150 178/576/150
f 188/577/151 186/578/151 185/579/151
f 188/577/151 185/579/151 187/580/151
f 189/581/152 187/582/152 178/583/152
f 189/581/152 178/583/152 177/584/152
f 190/585/153 188/586/153 187/587/153
f 190/585/153 187/587/153 189/588/153
f 192/589/154 191/590/154 182/591/154
f 192/589/154 182/591/154 174/592/154
f 192/593/155 174/594/155 166/595/155
usemtl m_83c5c9d6-2f1f-4d8b-9893-070f5a21dff2
f 201/596/156 200/597/156 199/598/156
f 201/596/156 199/598/156 202/599/156
usemtl m_98c56db7-14fd-b5be-a261-db7625093511
f 193/600/157 194/601/157 173/602/157
f 193/600/157 173/602/157 180/603/157
f 194/604/158 175/605/158 165/606/158
f 196/607/159 195/608/159 184/609/159
f 196/607/159 184/609/159 172/610/159
f 196/611/160 172/612/160 166/613/160
f 195/614/161 197/615/161 183/616/161
f 195/614/161 183/616/161 184/617/161
f 197/618/162 198/619/162 171/620/162
f 197/618/162 171/620/162 183/621/162
f 198/622/163 173/623/163 165/624/163
f 180/625/164 199/626/164 200/627/164
f 180/625/164 200/627/164 193/628/164
f 193/629/165 200/630/165 201/631/165
f 193/629/165 201/631/165 191/632/165
f 191/633/166 201/634/166 202/635/166
f 191/633/166 202/635/166 182/636/166
f 182/637/167 202/638/167 204/639/167
f 182/637/167 204/639/167 195/640/167
f 195/641/168 204/642/168 203/643/168
f 195/641/168 203/643/168 197/644/168
f 197/645/169 203/646/169 199/647/169
f 197/645/169 199/647/169 180/648/169
usemtl m_fae77e0a-5028-f195-caba-20d89c450eac
f 206/649/170 205/650/170 18/651/170
f 206/649/170 18/651/170 17/652/170
f 207/653/171 206/654/171 17/655/171
f 207/653/171 17/655/171 19/656/171
f 208/657/172 207/658/172 19/659/172
f 208/657/172 19/659/172 20/660/172
f 205/661/173 208/662/173 20/663/173
f 205/661/173 20/663/173 18/664/173
f 210/665/174 209/666/174 71/667/174
f 210/665/174 71/667/174 69/668/174
f 211/669/175 210/670/175 69/671/175
f 211/669/175 69/671/175 70/672/175
f 212/673/176 211/674/176 70/675/176
f 212/673/176 70/675/176 72/676/176
f 209/677/177 212/678/177 72/679/177
f 209/677/177 72/679/177 71/680/177