# Made in Blockbench 4.12.6
mtllib beijing_diaoban_c.mtl

o c1
v 0.25 1 -0.1875
v 0.25 1 -0.5
v 0.25 0.25 -0.25
v 0.25 0.25 -0.5
v -0.25 1 -0.1875
v -0.25 1 -0.5
v -0.25 0.25 -0.25
v -0.25 0.25 -0.5
vt 0.25 0.125
vt 0.25 1
vt 0 1
vt 0 0.125
vt 0.25 0.125
vt 0.25 1
vt 0 1
vt 0 0.125
vt 0.5 0.75
vt 0.5 1
vt 0 1
vt 0 0.75
vt 0.5 0.75
vt 0.5 1
vt 0 1
vt 0 0.75
vt 0.5 0.125
vt 0.5 1
vt 0 1
vt 0 0.125
vt 0.5 0.125
vt 0.5 1
vt 0 1
vt 0 0.125
vn 1 0 0
vn -1 0 0
vn 0 1 0
vn 0 -1 0
vn 0 -0.08304547985373999 0.9965457582448798
vn 0 0 -1
usemtl m_de738a1d-bde9-a2db-b218-ae8ed8b6e5ea
f 4/1/1 2/2/1 1/3/1
f 4/1/1 1/3/1 3/4/1
f 7/5/2 5/6/2 6/7/2
f 7/5/2 6/7/2 8/8/2
f 1/9/3 2/10/3 6/11/3
f 1/9/3 6/11/3 5/12/3
f 4/13/4 3/14/4 7/15/4
f 4/13/4 7/15/4 8/16/4
usemtl m_a580e5f4-ecc0-b81a-dd5e-f6ff89f2c6db
f 3/17/5 1/18/5 5/19/5
f 3/17/5 5/19/5 7/20/5
usemtl m_de738a1d-bde9-a2db-b218-ae8ed8b6e5ea
f 8/21/6 6/22/6 2/23/6
f 8/21/6 2/23/6 4/24/6
o c2
v 0.25 0.875 -0.375
v 0.25 0.875 -0.5
v 0.25 0.125 -0.375
v 0.25 0.125 -0.5
v -0.25 0.875 -0.5
v -0.25 0.875 -0.375
v -0.25 0.125 -0.5
v -0.25 0.125 -0.375
vt 0 1
vt 0.5 1
vt 0.5 0.25
vt 0 0.25
vt 0 1
vt 0.125 1
vt 0.125 0.25
vt 0 0.25
vt 0 1
vt 0.5 1
vt 0.5 0.25
vt 0 0.25
vt 0 1
vt 0.125 1
vt 0.125 0.25
vt 0 0.25
vt 0 1
vt 0.5 1
vt 0.5 0.875
vt 0 0.875
vt 0 1
vt 0.5 1
vt 0.5 0.875
vt 0 0.875
vn 0 0 -1
vn 1 0 0
vn 0 0 1
vn -1 0 0
vn 0 1 0
vn 0 -1 0
usemtl m_de738a1d-bde9-a2db-b218-ae8ed8b6e5ea
f 15/27/7 13/26/7 10/25/7
f 12/28/7 15/27/7 10/25/7
f 12/31/8 10/30/8 9/29/8
f 11/32/8 12/31/8 9/29/8
usemtl m_a580e5f4-ecc0-b81a-dd5e-f6ff89f2c6db
f 11/35/9 9/34/9 14/33/9
f 16/36/9 11/35/9 14/33/9
usemtl m_de738a1d-bde9-a2db-b218-ae8ed8b6e5ea
f 16/39/10 14/38/10 13/37/10
f 15/40/10 16/39/10 13/37/10
f 9/43/11 10/42/11 13/41/11
f 14/44/11 9/43/11 13/41/11
f 12/47/12 11/46/12 16/45/12
f 15/48/12 12/47/12 16/45/12
o c3
v 0.25 1 -0.375
v 0.25 1 -0.5
v 0.25 0 -0.375
v 0.25 0 -0.5
v -0.25 1 -0.5
v -0.25 1 -0.375
v -0.25 0 -0.5
v -0.25 0 -0.375
vt 0 1
vt 0.5 1
vt 0.5 0
vt 0 0
vt 0 1
vt 0.125 1
vt 0.125 0
vt 0 0
vt 0 1
vt 0.5 1
vt 0.5 0
vt 0 0
vt 0 1
vt 0.125 1
vt 0.125 0
vt 0 0
vt 0 1
vt 0.5 1
vt 0.5 0.875
vt 0 0.875
vt 0 1
vt 0.5 1
vt 0.5 0.875
vt 0 0.875
vn 0 0 -1
vn 1 0 0
vn 0 0 1
vn -1 0 0
vn 0 1 0
vn 0 -1 0
usemtl m_de738a1d-bde9-a2db-b218-ae8ed8b6e5ea
f 23/51/13 21/50/13 18/49/13
f 20/52/13 23/51/13 18/49/13
f 20/55/14 18/54/14 17/53/14
f 19/56/14 20/55/14 17/53/14
usemtl m_c33db028-3899-166c-da9f-2cee5149f5a2
f 19/59/15 17/58/15 22/57/15
f 24/60/15 19/59/15 22/57/15
usemtl m_de738a1d-bde9-a2db-b218-ae8ed8b6e5ea
f 24/63/16 22/62/16 21/61/16
f 23/64/16 24/63/16 21/61/16
f 17/67/17 18/66/17 21/65/17
f 22/68/17 17/67/17 21/65/17
f 20/71/18 19/70/18 24/69/18
f 23/72/18 20/71/18 24/69/18