# Made in Blockbench 4.12.5
mtllib beijing_diaoban_a.mtl

o center
v 0.25 1 -0.1875
v 0.25 1 -0.25
v 0.25 0 -0.1875
v 0.25 0 -0.25
v -0.25 1 -0.1875
v -0.25 1 -0.25
v -0.25 0 -0.1875
v -0.25 0 -0.25
v 0.25 1 -0.25
v 0.25 1 -0.5
v 0.25 0 -0.25
v 0.25 0 -0.5
v -0.25 1 -0.25
v -0.25 1 -0.5
v -0.25 0 -0.25
v -0.25 0 -0.5
v 0.25 0.0625 -0.1875
v -0.25 0.0625 -0.1875
v 0.25 0.062913125 -0.125413125
v -0.25 0.062913125 -0.125413125
v 0.25 0.000413125 -0.18791312500000001
v -0.25 0.000413125 -0.18791312500000001
v 0.25 0.000413125 -0.17932625
v -0.25 0.000413125 -0.17932625
v 0.25 0.004644375 -0.163535625
v -0.25 0.004644375 -0.163535625
v 0.25 0.012818125 -0.1493775
v -0.25 0.012818125 -0.1493775
v 0.25 0.0243775 -0.137818125
v -0.25 0.0243775 -0.137818125
v 0.25 0.038535625 -0.129644375
v -0.25 0.038535625 -0.129644375
v 0.25 0.05432625 -0.125413125
v -0.25 0.05432625 -0.125413125
v 0.25 0.625 -0.125
v 0.25 0.625 -0.1875
v 0.25 0.0625 -0.125
v 0.25 0.0625 -0.1875
v -0.25 0.625 -0.125
v -0.25 0.625 -0.1875
v -0.25 0.0625 -0.125
v -0.25 0.0625 -0.1875
v 0.25 1 -0.125
v 0.25 1 -0.140625
v 0.25 0.63125 -0.125
v 0.25 0.63125 -0.140625
v -0.25 1 -0.125
v -0.25 1 -0.140625
v -0.25 0.63125 -0.125
v -0.25 0.63125 -0.140625
v 0.25 1 -0.1375
v 0.25 1 -0.1875
v 0.25 0.625 -0.1375
v 0.25 0.5625 -0.1875
v -0.25 1 -0.1375
v -0.25 1 -0.1875
v -0.25 0.625 -0.1375
v -0.25 0.5625 -0.1875
vt 0.0625 0.125
vt 0.0625 1
vt 0 1
vt 0 0.125
vt 0.0625 0.125
vt 0.0625 1
vt 0 1
vt 0 0.125
vt 1 0.9375
vt 1 1
vt 0 1
vt 0 0.9375
vt 1 0.9375
vt 1 1
vt 0 1
vt 0 0.9375
vt 0.25 0.125
vt 0.25 1
vt 0 1
vt 0 0.125
vt 0.25 0.125
vt 0.25 1
vt 0 1
vt 0 0.125
vt 1 0.75
vt 1 1
vt 0 1
vt 0 0.75
vt 1 0.75
vt 1 1
vt 0 1
vt 0 0.75
vt 1 0.125
vt 1 1
vt 0 1
vt 0 0.125
vt 0 1
vt 0 0.86835
vt 0.5 0.934175
vt 0 0.5
vt 0.13165 0.5
vt 0.13165 1
vt 0 1
vt 0 1
vt 0 0.86835
vt 0.5 0.934175
vt 0.13052875 1
vt 0 0.982815625
vt 0.13052875 0.495685625
vt 0 0.5
vt 0.13165 0.5
vt 0.13165 1
vt 0 1
vt 0 1
vt 0.017185 0.86947125
vt 0.504314375 1
vt 0.13052375 1
vt 0 0.98281625
vt 0.13052375 0.495685625
vt 0 0.5
vt 0.13165 0.5
vt 0.13165 1
vt 0 1
vt 0 1
vt 0.017183125 0.86947625
vt 0.504314375 1
vt 0.130528125 1
vt 0 0.982815625
vt 0.130528125 0.495685625
vt 0 0.5
vt 0.13165 0.5
vt 0.13165 1
vt 0 1
vt 0 1
vt 0.017184375 0.869471875
vt 0.504314375 1
vt 0.13052375 1
vt 0 0.982816875
vt 0.13052375 0.495685625
vt 0 0.5
vt 0.13165 0.5
vt 0.13165 1
vt 0 1
vt 0 1
vt 0.01718375 0.86947625
vt 0.504314375 1
vt 0.13052875 1
vt 0 0.982815
vt 0.13052875 0.495685625
vt 0 0.5
vt 0.13165 0.5
vt 0.13165 1
vt 0 1
vt 0 1
vt 0.017184375 0.86947125
vt 0.504314375 1
vt 0.13165 1
vt 0 1
vt 0.065825 0.5
vt 0 0.5
vt 0.13165 0.5
vt 0.13165 1
vt 0 1
vt 0 0.5
vt 0.13165 0.5
vt 0.065825 1
vt 0.0625 0.5
vt 0.0625 1
vt 0 1
vt 0 0.5
vt 0.0625 0.5
vt 0.0625 1
vt 0 1
vt 0 0.5
vt 1 0.5
vt 1 1
vt 0 1
vt 0 0.5
vt 0.015625 0.69375
vt 0.015625 1
vt 0 1
vt 0 0.69375
vt 0.015625 0.69375
vt 0.015625 1
vt 0 1
vt 0 0.69375
vt 0.9875 0.984375
vt 0.9875 1
vt 0 1
vt 0 0.984375
vt 0.9875 0.984375
vt 0.9875 1
vt 0 1
vt 0 0.984375
vt 0.9875 0.69375
vt 0.9875 1
vt 0 1
vt 0 0.69375
vt 0.046875 0.6875
vt 0.046875 1
vt 0 1
vt 0 0.6875
vt 0.046875 0.6875
vt 0.046875 1
vt 0 1
vt 0 0.6875
vt 1 0.953125
vt 1 1
vt 0 1
vt 0 0.953125
vt 1 0.6875
vt 1 1
vt 0 1
vt 0 0.6875
vt 0 0.984375
vt 1 0.984375
vt 1 1
vt 0 1
vn 1 0 0
vn -1 0 0
vn 0 1 0
vn 0 -1 0
vn 1 0 0
vn -1 0 0
vn 0 1 0
vn 0 -1 0
vn 0 0 -1
vn 1 0 0
vn 0 -1 0
vn -1 0 0
vn 1 0 0
vn 0 -0.9659233062670584 0.258828449769562
vn -1 0 0
vn 1 0 0
vn 0 -0.8660372506103099 0.49997948013427085
vn -1 0 0
vn 1 0 0
vn 0 -0.707106781186547 0.707106781186548
vn -1 0 0
vn 1 0 0
vn 0 -0.49997948013427107 0.8660372506103097
vn -1 0 0
vn 1 0 0
vn 0 -0.25882844976956315 0.9659233062670581
vn -1 0 0
vn 1 0 0
vn 0 0 1
vn -1 0 0
vn 1 0 0
vn -1 0 0
vn 0 0 1
vn 1 0 0
vn -1 0 0
vn 0 1 0
vn 0 -1 0
vn 0 0 1
vn 1 0 0
vn -1 0 0
vn 0 1 0
vn 0 0 1
vn 0 1 0
usemtl m_cc4cbd32-c453-a4c6-e794-5e5fa231e7f1
f 4/1/1 2/2/1 1/3/1
f 4/1/1 1/3/1 3/4/1
f 7/5/2 5/6/2 6/7/2
f 7/5/2 6/7/2 8/8/2
usemtl m_f59e3bac-8fcc-890c-63e5-9d78c1a9e541
f 1/9/3 2/10/3 6/11/3
f 1/9/3 6/11/3 5/12/3
f 4/13/4 3/14/4 7/15/4
f 4/13/4 7/15/4 8/16/4
usemtl m_cc4cbd32-c453-a4c6-e794-5e5fa231e7f1
f 12/17/5 10/18/5 9/19/5
f 12/17/5 9/19/5 11/20/5
f 15/21/6 13/22/6 14/23/6
f 15/21/6 14/23/6 16/24/6
usemtl m_f59e3bac-8fcc-890c-63e5-9d78c1a9e541
f 9/25/7 10/26/7 14/27/7
f 9/25/7 14/27/7 13/28/7
usemtl m_cc4cbd32-c453-a4c6-e794-5e5fa231e7f1
f 12/29/8 11/30/8 15/31/8
f 12/29/8 15/31/8 16/32/8
usemtl m_f59e3bac-8fcc-890c-63e5-9d78c1a9e541
f 16/33/9 14/34/9 10/35/9
f 16/33/9 10/35/9 12/36/9
usemtl m_cc4cbd32-c453-a4c6-e794-5e5fa231e7f1
f 23/37/10 21/38/10 17/39/10
usemtl m_f415f46e-f4d9-ee92-0447-ff4177d4eb65
f 21/40/11 23/41/11 24/42/11
f 21/40/11 24/42/11 22/43/11
usemtl m_cc4cbd32-c453-a4c6-e794-5e5fa231e7f1
f 22/44/12 24/45/12 18/46/12
f 25/47/13 23/48/13 17/49/13
usemtl m_f415f46e-f4d9-ee92-0447-ff4177d4eb65
f 23/50/14 25/51/14 26/52/14
f 23/50/14 26/52/14 24/53/14
usemtl m_cc4cbd32-c453-a4c6-e794-5e5fa231e7f1
f 24/54/15 26/55/15 18/56/15
f 27/57/16 25/58/16 17/59/16
usemtl m_f415f46e-f4d9-ee92-0447-ff4177d4eb65
f 25/60/17 27/61/17 28/62/17
f 25/60/17 28/62/17 26/63/17
usemtl m_cc4cbd32-c453-a4c6-e794-5e5fa231e7f1
f 26/64/18 28/65/18 18/66/18
f 29/67/19 27/68/19 17/69/19
usemtl m_f415f46e-f4d9-ee92-0447-ff4177d4eb65
f 27/70/20 29/71/20 30/72/20
f 27/70/20 30/72/20 28/73/20
usemtl m_cc4cbd32-c453-a4c6-e794-5e5fa231e7f1
f 28/74/21 30/75/21 18/76/21
f 31/77/22 29/78/22 17/79/22
usemtl m_f415f46e-f4d9-ee92-0447-ff4177d4eb65
f 29/80/23 31/81/23 32/82/23
f 29/80/23 32/82/23 30/83/23
usemtl m_cc4cbd32-c453-a4c6-e794-5e5fa231e7f1
f 30/84/24 32/85/24 18/86/24
f 33/87/25 31/88/25 17/89/25
usemtl m_f415f46e-f4d9-ee92-0447-ff4177d4eb65
f 31/90/26 33/91/26 34/92/26
f 31/90/26 34/92/26 32/93/26
usemtl m_cc4cbd32-c453-a4c6-e794-5e5fa231e7f1
f 32/94/27 34/95/27 18/96/27
f 19/97/28 33/98/28 17/99/28
usemtl m_f415f46e-f4d9-ee92-0447-ff4177d4eb65
f 33/100/29 19/101/29 20/102/29
f 33/100/29 20/102/29 34/103/29
usemtl m_cc4cbd32-c453-a4c6-e794-5e5fa231e7f1
f 34/104/30 20/105/30 18/106/30
f 38/107/31 36/108/31 35/109/31
f 38/107/31 35/109/31 37/110/31
f 41/111/32 39/112/32 40/113/32
f 41/111/32 40/113/32 42/114/32
usemtl m_a82e693f-f83a-c913-6947-cc5e5ef2ffb6
f 37/115/33 35/116/33 39/117/33
f 37/115/33 39/117/33 41/118/33
usemtl m_cc4cbd32-c453-a4c6-e794-5e5fa231e7f1
f 46/119/34 44/120/34 43/121/34
f 46/119/34 43/121/34 45/122/34
f 49/123/35 47/124/35 48/125/35
f 49/123/35 48/125/35 50/126/35
usemtl m_f59e3bac-8fcc-890c-63e5-9d78c1a9e541
f 43/127/36 44/128/36 48/129/36
f 43/127/36 48/129/36 47/130/36
usemtl m_cc4cbd32-c453-a4c6-e794-5e5fa231e7f1
f 46/131/37 45/132/37 49/133/37
f 46/131/37 49/133/37 50/134/37
usemtl m_a82e693f-f83a-c913-6947-cc5e5ef2ffb6
f 45/135/38 43/136/38 47/137/38
f 45/135/38 47/137/38 49/138/38
usemtl m_cc4cbd32-c453-a4c6-e794-5e5fa231e7f1
f 54/139/39 52/140/39 51/141/39
f 54/139/39 51/141/39 53/142/39
f 57/143/40 55/144/40 56/145/40
f 57/143/40 56/145/40 58/146/40
usemtl m_f59e3bac-8fcc-890c-63e5-9d78c1a9e541
f 51/147/41 52/148/41 56/149/41
f 51/147/41 56/149/41 55/150/41
usemtl m_95e20f84-55bb-7186-f91a-586499bd637e
f 53/151/42 51/152/42 55/153/42
f 53/151/42 55/153/42 57/154/42
usemtl m_f59e3bac-8fcc-890c-63e5-9d78c1a9e541
f 39/155/43 35/156/43 53/157/43
f 39/155/43 53/157/43 57/158/43
o l
v -0.24843749999999995 1 -0.19270833333333331
v -0.24843749999999995 0.006250000000000089 -0.19270833333333331
v -0.24843749999999995 0.006250000000000089 -0.25416666666666665
v -0.24999999999999997 1 -0.19270833333333331
v -0.24999999999999997 0.006250000000000089 -0.19270833333333331
v -0.24999999999999997 0.006250000000000089 -0.25416666666666665
v -0.24843749999999995 1 -0.25416666666666665
v -0.24843749999999995 0.006250000000000089 -0.25416666666666665
v -0.24843749999999995 0.006250000000000089 -0.5
v -0.24999999999999997 1 -0.25416666666666665
v -0.24999999999999997 1 -0.5
v -0.24999999999999997 0.006250000000000089 -0.25416666666666665
v -0.24999999999999997 0.006250000000000089 -0.5
v -0.24843749999999995 0.06830357142857152 -0.19270833333333331
v -0.24999999999999997 0.06830357142857152 -0.19270833333333331
v -0.24843749999999995 0.06871374553571441 -0.1316562395833333
v -0.24999999999999997 0.06871374553571441 -0.1316562395833333
v -0.24843749999999995 0.00666017410714298 -0.19311457291666664
v -0.24999999999999997 0.00666017410714298 -0.19311457291666664
v -0.24843749999999995 0.00666017410714298 -0.18467081249999998
v -0.24999999999999997 0.00666017410714298 -0.18467081249999998
v -0.24843749999999995 0.010861200892857192 -0.1691433645833333
v -0.24999999999999997 0.010861200892857192 -0.1691433645833333
v -0.24843749999999995 0.01897656696428579 -0.1552212083333333
v -0.24999999999999997 0.01897656696428579 -0.1552212083333333
v -0.24843749999999995 0.03045337500000006 -0.14385448958333333
v -0.24999999999999997 0.03045337500000006 -0.14385448958333333
v -0.24843749999999995 0.04451037053571438 -0.13581696875
v -0.24999999999999997 0.04451037053571438 -0.13581696875
v -0.24843749999999995 0.060188205357142976 -0.1316562395833333
v -0.24999999999999997 0.060188205357142976 -0.1316562395833333
v -0.24843749999999995 0.9993230519480519 -0.13124999999999998
v -0.24843749999999995 0.06830357142857152 -0.13124999999999998
v -0.24999999999999997 0.9993230519480519 -0.13124999999999998
v -0.24999999999999997 0.8743230519480519 -0.19270833333333331
v -0.24999999999999997 0.06830357142857152 -0.13124999999999998
v -0.24999999999999997 0.06830357142857152 -0.19270833333333331
v 0.24999999999999997 0 -0.1875
v 0.24999999999999997 0 -0.25
v -0.24843749999999998 0 -0.1875
v -0.24843749999999998 0 -0.25
v 0.24999999999999997 1 -0.25
v 0.24999999999999997 1 -0.5
v 0.24999999999999997 0 -0.25
v 0.24999999999999997 0 -0.5
v -0.24843749999999998 1 -0.25
v -0.24843749999999998 1 -0.5
v -0.24843749999999998 0 -0.25
v -0.24843749999999998 0 -0.5
v 0.24999999999999997 0.0625 -0.1875
v -0.24843749999999998 0.0625 -0.1875
v 0.24999999999999997 0.062913125 -0.125413125
v -0.24843749999999998 0.062913125 -0.125413125
v 0.24999999999999997 0.00041312499999999986 -0.18791312500000001
v -0.24843749999999998 0.00041312499999999986 -0.18791312500000001
v 0.24999999999999997 0.00041312499999999986 -0.17932625
v -0.24843749999999998 0.00041312499999999986 -0.17932625
v 0.24999999999999997 0.004644375 -0.163535625
v -0.24843749999999998 0.004644375 -0.163535625
v 0.24999999999999997 0.012818125 -0.1493775
v -0.24843749999999998 0.012818125 -0.1493775
v 0.24999999999999997 0.0243775 -0.137818125
v -0.24843749999999998 0.0243775 -0.137818125
v 0.24999999999999997 0.038535625 -0.129644375
v -0.24843749999999998 0.038535625 -0.129644375
v 0.24999999999999997 0.05432625 -0.125413125
v -0.24843749999999998 0.05432625 -0.125413125
v 0.24999999999999997 0.625 -0.125
v 0.24999999999999997 0.625 -0.1875
v 0.24999999999999997 0.0625 -0.125
v 0.24999999999999997 0.0625 -0.1875
v -0.24843749999999998 0.625 -0.125
v -0.24843749999999998 0.5625 -0.1875
v -0.24843749999999998 0.0625 -0.125
v -0.24843749999999998 0.0625 -0.1875
v 0.24999999999999997 1 -0.125
v 0.24999999999999997 1 -0.140625
v 0.24999999999999997 0.63125 -0.125
v 0.24999999999999997 0.63125 -0.140625
v -0.24843749999999998 1 -0.125
v -0.24843749999999998 1 -0.140625
v -0.24843749999999998 0.63125 -0.125
v -0.24843749999999998 0.63125 -0.140625
v 0.24999999999999997 1 -0.13125
v 0.24999999999999997 1 -0.1875
v 0.24999999999999997 0.625 -0.13125
v 0.24999999999999997 0.5625 -0.1875
v -0.24843749999999998 1 -0.13125
v -0.24843749999999998 1 -0.1875
v -0.24843749999999998 0.625 -0.13125
v -0.24843749999999998 0.5625 -0.1875
vt 0.0625 0.125
vt 0.0625 1
vt 0 1
vt 0 0.125
vt 1 0.9375
vt 1 1
vt 0 1
vt 0 0.9375
vt 1 0.9375
vt 1 1
vt 0 1
vt 0 0.9375
vt 0.25 0.125
vt 0.25 1
vt 0 1
vt 0 0.125
vt 1 0.75
vt 1 1
vt 0 1
vt 0 0.75
vt 1 0.75
vt 1 1
vt 0 1
vt 0 0.75
vt 1 0.125
vt 1 1
vt 0 1
vt 0 0.125
vt 0 1
vt 0 0.86835
vt 0.5 0.934175
vt 0 0.5
vt 0.13165 0.5
vt 0.13165 1
vt 0 1
vt 0 1
vt 0 0.86835
vt 0.5 0.934175
vt 0 0.5
vt 0.13165 0.5
vt 0.13165 1
vt 0 1
vt 0 1
vt 0.017185 0.86947125
vt 0.504314375 1
vt 0 0.5
vt 0.13165 0.5
vt 0.13165 1
vt 0 1
vt 0 1
vt 0.017183125 0.86947625
vt 0.504314375 1
vt 0 0.5
vt 0.13165 0.5
vt 0.13165 1
vt 0 1
vt 0 0.5
vt 0.13165 0.5
vt 0.13165 1
vt 0 1
vt 0 1
vt 0.01718375 0.86947625
vt 0.504314375 1
vt 0 0.5
vt 0.13165 0.5
vt 0.13165 1
vt 0 1
vt 0 0.5
vt 0.13165 0.5
vt 0.13165 1
vt 0 1
vt 0 0.5
vt 0.13165 0.5
vt 0.065825 1
vt 0.0625 0.5
vt 0.0625 1
vt 0 1
vt 0 0.5
vt 1 0.5
vt 1 1
vt 0 1
vt 0 0.5
vt 0 1
vt 0.017184375 0.869471875
vt 0.504314375 1
vt 0 1
vt 0.017184375 0.86947125
vt 0.504314375 1
vt 2.8421275749535013e-15 0.9400999999999988
vt 0.0015625000000028422 0.9400999999999988
vt 0.0015625000000028422 0.9999999999999988
vt 2.8421275749535013e-15 0.9999999999999988
vt 0.0625 0.125
vt 0.0625 1
vt 0 1
vt 0 0.125
vt 0.0625 0.125
vt 0.0625 1
vt 0 1
vt 0 0.125
vt 1 0.9375
vt 1 1
vt 0 1
vt 0 0.9375
vt 1 0.9375
vt 1 1
vt 0 1
vt 0 0.9375
vt 0.25 0.125
vt 0.25 1
vt 0 1
vt 0 0.125
vt 0.25 0.125
vt 0.25 1
vt 0 1
vt 0 0.125
vt 1 0.75
vt 1 1
vt 0 1
vt 0 0.75
vt 1 0.75
vt 1 1
vt 0 1
vt 0 0.75
vt 1 0.125
vt 1 1
vt 0 1
vt 0 0.125
vt 0 1
vt 0 0.86835
vt 0.5 0.934175
vt 0 0.5
vt 0.13165 0.5
vt 0.13165 1
vt 0 1
vt 0 1
vt 0 0.86835
vt 0.5 0.934175
vt 0.13052875 1
vt 0 0.982815625
vt 0.13052875 0.495685625
vt 0 0.5
vt 0.13165 0.5
vt 0.13165 1
vt 0 1
vt 0 1
vt 0.017185 0.86947125
vt 0.504314375 1
vt 0.13052375 1
vt 0 0.98281625
vt 0.13052375 0.495685625
vt 0 0.5
vt 0.13165 0.5
vt 0.13165 1
vt 0 1
vt 0 1
vt 0.017183125 0.86947625
vt 0.504314375 1
vt 0.130528125 1
vt 0 0.982815625
vt 0.130528125 0.495685625
vt 0 0.5
vt 0.13165 0.5
vt 0.13165 1
vt 0 1
vt 0 1
vt 0.017184375 0.869471875
vt 0.504314375 1
vt 0.13052375 1
vt 0 0.982816875
vt 0.13052375 0.495685625
vt 0 0.5
vt 0.13165 0.5
vt 0.13165 1
vt 0 1
vt 0 1
vt 0.01718375 0.86947625
vt 0.504314375 1
vt 0.13052875 1
vt 0 0.982815
vt 0.13052875 0.495685625
vt 0 0.5
vt 0.13165 0.5
vt 0.13165 1
vt 0 1
vt 0 1
vt 0.017184375 0.86947125
vt 0.504314375 1
vt 0.13165 1
vt 0 1
vt 0.065825 0.5
vt 0 0.5
vt 0.13165 0.5
vt 0.13165 1
vt 0 1
vt 0 0.5
vt 0.13165 0.5
vt 0.065825 1
vt 0.0625 0.5
vt 0.0625 1
vt 0 1
vt 0 0.5
vt 0.0625 0.5
vt 0.0625 1
vt 0 1
vt 0 0.5
vt 1 0.5
vt 1 1
vt 0 1
vt 0 0.5
vt 0.015625 0.69375
vt 0.015625 1
vt 0 1
vt 0 0.69375
vt 0.015625 0.69375
vt 0.015625 1
vt 0 1
vt 0 0.69375
vt 0.9875 0.984375
vt 0.9875 1
vt 0 1
vt 0 0.984375
vt 0.9875 0.984375
vt 0.9875 1
vt 0 1
vt 0 0.984375
vt 0.9875 0.69375
vt 0.9875 1
vt 0 1
vt 0 0.69375
vt 0.046875 0.6875
vt 0.046875 1
vt 0 1
vt 0 0.6875
vt 0.046875 0.6875
vt 0.046875 1
vt 0 1
vt 0 0.6875
vt 1 0.953125
vt 1 1
vt 0 1
vt 0 0.953125
vt 1 0.6875
vt 1 1
vt 0 1
vt 0 0.6875
vt 0 0.984375
vt 1 0.984375
vt 1 1
vt 0 1
vn -1 0 0
vn 0 1 0
vn 0 -1 0
vn -1 0 0
vn 0 1 0
vn 0 -1 0
vn 0 0 -1
vn 1 0 0
vn 0 -1 0
vn -1 0 0
vn 0 -0.9652941620906011 0.26116504481611663
vn -1 0 0
vn 0 -0.8639379840252266 0.5035982126243378
vn -1 0 0
vn 0 -0.7036908659480798 0.7105062738507251
vn 0 -0.49636945881460814 0.8681113755481453
vn -1 0 0
vn 0 -0.2565097807067507 0.9665416351103426
vn 0 0 1
vn -1 0 0
vn -1 0 0
vn 0 0 1
vn -1 0 0
vn -1 0 0
vn 0 0.9999393431829664 0.011014079844348842
vn 1 0 0
vn -1 0 0
vn 0 1 0
vn 0 -1 0
vn 1 0 0
vn -1 0 0
vn 0 1 0
vn 0 -1 0
vn 0 0 -1
vn 1 0 0
vn 0 -1 0
vn -1 0 0
vn 1 0 0
vn 0 -0.9659233062670585 0.2588284497695621
vn -1 0 0
vn 1 0 0
vn 0 -0.8660372506103097 0.4999794801342708
vn -1 0 0
vn 1 0 0
vn 0 -0.707106781186547 0.707106781186548
vn -1 0 0
vn 1 0 0
vn 0 -0.49997948013427107 0.8660372506103098
vn -1 0 0
vn 1 0 0
vn 0 -0.25882844976956315 0.9659233062670579
vn -1 0 0
vn 1 0 0
vn 0 0 1
vn -1 0 0
vn 1 0 0
vn -1 0 0
vn 0 0 1
vn 1 0 0
vn -1 0 0
vn 0 1 0
vn 0 -1 0
vn 0 0 1
vn 1 0 0
vn -1 0 0
vn 0 1 0
vn 0 0 1
vn 0 1 0
usemtl m_cc4cbd32-c453-a4c6-e794-5e5fa231e7f1
f 63/159/44 62/160/44 68/161/44
f 63/159/44 68/161/44 64/162/44
usemtl m_f59e3bac-8fcc-890c-63e5-9d78c1a9e541
f 59/163/45 65/164/45 68/165/45
f 59/163/45 68/165/45 62/166/45
usemtl m_95e20f84-55bb-7186-f91a-586499bd637e
f 61/167/46 60/168/46 63/169/46
f 61/167/46 63/169/46 64/170/46
usemtl m_cc4cbd32-c453-a4c6-e794-5e5fa231e7f1
f 70/171/47 68/172/47 69/173/47
f 70/171/47 69/173/47 71/174/47
usemtl m_f59e3bac-8fcc-890c-63e5-9d78c1a9e541
f 65/175/48 105/176/48 69/177/48
f 65/175/48 69/177/48 68/178/48
usemtl m_95e20f84-55bb-7186-f91a-586499bd637e
f 67/179/49 66/180/49 70/181/49
f 67/179/49 70/181/49 71/182/49
usemtl m_f59e3bac-8fcc-890c-63e5-9d78c1a9e541
f 71/183/50 69/184/50 105/185/50
f 71/183/50 105/185/50 67/186/50
usemtl m_cc4cbd32-c453-a4c6-e794-5e5fa231e7f1
f 78/187/51 76/188/51 72/189/51
usemtl m_95e20f84-55bb-7186-f91a-586499bd637e
f 76/190/52 78/191/52 79/192/52
f 76/190/52 79/192/52 77/193/52
usemtl m_cc4cbd32-c453-a4c6-e794-5e5fa231e7f1
f 77/194/53 79/195/53 73/196/53
usemtl m_95e20f84-55bb-7186-f91a-586499bd637e
f 78/197/54 80/198/54 81/199/54
f 78/197/54 81/199/54 79/200/54
usemtl m_cc4cbd32-c453-a4c6-e794-5e5fa231e7f1
f 79/201/55 81/202/55 73/203/55
usemtl m_95e20f84-55bb-7186-f91a-586499bd637e
f 80/204/56 82/205/56 83/206/56
f 80/204/56 83/206/56 81/207/56
usemtl m_cc4cbd32-c453-a4c6-e794-5e5fa231e7f1
f 81/208/57 83/209/57 73/210/57
usemtl m_95e20f84-55bb-7186-f91a-586499bd637e
f 82/211/58 84/212/58 85/213/58
f 82/211/58 85/213/58 83/214/58
f 84/215/59 86/216/59 87/217/59
f 84/215/59 87/217/59 85/218/59
usemtl m_cc4cbd32-c453-a4c6-e794-5e5fa231e7f1
f 85/219/60 87/220/60 73/221/60
usemtl m_95e20f84-55bb-7186-f91a-586499bd637e
f 86/222/61 88/223/61 89/224/61
f 86/222/61 89/224/61 87/225/61
f 88/226/62 74/227/62 75/228/62
f 88/226/62 75/228/62 89/229/62
usemtl m_cc4cbd32-c453-a4c6-e794-5e5fa231e7f1
f 89/230/63 75/231/63 73/232/63
f 94/233/64 92/234/64 93/235/64
f 94/233/64 93/235/64 95/236/64
usemtl m_95e20f84-55bb-7186-f91a-586499bd637e
f 91/237/65 90/238/65 92/239/65
f 91/237/65 92/239/65 94/240/65
usemtl m_cc4cbd32-c453-a4c6-e794-5e5fa231e7f1
f 83/241/66 85/242/66 73/243/66
f 87/244/67 89/245/67 73/246/67
usemtl m_f59e3bac-8fcc-890c-63e5-9d78c1a9e541
f 92/247/68 90/248/68 59/249/68
f 92/247/68 59/249/68 62/250/68
usemtl m_cc4cbd32-c453-a4c6-e794-5e5fa231e7f1
f 97/251/69 100/252/69 143/253/69
f 97/251/69 143/253/69 96/254/69
f 98/255/70 147/256/70 104/257/70
f 98/255/70 104/257/70 99/258/70
usemtl m_f59e3bac-8fcc-890c-63e5-9d78c1a9e541
f 143/259/71 100/260/71 104/261/71
f 143/259/71 104/261/71 147/262/71
f 97/263/72 96/264/72 98/265/72
f 97/263/72 98/265/72 99/266/72
usemtl m_cc4cbd32-c453-a4c6-e794-5e5fa231e7f1
f 103/267/73 101/268/73 100/269/73
f 103/267/73 100/269/73 102/270/73
f 106/271/74 104/272/74 105/273/74
f 106/271/74 105/273/74 107/274/74
usemtl m_f59e3bac-8fcc-890c-63e5-9d78c1a9e541
f 100/275/75 101/276/75 105/277/75
f 100/275/75 105/277/75 104/278/75
usemtl m_cc4cbd32-c453-a4c6-e794-5e5fa231e7f1
f 103/279/76 102/280/76 106/281/76
f 103/279/76 106/281/76 107/282/76
usemtl m_f59e3bac-8fcc-890c-63e5-9d78c1a9e541
f 107/283/77 105/284/77 101/285/77
f 107/283/77 101/285/77 103/286/77
usemtl m_cc4cbd32-c453-a4c6-e794-5e5fa231e7f1
f 114/287/78 112/288/78 108/289/78
usemtl m_f415f46e-f4d9-ee92-0447-ff4177d4eb65
f 112/290/79 114/291/79 115/292/79
f 112/290/79 115/292/79 113/293/79
usemtl m_cc4cbd32-c453-a4c6-e794-5e5fa231e7f1
f 113/294/80 115/295/80 109/296/80
f 116/297/81 114/298/81 108/299/81
usemtl m_f415f46e-f4d9-ee92-0447-ff4177d4eb65
f 114/300/82 116/301/82 117/302/82
f 114/300/82 117/302/82 115/303/82
usemtl m_cc4cbd32-c453-a4c6-e794-5e5fa231e7f1
f 115/304/83 117/305/83 109/306/83
f 118/307/84 116/308/84 108/309/84
usemtl m_f415f46e-f4d9-ee92-0447-ff4177d4eb65
f 116/310/85 118/311/85 119/312/85
f 116/310/85 119/312/85 117/313/85
usemtl m_cc4cbd32-c453-a4c6-e794-5e5fa231e7f1
f 117/314/86 119/315/86 109/316/86
f 120/317/87 118/318/87 108/319/87
usemtl m_f415f46e-f4d9-ee92-0447-ff4177d4eb65
f 118/320/88 120/321/88 121/322/88
f 118/320/88 121/322/88 119/323/88
usemtl m_cc4cbd32-c453-a4c6-e794-5e5fa231e7f1
f 119/324/89 121/325/89 109/326/89
f 122/327/90 120/328/90 108/329/90
usemtl m_f415f46e-f4d9-ee92-0447-ff4177d4eb65
f 120/330/91 122/331/91 123/332/91
f 120/330/91 123/332/91 121/333/91
usemtl m_cc4cbd32-c453-a4c6-e794-5e5fa231e7f1
f 121/334/92 123/335/92 109/336/92
f 124/337/93 122/338/93 108/339/93
usemtl m_f415f46e-f4d9-ee92-0447-ff4177d4eb65
f 122/340/94 124/341/94 125/342/94
f 122/340/94 125/342/94 123/343/94
usemtl m_cc4cbd32-c453-a4c6-e794-5e5fa231e7f1
f 123/344/95 125/345/95 109/346/95
f 110/347/96 124/348/96 108/349/96
usemtl m_f415f46e-f4d9-ee92-0447-ff4177d4eb65
f 124/350/97 110/351/97 111/352/97
f 124/350/97 111/352/97 125/353/97
usemtl m_cc4cbd32-c453-a4c6-e794-5e5fa231e7f1
f 125/354/98 111/355/98 109/356/98
f 129/357/99 127/358/99 126/359/99
f 129/357/99 126/359/99 128/360/99
f 132/361/100 130/362/100 131/363/100
f 132/361/100 131/363/100 133/364/100
usemtl m_a82e693f-f83a-c913-6947-cc5e5ef2ffb6
f 128/365/101 126/366/101 130/367/101
f 128/365/101 130/367/101 132/368/101
usemtl m_cc4cbd32-c453-a4c6-e794-5e5fa231e7f1
f 137/369/102 135/370/102 134/371/102
f 137/369/102 134/371/102 136/372/102
f 140/373/103 138/374/103 139/375/103
f 140/373/103 139/375/103 141/376/103
usemtl m_f59e3bac-8fcc-890c-63e5-9d78c1a9e541
f 134/377/104 135/378/104 139/379/104
f 134/377/104 139/379/104 138/380/104
usemtl m_cc4cbd32-c453-a4c6-e794-5e5fa231e7f1
f 137/381/105 136/382/105 140/383/105
f 137/381/105 140/383/105 141/384/105
usemtl m_a82e693f-f83a-c913-6947-cc5e5ef2ffb6
f 136/385/106 134/386/106 138/387/106
f 136/385/106 138/387/106 140/388/106
usemtl m_cc4cbd32-c453-a4c6-e794-5e5fa231e7f1
f 145/389/107 143/390/107 142/391/107
f 145/389/107 142/391/107 144/392/107
f 148/393/108 146/394/108 147/395/108
f 148/393/108 147/395/108 149/396/108
usemtl m_f59e3bac-8fcc-890c-63e5-9d78c1a9e541
f 142/397/109 143/398/109 147/399/109
f 142/397/109 147/399/109 146/400/109
usemtl m_95e20f84-55bb-7186-f91a-586499bd637e
f 144/401/110 142/402/110 146/403/110
f 144/401/110 146/403/110 148/404/110
usemtl m_f59e3bac-8fcc-890c-63e5-9d78c1a9e541
f 130/405/111 126/406/111 144/407/111
f 130/405/111 144/407/111 148/408/111
o r
v 0.24843749999999995 1 -0.19270833333333331
v 0.24843749999999995 1 -0.25416666666666665
v 0.24843749999999995 0.006250000000000089 -0.19270833333333331
v 0.24843749999999995 0.006250000000000089 -0.25416666666666665
v 0.24999999999999997 1 -0.19270833333333331
v 0.24999999999999997 1 -0.25416666666666665
v 0.24999999999999997 0.006250000000000089 -0.19270833333333331
v 0.24999999999999997 0.006250000000000089 -0.25416666666666665
v 0.24843749999999995 1 -0.25416666666666665
v 0.24843749999999995 1 -0.5
v 0.24843749999999995 0.006250000000000089 -0.25416666666666665
v 0.24843749999999995 0.006250000000000089 -0.5
v 0.24999999999999997 1 -0.25416666666666665
v 0.24999999999999997 1 -0.5
v 0.24999999999999997 0.006250000000000089 -0.25416666666666665
v 0.24999999999999997 0.006250000000000089 -0.5
v 0.24843749999999995 0.06830357142857152 -0.19270833333333331
v 0.24999999999999997 0.06830357142857152 -0.19270833333333331
v 0.24843749999999995 0.06871374553571441 -0.1316562395833333
v 0.24999999999999997 0.06871374553571441 -0.1316562395833333
v 0.24843749999999995 0.00666017410714298 -0.19311457291666664
v 0.24999999999999997 0.00666017410714298 -0.19311457291666664
v 0.24843749999999995 0.00666017410714298 -0.18467081249999998
v 0.24999999999999997 0.00666017410714298 -0.18467081249999998
v 0.24843749999999995 0.010861200892857192 -0.1691433645833333
v 0.24999999999999997 0.010861200892857192 -0.1691433645833333
v 0.24843749999999995 0.01897656696428579 -0.1552212083333333
v 0.24999999999999997 0.01897656696428579 -0.1552212083333333
v 0.24843749999999995 0.03045337500000006 -0.14385448958333333
v 0.24999999999999997 0.03045337500000006 -0.14385448958333333
v 0.24843749999999995 0.04451037053571438 -0.13581696875
v 0.24999999999999997 0.04451037053571438 -0.13581696875
v 0.24843749999999995 0.060188205357142976 -0.1316562395833333
v 0.24999999999999997 0.060188205357142976 -0.1316562395833333
v 0.24843749999999995 0.9993230519480519 -0.13124999999999998
v 0.24843749999999995 0.06830357142857152 -0.13124999999999998
v 0.24999999999999997 0.9993230519480519 -0.13124999999999998
v 0.24999999999999997 0.8743230519480519 -0.19270833333333331
v 0.24999999999999997 0.06830357142857152 -0.13124999999999998
v 0.24999999999999997 0.06830357142857152 -0.19270833333333331
v -0.24999999999999997 1 -0.25
v -0.24999999999999997 0 -0.1875
v -0.24999999999999997 0 -0.25
v 0.24843749999999998 1 -0.25
v 0.24843749999999998 0 -0.1875
v 0.24843749999999998 0 -0.25
v -0.24999999999999997 1 -0.5
v -0.24999999999999997 0 -0.25
v -0.24999999999999997 0 -0.5
v 0.24843749999999998 1 -0.5
v 0.24843749999999998 0 -0.25
v 0.24843749999999998 0 -0.5
v -0.24999999999999997 0.0625 -0.1875
v 0.24843749999999998 0.0625 -0.1875
v -0.24999999999999997 0.062913125 -0.125413125
v 0.24843749999999998 0.062913125 -0.125413125
v -0.24999999999999997 0.00041312499999999986 -0.18791312500000001
v 0.24843749999999998 0.00041312499999999986 -0.18791312500000001
v -0.24999999999999997 0.00041312499999999986 -0.17932625
v 0.24843749999999998 0.00041312499999999986 -0.17932625
v -0.24999999999999997 0.004644375 -0.163535625
v 0.24843749999999998 0.004644375 -0.163535625
v -0.24999999999999997 0.012818125 -0.1493775
v 0.24843749999999998 0.012818125 -0.1493775
v -0.24999999999999997 0.0243775 -0.137818125
v 0.24843749999999998 0.0243775 -0.137818125
v -0.24999999999999997 0.038535625 -0.129644375
v 0.24843749999999998 0.038535625 -0.129644375
v -0.24999999999999997 0.05432625 -0.125413125
v 0.24843749999999998 0.05432625 -0.125413125
v -0.24999999999999997 0.625 -0.125
v -0.24999999999999997 0.625 -0.1875
v -0.24999999999999997 0.0625 -0.125
v -0.24999999999999997 0.0625 -0.1875
v 0.24843749999999998 0.625 -0.125
v 0.24843749999999998 0.5625 -0.1875
v 0.24843749999999998 0.0625 -0.125
v 0.24843749999999998 0.0625 -0.1875
v -0.24999999999999997 1 -0.125
v -0.24999999999999997 1 -0.140625
v -0.24999999999999997 0.63125 -0.125
v -0.24999999999999997 0.63125 -0.140625
v 0.24843749999999998 1 -0.125
v 0.24843749999999998 1 -0.140625
v 0.24843749999999998 0.63125 -0.125
v 0.24843749999999998 0.63125 -0.140625
v -0.24999999999999997 1 -0.13125
v -0.24999999999999997 1 -0.1875
v -0.24999999999999997 0.625 -0.13125
v -0.24999999999999997 0.5625 -0.1875
v 0.24843749999999998 1 -0.13125
v 0.24843749999999998 1 -0.1875
v 0.24843749999999998 0.625 -0.13125
v 0.24843749999999998 0.5625 -0.1875
vt 0 1
vt 0.0625 1
vt 0.0625 0.125
vt 0 0.125
vt 0 1
vt 1 1
vt 1 0.9375
vt 0 0.9375
vt 0 1
vt 1 1
vt 1 0.9375
vt 0 0.9375
vt 0 1
vt 0.25 1
vt 0.25 0.125
vt 0 0.125
vt 0 1
vt 1 1
vt 1 0.75
vt 0 0.75
vt 0 1
vt 1 1
vt 1 0.75
vt 0 0.75
vt 0 1
vt 1 1
vt 1 0.125
vt 0 0.125
vt 0 0.86835
vt 0 1
vt 0.5 0.934175
vt 0.13165 1
vt 0.13165 0.5
vt 0 0.5
vt 0 1
vt 0 0.86835
vt 0 1
vt 0.5 0.934175
vt 0.13165 1
vt 0.13165 0.5
vt 0 0.5
vt 0 1
vt 0.017185 0.86947125
vt 0 1
vt 0.504314375 1
vt 0.13165 1
vt 0.13165 0.5
vt 0 0.5
vt 0 1
vt 0.017183125 0.86947625
vt 0 1
vt 0.504314375 1
vt 0.13165 1
vt 0.13165 0.5
vt 0 0.5
vt 0 1
vt 0.13165 1
vt 0.13165 0.5
vt 0 0.5
vt 0 1
vt 0.01718375 0.86947625
vt 0 1
vt 0.504314375 1
vt 0.13165 1
vt 0.13165 0.5
vt 0 0.5
vt 0 1
vt 0.13165 1
vt 0.13165 0.5
vt 0 0.5
vt 0 1
vt 0.13165 0.5
vt 0 0.5
vt 0.065825 1
vt 0 1
vt 0.0625 1
vt 0.0625 0.5
vt 0 0.5
vt 0 1
vt 1 1
vt 1 0.5
vt 0 0.5
vt 0.017184375 0.869471875
vt 0 1
vt 0.504314375 1
vt 0.017184375 0.86947125
vt 0 1
vt 0.504314375 1
vt 0.0015625000000028422 0.9999999999999988
vt 0.0015625000000028422 0.9400999999999988
vt 2.8421275749535013e-15 0.9400999999999988
vt 2.8421275749535013e-15 0.9999999999999988
vt 0 1
vt 0.0625 1
vt 0.0625 0.125
vt 0 0.125
vt 0 1
vt 0.0625 1
vt 0.0625 0.125
vt 0 0.125
vt 0 1
vt 1 1
vt 1 0.9375
vt 0 0.9375
vt 0 1
vt 1 1
vt 1 0.9375
vt 0 0.9375
vt 0 1
vt 0.25 1
vt 0.25 0.125
vt 0 0.125
vt 0 1
vt 0.25 1
vt 0.25 0.125
vt 0 0.125
vt 0 1
vt 1 1
vt 1 0.75
vt 0 0.75
vt 0 1
vt 1 1
vt 1 0.75
vt 0 0.75
vt 0 1
vt 1 1
vt 1 0.125
vt 0 0.125
vt 0 0.86835
vt 0 1
vt 0.5 0.934175
vt 0.13165 1
vt 0.13165 0.5
vt 0 0.5
vt 0 1
vt 0 0.86835
vt 0 1
vt 0.5 0.934175
vt 0 0.982815625
vt 0.13052875 1
vt 0.13052875 0.495685625
vt 0.13165 1
vt 0.13165 0.5
vt 0 0.5
vt 0 1
vt 0.017185 0.86947125
vt 0 1
vt 0.504314375 1
vt 0 0.98281625
vt 0.13052375 1
vt 0.13052375 0.495685625
vt 0.13165 1
vt 0.13165 0.5
vt 0 0.5
vt 0 1
vt 0.017183125 0.86947625
vt 0 1
vt 0.504314375 1
vt 0 0.982815625
vt 0.130528125 1
vt 0.130528125 0.495685625
vt 0.13165 1
vt 0.13165 0.5
vt 0 0.5
vt 0 1
vt 0.017184375 0.869471875
vt 0 1
vt 0.504314375 1
vt 0 0.982816875
vt 0.13052375 1
vt 0.13052375 0.495685625
vt 0.13165 1
vt 0.13165 0.5
vt 0 0.5
vt 0 1
vt 0.01718375 0.86947625
vt 0 1
vt 0.504314375 1
vt 0 0.982815
vt 0.13052875 1
vt 0.13052875 0.495685625
vt 0.13165 1
vt 0.13165 0.5
vt 0 0.5
vt 0 1
vt 0.017184375 0.86947125
vt 0 1
vt 0.504314375 1
vt 0 1
vt 0.13165 1
vt 0.065825 0.5
vt 0.13165 1
vt 0.13165 0.5
vt 0 0.5
vt 0 1
vt 0.13165 0.5
vt 0 0.5
vt 0.065825 1
vt 0 1
vt 0.0625 1
vt 0.0625 0.5
vt 0 0.5
vt 0 1
vt 0.0625 1
vt 0.0625 0.5
vt 0 0.5
vt 0 1
vt 1 1
vt 1 0.5
vt 0 0.5
vt 0 1
vt 0.015625 1
vt 0.015625 0.69375
vt 0 0.69375
vt 0 1
vt 0.015625 1
vt 0.015625 0.69375
vt 0 0.69375
vt 0 1
vt 0.9875 1
vt 0.9875 0.984375
vt 0 0.984375
vt 0 1
vt 0.9875 1
vt 0.9875 0.984375
vt 0 0.984375
vt 0 1
vt 0.9875 1
vt 0.9875 0.69375
vt 0 0.69375
vt 0 1
vt 0.046875 1
vt 0.046875 0.6875
vt 0 0.6875
vt 0 1
vt 0.046875 1
vt 0.046875 0.6875
vt 0 0.6875
vt 0 1
vt 1 1
vt 1 0.953125
vt 0 0.953125
vt 0 1
vt 1 1
vt 1 0.6875
vt 0 0.6875
vt 1 1
vt 1 0.984375
vt 0 0.984375
vt 0 1
vn 1 0 0
vn 0 1 0
vn 0 -1 0
vn 1 0 0
vn 0 1 0
vn 0 -1 0
vn 0 0 -1
vn -1 0 0
vn 0 -1 0
vn 1 0 0
vn 0 -0.9652941620906011 0.26116504481611663
vn 1 0 0
vn 0 -0.8639379840252266 0.5035982126243378
vn 1 0 0
vn 0 -0.7036908659480798 0.7105062738507251
vn 0 -0.49636945881460814 0.8681113755481453
vn 1 0 0
vn 0 -0.2565097807067507 0.9665416351103426
vn 0 0 1
vn 1 0 0
vn 1 0 0
vn 0 0 1
vn 1 0 0
vn 1 0 0
vn 0 0.9999393431829664 0.011014079844348842
vn -1 0 0
vn 1 0 0
vn 0 1 0
vn 0 -1 0
vn -1 0 0
vn 1 0 0
vn 0 1 0
vn 0 -1 0
vn 0 0 -1
vn -1 0 0
vn 0 -1 0
vn 1 0 0
vn -1 0 0
vn 0 -0.9659233062670585 0.2588284497695621
vn 1 0 0
vn -1 0 0
vn 0 -0.8660372506103097 0.4999794801342708
vn 1 0 0
vn -1 0 0
vn 0 -0.707106781186547 0.707106781186548
vn 1 0 0
vn -1 0 0
vn 0 -0.49997948013427107 0.8660372506103098
vn 1 0 0
vn -1 0 0
vn 0 -0.25882844976956315 0.9659233062670579
vn 1 0 0
vn -1 0 0
vn 0 0 1
vn 1 0 0
vn -1 0 0
vn 1 0 0
vn 0 0 1
vn -1 0 0
vn 1 0 0
vn 0 1 0
vn 0 -1 0
vn 0 0 1
vn -1 0 0
vn 1 0 0
vn 0 1 0
vn 0 0 1
vn 0 1 0
usemtl m_cc4cbd32-c453-a4c6-e794-5e5fa231e7f1
f 155/409/112 154/410/112 156/411/112
f 155/409/112 156/411/112 157/412/112
usemtl m_f59e3bac-8fcc-890c-63e5-9d78c1a9e541
f 155/413/113 151/414/113 150/415/113
f 155/413/113 150/415/113 154/416/113
usemtl m_95e20f84-55bb-7186-f91a-586499bd637e
f 156/417/114 152/418/114 153/419/114
f 156/417/114 153/419/114 157/420/114
usemtl m_cc4cbd32-c453-a4c6-e794-5e5fa231e7f1
f 163/421/115 162/422/115 164/423/115
f 163/421/115 164/423/115 165/424/115
usemtl m_f59e3bac-8fcc-890c-63e5-9d78c1a9e541
f 163/425/116 159/426/116 158/427/116
f 163/425/116 158/427/116 162/428/116
usemtl m_95e20f84-55bb-7186-f91a-586499bd637e
f 164/429/117 160/430/117 161/431/117
f 164/429/117 161/431/117 165/432/117
usemtl m_f59e3bac-8fcc-890c-63e5-9d78c1a9e541
f 159/433/118 163/434/118 165/435/118
f 159/433/118 165/435/118 161/436/118
usemtl m_cc4cbd32-c453-a4c6-e794-5e5fa231e7f1
f 170/437/119 172/438/119 166/439/119
usemtl m_95e20f84-55bb-7186-f91a-586499bd637e
f 173/440/120 172/441/120 170/442/120
f 173/440/120 170/442/120 171/443/120
usemtl m_cc4cbd32-c453-a4c6-e794-5e5fa231e7f1
f 173/444/121 171/445/121 167/446/121
usemtl m_95e20f84-55bb-7186-f91a-586499bd637e
f 175/447/122 174/448/122 172/449/122
f 175/447/122 172/449/122 173/450/122
usemtl m_cc4cbd32-c453-a4c6-e794-5e5fa231e7f1
f 175/451/123 173/452/123 167/453/123
usemtl m_95e20f84-55bb-7186-f91a-586499bd637e
f 177/454/124 176/455/124 174/456/124
f 177/454/124 174/456/124 175/457/124
usemtl m_cc4cbd32-c453-a4c6-e794-5e5fa231e7f1
f 177/458/125 175/459/125 167/460/125
usemtl m_95e20f84-55bb-7186-f91a-586499bd637e
f 179/461/126 178/462/126 176/463/126
f 179/461/126 176/463/126 177/464/126
f 181/465/127 180/466/127 178/467/127
f 181/465/127 178/467/127 179/468/127
usemtl m_cc4cbd32-c453-a4c6-e794-5e5fa231e7f1
f 181/469/128 179/470/128 167/471/128
usemtl m_95e20f84-55bb-7186-f91a-586499bd637e
f 183/472/129 182/473/129 180/474/129
f 183/472/129 180/474/129 181/475/129
f 169/476/130 168/477/130 182/478/130
f 169/476/130 182/478/130 183/479/130
usemtl m_cc4cbd32-c453-a4c6-e794-5e5fa231e7f1
f 169/480/131 183/481/131 167/482/131
f 187/483/132 186/484/132 188/485/132
f 187/483/132 188/485/132 189/486/132
usemtl m_95e20f84-55bb-7186-f91a-586499bd637e
f 186/487/133 184/488/133 185/489/133
f 186/487/133 185/489/133 188/490/133
usemtl m_cc4cbd32-c453-a4c6-e794-5e5fa231e7f1
f 179/491/134 177/492/134 167/493/134
f 183/494/135 181/495/135 167/496/135
usemtl m_f59e3bac-8fcc-890c-63e5-9d78c1a9e541
f 150/497/136 184/498/136 186/499/136
f 150/497/136 186/499/136 154/500/136
usemtl m_cc4cbd32-c453-a4c6-e794-5e5fa231e7f1
f 237/501/137 190/502/137 192/503/137
f 237/501/137 192/503/137 191/504/137
f 193/505/138 241/506/138 194/507/138
f 193/505/138 194/507/138 195/508/138
usemtl m_f59e3bac-8fcc-890c-63e5-9d78c1a9e541
f 193/509/139 190/510/139 237/511/139
f 193/509/139 237/511/139 241/512/139
f 194/513/140 191/514/140 192/515/140
f 194/513/140 192/515/140 195/516/140
usemtl m_cc4cbd32-c453-a4c6-e794-5e5fa231e7f1
f 190/517/141 196/518/141 198/519/141
f 190/517/141 198/519/141 197/520/141
f 199/521/142 193/522/142 200/523/142
f 199/521/142 200/523/142 201/524/142
usemtl m_f59e3bac-8fcc-890c-63e5-9d78c1a9e541
f 199/525/143 196/526/143 190/527/143
f 199/525/143 190/527/143 193/528/143
usemtl m_cc4cbd32-c453-a4c6-e794-5e5fa231e7f1
f 200/529/144 197/530/144 198/531/144
f 200/529/144 198/531/144 201/532/144
usemtl m_f59e3bac-8fcc-890c-63e5-9d78c1a9e541
f 196/533/145 199/534/145 201/535/145
f 196/533/145 201/535/145 198/536/145
usemtl m_cc4cbd32-c453-a4c6-e794-5e5fa231e7f1
f 206/537/146 208/538/146 202/539/146
usemtl m_f415f46e-f4d9-ee92-0447-ff4177d4eb65
f 209/540/147 208/541/147 206/542/147
f 209/540/147 206/542/147 207/543/147
usemtl m_cc4cbd32-c453-a4c6-e794-5e5fa231e7f1
f 209/544/148 207/545/148 203/546/148
f 208/547/149 210/548/149 202/549/149
usemtl m_f415f46e-f4d9-ee92-0447-ff4177d4eb65
f 211/550/150 210/551/150 208/552/150
f 211/550/150 208/552/150 209/553/150
usemtl m_cc4cbd32-c453-a4c6-e794-5e5fa231e7f1
f 211/554/151 209/555/151 203/556/151
f 210/557/152 212/558/152 202/559/152
usemtl m_f415f46e-f4d9-ee92-0447-ff4177d4eb65
f 213/560/153 212/561/153 210/562/153
f 213/560/153 210/562/153 211/563/153
usemtl m_cc4cbd32-c453-a4c6-e794-5e5fa231e7f1
f 213/564/154 211/565/154 203/566/154
f 212/567/155 214/568/155 202/569/155
usemtl m_f415f46e-f4d9-ee92-0447-ff4177d4eb65
f 215/570/156 214/571/156 212/572/156
f 215/570/156 212/572/156 213/573/156
usemtl m_cc4cbd32-c453-a4c6-e794-5e5fa231e7f1
f 215/574/157 213/575/157 203/576/157
f 214/577/158 216/578/158 202/579/158
usemtl m_f415f46e-f4d9-ee92-0447-ff4177d4eb65
f 217/580/159 216/581/159 214/582/159
f 217/580/159 214/582/159 215/583/159
usemtl m_cc4cbd32-c453-a4c6-e794-5e5fa231e7f1
f 217/584/160 215/585/160 203/586/160
f 216/587/161 218/588/161 202/589/161
usemtl m_f415f46e-f4d9-ee92-0447-ff4177d4eb65
f 219/590/162 218/591/162 216/592/162
f 219/590/162 216/592/162 217/593/162
usemtl m_cc4cbd32-c453-a4c6-e794-5e5fa231e7f1
f 219/594/163 217/595/163 203/596/163
f 218/597/164 204/598/164 202/599/164
usemtl m_f415f46e-f4d9-ee92-0447-ff4177d4eb65
f 205/600/165 204/601/165 218/602/165
f 205/600/165 218/602/165 219/603/165
usemtl m_cc4cbd32-c453-a4c6-e794-5e5fa231e7f1
f 205/604/166 219/605/166 203/606/166
f 220/607/167 221/608/167 223/609/167
f 220/607/167 223/609/167 222/610/167
f 225/611/168 224/612/168 226/613/168
f 225/611/168 226/613/168 227/614/168
usemtl m_a82e693f-f83a-c913-6947-cc5e5ef2ffb6
f 224/615/169 220/616/169 222/617/169
f 224/615/169 222/617/169 226/618/169
usemtl m_cc4cbd32-c453-a4c6-e794-5e5fa231e7f1
f 228/619/170 229/620/170 231/621/170
f 228/619/170 231/621/170 230/622/170
f 233/623/171 232/624/171 234/625/171
f 233/623/171 234/625/171 235/626/171
usemtl m_f59e3bac-8fcc-890c-63e5-9d78c1a9e541
f 233/627/172 229/628/172 228/629/172
f 233/627/172 228/629/172 232/630/172
usemtl m_cc4cbd32-c453-a4c6-e794-5e5fa231e7f1
f 234/631/173 230/632/173 231/633/173
f 234/631/173 231/633/173 235/634/173
usemtl m_a82e693f-f83a-c913-6947-cc5e5ef2ffb6
f 232/635/174 228/636/174 230/637/174
f 232/635/174 230/637/174 234/638/174
usemtl m_cc4cbd32-c453-a4c6-e794-5e5fa231e7f1
f 236/639/175 237/640/175 239/641/175
f 236/639/175 239/641/175 238/642/175
f 241/643/176 240/644/176 242/645/176
f 241/643/176 242/645/176 243/646/176
usemtl m_f59e3bac-8fcc-890c-63e5-9d78c1a9e541
f 241/647/177 237/648/177 236/649/177
f 241/647/177 236/649/177 240/650/177
usemtl m_95e20f84-55bb-7186-f91a-586499bd637e
f 240/651/178 236/652/178 238/653/178
f 240/651/178 238/653/178 242/654/178
usemtl m_f59e3bac-8fcc-890c-63e5-9d78c1a9e541
f 238/655/179 220/656/179 224/657/179
f 238/655/179 224/657/179 242/658/179
o dl_off
v 0.0625 0.125 -0.109375
v 0.0625 0.125 -0.171875
v 0.0625 0.0625 -0.109375
v 0.0625 0.0625 -0.171875
v -0.0625 0.125 -0.171875
v -0.0625 0.125 -0.109375
v -0.0625 0.0625 -0.171875
v -0.0625 0.0625 -0.109375
vt 0 1
vt 0.125 1
vt 0.125 0.9375
vt 0 0.9375
vt 0 1
vt 0.0625 1
vt 0.0625 0.9375
vt 0 0.9375
vt 0 1
vt 0.125 1
vt 0.125 0.9375
vt 0 0.9375
vt 0 1
vt 0.0625 1
vt 0.0625 0.9375
vt 0 0.9375
vt 0 1
vt 0.125 1
vt 0.125 0.9375
vt 0 0.9375
vt 0 1
vt 0.125 1
vt 0.125 0.9375
vt 0 0.9375
vn 0 0 -1
vn 1 0 0
vn 0 0 1
vn -1 0 0
vn 0 1 0
vn 0 -1 0
usemtl m_c4e970a6-7e7d-3bdf-035e-10403ac06252
f 250/661/180 248/660/180 245/659/180
f 247/662/180 250/661/180 245/659/180
f 247/665/181 245/664/181 244/663/181
f 246/666/181 247/665/181 244/663/181
f 246/669/182 244/668/182 249/667/182
f 251/670/182 246/669/182 249/667/182
f 251/673/183 249/672/183 248/671/183
f 250/674/183 251/673/183 248/671/183
f 244/677/184 245/676/184 248/675/184
f 249/678/184 244/677/184 248/675/184
f 247/681/185 246/680/185 251/679/185
f 250/682/185 247/681/185 251/679/185
o dl_on
v 0.0625 0.125 -0.109375
v 0.0625 0.125 -0.171875
v 0.0625 0.0625 -0.109375
v 0.0625 0.0625 -0.171875
v -0.0625 0.125 -0.171875
v -0.0625 0.125 -0.109375
v -0.0625 0.0625 -0.171875
v -0.0625 0.0625 -0.109375
vt 0 1
vt 0.125 1
vt 0.125 0.9375
vt 0 0.9375
vt 0 1
vt 0.0625 1
vt 0.0625 0.9375
vt 0 0.9375
vt 0 1
vt 0.125 1
vt 0.125 0.9375
vt 0 0.9375
vt 0 1
vt 0.0625 1
vt 0.0625 0.9375
vt 0 0.9375
vt 0 1
vt 0.125 1
vt 0.125 0.9375
vt 0 0.9375
vt 0 1
vt 0.125 1
vt 0.125 0.9375
vt 0 0.9375
vn 0 0 -1
vn 1 0 0
vn 0 0 1
vn -1 0 0
vn 0 1 0
vn 0 -1 0
usemtl m_51104fe5-17ac-a00f-b5ce-85d920fe5000#light
f 258/685/186 256/684/186 253/683/186
f 255/686/186 258/685/186 253/683/186
f 255/689/187 253/688/187 252/687/187
f 254/690/187 255/689/187 252/687/187
f 254/693/188 252/692/188 257/691/188
f 259/694/188 254/693/188 257/691/188
f 259/697/189 257/696/189 256/695/189
f 258/698/189 259/697/189 256/695/189
f 252/701/190 253/700/190 256/699/190
f 257/702/190 252/701/190 256/699/190
f 255/705/191 254/704/191 259/703/191
f 258/706/191 255/705/191 259/703/191