# Made in Blockbench 4.12.6
mtllib beijing_sis_out_a.mtl

o cube
v 0.125 0.03125 0.125
v 0.125 0.03125 -0.125
v 0.125 0 0.125
v 0.125 0 -0.125
v -0.125 0.03125 -0.125
v -0.125 0.03125 0.125
v -0.125 0 -0.125
v -0.125 0 0.125
vt 0 1
vt 0.25 1
vt 0.25 0.96875
vt 0 0.96875
vt 0 1
vt 0.25 1
vt 0.25 0.96875
vt 0 0.96875
vt 0 1
vt 0.25 1
vt 0.25 0.96875
vt 0 0.96875
vt 0 1
vt 0.25 1
vt 0.25 0.96875
vt 0 0.96875
vt 0 1
vt 0.25 1
vt 0.25 0.75
vt 0 0.75
vt 0 1
vt 0.25 1
vt 0.25 0.75
vt 0 0.75
vn 0 0 -1
vn 1 0 0
vn 0 0 1
vn -1 0 0
vn 0 1 0
vn 0 -1 0
usemtl m_118dc53a-1f15-d764-18f8-79ad63bd5b25
f 7/3/1 5/2/1 2/1/1
f 4/4/1 7/3/1 2/1/1
f 4/7/2 2/6/2 1/5/2
f 3/8/2 4/7/2 1/5/2
f 3/11/3 1/10/3 6/9/3
f 8/12/3 3/11/3 6/9/3
f 8/15/4 6/14/4 5/13/4
f 7/16/4 8/15/4 5/13/4
f 1/19/5 2/18/5 5/17/5
f 6/20/5 1/19/5 5/17/5
f 4/23/6 3/22/6 8/21/6
f 7/24/6 4/23/6 8/21/6
o cylinder
v -4.336808689942018e-19 0.03125 -4.336808689942018e-19
v -4.336808689942018e-19 1.875 -4.336808689942018e-19
v 0.0062800591976044364 0.03125 0.0234375
v 0.0062800591976044364 1.875 0.0234375
v 0.017157440802395556 0.03125 0.017157440802395563
v 0.017157440802395556 1.875 0.017157440802395563
v 0.0234375 0.03125 0.0062800591976044364
v 0.0234375 1.875 0.0062800591976044364
v 0.0234375 0.03125 -0.00628005919760444
v 0.0234375 1.875 -0.00628005919760444
v 0.017157440802395563 0.03125 -0.017157440802395563
v 0.017157440802395563 1.875 -0.017157440802395563
v 0.006280059197604444 0.03125 -0.023437499999999993
v 0.006280059197604444 1.875 -0.023437499999999993
v -0.006280059197604429 0.03125 -0.0234375
v -0.006280059197604429 1.875 -0.0234375
v -0.017157440802395563 0.03125 -0.017157440802395563
v -0.017157440802395563 1.875 -0.017157440802395563
v -0.023437499999999993 0.03125 -0.006280059197604435
v -0.023437499999999993 1.875 -0.006280059197604435
v -0.0234375 0.03125 0.006280059197604426
v -0.0234375 1.875 0.006280059197604426
v -0.017157440802395563 0.03125 0.017157440802395556
v -0.017157440802395563 1.875 0.017157440802395556
v -0.006280059197604436 0.03125 0.0234375
v -0.006280059197604436 1.875 0.0234375
vt 0.03235013523928455 0.9838249323803577
vt 0.028019106204516944 1
vt 0 0.9838249323803577
vt 9.08995101411847e-16 -0.8125
vt 0.01675000000000091 -0.8125
vt 0.01675000000000091 1
vt 9.08995101411847e-16 1
vt 6.938893903907228e-18 0.9676472083893831
vt 0.016173739543028677 0.9719831943434968
vt 0 1
vt 0.032352791610616854 0.9838262604569713
vt 0.02801680565650322 1
vt 0 0.9838262604569713
vt 9.08995101411847e-16 -0.8125
vt 0.01675000000000091 -0.8125
vt 0.01675000000000091 1
vt 9.08995101411847e-16 1
vt 3.469446951953614e-18 0.9676498647607155
vt 0.016175067619642276 0.971980893795483
vt 0 1
vt 0.03125 0.9832499999999991
vt 0.03125 0.9999999999999991
vt 0 0.9916249999999991
vt 9.08995101411847e-16 -0.8125
vt 0.01675000000000091 -0.8125
vt 0.01675000000000091 1
vt 9.08995101411847e-16 1
vt 0.03125 0.9832499999999991
vt 0.03125 0.9999999999999991
vt 0 0.9916249999999991
vt 3.469446951953614e-18 0.9676498647607155
vt 0.016175067619642276 0.971980893795483
vt 0 1
vt 9.08995101411847e-16 -0.8125
vt 0.01675000000000091 -0.8125
vt 0.01675000000000091 1
vt 9.08995101411847e-16 1
vt 0.032352791610616854 0.9838262604569713
vt 0.02801680565650322 1
vt 0 0.9838262604569713
vt 6.938893903907228e-18 0.9676472083893831
vt 0.016173739543028677 0.9719831943434968
vt 0 1
vt 9.08995101411847e-16 -0.8125
vt 0.01675000000000091 -0.8125
vt 0.01675000000000091 1
vt 9.08995101411847e-16 1
vt 0.03235013523928455 0.9838249323803577
vt 0.028019106204516944 1
vt 0 0.9838249323803577
vt 9.08995101411847e-16 0.96875
vt 0.01675000000000091 0.96875
vt 0.00837500000000091 1
vt 9.08995101411847e-16 -0.8125
vt 0.01675000000000091 -0.8125
vt 0.01675000000000091 1
vt 9.08995101411847e-16 1
vt 0.01675000000000091 1
vt 9.08995101411847e-16 1
vt 0.00837500000000091 0.96875
vt 0 1
vt 0.004331029034767606 0.9838249323803577
vt 0.03235013523928455 1
vt 9.08995101411847e-16 -0.8125
vt 0.01675000000000091 -0.8125
vt 0.01675000000000091 1
vt 9.08995101411847e-16 1
vt 0.01617373954302867 1
vt 0 0.9956640140458863
vt 0.016173739543028677 0.9676472083893831
vt 0 1
vt 0.004335985954113636 0.9838262604569713
vt 0.032352791610616854 1
vt 9.08995101411847e-16 -0.8125
vt 0.01675000000000091 -0.8125
vt 0.01675000000000091 1
vt 9.08995101411847e-16 1
vt 0.016175067619642273 1
vt 0 0.9956689709652324
vt 0.016175067619642276 0.9676498647607155
vt 0 0.9999999999999991
vt 0 0.9832499999999991
vt 0.03125 0.9916249999999991
vt 9.08995101411847e-16 -0.8125
vt 0.01675000000000091 -0.8125
vt 0.01675000000000091 1
vt 9.08995101411847e-16 1
vt 0 0.9999999999999991
vt 0 0.9832499999999991
vt 0.03125 0.9916249999999991
vt 0.016175067619642273 1
vt 0 0.9956689709652324
vt 0.016175067619642276 0.9676498647607155
vt 9.08995101411847e-16 -0.8125
vt 0.01675000000000091 -0.8125
vt 0.01675000000000091 1
vt 9.08995101411847e-16 1
vt 0 1
vt 0.004335985954113636 0.9838262604569713
vt 0.032352791610616854 1
vt 0.01617373954302867 1
vt 0 0.9956640140458863
vt 0.016173739543028677 0.9676472083893831
vt 9.08995101411847e-16 -0.8125
vt 0.01675000000000091 -0.8125
vt 0.01675000000000091 1
vt 9.08995101411847e-16 1
vt 0 1
vt 0.004331029034767606 0.9838249323803577
vt 0.03235013523928455 1
vt 0.01675000000000091 1
vt 9.08995101411847e-16 1
vt 0.00837500000000091 0.96875
vt 9.08995101411847e-16 -0.8125
vt 0.01675000000000091 -0.8125
vt 0.01675000000000091 1
vt 9.08995101411847e-16 1
vt 9.08995101411847e-16 0.96875
vt 0.01675000000000091 0.96875
vt 0.00837500000000091 1
vn 0 -1 0
vn 0.5000000000000001 0 0.8660254037844386
vn 0 1 0
vn 0 -1 0
vn 0.8660254037844387 0 0.5000000000000003
vn 0 1 0
vn 0 -1 0
vn 1 0 0
vn 0 1 0
vn 0 -1 0
vn 0.8660254037844387 0 -0.5
vn 0 1 0
vn 0 -1 0
vn 0.4999999999999997 0 -0.8660254037844388
vn 0 1 0
vn 0 -1 0
vn 5.5245449808451715e-16 0 -1
vn 0 1 0
vn 0 -1 0
vn -0.49999999999999956 0 -0.8660254037844389
vn 0 1 0
vn 0 -1 0
vn -0.866025403784439 0 -0.49999999999999933
vn 0 1 0
vn 0 -1 0
vn -1 0 -5.524544980845176e-16
vn 0 1 0
vn 0 -1 0
vn -0.8660254037844389 0 0.49999999999999983
vn 0 1 0
vn 0 -1 0
vn -0.5000000000000002 0 0.8660254037844386
vn 0 1 0
vn 0 -1 0
vn 0 0 1
vn 0 1 0
usemtl m_118dc53a-1f15-d764-18f8-79ad63bd5b25
f 13/25/7 11/26/7 9/27/7
f 11/28/8 13/29/8 14/30/8
f 11/28/8 14/30/8 12/31/8
f 12/32/9 14/33/9 10/34/9
f 15/35/10 13/36/10 9/37/10
f 13/38/11 15/39/11 16/40/11
f 13/38/11 16/40/11 14/41/11
f 14/42/12 16/43/12 10/44/12
f 17/45/13 15/46/13 9/47/13
f 15/48/14 17/49/14 18/50/14
f 15/48/14 18/50/14 16/51/14
f 16/52/15 18/53/15 10/54/15
f 19/55/16 17/56/16 9/57/16
f 17/58/17 19/59/17 20/60/17
f 17/58/17 20/60/17 18/61/17
f 18/62/18 20/63/18 10/64/18
f 21/65/19 19/66/19 9/67/19
f 19/68/20 21/69/20 22/70/20
f 19/68/20 22/70/20 20/71/20
f 20/72/21 22/73/21 10/74/21
f 23/75/22 21/76/22 9/77/22
f 21/78/23 23/79/23 24/80/23
f 21/78/23 24/80/23 22/81/23
f 22/82/24 24/83/24 10/84/24
f 25/85/25 23/86/25 9/87/25
f 23/88/26 25/89/26 26/90/26
f 23/88/26 26/90/26 24/91/26
f 24/92/27 26/93/27 10/94/27
f 27/95/28 25/96/28 9/97/28
f 25/98/29 27/99/29 28/100/29
f 25/98/29 28/100/29 26/101/29
f 26/102/30 28/103/30 10/104/30
f 29/105/31 27/106/31 9/107/31
f 27/108/32 29/109/32 30/110/32
f 27/108/32 30/110/32 28/111/32
f 28/112/33 30/113/33 10/114/33
f 31/115/34 29/116/34 9/117/34
f 29/118/35 31/119/35 32/120/35
f 29/118/35 32/120/35 30/121/35
f 30/122/36 32/123/36 10/124/36
f 33/125/37 31/126/37 9/127/37
f 31/128/38 33/129/38 34/130/38
f 31/128/38 34/130/38 32/131/38
f 32/132/39 34/133/39 10/134/39
f 11/135/40 33/136/40 9/137/40
f 33/138/41 11/139/41 12/140/41
f 33/138/41 12/140/41 34/141/41
f 34/142/42 12/143/42 10/144/42
o cube
v 0.0625 2 0.03125
v 0.0625 2 -0.03125
v 0.0625 1.875 0.03125
v 0.0625 1.875 -0.03125
v -0.0625 2 -0.03125
v -0.0625 2 0.03125
v -0.0625 1.875 -0.03125
v -0.0625 1.875 0.03125
vt 0 1
vt 0.125 1
vt 0.125 0.875
vt 0 0.875
vt 0 1
vt 0.0625 1
vt 0.0625 0.875
vt 0 0.875
vt 0 1
vt 0.125 1
vt 0.125 0.875
vt 0 0.875
vt 0 1
vt 0.0625 1
vt 0.0625 0.875
vt 0 0.875
vt 0 1
vt 0.125 1
vt 0.125 0.9375
vt 0 0.9375
vt 0 1
vt 0.125 1
vt 0.125 0.9375
vt 0 0.9375
vn 0 0 -1
vn 1 0 0
vn 0 0 1
vn -1 0 0
vn 0 1 0
vn 0 -1 0
usemtl m_b22bbed4-1cfd-21b6-ef20-c50849cbb522
f 41/147/43 39/146/43 36/145/43
f 38/148/43 41/147/43 36/145/43
f 38/151/44 36/150/44 35/149/44
f 37/152/44 38/151/44 35/149/44
f 37/155/45 35/154/45 40/153/45
f 42/156/45 37/155/45 40/153/45
f 42/159/46 40/158/46 39/157/46
f 41/160/46 42/159/46 39/157/46
f 35/163/47 36/162/47 39/161/47
f 40/164/47 35/163/47 39/161/47
f 38/167/48 37/166/48 42/165/48
f 41/168/48 38/167/48 42/165/48
o cube
v 0.74375 1.9375 0.034375
v 0.74375 1.9375 0.01875
v -0.75 2.125 0.034375
v -0.75 2.125 0.01875
v -0.75 1.75 0.034375
v -0.75 1.75 0.01875
v 0.63125 2.125 0.034375
v 0.63125 1.75 0.034375
v 0.63125 1.75 0.01875
v 0.63125 2.125 0.01875
vt 0.015625 0.625
vt 0.015625 1
vt 0 1
vt 0 0.625
vt 0 0.984375
vt 0.9166666666666666 0.984375
vt 0.9166666666666666 1
vt 0 1
vt 0 0.984375
vt 0.9166666666666666 0.984375
vt 0.9166666666666666 1
vt 0 1
vt 0 0.625
vt 0.9166666666666666 0.625
vt 0.9166666666666666 1
vt 0 1
vt 1 1
vt 0.08333333333333337 1
vt 0.08333333333333337 0.625
vt 1 0.625
vt 0.9166666666666666 1
vt 0.9166666666666666 0.625
vt 1 0.625
vt 1 1
vt 0.9166666666666666 1
vt 0.9166666666666666 0.984375
vt 1 0.984375
vt 0 0.625
vt 0.08333333333333337 0.625
vt 0.08333333333333337 1
vt 1 1
vt 0.9166666666666666 1
vt 0.9166666666666666 0.984375
vt 1 0.984375
vn -1 0 0
vn 0 1 0
vn 0 -1 0
vn 0 0 1
vn 0 0 -1
vn 0 0 1
vn 0.8574929257125442 -0.5144957554275267 0
vn 0 0 -1
vn 0.8574929257125442 0.5144957554275267 0
usemtl m_419677d7-bdae-cb51-3660-a1a0640cdb19
f 47/169/49 45/170/49 46/171/49
f 47/169/49 46/171/49 48/172/49
f 45/173/50 49/174/50 52/175/50
f 45/173/50 52/175/50 46/176/50
f 48/177/51 51/178/51 50/179/51
f 48/177/51 50/179/51 47/180/51
f 47/181/52 50/182/52 49/183/52
f 47/181/52 49/183/52 45/184/52
usemtl m_118dc53a-1f15-d764-18f8-79ad63bd5b25
f 46/185/53 52/186/53 51/187/53
f 46/185/53 51/187/53 48/188/53
usemtl m_419677d7-bdae-cb51-3660-a1a0640cdb19
f 49/189/54 50/190/54 43/191/54
f 43/192/55 50/193/55 51/194/55
f 43/192/55 51/194/55 44/195/55
usemtl m_118dc53a-1f15-d764-18f8-79ad63bd5b25
f 44/196/56 51/197/56 52/198/56
usemtl m_419677d7-bdae-cb51-3660-a1a0640cdb19
f 44/199/57 52/200/57 49/201/57
f 44/199/57 49/201/57 43/202/57
o cube
v 0.74375 1.9375 -0.034374999999999996
v 0.74375 1.9375 -0.018749999999999996
v -0.75 2.125 -0.034374999999999996
v -0.75 2.125 -0.018749999999999996
v -0.75 1.75 -0.034374999999999996
v -0.75 1.75 -0.018749999999999996
v 0.63125 2.125 -0.034374999999999996
v 0.63125 1.75 -0.034374999999999996
v 0.63125 1.75 -0.018749999999999996
v 0.63125 2.125 -0.018749999999999996
vt 0 1
vt 0.015625 1
vt 0.015625 0.625
vt 0 0.625
vt 0.9166666666666666 1
vt 0.9166666666666666 0.984375
vt 0 0.984375
vt 0 1
vt 0.9166666666666666 1
vt 0.9166666666666666 0.984375
vt 0 0.984375
vt 0 1
vt 0.9166666666666666 1
vt 0.9166666666666666 0.625
vt 0 0.625
vt 0 1
vt 0.08333333333333337 0.625
vt 0.08333333333333337 1
vt 1 1
vt 1 0.625
vt 0.9166666666666666 0.625
vt 0.9166666666666666 1
vt 1 0.625
vt 0.9166666666666666 0.984375
vt 0.9166666666666666 1
vt 1 1
vt 1 0.984375
vt 0.08333333333333337 0.625
vt 0 0.625
vt 0.08333333333333337 1
vt 0.9166666666666666 0.984375
vt 0.9166666666666666 1
vt 1 1
vt 1 0.984375
vn -1 0 0
vn 0 1 0
vn 0 -1 0
vn 0 0 -1
vn 0 0 1
vn 0 0 -1
vn 0.8574929257125442 -0.5144957554275267 0
vn 0 0 1
vn 0.8574929257125442 0.5144957554275267 0
usemtl m_419677d7-bdae-cb51-3660-a1a0640cdb19
f 56/203/58 55/204/58 57/205/58
f 56/203/58 57/205/58 58/206/58
f 62/207/59 59/208/59 55/209/59
f 62/207/59 55/209/59 56/210/59
f 60/211/60 61/212/60 58/213/60
f 60/211/60 58/213/60 57/214/60
f 59/215/61 60/216/61 57/217/61
f 59/215/61 57/217/61 55/218/61
usemtl m_118dc53a-1f15-d764-18f8-79ad63bd5b25
f 61/219/62 62/220/62 56/221/62
f 61/219/62 56/221/62 58/222/62
usemtl m_419677d7-bdae-cb51-3660-a1a0640cdb19
f 60/223/63 59/224/63 53/225/63
f 61/226/64 60/227/64 53/228/64
f 61/226/64 53/228/64 54/229/64
usemtl m_118dc53a-1f15-d764-18f8-79ad63bd5b25
f 61/230/65 54/231/65 62/232/65
usemtl m_419677d7-bdae-cb51-3660-a1a0640cdb19
f 59/233/66 62/234/66 54/235/66
f 59/233/66 54/235/66 53/236/66
o cube
v 0.75 2.125 0.03515624999999997
v 0.75 2.125 -0.03515625
v 0.75 1.75 0.03515624999999997
v 0.75 1.75 -0.03515625
v -0.75 2.125 -0.03515625
v -0.75 2.125 0.03515624999999997
v -0.75 1.75 -0.03515625
v -0.75 1.75 0.03515624999999997
vt 0 1
vt 1 1
vt 1 0
vt 0 0
vt 0 1
vt 0.002056672760511882 1
vt 0.002056672760511882 0.9615384615384616
vt 0 0.9615384615384616
vt 1 1
vt 0 1
vt 0 0
vt 1 0
vt 0 1
vt 0.002056672760511882 1
vt 0.002056672760511882 0.9615384615384616
vt 0 0.9615384615384616
vt 0 1
vt 0.029250457038391225 1
vt 0.029250457038391225 0.9927884615384616
vt 0 0.9927884615384616
vt 0 1
vt 0.029250457038391225 1
vt 0.029250457038391225 0.9927884615384616
vt 0 0.9927884615384616
vn 0 0 -1
vn 1 0 0
vn 0 0 1
vn -1 0 0
vn 0 1 0
vn 0 -1 0
usemtl m_8ac1e4f4-b724-bbe9-46ad-d50b0d8d55d0
f 69/239/67 67/238/67 64/237/67
f 66/240/67 69/239/67 64/237/67
f 66/243/68 64/242/68 63/241/68
f 65/244/68 66/243/68 63/241/68
f 65/247/69 63/246/69 68/245/69
f 70/248/69 65/247/69 68/245/69
f 70/251/70 68/250/70 67/249/70
f 69/252/70 70/251/70 67/249/70
f 63/255/71 64/254/71 67/253/71
f 68/256/71 63/255/71 67/253/71
f 66/259/72 65/258/72 70/257/72
f 69/260/72 66/259/72 70/257/72