# Made in Blockbench 4.12.6
mtllib beijing_sis_a.mtl

o cuboid
v 1.5 1.125 0.15625
v -1.5 1.125 0.15625
v 1.5 0.375 0.15625
v -1.5 0.375 0.15625
v 1.5 1.125 -0.15625
v -1.5 1.125 -0.15625
v 1.5 0.375 -0.15625
v -1.5 0.375 -0.15625
vt 0 0.5
vt 0 1
vt 1 1
vt 1 0.5
vt 0 1
vt 1 1
vt 1 0.5
vt 0 0.5
vt 1 1
vt 1 0
vt 0 0
vt 0 1
vt 0 1
vt 1 1
vt 1 0
vt 0 0
vt 0 1
vt 1.015625 1
vt 1.015625 0
vt 0 0
vt 0 0
vt 0 1
vt 1 1
vt 1 0
vn 0 0 1
vn 0 0 -1
vn 0 1 0
vn 0 -1 0
vn 1 0 0
vn -1 0 0
usemtl m_393073f7-a72c-8268-4fc0-db23a5fa585c
f 3/1/1 1/2/1 2/3/1
f 3/1/1 2/3/1 4/4/1
f 6/5/2 5/6/2 7/7/2
f 6/5/2 7/7/2 8/8/2
f 2/9/3 1/10/3 5/11/3
f 2/9/3 5/11/3 6/12/3
f 7/13/4 3/14/4 4/15/4
f 7/13/4 4/15/4 8/16/4
usemtl m_cd9d01d9-210d-4d43-3d8a-94a8521300bc
f 5/17/5 1/18/5 3/19/5
f 5/17/5 3/19/5 7/20/5
f 4/21/6 2/22/6 6/23/6
f 4/21/6 6/23/6 8/24/6
o cylinder
v -0.9375 0.75 -0.1875
v -0.9375 0.7500000000000001 0.1875
v -0.4375 0.75 -0.1875
v -0.4375 0.7500000000000001 0.1875
v -0.47556 0.558658125 -0.18749999999999994
v -0.47556 0.5586581250000001 0.18750000000000006
v -0.583946875 0.396446875 -0.18749999999999992
v -0.583946875 0.3964468750000001 0.18750000000000006
v -0.746158125 0.28806 -0.1874999999999999
v -0.746158125 0.2880600000000001 0.1875000000000001
v -0.9375 0.25 -0.1874999999999999
v -0.9375 0.2500000000000001 0.1875000000000001
v -1.128841875 0.28806 -0.1874999999999999
v -1.128841875 0.2880600000000001 0.1875000000000001
v -1.291053125 0.396446875 -0.18749999999999992
v -1.291053125 0.3964468750000001 0.18750000000000006
v -1.39944 0.558658125 -0.18749999999999994
v -1.39944 0.5586581250000001 0.18750000000000006
v -1.4375 0.75 -0.1875
v -1.4375 0.7500000000000001 0.1875
v -1.39944 0.941341875 -0.18750000000000006
v -1.39944 0.9413418750000001 0.18749999999999994
v -1.291053125 1.103553125 -0.18750000000000008
v -1.291053125 1.1035531250000001 0.18749999999999994
v -1.128841875 1.21194 -0.1875000000000001
v -1.128841875 1.2119400000000002 0.1874999999999999
v -0.9375 1.25 -0.1875000000000001
v -0.9375 1.25 0.1874999999999999
v -0.746158125 1.21194 -0.1875000000000001
v -0.746158125 1.2119400000000002 0.1874999999999999
v -0.583946875 1.103553125 -0.18750000000000008
v -0.583946875 1.1035531250000001 0.18749999999999994
v -0.47556 0.941341875 -0.18750000000000006
v -0.47556 0.9413418750000001 0.18749999999999994
vt 0 1
vt 0.19134375 0.9619375
vt 0 0.5
vt 0.1950875 1
vt 0.1950875 0.5
vt 0 0.5
vt 0 1
vt 0.19134375 0.5380625
vt 0 0.5
vt 0 1
vt 0.461939375 1
vt 0.50000375 0.80866125
vt 0 0.80866125
vt 0.1950875 1
vt 0.1950875 0.5
vt 0 0.5
vt 0 1
vt 0.191340625 0.5380556249999999
vt 0 0.50000125
vt 0 1
vt 0.461944375 1
vt 0.49999875 0.808659375
vt 0 0.808659375
vt 0.1950875 1
vt 0.1950875 0.5
vt 0 0.5
vt 0 1
vt 0.19133875 0.538060625
vt 0 0.49999625000000003
vt 0 1
vt 0.4619375 1
vt 0.5 0.80865625
vt 0 0.80865625
vt 0.1950875 1
vt 0.1950875 0.5
vt 0 0.5
vt 0 1
vt 0.5 1
vt 0.4619375 0.80865625
vt 0 1
vt 0.5 1
vt 0.4619375 0.80865625
vt 0 1
vt 0.1950875 1
vt 0.1950875 0.5
vt 0 0.5
vt 0 1
vt 0.4619375 1
vt 0.5 0.80865625
vt 0 0.80865625
vt 0.19133875 0.538060625
vt 0 0.49999625000000003
vt 0 1
vt 0.1950875 1
vt 0.1950875 0.5
vt 0 0.5
vt 0 1
vt 0.461944375 1
vt 0.49999875 0.808659375
vt 0 0.808659375
vt 0.191340625 0.5380556249999999
vt 0 0.50000125
vt 0 1
vt 0.1950875 1
vt 0.1950875 0.5
vt 0 0.5
vt 0 1
vt 0.461939375 1
vt 0.50000375 0.80866125
vt 0 0.80866125
vt 0.19134375 0.5380625
vt 0 0.5
vt 0 1
vt 0.1950875 1
vt 0.1950875 0.5
vt 0 0.5
vt 0 1
vt 0 1
vt 0.19134375 0.9619375
vt 0 0.5
vt 0.19134375 0.5
vt 0 0.5380625
vt 0.19134375 1
vt 0.1950875 1
vt 0.1950875 0.5
vt 0 0.5
vt 0 1
vt 0 0.9619375
vt 0.19134375 1
vt 0.19134375 0.5
vt 0.038064375 0.80866125
vt 0 1
vt 0.50000375 1
vt 0.1950875 1
vt 0.1950875 0.5
vt 0 0.5
vt 0 1
vt 0 0.961945625
vt 0.191340625 1
vt 0.191340625 0.50000125
vt 0.038054375 0.808659375
vt 0 1
vt 0.49999875 1
vt 0.1950875 1
vt 0.1950875 0.5
vt 0 0.5
vt 0 1
vt 0 0.961935625
vt 0.19133875 1
vt 0.19133875 0.49999625000000003
vt 0.0380625 0.80865625
vt 0 1
vt 0.5 1
vt 0.1950875 1
vt 0.1950875 0.5
vt 0 0.5
vt 0 1
vt 0 0.80865625
vt 0.0380625 1
vt 0.5 0.80865625
vt 0 0.80865625
vt 0.0380625 1
vt 0.5 0.80865625
vt 0.1950875 1
vt 0.1950875 0.5
vt 0 0.5
vt 0 1
vt 0.0380625 0.80865625
vt 0 1
vt 0.5 1
vt 0 0.961935625
vt 0.19133875 1
vt 0.19133875 0.49999625000000003
vt 0.1950875 1
vt 0.1950875 0.5
vt 0 0.5
vt 0 1
vt 0.038054375 0.808659375
vt 0 1
vt 0.49999875 1
vt 0 0.961945625
vt 0.191340625 1
vt 0.191340625 0.50000125
vt 0.1950875 1
vt 0.1950875 0.5
vt 0 0.5
vt 0 1
vt 0.038064375 0.80866125
vt 0 1
vt 0.50000375 1
vt 0 0.9619375
vt 0.19134375 1
vt 0.19134375 0.5
vt 0.1950875 1
vt 0.1950875 0.5
vt 0 0.5
vt 0 1
vt 0.19134375 0.5
vt 0 0.5380625
vt 0.19134375 1
vn 0 -2.220446049250313e-16 -1
vn 0.9807855406389837 -0.19508901371808815 4.3318462976246896e-17
vn 0 2.220446049250313e-16 1
vn 0 -2.220446049250313e-16 -1
vn 0.8314677584799945 -0.5555730074510944 1.2336198894648973e-16
vn 0 2.220446049250313e-16 1
vn 0 -2.220446049250313e-16 -1
vn 0.5555730074510944 -0.8314677584799945 1.8462292993959174e-16
vn 0 2.220446049250313e-16 1
vn 0 -2.220446049250313e-16 -1
vn 0.19508901371808815 -0.9807855406389837 2.1777813788736638e-16
vn 0 2.220446049250313e-16 1
vn 0 -2.220446049250313e-16 -1
vn -0.19508901371808815 -0.9807855406389837 2.1777813788736638e-16
vn 0 2.220446049250313e-16 1
vn 0 -2.220446049250313e-16 -1
vn -0.5555730074510944 -0.8314677584799945 1.8462292993959174e-16
vn 0 2.220446049250313e-16 1
vn 0 -2.220446049250313e-16 -1
vn -0.8314677584799945 -0.5555730074510944 1.2336198894648973e-16
vn 0 2.220446049250313e-16 1
vn 0 -2.220446049250313e-16 -1
vn -0.9807855406389837 -0.19508901371808815 4.3318462976246896e-17
vn 0 2.220446049250313e-16 1
vn 0 -2.220446049250313e-16 -1
vn -0.9807855406389837 0.19508901371808815 -4.3318462976246896e-17
vn 0 2.220446049250313e-16 1
vn 0 -2.220446049250313e-16 -1
vn -0.8314677584799945 0.5555730074510944 -1.2336198894648973e-16
vn 0 2.220446049250313e-16 1
vn 0 -2.220446049250313e-16 -1
vn -0.5555730074510944 0.8314677584799945 -1.8462292993959174e-16
vn 0 2.220446049250313e-16 1
vn 0 -2.220446049250313e-16 -1
vn -0.19508901371808815 0.9807855406389837 -2.1777813788736638e-16
vn 0 2.220446049250313e-16 1
vn 0 -2.220446049250313e-16 -1
vn 0.19508901371808815 0.9807855406389837 -2.1777813788736638e-16
vn 0 2.220446049250313e-16 1
vn 0 -2.220446049250313e-16 -1
vn 0.5555730074510944 0.8314677584799945 -1.8462292993959174e-16
vn 0 2.220446049250313e-16 1
vn 0 -2.220446049250313e-16 -1
vn 0.8314677584799945 0.5555730074510944 -1.2336198894648973e-16
vn 0 2.220446049250313e-16 1
vn 0 -2.220446049250313e-16 -1
vn 0.9807855406389837 0.19508901371808815 -4.3318462976246896e-17
vn 0 2.220446049250313e-16 1
usemtl m_393073f7-a72c-8268-4fc0-db23a5fa585c
f 11/25/7 13/26/7 9/27/7
f 14/28/8 13/29/8 11/30/8
f 14/28/8 11/30/8 12/31/8
f 14/32/9 12/33/9 10/34/9
f 13/35/10 15/36/10 9/37/10
f 16/38/11 15/39/11 13/40/11
f 16/38/11 13/40/11 14/41/11
f 16/42/12 14/43/12 10/44/12
f 15/45/13 17/46/13 9/47/13
f 18/48/14 17/49/14 15/50/14
f 18/48/14 15/50/14 16/51/14
f 18/52/15 16/53/15 10/54/15
f 17/55/16 19/56/16 9/57/16
f 20/58/17 19/59/17 17/60/17
f 20/58/17 17/60/17 18/61/17
f 20/62/18 18/63/18 10/64/18
f 19/65/19 21/66/19 9/67/19
f 22/68/20 21/69/20 19/70/20
f 22/68/20 19/70/20 20/71/20
f 22/72/21 20/73/21 10/74/21
f 21/75/22 23/76/22 9/77/22
f 24/78/23 23/79/23 21/80/23
f 24/78/23 21/80/23 22/81/23
f 24/82/24 22/83/24 10/84/24
f 23/85/25 25/86/25 9/87/25
f 26/88/26 25/89/26 23/90/26
f 26/88/26 23/90/26 24/91/26
f 26/92/27 24/93/27 10/94/27
f 25/95/28 27/96/28 9/97/28
f 28/98/29 27/99/29 25/100/29
f 28/98/29 25/100/29 26/101/29
f 28/102/30 26/103/30 10/104/30
f 27/105/31 29/106/31 9/107/31
f 30/108/32 29/109/32 27/110/32
f 30/108/32 27/110/32 28/111/32
f 30/112/33 28/113/33 10/114/33
f 29/115/34 31/116/34 9/117/34
f 32/118/35 31/119/35 29/120/35
f 32/118/35 29/120/35 30/121/35
f 32/122/36 30/123/36 10/124/36
f 31/125/37 33/126/37 9/127/37
f 34/128/38 33/129/38 31/130/38
f 34/128/38 31/130/38 32/131/38
f 34/132/39 32/133/39 10/134/39
f 33/135/40 35/136/40 9/137/40
f 36/138/41 35/139/41 33/140/41
f 36/138/41 33/140/41 34/141/41
f 36/142/42 34/143/42 10/144/42
f 35/145/43 37/146/43 9/147/43
f 38/148/44 37/149/44 35/150/44
f 38/148/44 35/150/44 36/151/44
f 38/152/45 36/153/45 10/154/45
f 37/155/46 39/156/46 9/157/46
f 40/158/47 39/159/47 37/160/47
f 40/158/47 37/160/47 38/161/47
f 40/162/48 38/163/48 10/164/48
f 39/165/49 41/166/49 9/167/49
f 42/168/50 41/169/50 39/170/50
f 42/168/50 39/170/50 40/171/50
f 42/172/51 40/173/51 10/174/51
f 41/175/52 11/176/52 9/177/52
f 12/178/53 11/179/53 41/180/53
f 12/178/53 41/180/53 42/181/53
f 12/182/54 42/183/54 10/184/54
o cylinder
v 0.875 -0.875 0
v 0.875 0.375 0
v 0.9375 -0.875 0.016746824526945165
v 0.9375 0.375 0.016746824526945165
v 0.9207531754730548 -0.875 0.045753175473054825
v 0.9207531754730548 0.375 0.045753175473054825
v 0.8917468245269452 -0.875 0.06249999999999999
v 0.8917468245269452 0.375 0.06249999999999999
v 0.8582531754730548 -0.875 0.06249999999999999
v 0.8582531754730548 0.375 0.06249999999999999
v 0.8292468245269452 -0.875 0.04575317547305483
v 0.8292468245269452 0.375 0.04575317547305483
v 0.8125 -0.875 0.016746824526945186
v 0.8125 0.375 0.016746824526945186
v 0.8125 -0.875 -0.01674682452694514
v 0.8125 0.375 -0.01674682452694514
v 0.8292468245269452 -0.875 -0.045753175473054825
v 0.8292468245269452 0.375 -0.045753175473054825
v 0.8582531754730548 -0.875 -0.06249999999999999
v 0.8582531754730548 0.375 -0.06249999999999999
v 0.8917468245269451 -0.875 -0.0625
v 0.8917468245269451 0.375 -0.0625
v 0.9207531754730548 -0.875 -0.04575317547305484
v 0.9207531754730548 0.375 -0.04575317547305484
v 0.9375 -0.875 -0.01674682452694516
v 0.9375 0.375 -0.01674682452694516
vt 0.056033792991651475 1
vt 0.06470910931333393 0.9676454453433331
vt 0 0.9676454453433331
vt 0.03348750000000339 1
vt 0.03348750000000339 0
vt 3.3861802251067274e-15 0
vt 3.3861802251067274e-15 1
vt 0.032357126718959295 0.9439617525379477
vt 0 0.9352960344023452
vt 1.0408340855860843e-17 1
vt 0.0560382474620523 1
vt 0.06470396559765483 0.9676428732810407
vt 0 0.9676428732810407
vt 0.03348750000000339 1
vt 0.03348750000000339 0
vt 3.3861802251067274e-15 0
vt 3.3861802251067274e-15 1
vt 0.032354554656666965 0.9439662070083485
vt 0 0.935290890686666
vt 0 1
vt 0.0625 0.9999999999999967
vt 0.0625 0.9665124999999966
vt 0 0.9832562499999966
vt 0.03348750000000339 1
vt 0.03348750000000339 0
vt 3.3861802251067274e-15 0
vt 3.3861802251067274e-15 1
vt 0.0625 0.9999999999999967
vt 0.0625 0.9665124999999966
vt 0 0.9832562499999966
vt 0.032354554656666965 0.9439662070083485
vt 0 0.935290890686666
vt 0 1
vt 0.03348750000000339 1
vt 0.03348750000000339 0
vt 3.3861802251067274e-15 0
vt 3.3861802251067274e-15 1
vt 0.0560382474620523 1
vt 0.06470396559765483 0.9676428732810407
vt 0 0.9676428732810407
vt 0.032357126718959295 0.9439617525379477
vt 0 0.9352960344023452
vt 1.0408340855860843e-17 1
vt 0.03348750000000339 1
vt 0.03348750000000339 0
vt 3.3861802251067274e-15 0
vt 3.3861802251067274e-15 1
vt 0.056033792991651475 1
vt 0.06470910931333393 0.9676454453433331
vt 0 0.9676454453433331
vt 0.03348750000000339 0.9375
vt 3.3861802251067274e-15 0.9375
vt 0.016743750000003388 1
vt 0.03348750000000339 1
vt 0.03348750000000339 0
vt 3.3861802251067274e-15 0
vt 3.3861802251067274e-15 1
vt 3.3861802251067274e-15 1
vt 0.03348750000000339 1
vt 0.016743750000003388 0.9375
vt 0.008675316321682593 0.9676454453433331
vt 1.3877787807814457e-16 1
vt 0.06470910931333407 1
vt 0.03348750000000339 1
vt 0.03348750000000339 0
vt 3.3861802251067274e-15 0
vt 3.3861802251067274e-15 1
vt 0 0.9913342818643974
vt 0.03235712671895928 1
vt 0.03235712671895931 0.9352960344023452
vt 0.008665718135602532 0.9676428732810407
vt 0 1
vt 0.06470396559765483 1
vt 0.03348750000000339 1
vt 0.03348750000000339 0
vt 3.3861802251067274e-15 0
vt 3.3861802251067274e-15 1
vt 0 0.9913246836783174
vt 0.032354554656666965 0.9999999999999999
vt 0.032354554656666965 0.9352908906866659
vt 0 0.9665124999999966
vt 0 0.9999999999999967
vt 0.0625 0.9832562499999966
vt 0.03348750000000339 1
vt 0.03348750000000339 0
vt 3.3861802251067274e-15 0
vt 3.3861802251067274e-15 1
vt 0 0.9665124999999966
vt 0 0.9999999999999967
vt 0.0625 0.9832562499999966
vt 0 0.9913246836783174
vt 0.032354554656666965 0.9999999999999999
vt 0.032354554656666965 0.9352908906866659
vt 0.03348750000000339 1
vt 0.03348750000000339 0
vt 3.3861802251067274e-15 0
vt 3.3861802251067274e-15 1
vt 0.008665718135602532 0.9676428732810407
vt 0 1
vt 0.06470396559765483 1
vt 0 0.9913342818643974
vt 0.03235712671895928 1
vt 0.03235712671895931 0.9352960344023452
vt 0.03348750000000339 1
vt 0.03348750000000339 0
vt 3.3861802251067274e-15 0
vt 3.3861802251067274e-15 1
vt 0.008675316321682593 0.9676454453433331
vt 1.3877787807814457e-16 1
vt 0.06470910931333407 1
vt 3.3861802251067274e-15 1
vt 0.03348750000000339 1
vt 0.016743750000003388 0.9375
vt 0.03348750000000339 1
vt 0.03348750000000339 0
vt 3.3861802251067274e-15 0
vt 3.3861802251067274e-15 1
vt 0.03348750000000339 0.9375
vt 3.3861802251067274e-15 0.9375
vt 0.016743750000003388 1
vn 0 -1 0
vn 0.8660254037844387 0 0.49999999999999983
vn 0 1 0
vn 0 -1 0
vn 0.5 0 0.8660254037844388
vn 0 1 0
vn 0 -1 0
vn 0 0 1
vn 0 1 0
vn 0 -1 0
vn -0.49999999999999994 0 0.8660254037844387
vn 0 1 0
vn 0 -1 0
vn -0.8660254037844386 0 0.5000000000000001
vn 0 1 0
vn 0 -1 0
vn -1 0 4.143408735633879e-16
vn 0 1 0
vn 0 -1 0
vn -0.8660254037844389 0 -0.4999999999999996
vn 0 1 0
vn 0 -1 0
vn -0.4999999999999998 0 -0.8660254037844388
vn 0 1 0
vn 0 -1 0
vn -2.0717043678169412e-16 0 -1
vn 0 1 0
vn 0 -1 0
vn 0.4999999999999996 0 -0.8660254037844389
vn 0 1 0
vn 0 -1 0
vn 0.8660254037844386 0 -0.4999999999999999
vn 0 1 0
vn 0 -1 0
vn 1 0 0
vn 0 1 0
usemtl m_bb4db919-904b-cc59-6f92-401197923f2b
f 45/185/55 47/186/55 43/187/55
f 48/188/56 47/189/56 45/190/56
f 48/188/56 45/190/56 46/191/56
f 48/192/57 46/193/57 44/194/57
f 47/195/58 49/196/58 43/197/58
f 50/198/59 49/199/59 47/200/59
f 50/198/59 47/200/59 48/201/59
f 50/202/60 48/203/60 44/204/60
f 49/205/61 51/206/61 43/207/61
f 52/208/62 51/209/62 49/210/62
f 52/208/62 49/210/62 50/211/62
f 52/212/63 50/213/63 44/214/63
f 51/215/64 53/216/64 43/217/64
f 54/218/65 53/219/65 51/220/65
f 54/218/65 51/220/65 52/221/65
f 54/222/66 52/223/66 44/224/66
f 53/225/67 55/226/67 43/227/67
f 56/228/68 55/229/68 53/230/68
f 56/228/68 53/230/68 54/231/68
f 56/232/69 54/233/69 44/234/69
f 55/235/70 57/236/70 43/237/70
f 58/238/71 57/239/71 55/240/71
f 58/238/71 55/240/71 56/241/71
f 58/242/72 56/243/72 44/244/72
f 57/245/73 59/246/73 43/247/73
f 60/248/74 59/249/74 57/250/74
f 60/248/74 57/250/74 58/251/74
f 60/252/75 58/253/75 44/254/75
f 59/255/76 61/256/76 43/257/76
f 62/258/77 61/259/77 59/260/77
f 62/258/77 59/260/77 60/261/77
f 62/262/78 60/263/78 44/264/78
f 61/265/79 63/266/79 43/267/79
f 64/268/80 63/269/80 61/270/80
f 64/268/80 61/270/80 62/271/80
f 64/272/81 62/273/81 44/274/81
f 63/275/82 65/276/82 43/277/82
f 66/278/83 65/279/83 63/280/83
f 66/278/83 63/280/83 64/281/83
f 66/282/84 64/283/84 44/284/84
f 65/285/85 67/286/85 43/287/85
f 68/288/86 67/289/86 65/290/86
f 68/288/86 65/290/86 66/291/86
f 68/292/87 66/293/87 44/294/87
f 67/295/88 45/296/88 43/297/88
f 46/298/89 45/299/89 67/300/89
f 46/298/89 67/300/89 68/301/89
f 46/302/90 68/303/90 44/304/90
o cylinder
v -0.875 -0.875 0
v -0.875 0.375 0
v -0.9375 -0.875 -0.016746824526945165
v -0.9375 0.375 -0.016746824526945165
v -0.9207531754730548 -0.875 -0.045753175473054825
v -0.9207531754730548 0.375 -0.045753175473054825
v -0.8917468245269452 -0.875 -0.06249999999999999
v -0.8917468245269452 0.375 -0.06249999999999999
v -0.8582531754730548 -0.875 -0.06249999999999999
v -0.8582531754730548 0.375 -0.06249999999999999
v -0.8292468245269452 -0.875 -0.04575317547305483
v -0.8292468245269452 0.375 -0.04575317547305483
v -0.8125 -0.875 -0.016746824526945186
v -0.8125 0.375 -0.016746824526945186
v -0.8125 -0.875 0.01674682452694514
v -0.8125 0.375 0.01674682452694514
v -0.8292468245269452 -0.875 0.045753175473054825
v -0.8292468245269452 0.375 0.045753175473054825
v -0.8582531754730548 -0.875 0.06249999999999999
v -0.8582531754730548 0.375 0.06249999999999999
v -0.8917468245269451 -0.875 0.06249999999999999
v -0.8917468245269451 0.375 0.06249999999999999
v -0.9207531754730548 -0.875 0.04575317547305484
v -0.9207531754730548 0.375 0.04575317547305484
v -0.9375 -0.875 0.01674682452694516
v -0.9375 0.375 0.01674682452694516
vt 0.056033792991651475 1
vt 0.06470910931333393 0.9676454453433331
vt 0 0.9676454453433331
vt 0.03348750000000339 1
vt 0.03348750000000339 0
vt 3.3861802251067274e-15 0
vt 3.3861802251067274e-15 1
vt 0.032357126718959295 0.9439617525379477
vt 0 0.9352960344023452
vt 1.0408340855860843e-17 1
vt 0.0560382474620523 1
vt 0.06470396559765483 0.9676428732810407
vt 0 0.9676428732810407
vt 0.03348750000000339 1
vt 0.03348750000000339 0
vt 3.3861802251067274e-15 0
vt 3.3861802251067274e-15 1
vt 0.032354554656666965 0.9439662070083485
vt 0 0.935290890686666
vt 0 1
vt 0.0625 0.9999999999999967
vt 0.0625 0.9665124999999966
vt 0 0.9832562499999966
vt 0.03348750000000339 1
vt 0.03348750000000339 0
vt 3.3861802251067274e-15 0
vt 3.3861802251067274e-15 1
vt 0.0625 0.9999999999999967
vt 0.0625 0.9665124999999966
vt 0 0.9832562499999966
vt 0.032354554656666965 0.9439662070083485
vt 0 0.935290890686666
vt 0 1
vt 0.03348750000000339 1
vt 0.03348750000000339 0
vt 3.3861802251067274e-15 0
vt 3.3861802251067274e-15 1
vt 0.0560382474620523 1
vt 0.06470396559765483 0.9676428732810407
vt 0 0.9676428732810407
vt 0.032357126718959295 0.9439617525379477
vt 0 0.9352960344023452
vt 1.0408340855860843e-17 1
vt 0.03348750000000339 1
vt 0.03348750000000339 0
vt 3.3861802251067274e-15 0
vt 3.3861802251067274e-15 1
vt 0.056033792991651475 1
vt 0.06470910931333393 0.9676454453433331
vt 0 0.9676454453433331
vt 0.03348750000000339 0.9375
vt 3.3861802251067274e-15 0.9375
vt 0.016743750000003388 1
vt 0.03348750000000339 1
vt 0.03348750000000339 0
vt 3.3861802251067274e-15 0
vt 3.3861802251067274e-15 1
vt 3.3861802251067274e-15 1
vt 0.03348750000000339 1
vt 0.016743750000003388 0.9375
vt 0.008675316321682593 0.9676454453433331
vt 1.3877787807814457e-16 1
vt 0.06470910931333407 1
vt 0.03348750000000339 1
vt 0.03348750000000339 0
vt 3.3861802251067274e-15 0
vt 3.3861802251067274e-15 1
vt 0 0.9913342818643974
vt 0.03235712671895928 1
vt 0.03235712671895931 0.9352960344023452
vt 0.008665718135602532 0.9676428732810407
vt 0 1
vt 0.06470396559765483 1
vt 0.03348750000000339 1
vt 0.03348750000000339 0
vt 3.3861802251067274e-15 0
vt 3.3861802251067274e-15 1
vt 0 0.9913246836783174
vt 0.032354554656666965 0.9999999999999999
vt 0.032354554656666965 0.9352908906866659
vt 0 0.9665124999999966
vt 0 0.9999999999999967
vt 0.0625 0.9832562499999966
vt 0.03348750000000339 1
vt 0.03348750000000339 0
vt 3.3861802251067274e-15 0
vt 3.3861802251067274e-15 1
vt 0 0.9665124999999966
vt 0 0.9999999999999967
vt 0.0625 0.9832562499999966
vt 0 0.9913246836783174
vt 0.032354554656666965 0.9999999999999999
vt 0.032354554656666965 0.9352908906866659
vt 0.03348750000000339 1
vt 0.03348750000000339 0
vt 3.3861802251067274e-15 0
vt 3.3861802251067274e-15 1
vt 0.008665718135602532 0.9676428732810407
vt 0 1
vt 0.06470396559765483 1
vt 0 0.9913342818643974
vt 0.03235712671895928 1
vt 0.03235712671895931 0.9352960344023452
vt 0.03348750000000339 1
vt 0.03348750000000339 0
vt 3.3861802251067274e-15 0
vt 3.3861802251067274e-15 1
vt 0.008675316321682593 0.9676454453433331
vt 1.3877787807814457e-16 1
vt 0.06470910931333407 1
vt 3.3861802251067274e-15 1
vt 0.03348750000000339 1
vt 0.016743750000003388 0.9375
vt 0.03348750000000339 1
vt 0.03348750000000339 0
vt 3.3861802251067274e-15 0
vt 3.3861802251067274e-15 1
vt 0.03348750000000339 0.9375
vt 3.3861802251067274e-15 0.9375
vt 0.016743750000003388 1
vn 0 -1 0
vn -0.8660254037844387 0 -0.49999999999999994
vn 0 1 0
vn 0 -1 0
vn -0.5 0 -0.8660254037844388
vn 0 1 0
vn 0 -1 0
vn 0 0 -1
vn 0 1 0
vn 0 -1 0
vn 0.49999999999999994 0 -0.8660254037844387
vn 0 1 0
vn 0 -1 0
vn 0.8660254037844386 0 -0.5000000000000001
vn 0 1 0
vn 0 -1 0
vn 1 0 -4.143408735633879e-16
vn 0 1 0
vn 0 -1 0
vn 0.8660254037844389 0 0.4999999999999995
vn 0 1 0
vn 0 -1 0
vn 0.4999999999999998 0 0.8660254037844388
vn 0 1 0
vn 0 -1 0
vn 0 0 1
vn 0 1 0
vn 0 -1 0
vn -0.49999999999999944 0 0.8660254037844392
vn 0 1 0
vn 0 -1 0
vn -0.8660254037844387 0 0.49999999999999983
vn 0 1 0
vn 0 -1 0
vn -1 0 0
vn 0 1 0
usemtl m_bb4db919-904b-cc59-6f92-401197923f2b
f 71/305/91 73/306/91 69/307/91
f 74/308/92 73/309/92 71/310/92
f 74/308/92 71/310/92 72/311/92
f 74/312/93 72/313/93 70/314/93
f 73/315/94 75/316/94 69/317/94
f 76/318/95 75/319/95 73/320/95
f 76/318/95 73/320/95 74/321/95
f 76/322/96 74/323/96 70/324/96
f 75/325/97 77/326/97 69/327/97
f 78/328/98 77/329/98 75/330/98
f 78/328/98 75/330/98 76/331/98
f 78/332/99 76/333/99 70/334/99
f 77/335/100 79/336/100 69/337/100
f 80/338/101 79/339/101 77/340/101
f 80/338/101 77/340/101 78/341/101
f 80/342/102 78/343/102 70/344/102
f 79/345/103 81/346/103 69/347/103
f 82/348/104 81/349/104 79/350/104
f 82/348/104 79/350/104 80/351/104
f 82/352/105 80/353/105 70/354/105
f 81/355/106 83/356/106 69/357/106
f 84/358/107 83/359/107 81/360/107
f 84/358/107 81/360/107 82/361/107
f 84/362/108 82/363/108 70/364/108
f 83/365/109 85/366/109 69/367/109
f 86/368/110 85/369/110 83/370/110
f 86/368/110 83/370/110 84/371/110
f 86/372/111 84/373/111 70/374/111
f 85/375/112 87/376/112 69/377/112
f 88/378/113 87/379/113 85/380/113
f 88/378/113 85/380/113 86/381/113
f 88/382/114 86/383/114 70/384/114
f 87/385/115 89/386/115 69/387/115
f 90/388/116 89/389/116 87/390/116
f 90/388/116 87/390/116 88/391/116
f 90/392/117 88/393/117 70/394/117
f 89/395/118 91/396/118 69/397/118
f 92/398/119 91/399/119 89/400/119
f 92/398/119 89/400/119 90/401/119
f 92/402/120 90/403/120 70/404/120
f 91/405/121 93/406/121 69/407/121
f 94/408/122 93/409/122 91/410/122
f 94/408/122 91/410/122 92/411/122
f 94/412/123 92/413/123 70/414/123
f 93/415/124 71/416/124 69/417/124
f 72/418/125 71/419/125 93/420/125
f 72/418/125 93/420/125 94/421/125
f 72/422/126 94/423/126 70/424/126
o cylinder
v -0.875 -0.96875 1.734723475976807e-18
v -0.875 -0.84375 1.734723475976807e-18
v -0.96875 -0.96875 0.02512023679041775
v -0.96875 -0.84375 0.02512023679041775
v -0.9436297632095823 -0.96875 0.06862976320958224
v -0.9436297632095823 -0.84375 0.06862976320958224
v -0.9001202367904177 -0.96875 0.09375
v -0.9001202367904177 -0.84375 0.09375
v -0.8498797632095823 -0.96875 0.09375
v -0.8498797632095823 -0.84375 0.09375
v -0.8063702367904177 -0.96875 0.06862976320958225
v -0.8063702367904177 -0.84375 0.06862976320958225
v -0.78125 -0.96875 0.02512023679041778
v -0.78125 -0.84375 0.02512023679041778
v -0.78125 -0.96875 -0.02512023679041771
v -0.78125 -0.84375 -0.02512023679041771
v -0.8063702367904177 -0.96875 -0.06862976320958224
v -0.8063702367904177 -0.84375 -0.06862976320958224
v -0.8498797632095823 -0.96875 -0.09374999999999997
v -0.8498797632095823 -0.84375 -0.09374999999999997
v -0.9001202367904177 -0.96875 -0.09375
v -0.9001202367904177 -0.84375 -0.09375
v -0.9436297632095823 -0.96875 -0.06862976320958225
v -0.9436297632095823 -0.84375 -0.06862976320958225
v -0.96875 -0.96875 -0.02512023679041774
v -0.96875 -0.84375 -0.02512023679041774
vt 0.06470910931333393 0.9676454453433331
vt 0.056033792991651475 1
vt 0 0.9676454453433331
vt 3.3861802251067274e-15 0
vt 0.03348750000000339 0
vt 0.03348750000000339 1
vt 3.3861802251067274e-15 1
vt 0 0.9352960344023452
vt 0.032357126718959295 0.9439617525379477
vt 1.0408340855860843e-17 1
vt 0.06470396559765483 0.9676428732810407
vt 0.0560382474620523 1
vt 0 0.9676428732810407
vt 3.3861802251067274e-15 0
vt 0.03348750000000339 0
vt 0.03348750000000339 1
vt 3.3861802251067274e-15 1
vt 0 0.935290890686666
vt 0.032354554656666965 0.9439662070083485
vt 0 1
vt 0.0625 0.9665124999999966
vt 0.0625 0.9999999999999967
vt 0 0.9832562499999966
vt 3.3861802251067274e-15 0
vt 0.03348750000000339 0
vt 0.03348750000000339 1
vt 3.3861802251067274e-15 1
vt 0.0625 0.9665124999999966
vt 0.0625 0.9999999999999967
vt 0 0.9832562499999966
vt 0 0.935290890686666
vt 0.032354554656666965 0.9439662070083485
vt 0 1
vt 3.3861802251067274e-15 0
vt 0.03348750000000339 0
vt 0.03348750000000339 1
vt 3.3861802251067274e-15 1
vt 0.06470396559765483 0.9676428732810407
vt 0.0560382474620523 1
vt 0 0.9676428732810407
vt 0 0.9352960344023452
vt 0.032357126718959295 0.9439617525379477
vt 1.0408340855860843e-17 1
vt 3.3861802251067274e-15 0
vt 0.03348750000000339 0
vt 0.03348750000000339 1
vt 3.3861802251067274e-15 1
vt 0.06470910931333393 0.9676454453433331
vt 0.056033792991651475 1
vt 0 0.9676454453433331
vt 3.3861802251067274e-15 0.9375
vt 0.03348750000000339 0.9375
vt 0.016743750000003388 1
vt 3.3861802251067274e-15 0
vt 0.03348750000000339 0
vt 0.03348750000000339 1
vt 3.3861802251067274e-15 1
vt 0.03348750000000339 1
vt 3.3861802251067274e-15 1
vt 0.016743750000003388 0.9375
vt 1.3877787807814457e-16 1
vt 0.008675316321682593 0.9676454453433331
vt 0.06470910931333407 1
vt 3.3861802251067274e-15 0
vt 0.03348750000000339 0
vt 0.03348750000000339 1
vt 3.3861802251067274e-15 1
vt 0.03235712671895928 1
vt 0 0.9913342818643974
vt 0.03235712671895931 0.9352960344023452
vt 0 1
vt 0.008665718135602532 0.9676428732810407
vt 0.06470396559765483 1
vt 3.3861802251067274e-15 0
vt 0.03348750000000339 0
vt 0.03348750000000339 1
vt 3.3861802251067274e-15 1
vt 0.032354554656666965 0.9999999999999999
vt 0 0.9913246836783174
vt 0.032354554656666965 0.9352908906866659
vt 0 0.9999999999999967
vt 0 0.9665124999999966
vt 0.0625 0.9832562499999966
vt 3.3861802251067274e-15 0
vt 0.03348750000000339 0
vt 0.03348750000000339 1
vt 3.3861802251067274e-15 1
vt 0 0.9999999999999967
vt 0 0.9665124999999966
vt 0.0625 0.9832562499999966
vt 0.032354554656666965 0.9999999999999999
vt 0 0.9913246836783174
vt 0.032354554656666965 0.9352908906866659
vt 3.3861802251067274e-15 0
vt 0.03348750000000339 0
vt 0.03348750000000339 1
vt 3.3861802251067274e-15 1
vt 0 1
vt 0.008665718135602532 0.9676428732810407
vt 0.06470396559765483 1
vt 0.03235712671895928 1
vt 0 0.9913342818643974
vt 0.03235712671895931 0.9352960344023452
vt 3.3861802251067274e-15 0
vt 0.03348750000000339 0
vt 0.03348750000000339 1
vt 3.3861802251067274e-15 1
vt 1.3877787807814457e-16 1
vt 0.008675316321682593 0.9676454453433331
vt 0.06470910931333407 1
vt 0.03348750000000339 1
vt 3.3861802251067274e-15 1
vt 0.016743750000003388 0.9375
vt 3.3861802251067274e-15 0
vt 0.03348750000000339 0
vt 0.03348750000000339 1
vt 3.3861802251067274e-15 1
vt 3.3861802251067274e-15 0.9375
vt 0.03348750000000339 0.9375
vt 0.016743750000003388 1
vn 0 -1 0
vn -0.8660254037844387 0 0.5
vn 0 1 0
vn 0 -1 0
vn -0.5000000000000001 0 0.8660254037844386
vn 0 1 0
vn 0 -1 0
vn 0 0 1
vn 0 1 0
vn 0 -1 0
vn 0.5000000000000001 0 0.8660254037844387
vn 0 1 0
vn 0 -1 0
vn 0.8660254037844387 0 0.4999999999999999
vn 0 1 0
vn 0 -1 0
vn 1 0 5.5245449808451715e-16
vn 0 1 0
vn 0 -1 0
vn 0.8660254037844389 0 -0.49999999999999967
vn 0 1 0
vn 0 -1 0
vn 0.4999999999999995 0 -0.8660254037844389
vn 0 1 0
vn 0 -1 0
vn 5.524544980845176e-16 0 -1
vn 0 1 0
vn 0 -1 0
vn -0.49999999999999967 0 -0.8660254037844389
vn 0 1 0
vn 0 -1 0
vn -0.8660254037844387 0 -0.49999999999999994
vn 0 1 0
vn 0 -1 0
vn -1 0 0
vn 0 1 0
usemtl m_ce3ed741-8e04-e0c6-7716-1b8f0671dbde
f 99/425/127 97/426/127 95/427/127
f 97/428/128 99/429/128 100/430/128
f 97/428/128 100/430/128 98/431/128
f 98/432/129 100/433/129 96/434/129
f 101/435/130 99/436/130 95/437/130
f 99/438/131 101/439/131 102/440/131
f 99/438/131 102/440/131 100/441/131
f 100/442/132 102/443/132 96/444/132
f 103/445/133 101/446/133 95/447/133
f 101/448/134 103/449/134 104/450/134
f 101/448/134 104/450/134 102/451/134
f 102/452/135 104/453/135 96/454/135
f 105/455/136 103/456/136 95/457/136
f 103/458/137 105/459/137 106/460/137
f 103/458/137 106/460/137 104/461/137
f 104/462/138 106/463/138 96/464/138
f 107/465/139 105/466/139 95/467/139
f 105/468/140 107/469/140 108/470/140
f 105/468/140 108/470/140 106/471/140
f 106/472/141 108/473/141 96/474/141
f 109/475/142 107/476/142 95/477/142
f 107/478/143 109/479/143 110/480/143
f 107/478/143 110/480/143 108/481/143
f 108/482/144 110/483/144 96/484/144
f 111/485/145 109/486/145 95/487/145
f 109/488/146 111/489/146 112/490/146
f 109/488/146 112/490/146 110/491/146
f 110/492/147 112/493/147 96/494/147
f 113/495/148 111/496/148 95/497/148
f 111/498/149 113/499/149 114/500/149
f 111/498/149 114/500/149 112/501/149
f 112/502/150 114/503/150 96/504/150
f 115/505/151 113/506/151 95/507/151
f 113/508/152 115/509/152 116/510/152
f 113/508/152 116/510/152 114/511/152
f 114/512/153 116/513/153 96/514/153
f 117/515/154 115/516/154 95/517/154
f 115/518/155 117/519/155 118/520/155
f 115/518/155 118/520/155 116/521/155
f 116/522/156 118/523/156 96/524/156
f 119/525/157 117/526/157 95/527/157
f 117/528/158 119/529/158 120/530/158
f 117/528/158 120/530/158 118/531/158
f 118/532/159 120/533/159 96/534/159
f 97/535/160 119/536/160 95/537/160
f 119/538/161 97/539/161 98/540/161
f 119/538/161 98/540/161 120/541/161
f 120/542/162 98/543/162 96/544/162
o cylinder
v 0.875 -0.96875 1.734723475976807e-18
v 0.875 -0.84375 1.734723475976807e-18
v 0.96875 -0.96875 0.02512023679041775
v 0.96875 -0.84375 0.02512023679041775
v 0.9436297632095823 -0.96875 0.06862976320958224
v 0.9436297632095823 -0.84375 0.06862976320958224
v 0.9001202367904177 -0.96875 0.09375
v 0.9001202367904177 -0.84375 0.09375
v 0.8498797632095823 -0.96875 0.09375
v 0.8498797632095823 -0.84375 0.09375
v 0.8063702367904177 -0.96875 0.06862976320958225
v 0.8063702367904177 -0.84375 0.06862976320958225
v 0.78125 -0.96875 0.02512023679041778
v 0.78125 -0.84375 0.02512023679041778
v 0.78125 -0.96875 -0.02512023679041771
v 0.78125 -0.84375 -0.02512023679041771
v 0.8063702367904177 -0.96875 -0.06862976320958224
v 0.8063702367904177 -0.84375 -0.06862976320958224
v 0.8498797632095823 -0.96875 -0.09374999999999997
v 0.8498797632095823 -0.84375 -0.09374999999999997
v 0.9001202367904177 -0.96875 -0.09375
v 0.9001202367904177 -0.84375 -0.09375
v 0.9436297632095823 -0.96875 -0.06862976320958225
v 0.9436297632095823 -0.84375 -0.06862976320958225
v 0.96875 -0.96875 -0.02512023679041774
v 0.96875 -0.84375 -0.02512023679041774
vt 0.056033792991651475 1
vt 0.06470910931333393 0.9676454453433331
vt 0 0.9676454453433331
vt 0.03348750000000339 1
vt 0.03348750000000339 0
vt 3.3861802251067274e-15 0
vt 3.3861802251067274e-15 1
vt 0.032357126718959295 0.9439617525379477
vt 0 0.9352960344023452
vt 1.0408340855860843e-17 1
vt 0.0560382474620523 1
vt 0.06470396559765483 0.9676428732810407
vt 0 0.9676428732810407
vt 0.03348750000000339 1
vt 0.03348750000000339 0
vt 3.3861802251067274e-15 0
vt 3.3861802251067274e-15 1
vt 0.032354554656666965 0.9439662070083485
vt 0 0.935290890686666
vt 0 1
vt 0.0625 0.9999999999999967
vt 0.0625 0.9665124999999966
vt 0 0.9832562499999966
vt 0.03348750000000339 1
vt 0.03348750000000339 0
vt 3.3861802251067274e-15 0
vt 3.3861802251067274e-15 1
vt 0.0625 0.9999999999999967
vt 0.0625 0.9665124999999966
vt 0 0.9832562499999966
vt 0.032354554656666965 0.9439662070083485
vt 0 0.935290890686666
vt 0 1
vt 0.03348750000000339 1
vt 0.03348750000000339 0
vt 3.3861802251067274e-15 0
vt 3.3861802251067274e-15 1
vt 0.0560382474620523 1
vt 0.06470396559765483 0.9676428732810407
vt 0 0.9676428732810407
vt 0.032357126718959295 0.9439617525379477
vt 0 0.9352960344023452
vt 1.0408340855860843e-17 1
vt 0.03348750000000339 1
vt 0.03348750000000339 0
vt 3.3861802251067274e-15 0
vt 3.3861802251067274e-15 1
vt 0.056033792991651475 1
vt 0.06470910931333393 0.9676454453433331
vt 0 0.9676454453433331
vt 0.03348750000000339 0.9375
vt 3.3861802251067274e-15 0.9375
vt 0.016743750000003388 1
vt 0.03348750000000339 1
vt 0.03348750000000339 0
vt 3.3861802251067274e-15 0
vt 3.3861802251067274e-15 1
vt 3.3861802251067274e-15 1
vt 0.03348750000000339 1
vt 0.016743750000003388 0.9375
vt 0.008675316321682593 0.9676454453433331
vt 1.3877787807814457e-16 1
vt 0.06470910931333407 1
vt 0.03348750000000339 1
vt 0.03348750000000339 0
vt 3.3861802251067274e-15 0
vt 3.3861802251067274e-15 1
vt 0 0.9913342818643974
vt 0.03235712671895928 1
vt 0.03235712671895931 0.9352960344023452
vt 0.008665718135602532 0.9676428732810407
vt 0 1
vt 0.06470396559765483 1
vt 0.03348750000000339 1
vt 0.03348750000000339 0
vt 3.3861802251067274e-15 0
vt 3.3861802251067274e-15 1
vt 0 0.9913246836783174
vt 0.032354554656666965 0.9999999999999999
vt 0.032354554656666965 0.9352908906866659
vt 0 0.9665124999999966
vt 0 0.9999999999999967
vt 0.0625 0.9832562499999966
vt 0.03348750000000339 1
vt 0.03348750000000339 0
vt 3.3861802251067274e-15 0
vt 3.3861802251067274e-15 1
vt 0 0.9665124999999966
vt 0 0.9999999999999967
vt 0.0625 0.9832562499999966
vt 0 0.9913246836783174
vt 0.032354554656666965 0.9999999999999999
vt 0.032354554656666965 0.9352908906866659
vt 0.03348750000000339 1
vt 0.03348750000000339 0
vt 3.3861802251067274e-15 0
vt 3.3861802251067274e-15 1
vt 0.008665718135602532 0.9676428732810407
vt 0 1
vt 0.06470396559765483 1
vt 0 0.9913342818643974
vt 0.03235712671895928 1
vt 0.03235712671895931 0.9352960344023452
vt 0.03348750000000339 1
vt 0.03348750000000339 0
vt 3.3861802251067274e-15 0
vt 3.3861802251067274e-15 1
vt 0.008675316321682593 0.9676454453433331
vt 1.3877787807814457e-16 1
vt 0.06470910931333407 1
vt 3.3861802251067274e-15 1
vt 0.03348750000000339 1
vt 0.016743750000003388 0.9375
vt 0.03348750000000339 1
vt 0.03348750000000339 0
vt 3.3861802251067274e-15 0
vt 3.3861802251067274e-15 1
vt 0.03348750000000339 0.9375
vt 3.3861802251067274e-15 0.9375
vt 0.016743750000003388 1
vn 0 -1 0
vn 0.8660254037844387 0 0.5
vn 0 1 0
vn 0 -1 0
vn 0.5000000000000001 0 0.8660254037844386
vn 0 1 0
vn 0 -1 0
vn 0 0 1
vn 0 1 0
vn 0 -1 0
vn -0.5000000000000001 0 0.8660254037844387
vn 0 1 0
vn 0 -1 0
vn -0.8660254037844387 0 0.4999999999999999
vn 0 1 0
vn 0 -1 0
vn -1 0 5.5245449808451715e-16
vn 0 1 0
vn 0 -1 0
vn -0.8660254037844389 0 -0.49999999999999967
vn 0 1 0
vn 0 -1 0
vn -0.4999999999999995 0 -0.8660254037844389
vn 0 1 0
vn 0 -1 0
vn -5.524544980845176e-16 0 -1
vn 0 1 0
vn 0 -1 0
vn 0.49999999999999967 0 -0.8660254037844389
vn 0 1 0
vn 0 -1 0
vn 0.8660254037844387 0 -0.49999999999999994
vn 0 1 0
vn 0 -1 0
vn 1 0 0
vn 0 1 0
usemtl m_ce3ed741-8e04-e0c6-7716-1b8f0671dbde
f 123/545/163 125/546/163 121/547/163
f 126/548/164 125/549/164 123/550/164
f 126/548/164 123/550/164 124/551/164
f 126/552/165 124/553/165 122/554/165
f 125/555/166 127/556/166 121/557/166
f 128/558/167 127/559/167 125/560/167
f 128/558/167 125/560/167 126/561/167
f 128/562/168 126/563/168 122/564/168
f 127/565/169 129/566/169 121/567/169
f 130/568/170 129/569/170 127/570/170
f 130/568/170 127/570/170 128/571/170
f 130/572/171 128/573/171 122/574/171
f 129/575/172 131/576/172 121/577/172
f 132/578/173 131/579/173 129/580/173
f 132/578/173 129/580/173 130/581/173
f 132/582/174 130/583/174 122/584/174
f 131/585/175 133/586/175 121/587/175
f 134/588/176 133/589/176 131/590/176
f 134/588/176 131/590/176 132/591/176
f 134/592/177 132/593/177 122/594/177
f 133/595/178 135/596/178 121/597/178
f 136/598/179 135/599/179 133/600/179
f 136/598/179 133/600/179 134/601/179
f 136/602/180 134/603/180 122/604/180
f 135/605/181 137/606/181 121/607/181
f 138/608/182 137/609/182 135/610/182
f 138/608/182 135/610/182 136/611/182
f 138/612/183 136/613/183 122/614/183
f 137/615/184 139/616/184 121/617/184
f 140/618/185 139/619/185 137/620/185
f 140/618/185 137/620/185 138/621/185
f 140/622/186 138/623/186 122/624/186
f 139/625/187 141/626/187 121/627/187
f 142/628/188 141/629/188 139/630/188
f 142/628/188 139/630/188 140/631/188
f 142/632/189 140/633/189 122/634/189
f 141/635/190 143/636/190 121/637/190
f 144/638/191 143/639/191 141/640/191
f 144/638/191 141/640/191 142/641/191
f 144/642/192 142/643/192 122/644/192
f 143/645/193 145/646/193 121/647/193
f 146/648/194 145/649/194 143/650/194
f 146/648/194 143/650/194 144/651/194
f 146/652/195 144/653/195 122/654/195
f 145/655/196 123/656/196 121/657/196
f 124/658/197 123/659/197 145/660/197
f 124/658/197 145/660/197 146/661/197
f 124/662/198 146/663/198 122/664/198
o cube
v 1.4375 -0.936875 0.125
v 1.4375 -0.936875 -0.125
v 1.4375 -0.999375 0.125
v 1.4375 -0.999375 -0.125
v -1.25 -0.936875 -0.125
v -1.25 -0.936875 0.125
v -1.25 -0.999375 -0.125
v -1.25 -0.999375 0.125
vt 0 1
vt 1 1
vt 1 0.9375
vt 0 0.9375
vt 0 1
vt 0.25 1
vt 0.25 0.9375
vt 0 0.9375
vt 0 1
vt 1 1
vt 1 0.9375
vt 0 0.9375
vt 0 1
vt 0.25 1
vt 0.25 0.9375
vt 0 0.9375
vt 0 1
vt 1 1
vt 1 0.75
vt 0 0.75
vt 0 1
vt 1 1
vt 1 0.75
vt 0 0.75
vn 0 0 -1
vn 1 0 0
vn 0 0 1
vn -1 0 0
vn 0 1 0
vn 0 -1 0
usemtl m_b69a3b52-3036-3332-cea2-53d0b09b6357
f 153/667/199 151/666/199 148/665/199
f 150/668/199 153/667/199 148/665/199
f 150/671/200 148/670/200 147/669/200
f 149/672/200 150/671/200 147/669/200
f 149/675/201 147/674/201 152/673/201
f 154/676/201 149/675/201 152/673/201
f 154/679/202 152/678/202 151/677/202
f 153/680/202 154/679/202 151/677/202
f 147/683/203 148/682/203 151/681/203
f 152/684/203 147/683/203 151/681/203
f 150/687/204 149/686/204 154/685/204
f 153/688/204 150/687/204 154/685/204