# Made in Blockbench 4.12.5
mtllib beijing_pids_a2.mtl

o cube
v 0.78125 0.9497496359701607 0.38168940924558753
v 0.71875 0.9659258262890683 0.32131904510252074
v 0.78125 -0.016176190318907546 0.12287036414306676
v 0.71875 0 0.0625
v -0.78125 0.9497496359701607 0.38168940924558753
v -0.71875 0.9659258262890683 0.32131904510252074
v -0.78125 -0.016176190318907546 0.12287036414306676
v -0.71875 0 0.0625
v 0.703125 0.9014533446557074 0.3687484569904615
v -0.703125 0.9014533446557074 0.3687484569904615
v 0.703125 0.032120100995545874 0.1358113163981928
v -0.703125 0.032120100995545874 0.1358113163981928
v -0.78125 0.9578377311296146 0.3515042271740541
v -0.78125 -0.008088095159453773 0.09268518207153338
v 0.78125 -0.008088095159453773 0.09268518207153338
v 0.78125 0.9578377311296146 0.3515042271740541
vt 0.0625 1
vt 0.03125 1
vt 0.03125 0
vt 0.0625 0
vt 0 0
vt 0.03125 0
vt 0.03125 1
vt 0 1
vt 0 1
vt 0 0.96875
vt 1 0.96875
vt 1 1
vt 1 0.9375
vt 1 0.96875
vt 0 0.96875
vt 0 0.9375
vt 1.40625 0.0374999999999972
vt 1.40625 0.9374999999999971
vt 0 0.9374999999999971
vt 0 0.0374999999999972
vt 1 0
vt 1 1
vt 0 1
vt 0 0
vt 0.9375 0.95
vt 0.9375 0.050000000000000044
vt 1.015625 0
vt 1.015625 1
vt 0.078125 0.95
vt 1.484375 0.95
vt 1.5625 1
vt 0 1
vt 0.078125 0.050000000000000044
vt 0.078125 0.95
vt 0 1
vt 0 0
vt 1.484375 0.06250000000000289
vt 0.078125 0.06250000000000289
vt 0 0.012500000000002842
vt 1.5625 0.012500000000002842
vt 0.0625 1
vt 0.03125 1
vt 0.03125 0
vt 0.0625 0
vt 0 1
vt 0 0.96875
vt 1 0.96875
vt 1 1
vt 0 0
vt 0.03125 0
vt 0.03125 1
vt 0 1
vt 1 0.9375
vt 1 0.96875
vt 0 0.96875
vt 0 0.9375
vn 0.4472135954999579 0.23149479148832816 -0.8639503235220041
vn -0.4472135954999579 0.23149479148832816 -0.8639503235220041
vn 0 0.9659258262890683 0.25881904510252074
vn 0 -0.9659258262890683 -0.25881904510252074
vn 0 -0.25881904510252074 0.9659258262890683
vn 0 0.25881904510252074 -0.9659258262890683
vn 0 -0.25881904510252074 0.9659258262890683
vn 0 -0.25881904510252074 0.9659258262890683
vn 0 -0.25881904510252074 0.9659258262890683
vn 0 -0.25881904510252074 0.9659258262890683
vn -1 0 0
vn 0 -0.9659258262890683 -0.25881904510252074
vn 1 0 0
vn 0 0.9659258262890683 0.25881904510252074
usemtl m_6447f28d-bef0-70d2-ca81-e30bb32cbe47
f 2/1/1 16/2/1 15/3/1
f 2/1/1 15/3/1 4/4/1
f 8/5/2 14/6/2 13/7/2
f 8/5/2 13/7/2 6/8/2
f 6/9/3 13/10/3 16/11/3
f 6/9/3 16/11/3 2/12/3
f 4/13/4 15/14/4 14/15/4
f 4/13/4 14/15/4 8/16/4
usemtl m_14aa7212-7666-228f-bf3b-0f6799561998
f 11/17/5 9/18/5 10/19/5
f 11/17/5 10/19/5 12/20/5
usemtl m_6447f28d-bef0-70d2-ca81-e30bb32cbe47
f 8/21/6 6/22/6 2/23/6
f 8/21/6 2/23/6 4/24/6
f 9/25/7 11/26/7 3/27/7
f 9/25/7 3/27/7 1/28/7
f 10/29/8 9/30/8 1/31/8
f 10/29/8 1/31/8 5/32/8
f 12/33/9 10/34/9 5/35/9
f 12/33/9 5/35/9 7/36/9
f 11/37/10 12/38/10 7/39/10
f 11/37/10 7/39/10 3/40/10
f 5/41/11 13/42/11 14/43/11
f 5/41/11 14/43/11 7/44/11
f 7/45/12 14/46/12 15/47/12
f 7/45/12 15/47/12 3/48/12
f 3/49/13 15/50/13 16/51/13
f 3/49/13 16/51/13 1/52/13
f 1/53/14 16/54/14 13/55/14
f 1/53/14 13/55/14 5/56/14
o cube
v 0.78125 0.9497496359701607 -0.38168940924558753
v 0.71875 0.9659258262890683 -0.32131904510252074
v 0.78125 -0.016176190318907546 -0.12287036414306676
v 0.71875 0 -0.0625
v -0.78125 0.9497496359701607 -0.38168940924558753
v -0.71875 0.9659258262890683 -0.32131904510252074
v -0.78125 -0.016176190318907546 -0.12287036414306676
v -0.71875 0 -0.0625
v 0.703125 0.9014533446557074 -0.3687484569904615
v -0.703125 0.9014533446557074 -0.3687484569904615
v 0.703125 0.032120100995545874 -0.1358113163981928
v -0.703125 0.032120100995545874 -0.1358113163981928
v -0.78125 0.9578377311296146 -0.3515042271740541
v -0.78125 -0.008088095159453773 -0.09268518207153338
v 0.78125 -0.008088095159453773 -0.09268518207153338
v 0.78125 0.9578377311296146 -0.3515042271740541
vt 0.03125 0
vt 0.03125 1
vt 0.0625 1
vt 0.0625 0
vt 0.03125 1
vt 0.03125 0
vt 0 0
vt 0 1
vt 1 0.96875
vt 0 0.96875
vt 0 1
vt 1 1
vt 0 0.96875
vt 1 0.96875
vt 1 0.9375
vt 0 0.9375
vt 0 0.9374999999999971
vt 1.40625 0.9374999999999971
vt 1.40625 0.0374999999999972
vt 0 0.0374999999999972
vt 0 1
vt 1 1
vt 1 0
vt 0 0
vt 1.015625 0
vt 0.9375 0.050000000000000044
vt 0.9375 0.95
vt 1.015625 1
vt 1.5625 1
vt 1.484375 0.95
vt 0.078125 0.95
vt 0 1
vt 0 1
vt 0.078125 0.95
vt 0.078125 0.050000000000000044
vt 0 0
vt 0 0.012500000000002842
vt 0.078125 0.06250000000000289
vt 1.484375 0.06250000000000289
vt 1.5625 0.012500000000002842
vt 0.03125 0
vt 0.03125 1
vt 0.0625 1
vt 0.0625 0
vt 1 0.96875
vt 0 0.96875
vt 0 1
vt 1 1
vt 0.03125 1
vt 0.03125 0
vt 0 0
vt 0 1
vt 0 0.96875
vt 1 0.96875
vt 1 0.9375
vt 0 0.9375
vn 0.4472135954999579 0.23149479148832816 0.8639503235220041
vn -0.4472135954999579 0.23149479148832816 0.8639503235220041
vn 0 0.9659258262890683 -0.25881904510252074
vn 0 -0.9659258262890683 0.25881904510252074
vn 0 -0.25881904510252074 -0.9659258262890683
vn 0 0.25881904510252074 0.9659258262890683
vn 0 -0.25881904510252074 -0.9659258262890683
vn 0 -0.25881904510252074 -0.9659258262890683
vn 0 -0.25881904510252074 -0.9659258262890683
vn 0 -0.25881904510252074 -0.9659258262890683
vn -1 0 0
vn 0 -0.9659258262890683 0.25881904510252074
vn 1 0 0
vn 0 0.9659258262890683 -0.25881904510252074
usemtl m_6447f28d-bef0-70d2-ca81-e30bb32cbe47
f 31/57/15 32/58/15 18/59/15
f 31/57/15 18/59/15 20/60/15
f 29/61/16 30/62/16 24/63/16
f 29/61/16 24/63/16 22/64/16
f 32/65/17 29/66/17 22/67/17
f 32/65/17 22/67/17 18/68/17
f 30/69/18 31/70/18 20/71/18
f 30/69/18 20/71/18 24/72/18
usemtl m_14aa7212-7666-228f-bf3b-0f6799561998
f 26/73/19 25/74/19 27/75/19
f 26/73/19 27/75/19 28/76/19
usemtl m_6447f28d-bef0-70d2-ca81-e30bb32cbe47
f 18/77/20 22/78/20 24/79/20
f 18/77/20 24/79/20 20/80/20
f 19/81/21 27/82/21 25/83/21
f 19/81/21 25/83/21 17/84/21
f 17/85/22 25/86/22 26/87/22
f 17/85/22 26/87/22 21/88/22
f 21/89/23 26/90/23 28/91/23
f 21/89/23 28/91/23 23/92/23
f 23/93/24 28/94/24 27/95/24
f 23/93/24 27/95/24 19/96/24
f 30/97/25 29/98/25 21/99/25
f 30/97/25 21/99/25 23/100/25
f 31/101/26 30/102/26 23/103/26
f 31/101/26 23/103/26 19/104/26
f 32/105/27 31/106/27 19/107/27
f 32/105/27 19/107/27 17/108/27
f 29/109/28 32/110/28 17/111/28
f 29/109/28 17/111/28 21/112/28
o cube
v 0.25 0.625 0.25
v 0.25 0.625 -0.25
v 0.25 0.3125 0.1875
v 0.25 0.3125 -0.1875
v -0.25 0.625 0.25
v -0.25 0.625 -0.25
v -0.25 0.3125 0.1875
v -0.25 0.3125 -0.1875
vt 0.375 0.6875
vt 0.375 1
vt 0 1
vt 0 0.6875
vt 0.375 0.6875
vt 0.375 1
vt 0 1
vt 0 0.6875
vt 0.5 0.625
vt 0.5 1
vt 0 1
vt 0 0.625
vt 0.5 0.625
vt 0.5 1
vt 0 1
vt 0 0.625
vt 0.5 0.6875
vt 0.5 1
vt 0 1
vt 0 0.6875
vt 0.5 0.6875
vt 0.5 1
vt 0 1
vt 0 0.6875
vn 1 0 0
vn -1 0 0
vn 0 1 0
vn 0 -1 0
vn 0 -0.19611613513818404 0.9805806756909202
vn 0 -0.19611613513818404 -0.9805806756909202
usemtl m_6447f28d-bef0-70d2-ca81-e30bb32cbe47
f 36/113/29 34/114/29 33/115/29
f 36/113/29 33/115/29 35/116/29
f 39/117/30 37/118/30 38/119/30
f 39/117/30 38/119/30 40/120/30
f 33/121/31 34/122/31 38/123/31
f 33/121/31 38/123/31 37/124/31
f 36/125/32 35/126/32 39/127/32
f 36/125/32 39/127/32 40/128/32
f 35/129/33 33/130/33 37/131/33
f 35/129/33 37/131/33 39/132/33
f 40/133/34 38/134/34 34/135/34
f 40/133/34 34/135/34 36/136/34
o cylinder
v 0 0.625 0
v 0 1.375 0
v 0.008373412263472583 0.625 0.031249999999999997
v 0.008373412263472583 1.375 0.031249999999999997
v 0.022876587736527412 0.625 0.022876587736527416
v 0.022876587736527412 1.375 0.022876587736527416
v 0.031249999999999997 0.625 0.008373412263472583
v 0.031249999999999997 1.375 0.008373412263472583
v 0.031249999999999997 0.625 -0.008373412263472586
v 0.031249999999999997 1.375 -0.008373412263472586
v 0.022876587736527416 0.625 -0.022876587736527412
v 0.022876587736527416 1.375 -0.022876587736527412
v 0.008373412263472593 0.625 -0.031249999999999993
v 0.008373412263472593 1.375 -0.031249999999999993
v -0.00837341226347257 0.625 -0.03125
v -0.00837341226347257 1.375 -0.03125
v -0.022876587736527412 0.625 -0.02287658773652742
v -0.022876587736527412 1.375 -0.02287658773652742
v -0.031249999999999997 0.625 -0.008373412263472579
v -0.031249999999999997 1.375 -0.008373412263472579
v -0.03125 0.625 0.008373412263472569
v -0.03125 1.375 0.008373412263472569
v -0.02287658773652742 0.625 0.02287658773652741
v -0.02287658773652742 1.375 0.02287658773652741
v -0.00837341226347258 0.625 0.031249999999999997
v -0.00837341226347258 1.375 0.031249999999999997
vt 0.03235013523928455 0.9838249323803577
vt 0.028019106204516944 1
vt 0 0.9838249323803577
vt 9.08995101411847e-16 0.25
vt 0.01675000000000091 0.25
vt 0.01675000000000091 1
vt 9.08995101411847e-16 1
vt 6.938893903907228e-18 0.9676472083893831
vt 0.016173739543028677 0.9719831943434968
vt 0 1
vt 0.032352791610616854 0.9838262604569713
vt 0.02801680565650322 1
vt 0 0.9838262604569713
vt 9.08995101411847e-16 0.25
vt 0.01675000000000091 0.25
vt 0.01675000000000091 1
vt 9.08995101411847e-16 1
vt 3.469446951953614e-18 0.9676498647607155
vt 0.016175067619642276 0.971980893795483
vt 0 1
vt 0.03125 0.9832499999999991
vt 0.03125 0.9999999999999991
vt 0 0.9916249999999991
vt 9.08995101411847e-16 0.25
vt 0.01675000000000091 0.25
vt 0.01675000000000091 1
vt 9.08995101411847e-16 1
vt 0.03125 0.9832499999999991
vt 0.03125 0.9999999999999991
vt 0 0.9916249999999991
vt 3.469446951953614e-18 0.9676498647607155
vt 0.016175067619642276 0.971980893795483
vt 0 1
vt 9.08995101411847e-16 0.25
vt 0.01675000000000091 0.25
vt 0.01675000000000091 1
vt 9.08995101411847e-16 1
vt 0.032352791610616854 0.9838262604569713
vt 0.02801680565650322 1
vt 0 0.9838262604569713
vt 6.938893903907228e-18 0.9676472083893831
vt 0.016173739543028677 0.9719831943434968
vt 0 1
vt 9.08995101411847e-16 0.25
vt 0.01675000000000091 0.25
vt 0.01675000000000091 1
vt 9.08995101411847e-16 1
vt 0.03235013523928455 0.9838249323803577
vt 0.028019106204516944 1
vt 0 0.9838249323803577
vt 9.08995101411847e-16 0.96875
vt 0.01675000000000091 0.96875
vt 0.00837500000000091 1
vt 9.08995101411847e-16 0.25
vt 0.01675000000000091 0.25
vt 0.01675000000000091 1
vt 9.08995101411847e-16 1
vt 0.01675000000000091 1
vt 9.08995101411847e-16 1
vt 0.00837500000000091 0.96875
vt 0 1
vt 0.004331029034767606 0.9838249323803577
vt 0.03235013523928455 1
vt 9.08995101411847e-16 0.25
vt 0.01675000000000091 0.25
vt 0.01675000000000091 1
vt 9.08995101411847e-16 1
vt 0.01617373954302867 1
vt 0 0.9956640140458863
vt 0.016173739543028677 0.9676472083893831
vt 0 1
vt 0.004335985954113636 0.9838262604569713
vt 0.032352791610616854 1
vt 9.08995101411847e-16 0.25
vt 0.01675000000000091 0.25
vt 0.01675000000000091 1
vt 9.08995101411847e-16 1
vt 0.016175067619642273 1
vt 0 0.9956689709652324
vt 0.016175067619642276 0.9676498647607155
vt 0 0.9999999999999991
vt 0 0.9832499999999991
vt 0.03125 0.9916249999999991
vt 9.08995101411847e-16 0.25
vt 0.01675000000000091 0.25
vt 0.01675000000000091 1
vt 9.08995101411847e-16 1
vt 0 0.9999999999999991
vt 0 0.9832499999999991
vt 0.03125 0.9916249999999991
vt 0.016175067619642273 1
vt 0 0.9956689709652324
vt 0.016175067619642276 0.9676498647607155
vt 9.08995101411847e-16 0.25
vt 0.01675000000000091 0.25
vt 0.01675000000000091 1
vt 9.08995101411847e-16 1
vt 0 1
vt 0.004335985954113636 0.9838262604569713
vt 0.032352791610616854 1
vt 0.01617373954302867 1
vt 0 0.9956640140458863
vt 0.016173739543028677 0.9676472083893831
vt 9.08995101411847e-16 0.25
vt 0.01675000000000091 0.25
vt 0.01675000000000091 1
vt 9.08995101411847e-16 1
vt 0 1
vt 0.004331029034767606 0.9838249323803577
vt 0.03235013523928455 1
vt 0.01675000000000091 1
vt 9.08995101411847e-16 1
vt 0.00837500000000091 0.96875
vt 9.08995101411847e-16 0.25
vt 0.01675000000000091 0.25
vt 0.01675000000000091 1
vt 9.08995101411847e-16 1
vt 9.08995101411847e-16 0.96875
vt 0.01675000000000091 0.96875
vt 0.00837500000000091 1
vn 0 -1 0
vn 0.4999999999999999 0 0.8660254037844387
vn 0 1 0
vn 0 -1 0
vn 0.8660254037844387 0 0.49999999999999994
vn 0 1 0
vn 0 -1 0
vn 1 0 0
vn 0 1 0
vn 0 -1 0
vn 0.8660254037844387 0 -0.49999999999999994
vn 0 1 0
vn 0 -1 0
vn 0.5000000000000001 0 -0.8660254037844386
vn 0 1 0
vn 0 -1 0
vn 4.143408735633879e-16 0 -1
vn 0 1 0
vn 0 -1 0
vn -0.4999999999999995 0 -0.8660254037844389
vn 0 1 0
vn 0 -1 0
vn -0.8660254037844388 0 -0.4999999999999997
vn 0 1 0
vn 0 -1 0
vn -1 0 -2.0717043678169412e-16
vn 0 1 0
vn 0 -1 0
vn -0.8660254037844389 0 0.4999999999999996
vn 0 1 0
vn 0 -1 0
vn -0.49999999999999994 0 0.8660254037844387
vn 0 1 0
vn 0 -1 0
vn 0 0 1
vn 0 1 0
usemtl m_6447f28d-bef0-70d2-ca81-e30bb32cbe47
f 45/137/35 43/138/35 41/139/35
f 43/140/36 45/141/36 46/142/36
f 43/140/36 46/142/36 44/143/36
f 44/144/37 46/145/37 42/146/37
f 47/147/38 45/148/38 41/149/38
f 45/150/39 47/151/39 48/152/39
f 45/150/39 48/152/39 46/153/39
f 46/154/40 48/155/40 42/156/40
f 49/157/41 47/158/41 41/159/41
f 47/160/42 49/161/42 50/162/42
f 47/160/42 50/162/42 48/163/42
f 48/164/43 50/165/43 42/166/43
f 51/167/44 49/168/44 41/169/44
f 49/170/45 51/171/45 52/172/45
f 49/170/45 52/172/45 50/173/45
f 50/174/46 52/175/46 42/176/46
f 53/177/47 51/178/47 41/179/47
f 51/180/48 53/181/48 54/182/48
f 51/180/48 54/182/48 52/183/48
f 52/184/49 54/185/49 42/186/49
f 55/187/50 53/188/50 41/189/50
f 53/190/51 55/191/51 56/192/51
f 53/190/51 56/192/51 54/193/51
f 54/194/52 56/195/52 42/196/52
f 57/197/53 55/198/53 41/199/53
f 55/200/54 57/201/54 58/202/54
f 55/200/54 58/202/54 56/203/54
f 56/204/55 58/205/55 42/206/55
f 59/207/56 57/208/56 41/209/56
f 57/210/57 59/211/57 60/212/57
f 57/210/57 60/212/57 58/213/57
f 58/214/58 60/215/58 42/216/58
f 61/217/59 59/218/59 41/219/59
f 59/220/60 61/221/60 62/222/60
f 59/220/60 62/222/60 60/223/60
f 60/224/61 62/225/61 42/226/61
f 63/227/62 61/228/62 41/229/62
f 61/230/63 63/231/63 64/232/63
f 61/230/63 64/232/63 62/233/63
f 62/234/64 64/235/64 42/236/64
f 65/237/65 63/238/65 41/239/65
f 63/240/66 65/241/66 66/242/66
f 63/240/66 66/242/66 64/243/66
f 64/244/67 66/245/67 42/246/67
f 43/247/68 65/248/68 41/249/68
f 65/250/69 43/251/69 44/252/69
f 65/250/69 44/252/69 66/253/69
f 66/254/70 44/255/70 42/256/70