# Made in Blockbench 5.1.4
mtllib pids_1.mtl

o cube
v 0.5 0.78125 0.3125
v 0.5 0.78125 -0.3125
v 0.5 0.03125 0.15625
v 0.5 0.03125 -0.15625
v -0.5 0.78125 0.3125
v -0.5 0.78125 -0.3125
v -0.5 0.03125 0.15625
v -0.5 0.03125 -0.15625
vt 0.375 0.25
vt 0.375 1
vt 0 1
vt 0 0.25
vt 0.375 0.25
vt 0.375 1
vt 0 1
vt 0 0.25
vt 0.625 0.625
vt 0.625 1
vt 0 1
vt 0 0.625
vt 0.625 0.625
vt 0.625 1
vt 0 1
vt 0 0.625
vn 1 0 0
vn -1 0 0
vn 0 1 0
vn 0 -1 0
usemtl m_f62156c9-d157-e48e-e4be-3f5ca39552d0
f 4/1/1 2/2/1 1/3/1
f 4/1/1 1/3/1 3/4/1
f 7/5/2 5/6/2 6/7/2
f 7/5/2 6/7/2 8/8/2
f 1/9/3 2/10/3 6/11/3
f 1/9/3 6/11/3 5/12/3
f 4/13/4 3/14/4 7/15/4
f 4/13/4 7/15/4 8/16/4
o cube
v 0.8125 0.9659260735817982 -0.3838190763079584
v 0.8125 0.9497498832628907 -0.4441894404510252
v 0.8125 2.4729272996015794e-7 -0.12500003120543768
v 0.8125 -0.01617594302617764 -0.18537039534850447
v -0.8125000000000001 0.9659260735817982 -0.3838190763079584
v -0.8125000000000001 0.9497498832628907 -0.4441894404510252
v -0.8125000000000001 2.4729272996015794e-7 -0.12500003120543768
v -0.8125000000000001 -0.01617594302617764 -0.18537039534850447
v -0.79625 0.940090625 -0.44160125
v 0.79625 0.940090625 -0.44160125
v -0.79625 -0.0065166847632869285 -0.18795858579952968
v 0.79625 -0.0065166847632869285 -0.18795858579952968
v -0.79625 0.9441346725797268 -0.4265086589642333
v 0.79625 0.9441346725797268 -0.4265086589642333
v -0.79625 -0.002472637183560056 -0.17286599476376296
v 0.79625 -0.002472637183560056 -0.17286599476376296
v 0.7386361666666666 0.9217318997576389 -0.30727252184598414
v 0.8125 0.9659260735817982 -0.3838190763079584
v 0.7386361666666666 0.13691716589777092 -0.09698204770018604
v 0.8125 2.4729272996015794e-7 -0.12500003120543768
v -0.7386361666666666 0.9217318997576389 -0.30727252184598414
v -0.8125000000000001 0.9659260735817982 -0.3838190763079584
v -0.7386361666666666 0.13691716589777092 -0.09698204770018604
v -0.8125000000000001 2.4729272996015794e-7 -0.12500003120543768
vt 0.125 0
vt 0.125 1
vt 0.0625 1
vt 0.0625 0
vt 0.0625 0
vt 0.0625 1
vt 0 1
vt 0 0
vt 1 0.9375
vt 1 1
vt 0 1
vt 0 0.9375
vt 1 0.875
vt 1 0.9375
vt 0 0.9375
vt 0 0.875
vt 1.3475 0.020000000000000018
vt 1.3475 1
vt 0 1
vt 0 0.020000000000000018
vt 1 0.99
vt 1 0.010000000000000009
vt 1.01375 0
vt 1.01375 1
vt 0.01375 0.99
vt 1.36125 0.99
vt 1.375 1
vt 0 1
vt 0.01375 0.010000000000000009
vt 0.01375 0.99
vt 0 1
vt 0 0
vt 1.36125 0
vt 0.01375 0
vt 0 -0.010000000000000009
vt 1.375 -0.010000000000000009
vt 1 0.5
vt 1 0.5
vt 1 0.5
vt 1 0.5
vt 1.3475 1
vt 0 1
vt 0 1
vt 1.3475 1
vt 0 0.5
vt 0 0.5
vt 0 0.5
vt 0 0.5
vt 0 0
vt 1.3475 0
vt 1.3475 0
vt 0 0
vt 0.125 0
vt 0.125 1
vt 0.0625 1
vt 0.0625 0
vt 0.0625 0
vt 0.0625 1
vt 0 1
vt 0 0
vt 1 0.9375
vt 1 1
vt 0 1
vt 0 0.9375
vt 1 0.875
vt 1 0.9375
vt 0 0.9375
vt 0 0.875
vt 1 0
vt 1 1
vt 0 1
vt 0 0
vn 1 0 0
vn -1 0 0
vn 0 0.9659258262890683 -0.25881904510252074
vn 0 -0.9659258262890683 0.25881904510252074
vn 0 -0.25881904510252074 -0.9659258262890683
vn 0 -0.25881904510252074 -0.9659258262890683
vn 0 -0.25881904510252074 -0.9659258262890683
vn 0 -0.25881904510252074 -0.9659258262890683
vn 0 -0.25881904510252074 -0.9659258262890683
vn 1 0 0
vn 0 -0.9659258262890683 0.25881904510252074
vn -1 0 0
vn 0 0.9659258262890683 -0.25881904510252074
vn 0.6459412376580828 0.1975791292580067 0.7373753489060996
vn -0.6459412376580822 0.1975791292580068 0.7373753489061
vn 0 0.8660254037844387 0.5000000000000001
vn 0 -0.20048037027267387 0.9796977192661681
vn 0 0.25881904510252074 0.9659258262890683
usemtl m_f62156c9-d157-e48e-e4be-3f5ca39552d0
f 12/17/5 10/18/5 9/19/5
f 12/17/5 9/19/5 11/20/5
f 15/21/6 13/22/6 14/23/6
f 15/21/6 14/23/6 16/24/6
f 9/25/7 10/26/7 14/27/7
f 9/25/7 14/27/7 13/28/7
f 12/29/8 11/30/8 15/31/8
f 12/29/8 15/31/8 16/32/8
f 23/33/9 21/34/9 22/35/9
f 23/33/9 22/35/9 24/36/9
f 17/37/10 19/38/10 16/39/10
f 17/37/10 16/39/10 14/40/10
f 18/41/11 17/42/11 14/43/11
f 18/41/11 14/43/11 10/44/11
f 20/45/12 18/46/12 10/47/12
f 20/45/12 10/47/12 12/48/12
f 19/49/13 20/50/13 12/51/13
f 19/49/13 12/51/13 16/52/13
f 21/53/14 23/54/14 19/55/14
f 21/53/14 19/55/14 17/56/14
f 22/57/15 21/58/15 17/59/15
f 22/57/15 17/59/15 18/60/15
f 24/61/16 22/62/16 18/63/16
f 24/61/16 18/63/16 20/64/16
f 23/65/17 24/66/17 20/67/17
f 23/65/17 20/67/17 19/68/17
f 28/69/18 26/70/18 25/71/18
f 28/69/18 25/71/18 27/72/18
f 31/73/19 29/74/19 30/75/19
f 31/73/19 30/75/19 32/76/19
f 25/77/20 26/78/20 30/79/20
f 25/77/20 30/79/20 29/80/20
f 28/81/21 27/82/21 31/83/21
f 28/81/21 31/83/21 32/84/21
f 27/85/22 25/86/22 29/87/22
f 27/85/22 29/87/22 31/88/22
o cylinder
v 0.375 1.625 0
v 0.383373125 0.875 0.03125
v 0.383373125 1.625 0.03125
v 0.397876875 0.875 0.022876875
v 0.397876875 1.625 0.022876875
v 0.40625 0.875 0.008373125
v 0.40625 1.625 0.008373125
v 0.40625 0.875 -0.008373125
v 0.40625 1.625 -0.008373125
v 0.397876875 0.875 -0.022876875
v 0.397876875 1.625 -0.022876875
v 0.383373125 0.875 -0.03125
v 0.383373125 1.625 -0.03125
v 0.366626875 0.875 -0.03125
v 0.366626875 1.625 -0.03125
v 0.352123125 0.875 -0.022876875
v 0.352123125 1.625 -0.022876875
v 0.34375 0.875 -0.008373125
v 0.34375 1.625 -0.008373125
v 0.34375 0.875 0.008373125
v 0.34375 1.625 0.008373125
v 0.352123125 0.875 0.022876875
v 0.352123125 1.625 0.022876875
v 0.366626875 0.875 0.03125
v 0.366626875 1.625 0.03125
vt 0 0.75
vt 0.008375 0.75
vt 0.008375 1
vt 0 1
vt 0 0.98382375
vt 0.008086875 0.9859915625
vt 0 1
vt 0 0.75
vt 0.008375 0.75
vt 0.008375 1
vt 0 1
vt 0 0.983825
vt 0.0080875 0.9859903125
vt 0 1
vt 0 0.75
vt 0.008375 0.75
vt 0.008375 1
vt 0 1
vt 0.015625 0.991625
vt 0.015625 1
vt 0 0.9958125
vt 0 0.75
vt 0.008375 0.75
vt 0.008375 1
vt 0 1
vt 0.01617625 0.991913125
vt 0.0140084375 1
vt 0 0.991913125
vt 0 0.75
vt 0.008375 0.75
vt 0.008375 1
vt 0 1
vt 0.016175 0.9919125
vt 0.0140096875 1
vt 0 0.9919125
vt 0 0.75
vt 0.008375 0.75
vt 0.008375 1
vt 0 1
vt 0.008375 1
vt 0 1
vt 0.0041875 0.984375
vt 0 0.75
vt 0.008375 0.75
vt 0.008375 1
vt 0 1
vt 0.008086875 1
vt 0 0.997831875
vt 0.008086875 0.98382375
vt 0 0.75
vt 0.008375 0.75
vt 0.008375 1
vt 0 1
vt 0.0080875 1
vt 0 0.997834375
vt 0.0080875 0.983825
vt 0 0.75
vt 0.008375 0.75
vt 0.008375 1
vt 0 1
vt 0 1
vt 0 0.991625
vt 0.015625 0.9958125
vt 0 0.75
vt 0.008375 0.75
vt 0.008375 1
vt 0 1
vt 0 1
vt 0.002168125 0.991913125
vt 0.01617625 1
vt 0 0.75
vt 0.008375 0.75
vt 0.008375 1
vt 0 1
vt 0 1
vt 0.002165625 0.9919125
vt 0.016175 1
vt 0 0.75
vt 0.008375 0.75
vt 0.008375 1
vt 0 1
vt 0 0.984375
vt 0.008375 0.984375
vt 0.0041875 1
vn 0.4999722801449919 0 0.8660414072586933
vn 0 1 0
vn 0.8660414072586932 0 0.49997228014499207
vn 0 1 0
vn 1 0 0
vn 0 1 0
vn 0.8660414072586932 0 -0.49997228014499207
vn 0 1 0
vn 0.4999722801449919 0 -0.8660414072586933
vn 0 1 0
vn 0 0 -1
vn 0 1 0
vn -0.4999722801449919 0 -0.8660414072586933
vn 0 1 0
vn -0.8660414072586932 0 -0.49997228014499207
vn 0 1 0
vn -1 0 0
vn 0 1 0
vn -0.8660414072586932 0 0.49997228014499207
vn 0 1 0
vn -0.4999722801449919 0 0.8660414072586933
vn 0 1 0
vn 0 0 1
vn 0 1 0
usemtl m_0514c424-071f-a6ef-d56e-8aeb4df90486
f 34/89/23 36/90/23 37/91/23
f 34/89/23 37/91/23 35/92/23
f 35/93/24 37/94/24 33/95/24
f 36/96/25 38/97/25 39/98/25
f 36/96/25 39/98/25 37/99/25
f 37/100/26 39/101/26 33/102/26
f 38/103/27 40/104/27 41/105/27
f 38/103/27 41/105/27 39/106/27
f 39/107/28 41/108/28 33/109/28
f 40/110/29 42/111/29 43/112/29
f 40/110/29 43/112/29 41/113/29
f 41/114/30 43/115/30 33/116/30
f 42/117/31 44/118/31 45/119/31
f 42/117/31 45/119/31 43/120/31
f 43/121/32 45/122/32 33/123/32
f 44/124/33 46/125/33 47/126/33
f 44/124/33 47/126/33 45/127/33
f 45/128/34 47/129/34 33/130/34
f 46/131/35 48/132/35 49/133/35
f 46/131/35 49/133/35 47/134/35
f 47/135/36 49/136/36 33/137/36
f 48/138/37 50/139/37 51/140/37
f 48/138/37 51/140/37 49/141/37
f 49/142/38 51/143/38 33/144/38
f 50/145/39 52/146/39 53/147/39
f 50/145/39 53/147/39 51/148/39
f 51/149/40 53/150/40 33/151/40
f 52/152/41 54/153/41 55/154/41
f 52/152/41 55/154/41 53/155/41
f 53/156/42 55/157/42 33/158/42
f 54/159/43 56/160/43 57/161/43
f 54/159/43 57/161/43 55/162/43
f 55/163/44 57/164/44 33/165/44
f 56/166/45 34/167/45 35/168/45
f 56/166/45 35/168/45 57/169/45
f 57/170/46 35/171/46 33/172/46
o cube
v 0.75 0.875 0.0625
v 0.75 0.875 -0.0625
v 0.75 0 0.0625
v 0.75 0 -0.0625
v -0.75 0.875 0.0625
v -0.75 0.875 -0.0625
v -0.75 0 0.0625
v -0.75 0 -0.0625
vt 0.0625 0.5
vt 0.0625 0.9375
vt 0 0.9375
vt 0 0.5
vt 0.0625 0.5
vt 0.0625 0.9375
vt 0 0.9375
vt 0 0.5
vt 0.6875 0.9375
vt 0.6875 1
vt 0 1
vt 0 0.9375
vt 0.6875 0.9375
vt 0.6875 1
vt 0 1
vt 0 0.9375
vt 0.5625 0.5
vt 0.5625 0.9375
vt 0.0625 0.9375
vt 0.0625 0.5
vt 0.5625 0.5
vt 0.5625 0.9375
vt 0.0625 0.9375
vt 0.0625 0.5
vn 1 0 0
vn -1 0 0
vn 0 1 0
vn 0 -1 0
vn 0 0 1
vn 0 0 -1
usemtl m_0514c424-071f-a6ef-d56e-8aeb4df90486
f 61/173/47 59/174/47 58/175/47
f 61/173/47 58/175/47 60/176/47
f 64/177/48 62/178/48 63/179/48
f 64/177/48 63/179/48 65/180/48
f 58/181/49 59/182/49 63/183/49
f 58/181/49 63/183/49 62/184/49
f 61/185/50 60/186/50 64/187/50
f 61/185/50 64/187/50 65/188/50
f 60/189/51 58/190/51 62/191/51
f 60/189/51 62/191/51 64/192/51
f 65/193/52 63/194/52 59/195/52
f 65/193/52 59/195/52 61/196/52
o cylinder
v -0.375 1.625 0
v -0.383373125 0.875 0.03125
v -0.383373125 1.625 0.03125
v -0.397876875 0.875 0.022876875
v -0.397876875 1.625 0.022876875
v -0.40625 0.875 0.008373125
v -0.40625 1.625 0.008373125
v -0.40625 0.875 -0.008373125
v -0.40625 1.625 -0.008373125
v -0.397876875 0.875 -0.022876875
v -0.397876875 1.625 -0.022876875
v -0.383373125 0.875 -0.03125
v -0.383373125 1.625 -0.03125
v -0.366626875 0.875 -0.03125
v -0.366626875 1.625 -0.03125
v -0.352123125 0.875 -0.022876875
v -0.352123125 1.625 -0.022876875
v -0.34375 0.875 -0.008373125
v -0.34375 1.625 -0.008373125
v -0.34375 0.875 0.008373125
v -0.34375 1.625 0.008373125
v -0.352123125 0.875 0.022876875
v -0.352123125 1.625 0.022876875
v -0.366626875 0.875 0.03125
v -0.366626875 1.625 0.03125
vt 0.008375 1
vt 0.008375 0.75
vt 0 0.75
vt 0 1
vt 0.008086875 0.9859915625
vt 0 0.98382375
vt 0 1
vt 0.008375 1
vt 0.008375 0.75
vt 0 0.75
vt 0 1
vt 0.0080875 0.9859903125
vt 0 0.983825
vt 0 1
vt 0.008375 1
vt 0.008375 0.75
vt 0 0.75
vt 0 1
vt 0.015625 1
vt 0.015625 0.991625
vt 0 0.9958125
vt 0.008375 1
vt 0.008375 0.75
vt 0 0.75
vt 0 1
vt 0.0140084375 1
vt 0.01617625 0.991913125
vt 0 0.991913125
vt 0.008375 1
vt 0.008375 0.75
vt 0 0.75
vt 0 1
vt 0.0140096875 1
vt 0.016175 0.9919125
vt 0 0.9919125
vt 0.008375 1
vt 0.008375 0.75
vt 0 0.75
vt 0 1
vt 0 1
vt 0.008375 1
vt 0.0041875 0.984375
vt 0.008375 1
vt 0.008375 0.75
vt 0 0.75
vt 0 1
vt 0 0.997831875
vt 0.008086875 1
vt 0.008086875 0.98382375
vt 0.008375 1
vt 0.008375 0.75
vt 0 0.75
vt 0 1
vt 0 0.997834375
vt 0.0080875 1
vt 0.0080875 0.983825
vt 0.008375 1
vt 0.008375 0.75
vt 0 0.75
vt 0 1
vt 0 0.991625
vt 0 1
vt 0.015625 0.9958125
vt 0.008375 1
vt 0.008375 0.75
vt 0 0.75
vt 0 1
vt 0.002168125 0.991913125
vt 0 1
vt 0.01617625 1
vt 0.008375 1
vt 0.008375 0.75
vt 0 0.75
vt 0 1
vt 0.002165625 0.9919125
vt 0 1
vt 0.016175 1
vt 0.008375 1
vt 0.008375 0.75
vt 0 0.75
vt 0 1
vt 0.008375 0.984375
vt 0 0.984375
vt 0.0041875 1
vn -0.4999722801449919 0 0.8660414072586933
vn 0 1 0
vn -0.8660414072586932 0 0.49997228014499207
vn 0 1 0
vn -1 0 0
vn 0 1 0
vn -0.8660414072586932 0 -0.49997228014499207
vn 0 1 0
vn -0.4999722801449919 0 -0.8660414072586933
vn 0 1 0
vn 0 0 -1
vn 0 1 0
vn 0.4999722801449919 0 -0.8660414072586933
vn 0 1 0
vn 0.8660414072586932 0 -0.49997228014499207
vn 0 1 0
vn 1 0 0
vn 0 1 0
vn 0.8660414072586932 0 0.49997228014499207
vn 0 1 0
vn 0.4999722801449919 0 0.8660414072586933
vn 0 1 0
vn 0 0 1
vn 0 1 0
usemtl m_0514c424-071f-a6ef-d56e-8aeb4df90486
f 70/197/53 69/198/53 67/199/53
f 70/197/53 67/199/53 68/200/53
f 70/201/54 68/202/54 66/203/54
f 72/204/55 71/205/55 69/206/55
f 72/204/55 69/206/55 70/207/55
f 72/208/56 70/209/56 66/210/56
f 74/211/57 73/212/57 71/213/57
f 74/211/57 71/213/57 72/214/57
f 74/215/58 72/216/58 66/217/58
f 76/218/59 75/219/59 73/220/59
f 76/218/59 73/220/59 74/221/59
f 76/222/60 74/223/60 66/224/60
f 78/225/61 77/226/61 75/227/61
f 78/225/61 75/227/61 76/228/61
f 78/229/62 76/230/62 66/231/62
f 80/232/63 79/233/63 77/234/63
f 80/232/63 77/234/63 78/235/63
f 80/236/64 78/237/64 66/238/64
f 82/239/65 81/240/65 79/241/65
f 82/239/65 79/241/65 80/242/65
f 82/243/66 80/244/66 66/245/66
f 84/246/67 83/247/67 81/248/67
f 84/246/67 81/248/67 82/249/67
f 84/250/68 82/251/68 66/252/68
f 86/253/69 85/254/69 83/255/69
f 86/253/69 83/255/69 84/256/69
f 86/257/70 84/258/70 66/259/70
f 88/260/71 87/261/71 85/262/71
f 88/260/71 85/262/71 86/263/71
f 88/264/72 86/265/72 66/266/72
f 90/267/73 89/268/73 87/269/73
f 90/267/73 87/269/73 88/270/73
f 90/271/74 88/272/74 66/273/74
f 68/274/75 67/275/75 89/276/75
f 68/274/75 89/276/75 90/277/75
f 68/278/76 90/279/76 66/280/76
o cube
v 0.8125 0.9659258262890683 0.38381904510252074
v 0.8125 0.9497496359701607 0.44418940924558753
v 0.8125 0 0.125
v 0.8125 -0.016176190318907546 0.18537036414306676
v -0.8125 0.9659258262890683 0.38381904510252074
v -0.8125 0.9497496359701607 0.44418940924558753
v -0.8125 0 0.125
v -0.8125 -0.016176190318907546 0.18537036414306676
v -0.79625 0.94009037770727 0.4416012187945623
v 0.79625 0.94009037770727 0.4416012187945623
v -0.79625 -0.006516932056016863 0.18795855459409197
v 0.79625 -0.006516932056016863 0.18795855459409197
v -0.79625 0.944134425286997 0.4265086277587956
v 0.79625 0.944134425286997 0.4265086277587956
v -0.79625 -0.002472884476289976 0.1728659635583253
v 0.79625 -0.002472884476289976 0.1728659635583253
v 0.7386361666666666 0.9217316524649091 0.3072724906405464
v 0.8125 0.9659258262890683 0.38381904510252074
v 0.7386361666666666 0.13691691860504107 0.09698201649474833
v 0.8125 0 0.125
v -0.7386361666666666 0.9217316524649091 0.3072724906405464
v -0.8125 0.9659258262890683 0.38381904510252074
v -0.7386361666666666 0.13691691860504107 0.09698201649474833
v -0.8125 0 0.125
vt 0.0625 1
vt 0.125 1
vt 0.125 0
vt 0.0625 0
vt 0 1
vt 0.0625 1
vt 0.0625 0
vt 0 0
vt 0 1
vt 1 1
vt 1 0.9375
vt 0 0.9375
vt 0 0.9375
vt 1 0.9375
vt 1 0.875
vt 0 0.875
vt 0 1
vt 1.3475 1
vt 1.3475 0.020000000000000018
vt 0 0.020000000000000018
vt 1.01375 0
vt 1 0.010000000000000009
vt 1 0.99
vt 1.01375 1
vt 1.375 1
vt 1.36125 0.99
vt 0.01375 0.99
vt 0 1
vt 0 1
vt 0.01375 0.99
vt 0.01375 0.010000000000000009
vt 0 0
vt 0 -0.010000000000000009
vt 0.01375 0
vt 1.36125 0
vt 1.375 -0.010000000000000009
vt 1 0.5
vt 1 0.5
vt 1 0.5
vt 1 0.5
vt 0 1
vt 0 1
vt 1.3475 1
vt 1.3475 1
vt 0 0.5
vt 0 0.5
vt 0 0.5
vt 0 0.5
vt 1.3475 0
vt 1.3475 0
vt 0 0
vt 0 0
vt 0.0625 1
vt 0.125 1
vt 0.125 0
vt 0.0625 0
vt 0 1
vt 0.0625 1
vt 0.0625 0
vt 0 0
vt 0 1
vt 1 1
vt 1 0.9375
vt 0 0.9375
vt 0 0.9375
vt 1 0.9375
vt 1 0.875
vt 0 0.875
vt 0 1
vt 1 1
vt 1 0
vt 0 0
vn 1 0 0
vn -1 0 0
vn 0 0.9659258262890683 0.25881904510252074
vn 0 -0.9659258262890683 -0.25881904510252074
vn 0 -0.25881904510252074 0.9659258262890683
vn 0 -0.25881904510252074 0.9659258262890683
vn 0 -0.25881904510252074 0.9659258262890683
vn 0 -0.25881904510252074 0.9659258262890683
vn 0 -0.25881904510252074 0.9659258262890683
vn 1 0 0
vn 0 -0.9659258262890683 -0.25881904510252074
vn -1 0 0
vn 0 0.9659258262890683 0.25881904510252074
vn 0.6459412376580828 0.1975791292580067 -0.7373753489060996
vn -0.6459412376580828 0.1975791292580067 -0.7373753489060996
vn 0 0.8660254037844387 -0.5000000000000001
vn 0 -0.2004803702726739 -0.9796977192661682
vn 0 0.25881904510252074 -0.9659258262890683
usemtl m_f62156c9-d157-e48e-e4be-3f5ca39552d0
f 91/281/77 92/282/77 94/283/77
f 91/281/77 94/283/77 93/284/77
f 96/285/78 95/286/78 97/287/78
f 96/285/78 97/287/78 98/288/78
f 96/289/79 92/290/79 91/291/79
f 96/289/79 91/291/79 95/292/79
f 97/293/80 93/294/80 94/295/80
f 97/293/80 94/295/80 98/296/80
f 104/297/81 103/298/81 105/299/81
f 104/297/81 105/299/81 106/300/81
f 98/301/82 101/302/82 99/303/82
f 98/301/82 99/303/82 96/304/82
f 96/305/83 99/306/83 100/307/83
f 96/305/83 100/307/83 92/308/83
f 92/309/84 100/310/84 102/311/84
f 92/309/84 102/311/84 94/312/84
f 94/313/85 102/314/85 101/315/85
f 94/313/85 101/315/85 98/316/85
f 101/317/86 105/318/86 103/319/86
f 101/317/86 103/319/86 99/320/86
f 99/321/87 103/322/87 104/323/87
f 99/321/87 104/323/87 100/324/87
f 100/325/88 104/326/88 106/327/88
f 100/325/88 106/327/88 102/328/88
f 102/329/89 106/330/89 105/331/89
f 102/329/89 105/331/89 101/332/89
f 107/333/90 108/334/90 110/335/90
f 107/333/90 110/335/90 109/336/90
f 112/337/91 111/338/91 113/339/91
f 112/337/91 113/339/91 114/340/91
f 112/341/92 108/342/92 107/343/92
f 112/341/92 107/343/92 111/344/92
f 113/345/93 109/346/93 110/347/93
f 113/345/93 110/347/93 114/348/93
f 111/349/94 107/350/94 109/351/94
f 111/349/94 109/351/94 113/352/94