# Blender 4.3.2
# www.blender.org
mtllib beijing_zhanpai_a.mtl
o Cube.003
v 0.462500 2.600000 0.000050
v 0.462500 2.600000 -0.000050
v 0.462500 2.100000 0.000050
v 0.462500 2.100000 -0.000050
v -0.462500 2.600000 0.000050
v -0.462500 2.600000 -0.000050
v -0.462500 2.100000 0.000050
v -0.462500 2.100000 -0.000050
v -0.462500 2.450000 -0.000050
v 0.462500 2.450000 0.000050
v -0.462500 2.450000 0.000050
v 0.462500 2.450000 -0.000050
v -0.462500 2.475000 0.000050
v -0.462500 2.575000 0.000050
v -0.185000 2.475000 0.000050
v -0.185000 2.575000 0.000050
v 0.462500 2.475000 -0.000050
v 0.462500 2.575000 -0.000050
v 0.185000 2.575001 -0.000050
v 0.185000 2.475000 -0.000050
vn -0.0000 -0.0000 1.0000
vn -0.0000 -1.0000 -0.0000
vn -1.0000 -0.0000 0.0003
vn -0.0000 -0.0000 -1.0000
vn 1.0000 -0.0000 -0.0000
vn -0.0000 1.0000 0.0024
vn -1.0000 -0.0000 -0.0000
vn -0.0771 -0.0000 0.9970
vn -0.0000 1.0000 -0.0000
vt 0.875000 0.625000
vt 0.625000 0.750000
vt 0.625000 0.625000
vt 0.375000 1.000000
vt 0.375000 0.750000
vt 0.625000 0.125000
vt 0.625000 0.225627
vt 0.375000 0.250000
vt 0.375000 0.625000
vt 0.125000 0.750000
vt 0.125000 0.625000
vt 0.625000 0.250000
vt 0.375000 0.500000
vt 0.625000 0.500000
vt 0.375000 0.583333
vt 0.125000 0.500000
vt 0.321107 0.603828
vt 0.375000 0.000000
vt 0.375000 0.125000
vt 0.813697 0.591490
vt 0.875000 0.524373
vt 0.875000 0.585440
vt 0.375000 0.541667
vt 0.875000 0.750000
vt 0.625000 1.000000
vt 0.625000 0.164560
vt 0.321987 0.521187
vt 0.625000 0.000000
vt 0.875000 0.500000
vt 0.813130 0.531534
s 0
g Cube.003_bg
usemtl bg
f 11/1/1 3/2/1 10/3/1
f 3/2/2 8/4/2 4/5/2
f 12/9/4 8/10/4 9/11/4
f 10/3/5 4/5/5 12/9/5
f 8/18/7 11/6/7 9/19/7
f 11/1/1 7/24/1 3/2/1
f 3/2/2 7/25/2 8/4/2
f 12/9/4 4/5/4 8/10/4
f 10/3/5 3/2/5 4/5/5
f 8/18/7 7/28/7 11/6/7
g Cube.003_white
usemtl white
f 11/6/3 14/7/3 6/8/3
f 5/12/6 2/13/6 6/8/6
f 1/14/5 12/9/5 17/15/5
f 6/16/4 20/17/4 9/11/4
f 1/14/1 15/20/1 10/3/1
f 6/8/7 9/19/7 11/6/7
f 11/6/8 13/26/8 14/7/8
f 14/7/3 5/12/3 6/8/3
f 5/12/9 1/14/9 2/13/9
f 18/23/5 2/13/5 1/14/5
f 1/14/5 10/3/5 12/9/5
f 17/15/5 18/23/5 1/14/5
f 6/16/4 2/13/4 18/23/4
f 6/16/4 18/23/4 19/27/4
f 17/15/4 12/9/4 9/11/4
f 6/16/4 19/27/4 20/17/4
f 20/17/4 17/15/4 9/11/4
f 1/14/1 5/29/1 14/21/1
f 1/14/1 14/21/1 16/30/1
f 13/22/1 11/1/1 10/3/1
f 1/14/1 16/30/1 15/20/1
f 15/20/1 13/22/1 10/3/1
g Cube.003_red
usemtl red
f 15/20/1 14/21/1 13/22/1
f 20/17/4 18/23/4 17/15/4
f 15/20/1 16/30/1 14/21/1
f 20/17/4 19/27/4 18/23/4
o 柱体
v -0.019509 3.098079 -0.025000
v 0.019509 3.098079 -0.025000
v 0.017503 3.098258 0.025000
v 0.055845 3.091034 -0.025000
v 0.053743 3.091614 0.025000
v 0.090092 3.077447 -0.025000
v 0.087999 3.078463 0.025000
v 0.121124 3.057866 -0.025000
v 0.119153 3.059320 0.025000
v 0.147945 3.033014 -0.025000
v 0.146206 3.034880 0.025000
v 0.169710 3.003765 -0.025000
v 0.168305 3.005984 0.025000
v 0.185748 2.971113 -0.025000
v 0.184759 2.973603 0.025000
v 0.195568 2.936144 -0.025000
v 0.195053 2.938799 0.025000
v 0.198874 2.900000 -0.025000
v 0.198861 2.902704 0.025000
v 0.195568 2.863857 -0.025000
v 0.196052 2.866491 0.025000
v 0.185748 2.828887 -0.025000
v 0.186693 2.831338 0.025000
v 0.169710 2.796236 -0.025000
v 0.171052 2.798405 0.025000
v 0.147945 2.766987 -0.025000
v 0.149595 2.768798 0.025000
v 0.121124 2.742135 -0.025000
v 0.122979 2.743539 0.025000
v 0.090092 2.722553 -0.025000
v 0.092040 2.723532 0.025000
v 0.055845 2.708966 -0.025000
v 0.019509 2.701921 0.025000
v 0.057777 2.709534 0.025000
v 0.019509 2.701921 -0.025000
v -0.019509 2.701921 -0.025000
v 0.017503 2.701742 0.025000
v -0.055845 2.708966 -0.025000
v -0.057777 2.709534 0.025000
v -0.019509 2.701921 0.025000
v -0.090092 2.722553 -0.025000
v -0.092040 2.723532 0.025000
v -0.121124 2.742135 -0.025000
v -0.122979 2.743539 0.025000
v -0.147945 2.766987 -0.025000
v -0.149595 2.768798 0.025000
v -0.169710 2.796236 -0.025000
v -0.171052 2.798405 0.025000
v -0.185748 2.828887 -0.025000
v -0.186693 2.831338 0.025000
v -0.195568 2.863857 -0.025000
v -0.196052 2.866491 0.025000
v -0.198874 2.900000 -0.025000
v -0.198861 2.902704 0.025000
v -0.195568 2.936144 -0.025000
v -0.195053 2.938799 0.025000
v -0.185748 2.971113 -0.025000
v -0.184759 2.973603 0.025000
v -0.169710 3.003765 -0.025000
v -0.168305 3.005984 0.025000
v -0.147945 3.033014 -0.025000
v -0.146206 3.034880 0.025000
v -0.121124 3.057866 -0.025000
v -0.119153 3.059320 0.025000
v -0.090092 3.077447 -0.025000
v -0.087999 3.078463 0.025000
v -0.055845 3.091034 -0.025000
v -0.053743 3.091614 0.025000
vn 0.9858 -0.1680 0.0041
vn 0.9387 -0.3446 0.0038
vn 0.9834 -0.1815 -0.0046
vn 0.2880 -0.9576 0.0033
vn 0.4531 -0.8914 -0.0038
vn 0.4626 -0.8866 0.0032
vn 0.0421 -0.9991 -0.0001
vn 0.0958 -0.9954 -0.0018
vn 0.1421 -0.9899 0.0017
vn -0.4626 -0.8866 0.0032
vn -0.6183 -0.7859 0.0033
vn -0.6092 -0.7930 -0.0042
vn -0.9834 -0.1815 -0.0046
vn -0.9858 -0.1680 0.0041
vn -1.0000 -0.0000 -0.0045
vn -0.9999 0.0138 0.0043
vn -0.9834 0.1815 -0.0043
vn -0.5995 0.8004 0.0045
vn -0.4428 0.8966 0.0042
vn -0.4531 0.8914 -0.0033
vn -0.0000 -0.0000 1.0000
vn 0.4428 0.8966 0.0042
vn 0.4531 0.8914 -0.0033
vn 0.2808 0.9598 -0.0032
vn 0.2705 0.9627 0.0038
vn 0.0956 0.9954 -0.0033
vn 0.0466 0.9984 0.0327
vn 0.7354 0.6776 0.0047
vn 0.7441 0.6681 -0.0036
vn 0.6092 0.7930 -0.0034
vn 0.8464 0.5325 0.0047
vn 0.9291 0.3698 0.0046
vn 0.8535 0.5211 -0.0038
vn 0.9808 0.1951 0.0045
vn 0.9341 0.3571 -0.0041
vn 0.9999 0.0138 0.0043
vn 0.9834 0.1815 -0.0043
vn 1.0000 -0.0000 -0.0045
vn 0.9341 -0.3571 -0.0047
vn -0.4531 -0.8914 -0.0038
vn 0.8535 -0.5211 -0.0047
vn 0.8601 -0.5101 0.0036
vn 0.7522 -0.6589 0.0034
vn -0.2806 -0.9598 -0.0017
vn -0.2880 -0.9576 0.0033
vn -0.9387 -0.3446 0.0038
vn 0.7441 -0.6681 -0.0045
vn 0.6092 -0.7930 -0.0042
vn 0.6183 -0.7859 0.0033
vn -0.0958 -0.9954 -0.0017
vn 0.2806 -0.9598 -0.0017
vn -0.1003 -0.9950 0.0017
vn -0.9341 -0.3571 -0.0047
vn -0.8535 -0.5211 -0.0047
vn -0.8601 -0.5101 0.0036
vn -0.7441 -0.6681 -0.0045
vn -0.7522 -0.6589 0.0034
vn -0.9341 0.3571 -0.0041
vn -0.9291 0.3698 0.0046
vn -0.8535 0.5211 -0.0038
vn -0.9808 0.1951 0.0045
vn -0.0000 -0.0000 -1.0000
vn -0.8464 0.5325 0.0047
vn -0.7441 0.6681 -0.0036
vn -0.2300 0.9726 0.0331
vn -0.2808 0.9598 -0.0032
vn -0.6092 0.7930 -0.0034
vn -0.7354 0.6776 0.0047
vn -0.0956 0.9954 0.0004
vn 0.5995 0.8004 0.0045
vt 0.485262 0.209789
vt 0.693950 1.000000
vt 0.984681 0.206628
vt 0.546875 1.000000
vt 0.858111 0.037064
vt 0.360449 0.038238
vt 0.514020 1.000000
vt 0.515625 0.500000
vt 0.273411 0.012306
vt 0.139551 0.038238
vt 0.393968 1.000000
vt 0.604651 0.060561
vt 0.515318 0.206628
vt 0.014738 0.209789
vt 0.511351 0.250000
vt 0.011366 0.253245
vt 0.515319 0.293372
vt 0.107017 0.441184
vt 0.144401 0.464155
vt 0.641890 0.462937
vt 0.488634 0.253245
vt 0.927071 1.000000
vt 0.858111 0.462937
vt 0.954730 0.500000
vt 0.956468 1.000000
vt 0.817014 0.479240
vt 0.773411 0.487694
vt 0.271003 0.487909
vt 0.868550 1.000000
vt 0.927534 0.409616
vt 0.895821 0.500000
vt 0.314491 0.479936
vt 0.451966 0.377181
vt 0.810266 1.000000
vt 0.953652 0.374517
vt 0.839388 1.000000
vt 0.866521 0.500000
vt 0.425447 0.411855
vt 0.471711 0.338323
vt 0.781250 1.000000
vt 0.972897 0.335336
vt 0.484064 0.296558
vt 0.752234 1.000000
vt 0.984681 0.293372
vt 0.723112 1.000000
vt 0.988649 0.250000
vt 0.972897 0.164664
vt 0.641890 0.037064
vt 0.953652 0.125483
vt 0.455262 0.128086
vt 0.635429 1.000000
vt 0.664729 1.000000
vt 0.454730 0.500000
vt 0.180667 0.021440
vt 0.025969 0.167606
vt 0.276888 1.000000
vt 0.927534 0.090384
vt 0.474031 0.167606
vt 0.895349 0.060561
vt 0.606032 1.000000
vt 0.429514 0.092558
vt 0.773411 0.012306
vt 0.271003 0.012091
vt 0.726589 0.012306
vt 0.576520 1.000000
vt 0.397575 0.062246
vt 0.817014 0.020760
vt 0.226589 0.012306
vt 0.682987 0.020760
vt 0.515625 1.000000
vt 0.319333 0.021440
vt 0.527103 0.164664
vt 0.546348 0.125483
vt 0.044738 0.128086
vt 0.572466 0.090384
vt 0.070486 0.092558
vt 0.453125 1.000000
vt 0.423480 1.000000
vt 0.527103 0.335336
vt 0.028289 0.338323
vt 0.546348 0.374517
vt 0.335271 1.000000
vt 0.102425 0.062246
vt 0.364571 1.000000
vt 0.015936 0.296558
vt 0.306050 1.000000
vt 0.247766 1.000000
vt 0.048034 0.377181
vt 0.572466 0.409616
vt 0.218750 1.000000
vt 0.185509 0.479936
vt 0.682986 0.479240
vt 0.604651 0.439439
vt 0.074553 0.411855
vt 0.726589 0.487694
vt 0.897771 1.000000
vt 0.895349 0.439439
vt 0.392983 0.441184
vt 0.355599 0.464155
vt 0.985980 1.000000
vt 0.015625 0.500000
s 1
g 柱体_red
usemtl red
f 41/31/10 43/32/11 40/33/12
f 54/34/13 50/35/14 51/36/15
f 57/37/16 55/38/17 53/39/18
f 62/40/19 64/41/20 63/42/21
f 71/43/22 72/44/23 73/45/24
f 73/45/24 74/46/25 75/47/26
f 84/48/27 86/49/28 85/50/29
f 86/49/30 53/39/30 39/51/30
f 27/52/31 26/53/32 24/54/33
f 25/55/34 24/56/33 22/57/35
f 25/55/34 22/57/35 23/58/36
f 31/59/37 30/60/38 28/61/39
f 27/52/31 24/54/33 25/62/34
f 33/63/40 35/64/41 32/65/42
f 33/66/40 32/65/42 30/60/38
f 30/67/38 31/68/37 33/63/40
f 35/69/41 37/70/43 34/71/44
f 35/64/41 34/71/44 32/65/42
f 37/72/43 39/73/45 36/74/46
f 41/75/10 40/33/12 38/76/47
f 37/70/43 36/74/46 34/71/44
f 39/51/45 41/75/10 38/76/47
f 42/77/48 40/33/12 43/32/11
f 61/78/49 62/40/19 63/42/21
f 44/79/50 45/80/51 47/81/52
f 45/82/51 44/79/50 42/77/48
f 58/83/53 59/84/54 61/78/49
f 71/43/22 70/85/55 72/86/23
f 46/87/56 44/79/50 47/81/52
f 43/88/11 45/82/51 42/77/48
f 48/89/57 46/87/56 49/90/58
f 46/87/56 47/91/52 49/90/58
f 55/92/17 57/93/16 56/94/59
f 51/95/15 48/89/57 49/96/58
f 51/95/15 50/35/14 48/89/57
f 54/34/13 52/97/60 50/35/14
f 56/94/59 60/98/61 58/99/53
f 53/100/18 55/92/17 52/97/60
f 53/100/18 52/97/60 54/101/13
f 69/102/62 67/103/63 68/104/64
f 57/93/16 60/98/61 56/94/59
f 65/105/65 66/106/66 67/103/63
f 60/98/61 59/107/54 58/99/53
f 59/84/54 62/108/19 61/78/49
f 77/109/67 78/110/68 79/111/69
f 66/106/66 68/112/64 67/103/63
f 63/42/21 64/113/20 65/105/65
f 71/43/22 69/102/62 70/85/55
f 64/113/20 66/114/66 65/105/65
f 75/47/26 76/115/70 77/109/67
f 26/53/71 58/99/71 75/47/71
f 69/102/62 68/104/64 70/116/55
f 78/110/68 77/109/67 76/115/70
f 72/44/23 74/117/25 73/45/24
f 79/111/69 80/118/72 81/119/73
f 74/46/25 76/120/70 75/47/26
f 80/118/72 79/111/69 78/110/68
f 86/49/28 88/121/74 87/122/75
f 83/123/76 84/48/27 85/50/29
f 81/119/73 80/118/72 82/124/77
f 39/73/45 38/76/47 36/74/46
f 81/119/73 82/124/77 83/123/76
f 84/48/27 83/123/76 82/124/77
f 23/58/36 21/125/78 88/121/74
f 85/50/29 86/49/28 87/122/75
f 87/122/75 88/121/74 21/125/78
f 29/126/79 28/127/39 26/53/32
f 28/61/39 29/128/79 31/68/37
f 27/129/31 29/126/79 26/53/32
f 23/130/36 22/57/35 21/131/78
f 27/129/30 25/62/30 23/58/30
f 23/58/30 88/121/30 86/49/30
f 86/49/30 84/48/30 82/124/30
f 82/124/30 80/118/30 78/110/30
f 78/110/30 76/115/30 74/46/30
f 74/46/30 72/44/30 70/85/30
f 70/85/30 68/104/30 66/106/30
f 66/106/30 64/113/30 62/40/30
f 62/40/30 59/84/30 60/98/30
f 60/98/30 57/93/30 53/39/30
f 53/39/30 54/101/30 51/36/30
f 51/36/30 49/96/30 47/91/30
f 47/91/30 45/80/30 43/88/30
f 43/88/30 41/31/30 39/51/30
f 39/51/30 37/72/30 35/69/30
f 35/69/30 33/63/30 31/68/30
f 31/68/30 29/128/30 27/129/30
f 27/129/30 23/58/30 86/49/30
f 86/49/30 82/124/30 78/110/30
f 78/110/30 74/46/30 70/85/30
f 70/85/30 66/106/30 62/40/30
f 62/40/30 60/98/30 53/39/30
f 53/39/30 51/36/30 47/91/30
f 47/91/30 43/88/30 39/51/30
f 39/51/30 35/69/30 31/68/30
f 31/68/30 27/129/30 86/49/30
f 86/49/30 78/110/30 70/85/30
f 70/85/30 62/40/30 53/39/30
f 53/39/30 47/91/30 39/51/30
f 39/51/30 31/68/30 86/49/30
f 86/49/30 70/85/30 53/39/30
f 87/122/71 21/125/71 22/57/71
f 22/57/71 24/56/71 26/53/71
f 26/53/71 28/127/71 30/60/71
f 30/60/71 32/65/71 34/71/71
f 34/71/71 36/74/71 38/76/71
f 38/76/71 40/33/71 42/77/71
f 42/77/71 44/79/71 46/87/71
f 46/87/71 48/89/71 50/35/71
f 50/35/71 52/97/71 55/92/71
f 55/92/71 56/94/71 58/99/71
f 58/99/71 61/78/71 63/42/71
f 63/42/71 65/105/71 67/103/71
f 67/103/71 69/102/71 71/43/71
f 71/43/71 73/45/71 75/47/71
f 75/47/71 77/109/71 79/111/71
f 79/111/71 81/119/71 83/123/71
f 83/123/71 85/50/71 87/122/71
f 87/122/71 22/57/71 26/53/71
f 26/53/71 30/60/71 34/71/71
f 34/71/71 38/76/71 42/77/71
f 42/77/71 46/87/71 50/35/71
f 50/35/71 55/92/71 58/99/71
f 58/99/71 63/42/71 67/103/71
f 67/103/71 71/43/71 75/47/71
f 75/47/71 79/111/71 83/123/71
f 83/123/71 87/122/71 26/53/71
f 26/53/71 34/71/71 42/77/71
f 42/77/71 50/35/71 58/99/71
f 58/99/71 67/103/71 75/47/71
f 75/47/71 83/123/71 26/53/71
f 26/53/71 42/77/71 58/99/71
o short
v 0.005105 0.500047 -0.000266
v 0.002409 0.500047 0.010041
v -0.004955 2.000048 0.017586
v 0.004244 0.513178 -0.000266
v 0.001571 0.512826 0.010041
v -0.005730 2.011865 0.017586
v 0.001571 2.012827 -0.010572
v 0.001677 0.526084 -0.000266
v -0.000927 2.025387 0.010041
v -0.008040 2.023481 0.017586
v -0.000927 2.025387 -0.010572
v -0.002553 2.038545 -0.000266
v -0.005043 2.037514 0.010041
v -0.021141 2.030846 0.020348
v -0.030435 2.026996 0.017586
v -0.037239 2.024178 0.010041
v -0.039729 2.023146 -0.000266
v -0.037239 2.024178 -0.010572
v -0.030435 2.026996 -0.018117
v -0.021141 2.030846 -0.020879
v -0.011847 2.034695 -0.018117
v -0.005043 2.037514 -0.010572
v -0.017085 2.045317 0.017586
v -0.025797 2.040287 0.020348
v -0.045469 2.038433 0.010041
v -0.047608 2.036792 -0.000266
v -0.045469 2.038433 -0.010572
v -0.024360 2.071182 -0.000266
v -0.026266 2.069276 0.010041
v -0.031473 2.064068 0.017586
v -0.031473 2.064068 -0.018117
v -0.026266 2.069276 -0.010572
v -0.060284 2.061033 0.017586
v -0.063967 2.054655 0.010041
v -0.065314 2.052320 -0.000266
v -0.063967 2.054655 -0.010572
v -0.060284 2.061033 -0.018117
v -0.064696 2.074401 0.020348
v -0.064696 2.074401 -0.020879
v -0.069457 2.097219 -0.000266
v -0.070155 2.094615 0.010041
v -0.072061 2.087502 0.017586
v -0.079174 2.060954 0.010041
v -0.079872 2.058350 -0.000266
v -0.079174 2.060954 -0.010572
v -0.072061 2.087502 -0.018117
v -0.070155 2.094615 -0.010572
v 0.005105 0.000047 -0.000266
v 0.002409 0.000047 0.010041
v -0.004955 0.000047 0.017586
v -0.015015 0.000047 0.020348
v -0.025075 0.000047 0.017586
v -0.032439 0.000047 0.010041
v -0.035135 0.000047 -0.000266
v -0.032439 0.000047 -0.010572
v -0.025075 0.000047 -0.018117
v -0.015015 0.000047 -0.020879
v -0.004955 0.000047 -0.018117
v 0.002409 0.000047 -0.010572
v -0.492066 2.134370 -0.000266
v -0.489462 2.135068 0.010041
v -0.482349 2.136974 0.017586
v -0.462915 2.142181 0.017586
v -0.455801 2.144087 0.010041
v -0.453197 2.144785 -0.000266
v -0.455801 2.144087 -0.010572
v -0.462915 2.142181 -0.018117
v -0.482349 2.136974 -0.018117
v -0.489462 2.135068 -0.010572
v -0.482016 2.110107 -0.000266
v -0.479681 2.111455 0.010041
v -0.464592 2.120167 0.020348
v -0.455880 2.125197 0.017586
v -0.449502 2.128879 0.010041
v -0.449502 2.128879 -0.010572
v -0.455880 2.125197 -0.018117
v -0.464592 2.120167 -0.020879
v -0.473304 2.115137 -0.018117
v -0.472567 2.100807 0.010041
v -0.466724 2.105290 0.017586
v -0.458743 2.111414 0.020348
v -0.466724 2.105290 -0.018117
v -0.472567 2.100807 -0.010572
v -0.466029 2.089273 -0.000266
v -0.439481 2.115820 0.010041
v -0.437575 2.117726 -0.000266
v -0.439481 2.115820 -0.010572
v -0.464123 2.091179 -0.010572
v -0.445194 2.073286 -0.000266
v -0.443847 2.075620 0.010041
v -0.433392 2.067466 -0.000266
v -0.432361 2.069956 0.010041
v -0.429543 2.076760 0.017586
v -0.425693 2.086054 0.020348
v -0.421843 2.095348 0.017586
v -0.419025 2.102152 0.010041
v -0.417993 2.104642 -0.000266
v -0.419025 2.102152 -0.010572
v -0.421843 2.095348 -0.018117
v -0.429543 2.076760 -0.018117
v -0.432361 2.069956 -0.010572
v -0.415724 2.082670 -0.020879
v -0.408026 2.060669 -0.000266
v -0.407674 2.063341 0.010041
v -0.499139 2.552772 0.000000
v -0.496466 2.552420 -0.010307
v -0.489165 2.551459 -0.017852
v -0.461916 2.547871 -0.010307
v -0.459244 2.547519 0.000000
v -0.461916 2.547871 0.010307
v -0.496466 2.552420 0.010307
v -0.496572 2.565678 0.000000
v -0.493968 2.564980 -0.010307
v -0.477138 2.560471 0.020613
v -0.486855 2.563074 0.017852
v -0.493968 2.564980 0.010307
v -0.483048 2.574289 -0.017852
v -0.473754 2.570439 -0.020613
v -0.486522 2.589940 0.000000
v -0.469098 2.579880 -0.020613
v -0.460386 2.574851 -0.017852
v -0.454008 2.571168 -0.010307
v -0.451674 2.569821 0.000000
v -0.454008 2.571168 0.010307
v -0.460386 2.574851 0.017852
v -0.469098 2.579880 0.020613
v -0.484188 2.588593 0.010307
v -0.479211 2.600882 0.000000
v -0.477073 2.599241 -0.010307
v -0.471230 2.594758 -0.017852
v -0.471230 2.594758 0.017852
v -0.477073 2.599241 0.010307
v -0.443987 2.584227 -0.010307
v -0.442081 2.582321 0.000000
v -0.443987 2.584227 0.010307
v -0.460642 2.619451 0.000000
v -0.459001 2.617313 0.010307
v -0.437898 2.632582 -0.000000
v -0.436867 2.630092 -0.010307
v -0.434049 2.623288 -0.017852
v -0.430199 2.613994 -0.020613
v -0.426349 2.604700 -0.017852
v -0.423531 2.597896 -0.010307
v -0.422500 2.595406 -0.000000
v -0.423531 2.597896 0.010307
v -0.426349 2.604700 0.017852
v -0.430199 2.613994 0.020613
v -0.434049 2.623288 0.017852
v -0.436867 2.630092 0.010307
v -0.006032 2.675261 -0.010307
v -0.013145 2.677167 -0.017852
v -0.013145 2.677167 0.017852
v -0.006032 2.675261 0.010307
v -0.007658 2.662103 -0.000000
v -0.010148 2.663134 -0.010307
v -0.026246 2.669802 -0.020613
v -0.035540 2.673652 -0.017852
v -0.042344 2.676470 -0.010307
v -0.044834 2.677502 -0.000000
v -0.042344 2.676470 0.010307
v -0.035540 2.673652 0.017852
v -0.026246 2.669802 0.020613
v -0.010148 2.663134 0.010307
v -0.022190 2.655331 -0.017852
v -0.030902 2.660361 -0.020613
v -0.044732 2.657732 -0.017852
v -0.050574 2.662215 -0.010307
v -0.052713 2.663856 -0.000000
v -0.050574 2.662215 0.010307
v -0.044732 2.657732 0.017852
v -0.029465 2.629466 -0.000000
v -0.031371 2.631372 -0.010307
v -0.036578 2.636580 -0.017852
v -0.036578 2.636580 0.017852
v -0.031371 2.631372 0.010307
v -0.060360 2.630903 -0.020613
v -0.069072 2.645993 -0.010307
v -0.070419 2.648328 -0.000000
v -0.069072 2.645993 0.010307
v -0.060360 2.630903 0.020613
v -0.055330 2.622191 0.017852
v -0.074562 2.603430 -0.000000
v -0.075260 2.606033 -0.010307
v -0.077166 2.613147 -0.017852
v -0.082373 2.632581 -0.017852
v -0.084279 2.639694 -0.010307
v -0.084977 2.642298 -0.000000
v -0.084279 2.639694 0.010307
v -0.082373 2.632581 0.017852
v -0.077166 2.613147 0.017852
v -0.075260 2.606033 0.010307
v 0.000000 2.800601 -0.000000
v -0.002696 2.800600 -0.010307
v -0.010060 2.800600 -0.017852
v -0.020120 2.800600 -0.020613
v -0.030180 2.800600 -0.017852
v -0.037544 2.800600 -0.010307
v -0.040240 2.800600 -0.000000
v -0.037544 2.800600 0.010307
v -0.030180 2.800600 0.017852
v -0.020120 2.800600 0.020613
v -0.010060 2.800600 0.017852
v -0.002696 2.800600 0.010307
v -0.005105 0.500047 0.000266
v -0.002409 0.500047 -0.010041
v 0.004955 2.000048 -0.017586
v -0.004244 0.513178 0.000266
v -0.001571 0.512826 -0.010041
v 0.005730 2.011865 -0.017586
v -0.001571 2.012827 0.010572
v -0.001677 0.526084 0.000266
v 0.000927 2.025387 -0.010041
v 0.008040 2.023481 -0.017586
v 0.000927 2.025387 0.010572
v 0.002553 2.038545 0.000266
v 0.005043 2.037514 -0.010041
v 0.011847 2.034695 -0.017586
v 0.021141 2.030846 -0.020348
v 0.030435 2.026996 -0.017586
v 0.037239 2.024178 -0.010041
v 0.039729 2.023146 0.000266
v 0.037239 2.024178 0.010572
v 0.030435 2.026996 0.018117
v 0.021141 2.030846 0.020879
v 0.011847 2.034695 0.018117
v 0.005043 2.037514 0.010572
v 0.045469 2.038433 -0.010041
v 0.047608 2.036792 0.000266
v 0.045469 2.038433 0.010572
v 0.024360 2.071182 0.000266
v 0.026266 2.069276 -0.010041
v 0.031473 2.064068 -0.017586
v 0.031473 2.064068 0.018117
v 0.026266 2.069276 0.010572
v 0.060284 2.061033 -0.017586
v 0.063967 2.054655 -0.010041
v 0.065314 2.052320 0.000266
v 0.063967 2.054655 0.010572
v 0.060284 2.061033 0.018117
v 0.064696 2.074401 -0.020348
v 0.064696 2.074401 0.020879
v 0.069457 2.097219 0.000266
v 0.070155 2.094615 -0.010041
v 0.072061 2.087502 -0.017586
v 0.079174 2.060954 -0.010041
v 0.079872 2.058350 0.000266
v 0.079174 2.060954 0.010572
v 0.072061 2.087502 0.018117
v 0.070155 2.094615 0.010572
v -0.005105 0.000047 0.000266
v -0.002409 0.000047 -0.010041
v 0.004955 0.000047 -0.017586
v 0.015015 0.000047 -0.020348
v 0.025075 0.000047 -0.017586
v 0.032439 0.000047 -0.010041
v 0.035135 0.000047 0.000266
v 0.032439 0.000047 0.010572
v 0.025075 0.000047 0.018117
v 0.015015 0.000047 0.020879
v 0.004955 0.000047 0.018117
v -0.002409 0.000047 0.010572
v 0.492066 2.134369 0.000266
v 0.489462 2.135068 -0.010041
v 0.482349 2.136974 -0.017586
v 0.462915 2.142181 -0.017586
v 0.455801 2.144087 -0.010041
v 0.453197 2.144785 0.000266
v 0.455801 2.144087 0.010572
v 0.462915 2.142181 0.018117
v 0.482349 2.136974 0.018117
v 0.489462 2.135068 0.010572
v 0.469248 2.129609 0.020879
v 0.478542 2.125759 0.018117
v 0.473304 2.115137 -0.017586
v 0.464592 2.120167 -0.020347
v 0.455880 2.125197 -0.017586
v 0.449502 2.128879 -0.010041
v 0.449502 2.128879 0.010572
v 0.455880 2.125197 0.018117
v 0.464592 2.120167 0.020879
v 0.472567 2.100807 -0.010041
v 0.466724 2.105290 -0.017586
v 0.466724 2.105290 0.018117
v 0.472567 2.100807 0.010572
v 0.466029 2.089272 0.000266
v 0.464123 2.091179 -0.010041
v 0.439481 2.115820 -0.010041
v 0.437575 2.117726 0.000266
v 0.439481 2.115820 0.010572
v 0.464123 2.091179 0.010572
v 0.433392 2.067466 0.000266
v 0.432361 2.069956 -0.010041
v 0.429543 2.076760 -0.017586
v 0.425693 2.086054 -0.020347
v 0.421843 2.095348 -0.017586
v 0.419025 2.102152 -0.010041
v 0.417993 2.104642 0.000266
v 0.419025 2.102152 0.010572
v 0.421843 2.095348 0.018117
v 0.429543 2.076760 0.018117
v 0.432361 2.069956 0.010572
v 0.415724 2.082670 0.020879
v 0.499139 2.552772 0.000000
v 0.496466 2.552420 0.010307
v 0.489165 2.551459 0.017852
v 0.461916 2.547871 0.010307
v 0.459244 2.547519 0.000000
v 0.461916 2.547871 -0.010307
v 0.496466 2.552420 -0.010307
v 0.477138 2.560471 -0.020613
v 0.486855 2.563074 -0.017852
v 0.493968 2.564980 -0.010307
v 0.486522 2.589940 0.000000
v 0.484188 2.588593 0.010307
v 0.469098 2.579880 0.020613
v 0.460386 2.574851 0.017852
v 0.454008 2.571168 0.010307
v 0.451674 2.569821 0.000000
v 0.454008 2.571168 -0.010307
v 0.460386 2.574851 -0.017852
v 0.469098 2.579880 -0.020613
v 0.484188 2.588593 -0.010307
v 0.477073 2.599241 0.010307
v 0.471230 2.594758 0.017852
v 0.463249 2.588634 0.020613
v 0.471230 2.594758 -0.017852
v 0.477073 2.599241 -0.010307
v 0.443987 2.584227 0.010307
v 0.442081 2.582321 0.000000
v 0.443987 2.584227 -0.010307
v 0.460642 2.619451 0.000000
v 0.459001 2.617313 0.010307
v 0.459001 2.617313 -0.010307
v 0.437898 2.632582 0.000000
v 0.436867 2.630092 0.010307
v 0.434049 2.623288 0.017852
v 0.430199 2.613994 0.020613
v 0.426349 2.604700 0.017852
v 0.423531 2.597896 0.010307
v 0.422500 2.595406 0.000000
v 0.423531 2.597896 -0.010307
v 0.426349 2.604700 -0.017852
v 0.430199 2.613994 -0.020613
v 0.434049 2.623288 -0.017852
v 0.436867 2.630092 -0.010307
v 0.006032 2.675261 0.010307
v 0.013145 2.677167 0.017852
v 0.013145 2.677167 -0.017852
v 0.006032 2.675261 -0.010307
v 0.007658 2.662103 0.000000
v 0.010148 2.663134 0.010307
v 0.026246 2.669802 0.020613
v 0.035540 2.673652 0.017852
v 0.042344 2.676470 0.010307
v 0.044834 2.677502 0.000000
v 0.042344 2.676470 -0.010307
v 0.035540 2.673652 -0.017852
v 0.026246 2.669802 -0.020613
v 0.010148 2.663134 -0.010307
v 0.022190 2.655331 0.017852
v 0.030902 2.660361 0.020613
v 0.044732 2.657732 0.017852
v 0.050574 2.662215 0.010307
v 0.052713 2.663856 0.000000
v 0.050574 2.662215 -0.010307
v 0.044732 2.657732 -0.017852
v 0.029465 2.629466 0.000000
v 0.031371 2.631372 0.010307
v 0.036578 2.636580 0.017852
v 0.043692 2.643693 -0.020613
v 0.036578 2.636580 -0.017852
v 0.031371 2.631372 -0.010307
v 0.060360 2.630903 0.020613
v 0.069072 2.645993 0.010307
v 0.070419 2.648328 0.000000
v 0.069072 2.645993 -0.010307
v 0.060360 2.630903 -0.020613
v 0.074562 2.603430 0.000000
v 0.075260 2.606033 0.010307
v 0.077166 2.613147 0.017852
v 0.082373 2.632581 0.017852
v 0.084279 2.639694 0.010307
v 0.084977 2.642298 0.000000
v 0.084279 2.639694 -0.010307
v 0.082373 2.632581 -0.017852
v 0.077166 2.613147 -0.017852
v 0.075260 2.606033 -0.010307
v -0.000000 2.800601 0.000000
v 0.002696 2.800600 0.010307
v 0.010060 2.800600 0.017852
v 0.020120 2.800600 0.020613
v 0.030180 2.800600 0.017852
v 0.037544 2.800600 0.010307
v 0.040240 2.800600 0.000000
v 0.037544 2.800600 -0.010307
v 0.030180 2.800600 -0.017852
v 0.020120 2.800600 -0.020613
v 0.010060 2.800600 -0.017852
v 0.002696 2.800600 -0.010307
vn 0.8821 0.0570 -0.4677
vn 0.8800 0.0260 0.4743
vn 0.9971 0.0641 0.0402
vn 0.7819 0.0010 0.6234
vn 0.9972 0.0641 0.0395
vn 0.5589 0.0242 0.8289
vn 0.9800 0.1990 -0.0098
vn 0.7486 0.0183 0.6627
vn 0.9424 0.1644 0.2912
vn 0.3932 0.1199 0.9116
vn 0.9511 0.3087 -0.0107
vn 0.9750 -0.2220 -0.0000
vn 0.6470 0.2538 0.7190
vn 0.0542 0.0111 0.9985
vn -0.4325 -0.1630 0.8868
vn -0.8330 -0.2603 0.4881
vn -0.9671 -0.2543 -0.0000
vn -0.8330 -0.2603 -0.4881
vn -0.4325 -0.1702 -0.8854
vn 0.0607 0.0254 -0.9978
vn 0.5130 0.1610 -0.8431
vn 0.8612 0.2511 -0.4419
vn 0.5260 0.3166 0.7893
vn 0.1185 0.0946 0.9884
vn -0.8131 -0.5773 0.0752
vn -0.7724 -0.6351 -0.0000
vn -0.8131 -0.5773 -0.0752
vn 0.6844 0.7291 -0.0000
vn 0.6003 0.6471 0.4700
vn 0.2821 0.3260 0.9023
vn 0.2974 0.3201 -0.8995
vn 0.6017 0.6419 -0.4753
vn -0.2834 -0.4442 0.8499
vn -0.4570 -0.7338 0.5027
vn -0.5288 -0.8487 -0.0000
vn -0.4570 -0.7338 -0.5027
vn -0.3097 -0.4523 -0.8363
vn 0.0921 0.0991 0.9908
vn 0.1240 0.1186 -0.9852
vn 0.2687 0.9632 -0.0000
vn 0.2369 0.8480 0.4740
vn 0.1355 0.5068 0.8513
vn -0.1294 -0.9671 0.2190
vn -0.2013 -0.9795 -0.0030
vn -0.1407 -0.9612 -0.2372
vn 0.1370 0.5056 -0.8518
vn 0.2369 0.8480 -0.4740
vn 1.0000 -0.0000 -0.0000
vn 0.8712 -0.0000 0.4909
vn 0.5089 0.0004 0.8608
vn 0.0005 0.0001 1.0000
vn -0.5088 -0.0012 0.8609
vn -0.8711 -0.0020 0.4911
vn -1.0000 -0.0023 -0.0000
vn -0.8711 -0.0020 -0.4911
vn -0.5088 -0.0012 -0.8609
vn 0.0005 0.0001 -1.0000
vn 0.5090 0.0006 -0.8608
vn 0.8711 0.0002 -0.4910
vn -0.9747 -0.2231 -0.0100
vn -0.8543 -0.1877 0.4848
vn -0.4910 -0.1080 0.8645
vn 0.7399 0.0761 0.6684
vn 0.8334 0.1895 0.5192
vn 0.9638 0.2664 -0.0001
vn 0.8287 0.2000 -0.5228
vn 0.7395 0.0799 -0.6684
vn -0.4864 -0.0896 -0.8691
vn -0.8596 -0.2003 -0.4701
vn -0.7153 -0.3959 -0.5759
vn -0.5653 -0.3018 0.7677
vn -0.1061 -0.0631 0.9924
vn 0.4111 0.2761 0.8688
vn 0.7027 0.3696 0.6079
vn 0.3570 0.2549 -0.8987
vn 0.3913 0.2802 -0.8766
vn -0.0309 -0.0339 -0.9989
vn -0.4778 -0.2676 -0.8367
vn -0.6740 -0.5485 0.4948
vn -0.4141 -0.3414 0.8438
vn -0.1166 -0.0990 0.9882
vn -0.3081 -0.2933 -0.9050
vn -0.7414 -0.5300 -0.4117
vn -0.6904 -0.7226 0.0346
vn 0.6144 0.7453 0.2589
vn 0.7193 0.6945 0.0173
vn 0.7504 0.6542 -0.0944
vn -0.4266 -0.4879 -0.7615
vn -0.5473 -0.8331 -0.0802
vn -0.3430 -0.5414 0.7676
vn -0.2999 -0.9534 -0.0335
vn -0.2979 -0.7984 0.5232
vn -0.1839 -0.5135 0.8381
vn -0.0140 -0.0535 0.9985
vn 0.1687 0.4313 0.8863
vn 0.2830 0.8200 0.4975
vn 0.2965 0.9550 -0.0000
vn 0.2551 0.8212 -0.5105
vn 0.2087 0.4651 -0.8603
vn -0.1884 -0.4961 -0.8476
vn -0.2577 -0.8317 -0.4918
vn -0.0098 -0.1031 -0.9946
vn -0.1100 -0.8141 -0.5702
vn -0.0868 -0.6413 0.7624
vn -0.8142 0.0973 -0.5723
vn -0.9158 0.0597 -0.3971
vn -0.4170 0.0515 -0.9075
vn 0.9919 -0.0922 -0.0878
vn 0.9877 -0.1562 0.0001
vn 0.9952 -0.0834 0.0513
vn -0.6391 0.0568 0.7670
vn -0.7905 0.2285 0.5683
vn -0.8239 0.2599 -0.5036
vn -0.1479 0.0266 0.9886
vn -0.5243 0.1198 0.8431
vn -0.8542 0.2402 0.4612
vn -0.5248 0.2461 -0.8149
vn -0.1544 0.0295 -0.9876
vn -0.7132 0.4004 -0.5753
vn -0.0726 0.1067 -0.9916
vn 0.4464 -0.2221 -0.8668
vn 0.7627 -0.4069 -0.5027
vn 0.8824 -0.4706 -0.0000
vn 0.7540 -0.4460 0.4823
vn 0.4265 -0.2261 0.8758
vn -0.2420 0.2453 0.9388
vn -0.7572 0.3873 0.5259
vn -0.6464 0.5293 0.5495
vn -0.6803 0.5579 -0.4753
vn -0.3353 0.2804 -0.8994
vn -0.3195 0.2821 0.9046
vn -0.6734 0.5889 0.4469
vn 0.6144 -0.7453 -0.2589
vn 0.6829 -0.7305 -0.0000
vn 0.7308 -0.6785 0.0752
vn -0.5056 0.6481 -0.5695
vn -0.3944 0.5140 0.7617
vn -0.3062 0.9518 -0.0198
vn -0.2956 0.8318 -0.4699
vn -0.1823 0.5124 -0.8392
vn -0.0190 0.0544 -0.9983
vn 0.1701 -0.4303 -0.8865
vn 0.2838 -0.8198 -0.4974
vn 0.2974 -0.9548 -0.0000
vn 0.2559 -0.8209 0.5105
vn 0.1648 -0.4442 0.8806
vn -0.0205 0.0529 0.9984
vn -0.1838 0.5123 0.8389
vn -0.2577 0.8350 0.4861
vn 0.9473 -0.2438 0.2076
vn 0.4193 -0.0871 -0.9037
vn 0.5075 -0.1382 0.8505
vn 0.9211 -0.1437 0.3618
vn 0.9356 -0.3516 -0.0327
vn 0.6402 -0.2159 -0.7372
vn 0.1375 0.0080 -0.9905
vn -0.4606 0.1345 -0.8773
vn -0.8291 0.2363 -0.5068
vn -0.9620 0.2729 -0.0000
vn -0.8291 0.2363 0.5068
vn -0.4619 0.1524 0.8738
vn 0.0865 -0.0780 0.9932
vn 0.7187 -0.3319 0.6110
vn 0.5304 -0.3079 -0.7899
vn 0.1194 -0.0877 -0.9890
vn -0.5795 0.6788 -0.4510
vn -0.6678 0.5489 -0.5027
vn -0.7724 0.6351 -0.0000
vn -0.6574 0.5740 0.4882
vn -0.7473 0.5295 0.4014
vn 0.6844 -0.7291 -0.0000
vn 0.6003 -0.6471 -0.4700
vn 0.2821 -0.3260 -0.9023
vn 0.3130 -0.2860 0.9057
vn 0.6168 -0.6358 0.4640
vn 0.1369 -0.1954 -0.9711
vn -0.4662 0.8815 -0.0752
vn -0.5288 0.8487 -0.0000
vn -0.5609 0.7864 0.2589
vn 0.0210 -0.0723 0.9972
vn 0.2954 -0.5241 0.7988
vn 0.2695 -0.9630 -0.0000
vn 0.2376 -0.8478 -0.4741
vn 0.1291 -0.4890 -0.8627
vn -0.1242 0.6559 -0.7446
vn -0.2189 0.8475 -0.4836
vn -0.2068 0.9784 -0.0000
vn -0.1787 0.8452 0.5037
vn -0.1050 0.7034 0.7030
vn 0.0864 -0.4198 0.9035
vn 0.2247 -0.8576 0.4625
vn 0.9991 -0.0423 0.0085
vn 0.8722 -0.0227 -0.4886
vn 0.5106 -0.0159 -0.8597
vn 0.0075 -0.0009 -1.0000
vn -0.5044 0.0201 -0.8632
vn -0.8694 0.0330 -0.4931
vn -0.9993 0.0373 -0.0000
vn -0.8694 0.0330 0.4931
vn -0.5044 0.0201 0.8632
vn 0.0057 0.0020 1.0000
vn 0.5122 -0.0128 0.8588
vn 0.8760 -0.0367 0.4809
vn -0.8821 0.0570 0.4677
vn -0.8800 0.0260 -0.4743
vn -0.9966 0.0732 -0.0368
vn -0.7819 0.0010 -0.6234
vn -0.9972 0.0641 -0.0395
vn -0.4860 0.0186 -0.8738
vn -0.9800 0.1990 0.0098
vn -0.7486 0.0183 -0.6627
vn -0.9438 0.1631 -0.2875
vn -0.3905 0.1046 -0.9146
vn -0.9511 0.3087 0.0107
vn -0.9750 -0.2220 -0.0000
vn -0.6470 0.2538 -0.7190
vn -0.5087 0.2610 -0.8204
vn -0.0574 0.0266 -0.9980
vn 0.4325 -0.1630 -0.8868
vn 0.8330 -0.2603 -0.4881
vn 0.9671 -0.2543 -0.0000
vn 0.8330 -0.2603 0.4881
vn 0.4325 -0.1630 0.8868
vn -0.0574 0.0266 0.9980
vn -0.5130 0.1610 0.8431
vn -0.8612 0.2511 0.4419
vn 0.8131 -0.5773 -0.0752
vn 0.7724 -0.6351 -0.0000
vn 0.8131 -0.5773 0.0752
vn -0.6844 0.7291 -0.0000
vn -0.6031 0.6403 -0.4757
vn -0.2974 0.3201 -0.8995
vn -0.2974 0.3201 0.8995
vn -0.6017 0.6419 0.4753
vn 0.2834 -0.4442 -0.8499
vn 0.4570 -0.7338 -0.5027
vn 0.5288 -0.8487 -0.0000
vn 0.4570 -0.7338 0.5027
vn 0.2840 -0.4443 0.8497
vn -0.1244 0.1168 -0.9853
vn -0.1250 0.1172 0.9852
vn -0.2687 0.9632 -0.0000
vn -0.2369 0.8480 -0.4740
vn -0.1370 0.5056 -0.8518
vn 0.1337 -0.9671 -0.2164
vn 0.2059 -0.9786 -0.0000
vn 0.1407 -0.9612 0.2372
vn -0.1370 0.5056 0.8518
vn -0.2369 0.8480 0.4740
vn -1.0000 -0.0000 -0.0000
vn -0.8712 -0.0000 -0.4909
vn -0.5091 -0.0000 -0.8607
vn -0.0002 -0.0004 -1.0000
vn 0.5088 -0.0012 -0.8609
vn 0.8711 -0.0020 -0.4911
vn 1.0000 -0.0023 -0.0000
vn 0.8711 -0.0020 0.4911
vn 0.5088 -0.0012 0.8609
vn -0.0005 0.0001 1.0000
vn -0.5090 0.0006 0.8608
vn -0.8711 0.0002 0.4910
vn 0.9699 -0.2435 -0.0003
vn 0.8588 -0.2013 -0.4711
vn 0.4894 -0.0906 -0.8673
vn -0.7399 0.0761 -0.6684
vn -0.8334 0.1895 -0.5192
vn -0.9638 0.2664 0.0001
vn -0.8287 0.2000 0.5228
vn -0.5281 0.0823 0.8452
vn 0.4239 -0.0964 0.9006
vn 0.8547 -0.2070 0.4760
vn 0.0452 0.0068 0.9990
vn 0.6409 -0.2312 0.7320
vn 0.5741 -0.3746 -0.7281
vn 0.0315 -0.0274 -0.9991
vn -0.4111 0.2761 -0.8688
vn -0.7027 0.3696 -0.6079
vn -0.3570 0.2549 0.8987
vn -0.3913 0.2802 0.8766
vn 0.0984 -0.1617 0.9819
vn 0.7702 -0.6269 -0.1177
vn 0.3340 -0.2822 -0.8993
vn 0.3222 -0.2864 0.9023
vn 0.7430 -0.5239 0.4165
vn 0.7101 -0.7036 -0.0242
vn 0.5848 -0.5586 -0.5882
vn -0.6144 0.7453 -0.2589
vn -0.7193 0.6945 -0.0173
vn -0.7504 0.6542 0.0944
vn 0.4266 -0.4879 0.7615
vn 0.3061 -0.9520 -0.0000
vn 0.2702 -0.8405 -0.4697
vn 0.1730 -0.5086 -0.8435
vn 0.0211 -0.0534 -0.9983
vn -0.1687 0.4313 -0.8863
vn -0.2830 0.8200 -0.4975
vn -0.2965 0.9550 -0.0000
vn -0.2551 0.8212 0.5105
vn -0.2087 0.4651 0.8603
vn 0.1893 -0.4912 0.8502
vn 0.2759 -0.8339 0.4780
vn 0.0120 -0.1024 0.9947
vn 0.9881 0.1540 -0.0001
vn 0.8623 0.1453 0.4851
vn 0.4815 0.0859 0.8722
vn -0.9919 -0.0922 0.0878
vn -0.9877 -0.1562 -0.0001
vn -0.9952 -0.0834 -0.0513
vn 0.6487 0.0948 -0.7551
vn 0.1479 0.0266 -0.9886
vn 0.5243 0.1198 -0.8431
vn 0.9274 0.2076 -0.3110
vn 0.8681 0.4963 -0.0063
vn 0.5817 0.2858 0.7615
vn 0.4228 0.2928 0.8576
vn -0.4469 -0.2216 0.8667
vn -0.7627 -0.4069 0.5027
vn -0.8824 -0.4706 -0.0000
vn -0.7540 -0.4460 -0.4823
vn -0.4265 -0.2261 -0.8758
vn 0.2420 0.2453 -0.9388
vn 0.7517 0.4182 -0.5099
vn 0.6875 0.5869 0.4277
vn 0.4285 0.3288 0.8416
vn 0.1223 0.0963 0.9878
vn 0.3195 0.2821 -0.9046
vn 0.7506 0.5902 -0.2969
vn -0.6144 -0.7453 0.2589
vn -0.6829 -0.7305 -0.0000
vn -0.7308 -0.6785 -0.0752
vn 0.6264 0.7795 0.0085
vn 0.5289 0.6276 0.5713
vn 0.3944 0.5140 -0.7617
vn 0.2764 0.9610 -0.0000
vn 0.2408 0.8479 0.4724
vn 0.1564 0.5118 0.8448
vn 0.0119 0.0544 0.9984
vn -0.1701 -0.4303 0.8865
vn -0.2838 -0.8198 0.4974
vn -0.2974 -0.9548 -0.0000
vn -0.2559 -0.8209 -0.5105
vn -0.1646 -0.4443 -0.8806
vn 0.0190 0.0544 -0.9983
vn 0.1827 0.5120 -0.8393
vn 0.2577 0.8350 -0.4861
vn -0.9473 -0.2438 -0.2077
vn -0.4193 -0.0871 0.9037
vn -0.5099 -0.1350 -0.8496
vn -0.9211 -0.1437 -0.3618
vn -0.9356 -0.3516 0.0327
vn -0.6402 -0.2159 0.7372
vn -0.1347 0.0057 0.9909
vn 0.4606 0.1345 0.8773
vn 0.8291 0.2363 0.5068
vn 0.9620 0.2729 -0.0000
vn 0.8291 0.2363 -0.5068
vn 0.4606 0.1345 -0.8773
vn -0.0542 -0.0351 -0.9979
vn -0.7187 -0.3319 -0.6110
vn -0.5322 -0.3059 0.7894
vn -0.1194 -0.0877 0.9890
vn 0.4123 0.3571 0.8381
vn 0.6678 0.5489 0.5027
vn 0.7724 0.6351 -0.0000
vn 0.6574 0.5740 -0.4882
vn 0.5664 0.6836 -0.4603
vn -0.6844 -0.7291 -0.0000
vn -0.6003 -0.6471 0.4700
vn -0.3397 -0.3756 0.8623
vn -0.1080 -0.1003 -0.9891
vn -0.3753 -0.3883 -0.8417
vn -0.6017 -0.6419 -0.4753
vn -0.0440 -0.0823 0.9956
vn 0.4662 0.8815 0.0752
vn 0.5288 0.8487 -0.0000
vn 0.5609 0.7864 -0.2589
vn -0.0456 -0.1109 -0.9928
vn -0.2695 -0.9630 -0.0000
vn -0.2376 -0.8478 0.4741
vn -0.1271 -0.4904 0.8622
vn 0.1201 0.6570 0.7443
vn 0.2189 0.8475 0.4836
vn 0.2068 0.9784 -0.0000
vn 0.1787 0.8452 -0.5037
vn 0.1146 0.6708 -0.7327
vn -0.1271 -0.4904 -0.8622
vn -0.2376 -0.8478 -0.4741
vn -0.9991 -0.0423 -0.0085
vn -0.8722 -0.0227 0.4886
vn -0.5106 -0.0159 0.8597
vn -0.0075 -0.0009 1.0000
vn 0.5044 0.0201 0.8632
vn 0.8694 0.0330 0.4931
vn 0.9993 0.0373 -0.0000
vn 0.8694 0.0330 -0.4931
vn 0.5044 0.0201 -0.8632
vn -0.0057 0.0020 -1.0000
vn -0.5122 -0.0128 -0.8588
vn -0.8760 -0.0367 -0.4809
vt 0.562500 0.000000
vt 0.000000 0.000000
vt 0.520833 0.583333
vt 0.500000 0.666667
vt 0.500000 0.583333
vt 0.562500 0.833333
vt 0.562500 0.750000
vt 0.562500 0.916667
vt 0.500000 0.500000
vt 0.541667 0.500000
vt 0.666667 0.166667
vt 0.708333 0.083333
vt 0.687500 0.333333
vt 0.520833 0.500000
vt 0.541667 0.583333
vt 0.520833 0.666667
vt 0.625000 0.083333
vt 0.687500 0.166667
vt 0.583333 0.083333
vt 0.604167 0.416667
vt 0.625000 0.500000
vt 0.583333 0.666667
vt 0.520833 0.416667
vt 0.687500 0.916667
vt 0.625000 0.916667
vt 0.583333 0.833333
vt 0.583333 0.750000
vt 0.541667 0.166667
vt 0.583333 0.250000
vt 0.666667 0.833333
vt 0.604167 0.916667
vt 0.708333 0.666667
vt 0.625000 0.583333
vt 0.708333 0.583333
vt 0.687500 0.416667
vt 0.666667 0.500000
vt 0.541667 0.833333
vt 0.604167 0.583333
vt 0.666667 0.916667
vt 0.604167 1.000000
vt 0.604167 0.333333
vt 0.666667 0.000000
vt 0.604167 0.083333
vt 0.604167 0.000000
vt 0.666667 1.000000
vt 0.562500 0.333333
vt 0.541667 0.333333
vt 0.687500 0.583333
vt 0.708333 1.000000
vt 0.708333 0.916667
vt 0.562500 0.416667
vt 0.541667 0.666667
vt 0.604167 0.750000
vt 0.520833 0.083333
vt 0.541667 1.000000
vt 0.520833 0.000000
vt 0.583333 0.166667
vt 0.541667 0.916667
vt 0.541667 0.416667
vt 0.541667 0.000000
vt 0.520833 0.916667
vt 0.520833 1.000000
vt 0.687500 0.000000
vt 0.708333 0.416667
vt 0.687500 0.083333
vt 0.687500 0.666667
vt 0.645833 0.583333
vt 0.625000 0.416667
vt 0.625000 0.333333
vt 0.562500 0.083333
vt 0.687500 1.000000
vt 0.625000 0.000000
vt 0.583333 0.500000
vt 0.541667 0.083333
vt 0.708333 0.000000
vt 0.562500 0.250000
vt 0.687500 0.750000
vt 0.687500 0.833333
vt 0.708333 0.333333
vt 0.687500 0.250000
vt 0.708333 0.250000
vt 0.583333 0.333333
vt 0.562500 0.166667
vt 0.583333 0.000000
vt 0.687500 0.500000
vt 0.562500 0.583333
vt 0.562500 0.500000
vt 0.583333 0.416667
vt 0.583333 0.916667
vt 0.708333 0.166667
vt 0.625000 1.000000
vt 0.645833 0.500000
vt 0.645833 0.416667
vt 0.708333 0.833333
vt 0.604167 0.833333
vt 0.708333 0.500000
vt 0.604167 0.666667
vt 0.562500 0.666667
vt 0.562500 1.000000
vt 0.666667 0.250000
vt 0.666667 0.083333
vt 0.666667 0.333333
vt 0.604167 0.500000
vt 0.666667 0.750000
vt 0.583333 0.583333
vt 0.625000 0.666667
vt 0.604167 0.166667
vt 0.541667 0.250000
vt 0.729167 0.583333
vt 0.729167 0.500000
vt 0.583333 1.000000
vt 0.666667 0.583333
vt 0.625000 0.250000
s 1
g short_black
usemtl black
f 443/132/434 483/133/474 482/133/473
f 93/134/84 91/135/82 90/136/81
f 245/137/236 283/133/274 244/138/235
f 140/133/131 104/139/95 141/133/132
f 90/136/81 89/140/80 96/141/87
f 125/142/116 133/143/124 188/144/179
f 103/137/94 139/133/130 102/138/93
f 441/137/432 479/133/470 440/138/431
f 349/133/340 295/145/286 292/140/283
f 97/146/88 94/147/85 93/134/84
f 377/148/368 387/149/378 366/150/357
f 171/151/162 172/152/163 148/141/139
f 478/133/469 448/153/439 440/138/431
f 95/154/86 96/141/87 92/145/83
f 231/155/222 221/156/212 209/157/200
f 208/158/199 155/159/146 165/160/156
f 121/161/112 113/162/104 104/139/95
f 130/163/121 117/164/108 129/165/120
f 189/166/180 177/167/168 172/152/163
f 151/168/142 214/160/205 160/158/151
f 411/169/402 393/147/384 392/134/383
f 265/170/256 256/171/247 255/162/246
f 189/166/180 171/151/162 170/172/161
f 325/173/316 317/174/308 316/175/307
f 315/162/306 325/176/316 316/171/307
f 361/177/352 372/151/363 358/178/349
f 332/163/323 319/164/310 331/165/322
f 456/164/447 448/153/439 434/146/425
f 260/164/251 252/153/243 238/146/229
f 227/179/218 275/180/266 274/181/265
f 110/182/101 95/154/86 146/133/137
f 150/183/141 169/184/160 160/158/151
f 138/133/129 90/136/81 91/135/82
f 396/185/387 355/186/346 395/187/386
f 213/188/204 152/189/143 198/185/189
f 359/190/350 391/145/382 392/134/383
f 355/191/346 394/192/385 395/193/386
f 209/157/200 196/192/187 155/159/146
f 408/188/399 354/189/345 396/185/387
f 291/133/282 240/178/231 241/190/232
f 185/194/176 135/195/126 186/196/177
f 385/194/376 337/195/328 386/196/377
f 333/181/324 323/161/314 380/179/371
f 424/197/415 411/169/402 420/198/411
f 114/171/105 104/139/95 113/162/104
f 475/195/466 455/152/446 460/199/451
f 147/133/138 92/145/83 89/140/80
f 120/199/111 109/177/100 119/200/110
f 114/175/105 106/201/97 105/132/96
f 462/170/453 452/171/443 451/162/442
f 385/202/376 375/156/366 384/155/375
f 385/194/376 377/148/368 376/203/367
f 204/190/195 207/204/198 193/145/184
f 279/195/270 259/152/250 263/199/254
f 323/161/314 315/162/306 308/139/299
f 377/148/368 356/205/347 355/191/346
f 275/206/266 237/166/228 276/143/267
f 250/207/241 240/178/231 289/133/280
f 182/208/173 126/208/117 183/209/174
f 187/149/178 134/210/125 127/211/118
f 190/212/181 188/144/179 166/213/157
f 445/214/436 485/133/476 484/133/475
f 314/182/305 298/154/289 348/133/339
f 351/146/342 399/178/390 400/190/391
f 212/150/203 197/187/188 211/215/202
f 420/198/411 411/169/402 401/204/392
f 400/190/391 401/204/392 397/154/388
f 337/195/328 318/152/309 322/199/313
f 132/206/123 179/216/170 189/166/180
f 332/163/323 384/155/375 383/209/374
f 318/152/309 304/217/295 303/218/294
f 403/158/394 361/177/352 393/147/384
f 135/195/126 116/152/107 120/199/111
f 293/136/284 292/140/283 299/141/290
f 219/172/210 215/219/206 204/190/195
f 405/220/396 395/193/386 394/192/385
f 276/143/267 236/144/227 277/221/268
f 353/168/344 409/160/400 363/158/354
f 374/164/365 369/169/360 350/141/341
f 389/166/380 373/152/364 378/199/369
f 231/155/222 222/222/213 221/156/212
f 237/166/228 224/223/215 225/224/216
f 424/197/415 470/181/461 469/225/460
f 255/162/246 245/137/236 254/226/245
f 108/207/99 146/133/137 145/133/136
f 175/148/166 187/149/178 163/150/154
f 423/179/414 419/223/410 422/216/413
f 282/133/273 252/153/243 244/138/235
f 279/195/270 232/194/223 270/227/261
f 231/155/222 272/163/263 271/165/262
f 429/196/420 417/203/408 428/194/419
f 180/179/171 168/228/159 167/169/158
f 423/179/414 471/180/462 470/181/461
f 305/229/296 341/133/332 294/135/285
f 248/201/239 288/133/279 287/133/278
f 249/214/240 289/133/280 288/133/279
f 243/217/234 238/146/229 280/133/271
f 444/201/435 484/133/475 483/133/474
f 342/133/333 308/139/299 343/133/334
f 285/133/276 247/230/238 286/133/277
f 106/201/97 144/133/135 143/133/134
f 437/190/428 438/218/429 487/133/478
f 477/133/468 435/183/426 478/133/469
f 131/181/122 123/176/114 122/170/113
f 129/165/120 185/202/176 184/155/175
f 487/133/478 436/178/427 437/190/428
f 318/152/309 314/182/305 322/199/313
f 277/221/268 236/144/227 268/231/259
f 184/155/175 173/156/164 161/157/152
f 257/174/248 247/132/238 256/175/247
f 451/162/442 443/230/434 442/139/433
f 464/232/455 473/221/464 453/174/444
f 357/159/348 368/160/359 360/207/351
f 259/152/250 243/217/234 242/218/233
f 317/174/308 309/132/300 316/175/307
f 367/188/358 356/205/347 366/150/357
f 163/150/154 155/159/146 154/205/145
f 128/227/119 117/164/108 116/152/107
f 370/228/361 362/153/353 351/146/342
f 472/143/463 432/144/423 473/221/464
f 451/162/442 441/137/432 450/226/441
f 269/233/260 279/195/270 263/199/254
f 386/196/377 336/210/327 387/149/378
f 116/152/107 101/217/92 100/218/91
f 452/175/443 464/232/455 453/174/444
f 270/227/261 260/164/251 259/152/250
f 465/231/456 430/149/421 474/210/465
f 384/155/375 375/156/366 364/157/355
f 275/206/266 267/232/258 266/173/257
f 255/162/246 247/230/238 246/139/237
f 267/232/258 277/221/268 257/174/248
f 174/222/165 152/189/143 162/220/153
f 226/216/217 217/169/208 216/234/207
f 296/134/287 294/135/285 293/136/284
f 107/214/98 145/133/136 144/133/135
f 141/133/132 105/230/96 142/133/133
f 105/132/96 143/133/134 142/133/133
f 480/133/471 442/139/433 481/133/472
f 234/149/225 269/233/260 235/211/226
f 307/137/298 341/133/332 306/138/297
f 102/138/93 138/133/129 94/147/85
f 300/146/291 297/147/288 296/134/287
f 274/181/265 265/170/256 254/226/245
f 298/154/289 299/141/290 295/145/286
f 427/155/418 468/163/459 467/165/458
f 133/143/124 123/173/114 132/206/123
f 319/164/310 305/229/296 300/146/291
f 116/152/107 110/182/101 120/199/111
f 117/164/108 111/153/102 97/146/88
f 317/174/308 327/142/318 310/201/301
f 180/179/171 177/167/168 179/216/170
f 115/174/106 125/142/116 106/201/97
f 322/199/313 313/177/304 321/200/312
f 113/162/104 123/176/114 114/171/105
f 407/150/398 395/187/386 406/215/397
f 330/227/321 319/164/310 318/152/309
f 418/148/409 430/149/421 407/150/398
f 364/157/355 354/189/345 353/168/344
f 335/143/326 325/173/316 334/206/325
f 316/171/307 308/139/299 315/162/306
f 222/203/213 212/150/203 211/215/202
f 340/133/331 293/136/284 294/135/285
f 193/145/184 149/146/140 199/154/190
f 475/195/466 428/194/419 466/227/457
f 358/178/349 392/134/383 393/147/384
f 198/185/189 153/186/144 197/187/188
f 391/145/382 351/146/342 397/154/388
f 473/221/464 465/231/456 446/207/437
f 156/178/147 194/134/185 195/147/186
f 417/203/408 407/150/398 406/215/397
f 417/222/408 405/220/396 416/156/407
f 389/166/380 372/151/363 371/172/362
f 471/180/462 462/170/453 470/181/461
f 237/166/228 220/151/211 219/172/210
f 153/191/144 196/192/187 197/193/188
f 167/169/158 158/204/149 172/152/163
f 166/213/157 171/151/162 157/190/148
f 381/197/372 369/169/360 374/164/365
f 228/197/219 274/181/265 273/225/264
f 455/152/446 447/182/438 460/199/451
f 380/179/371 373/152/364 379/216/370
f 184/155/175 174/222/165 173/156/164
f 185/194/176 175/148/166 174/203/165
f 130/163/121 184/155/175 183/209/174
f 424/197/415 469/225/460 425/208/416
f 284/133/275 246/139/237 285/133/276
f 376/222/367 354/189/345 365/220/356
f 134/210/125 120/199/111 119/200/110
f 334/180/325 380/179/371 379/216/370
f 381/197/372 323/161/314 382/208/373
f 382/208/373 328/208/319 383/209/374
f 387/149/378 336/210/327 329/211/320
f 327/142/318 390/212/381 329/211/320
f 181/197/172 121/161/112 182/208/173
f 114/175/105 124/232/115 115/174/106
f 264/235/255 273/225/264 244/138/235
f 194/134/185 148/141/139 200/141/191
f 419/223/410 410/219/401 415/151/406
f 149/146/140 203/178/194 204/190/195
f 402/236/393 391/145/382 401/204/392
f 131/181/122 121/161/112 180/179/171
f 241/190/232 242/218/233 291/133/282
f 161/157/152 152/189/143 151/168/142
f 224/223/215 207/204/198 220/151/211
f 372/151/363 373/152/364 350/141/341
f 414/172/405 410/219/401 400/190/391
f 210/220/201 197/193/188 196/192/187
f 461/235/452 468/163/459 426/209/417
f 233/196/224 222/203/213 232/194/223
f 427/155/418 417/222/408 416/156/407
f 433/166/424 419/223/410 421/224/412
f 262/200/253 251/182/242 241/190/232
f 227/179/218 218/228/209 217/169/208
f 278/210/269 233/196/224 279/195/270
f 232/202/223 271/165/262 270/227/261
f 428/202/419 467/165/458 466/227/457
f 186/196/177 134/210/125 187/149/178
f 205/229/196 194/134/185 201/146/192
f 471/206/462 433/166/424 472/143/463
f 311/214/302 347/133/338 346/133/337
f 334/206/325 389/166/380 335/143/326
f 310/201/301 346/133/337 345/133/336
f 459/200/450 447/182/438 437/190/428
f 343/133/334 309/230/300 344/133/335
f 481/133/472 443/230/434 482/133/473
f 312/207/303 348/133/339 347/133/338
f 436/178/427 485/133/476 446/207/437
f 404/157/395 394/192/385 357/159/348
f 333/181/324 325/176/316 324/170/315
f 468/163/459 456/164/447 467/165/458
f 474/210/465 429/196/420 475/195/466
f 281/133/272 239/183/230 282/133/273
f 336/210/327 322/199/313 321/200/312
f 259/152/250 251/182/242 263/199/254
f 271/165/262 261/237/252 260/164/251
f 453/174/444 443/132/434 452/175/443
f 175/148/166 154/205/145 153/191/144
f 159/236/150 148/141/139 158/204/149
f 327/142/318 335/143/326 388/144/379
f 433/166/424 415/151/406 414/172/405
f 167/169/158 150/183/141 149/146/140
f 222/222/213 210/220/201 221/156/212
f 455/152/446 439/217/430 438/218/429
f 331/165/322 385/202/376 384/155/375
f 459/200/450 475/195/466 460/199/451
f 223/148/214 234/149/225 212/150/203
f 247/132/238 287/133/278 286/133/277
f 256/175/247 267/232/258 257/174/248
f 216/234/207 201/146/192 200/141/191
f 466/227/457 456/164/447 455/152/446
f 427/155/418 416/156/407 404/157/395
f 165/160/156 156/178/147 205/229/196
f 470/181/461 462/170/453 450/226/441
f 471/206/462 464/232/455 463/173/454
f 275/180/266 265/170/256 274/181/265
f 258/238/249 248/201/239 257/174/248
f 352/183/343 363/158/354 398/239/389
f 454/238/445 444/201/435 453/174/444
f 132/180/123 192/240/183 191/241/182
f 264/235/255 272/163/263 230/209/221
f 309/132/300 345/133/336 344/133/335
f 439/217/430 434/146/425 476/133/467
f 443/132/434 444/201/435 483/133/474
f 93/134/84 94/147/85 91/135/82
f 245/137/236 284/133/275 283/133/274
f 140/133/131 103/137/94 104/139/95
f 110/182/101 100/218/91 101/217/92
f 97/146/88 93/134/84 90/136/81
f 110/182/101 101/217/92 97/146/88
f 96/141/87 99/190/90 110/182/101
f 89/140/80 92/145/83 96/141/87
f 137/133/128 136/133/127 89/140/80
f 110/182/101 97/146/88 90/136/81
f 90/136/81 137/133/128 89/140/80
f 96/141/87 110/182/101 90/136/81
f 125/142/116 124/232/115 133/143/124
f 133/143/124 189/166/180 188/144/179
f 103/137/94 140/133/131 139/133/130
f 441/137/432 480/133/471 479/133/470
f 292/140/283 338/133/329 349/133/340
f 349/133/340 298/154/289 295/145/286
f 97/146/88 98/183/89 94/147/85
f 377/148/368 386/196/377 387/149/378
f 387/149/378 367/188/358 366/150/357
f 148/141/139 157/190/148 171/151/162
f 171/151/162 176/199/167 172/152/163
f 172/152/163 158/204/149 148/141/139
f 440/138/431 479/133/470 478/133/469
f 478/133/469 435/183/426 448/153/439
f 448/153/439 449/158/440 440/138/431
f 95/154/86 99/190/90 96/141/87
f 209/157/200 230/209/221 231/155/222
f 221/156/212 210/220/201 209/157/200
f 165/160/156 206/138/197 208/158/199
f 208/158/199 209/157/200 155/159/146
f 155/159/146 164/188/155 165/160/156
f 104/139/95 103/137/94 121/161/112
f 121/161/112 122/170/113 113/162/104
f 130/163/121 118/237/109 117/164/108
f 172/152/163 176/199/167 189/166/180
f 189/166/180 179/216/170 177/167/168
f 151/168/142 213/188/204 214/160/205
f 214/160/205 202/239/193 160/158/151
f 160/158/151 161/157/152 151/168/142
f 392/134/383 402/236/393 411/169/402
f 411/169/402 412/228/403 393/147/384
f 265/170/256 266/176/257 256/171/247
f 170/172/161 188/144/179 189/166/180
f 189/166/180 176/199/167 171/151/162
f 325/173/316 326/232/317 317/174/308
f 315/162/306 324/170/315 325/176/316
f 361/177/352 371/172/362 372/151/363
f 372/151/363 359/190/350 358/178/349
f 332/163/323 320/237/311 319/164/310
f 434/146/425 439/217/430 456/164/447
f 456/164/447 457/237/448 448/153/439
f 448/153/439 435/183/426 434/146/425
f 238/146/229 243/217/234 260/164/251
f 260/164/251 261/237/252 252/153/243
f 252/153/243 239/183/230 238/146/229
f 227/179/218 226/216/217 275/180/266
f 146/133/137 109/177/100 110/182/101
f 110/182/101 99/190/90 95/154/86
f 95/154/86 147/133/138 146/133/137
f 202/239/193 203/178/194 150/183/141
f 150/183/141 168/228/159 169/184/160
f 160/158/151 202/239/193 150/183/141
f 138/133/129 137/133/128 90/136/81
f 396/185/387 354/189/345 355/186/346
f 198/185/189 212/150/203 213/188/204
f 213/188/204 151/168/142 152/189/143
f 359/190/350 350/141/341 391/145/382
f 355/191/346 356/205/347 394/192/385
f 209/157/200 210/220/201 196/192/187
f 196/192/187 154/205/145 155/159/146
f 396/185/387 407/150/398 408/188/399
f 408/188/399 353/168/344 354/189/345
f 291/133/282 290/133/281 240/178/231
f 185/194/176 128/227/119 135/195/126
f 385/194/376 330/227/321 337/195/328
f 333/181/324 324/170/315 323/161/314
f 323/161/314 381/197/372 380/179/371
f 420/198/411 423/179/414 424/197/415
f 424/197/415 412/228/403 411/169/402
f 114/171/105 105/230/96 104/139/95
f 475/195/466 466/227/457 455/152/446
f 89/140/80 136/133/127 147/133/138
f 147/133/138 95/154/86 92/145/83
f 120/199/111 110/182/101 109/177/100
f 114/175/105 115/174/106 106/201/97
f 462/170/453 463/176/454 452/171/443
f 385/202/376 376/222/367 375/156/366
f 385/194/376 386/196/377 377/148/368
f 204/190/195 215/219/206 207/204/198
f 207/204/198 200/141/191 193/145/184
f 193/145/184 199/154/190 204/190/195
f 279/195/270 270/227/261 259/152/250
f 308/139/299 307/137/298 323/161/314
f 323/161/314 324/170/315 315/162/306
f 355/191/346 376/203/367 377/148/368
f 377/148/368 366/150/357 356/205/347
f 275/206/266 226/216/217 237/166/228
f 250/207/241 268/231/259 269/233/260
f 269/233/260 262/200/253 240/178/231
f 240/178/231 290/133/281 289/133/280
f 250/207/241 269/233/260 240/178/231
f 126/208/117 112/158/103 111/153/102
f 111/153/102 118/237/109 130/163/121
f 183/209/174 161/157/152 160/158/151
f 126/208/117 111/153/102 130/163/121
f 160/158/151 169/184/160 182/208/173
f 126/208/117 130/163/121 183/209/174
f 183/209/174 160/158/151 182/208/173
f 165/160/156 164/188/155 187/149/178
f 134/210/125 119/200/110 109/177/100
f 109/177/100 108/207/99 127/211/118
f 190/212/181 165/160/156 187/149/178
f 134/210/125 109/177/100 127/211/118
f 127/211/118 190/212/181 187/149/178
f 127/211/118 108/207/99 107/214/98
f 127/211/118 107/214/98 125/142/116
f 166/213/157 165/160/156 190/212/181
f 190/212/181 127/211/118 125/142/116
f 188/144/179 170/172/161 166/213/157
f 190/212/181 125/142/116 188/144/179
f 445/214/436 446/207/437 485/133/476
f 348/133/339 313/177/304 314/182/305
f 314/182/305 302/190/293 298/154/289
f 298/154/289 349/133/340 348/133/339
f 400/190/391 397/154/388 351/146/342
f 351/146/342 352/183/343 399/178/390
f 212/150/203 198/185/189 197/187/188
f 401/204/392 419/223/410 420/198/411
f 411/169/402 402/236/393 401/204/392
f 400/190/391 410/219/401 401/204/392
f 401/204/392 391/145/382 397/154/388
f 337/195/328 330/227/321 318/152/309
f 189/166/180 133/143/124 132/206/123
f 132/206/123 191/241/182 179/216/170
f 332/163/323 331/165/322 384/155/375
f 318/152/309 319/164/310 304/217/295
f 393/147/384 412/228/403 413/184/404
f 403/158/394 360/207/351 361/177/352
f 393/147/384 413/184/404 403/158/394
f 361/177/352 358/178/349 393/147/384
f 135/195/126 128/227/119 116/152/107
f 314/182/305 303/218/294 304/217/295
f 300/146/291 296/134/287 293/136/284
f 314/182/305 304/217/295 300/146/291
f 299/141/290 302/190/293 314/182/305
f 292/140/283 295/145/286 299/141/290
f 339/133/330 338/133/329 292/140/283
f 314/182/305 300/146/291 293/136/284
f 293/136/284 339/133/330 292/140/283
f 299/141/290 314/182/305 293/136/284
f 204/190/195 203/178/194 219/172/210
f 219/172/210 220/151/211 215/219/206
f 405/220/396 406/242/397 395/193/386
f 276/143/267 237/166/228 236/144/227
f 353/168/344 408/188/399 409/160/400
f 409/160/400 398/239/389 363/158/354
f 363/158/354 364/157/355 353/168/344
f 350/141/341 373/152/364 374/164/365
f 369/169/360 351/146/342 350/141/341
f 389/166/380 379/216/370 373/152/364
f 231/155/222 232/202/223 222/222/213
f 237/166/228 226/216/217 224/223/215
f 424/197/415 423/179/414 470/181/461
f 255/162/246 246/139/237 245/137/236
f 108/207/99 109/177/100 146/133/137
f 175/148/166 186/196/177 187/149/178
f 187/149/178 164/188/155 163/150/154
f 423/179/414 420/198/411 419/223/410
f 244/138/235 283/133/274 282/133/273
f 282/133/273 239/183/230 252/153/243
f 252/153/243 253/158/244 244/138/235
f 279/195/270 233/196/224 232/194/223
f 231/155/222 230/209/221 272/163/263
f 429/196/420 418/148/409 417/203/408
f 167/169/158 178/243/169 180/179/171
f 180/179/171 181/197/172 168/228/159
f 423/179/414 422/216/413 471/180/462
f 297/147/288 301/183/292 305/229/296
f 305/229/296 306/138/297 341/133/332
f 341/133/332 340/133/331 294/135/285
f 294/135/285 297/147/288 305/229/296
f 248/201/239 249/214/240 288/133/279
f 249/214/240 250/207/241 289/133/280
f 280/133/271 242/218/233 243/217/234
f 238/146/229 281/133/272 280/133/271
f 444/201/435 445/214/436 484/133/475
f 342/133/333 307/137/298 308/139/299
f 285/133/276 246/139/237 247/230/238
f 106/201/97 107/214/98 144/133/135
f 437/190/428 447/182/438 438/218/429
f 438/218/429 476/133/467 487/133/478
f 477/133/468 434/146/425 435/183/426
f 131/181/122 132/180/123 123/176/114
f 129/165/120 128/227/119 185/202/176
f 487/133/478 486/133/477 436/178/427
f 318/152/309 303/218/294 314/182/305
f 236/144/227 219/172/210 203/178/194
f 203/178/194 202/239/193 214/160/205
f 236/144/227 203/178/194 214/160/205
f 236/144/227 214/160/205 235/211/226
f 268/231/259 250/207/241 249/214/240
f 268/231/259 249/214/240 258/238/249
f 236/144/227 235/211/226 268/231/259
f 268/231/259 258/238/249 277/221/268
f 161/157/152 183/209/174 184/155/175
f 173/156/164 162/220/153 161/157/152
f 257/174/248 248/201/239 247/132/238
f 451/162/442 452/171/443 443/230/434
f 464/232/455 472/143/463 473/221/464
f 473/221/464 454/238/445 453/174/444
f 360/207/351 403/158/394 404/157/395
f 357/159/348 367/188/358 368/160/359
f 360/207/351 404/157/395 357/159/348
f 259/152/250 260/164/251 243/217/234
f 317/174/308 310/201/301 309/132/300
f 367/188/358 357/159/348 356/205/347
f 163/150/154 164/188/155 155/159/146
f 128/227/119 129/165/120 117/164/108
f 351/146/342 369/169/360 370/228/361
f 362/153/353 352/183/343 351/146/342
f 472/143/463 433/166/424 432/144/423
f 451/162/442 442/139/433 441/137/432
f 263/199/254 262/200/253 269/233/260
f 269/233/260 278/210/269 279/195/270
f 386/196/377 337/195/328 336/210/327
f 116/152/107 117/164/108 101/217/92
f 452/175/443 463/173/454 464/232/455
f 270/227/261 271/165/262 260/164/251
f 459/200/450 458/244/449 465/231/456
f 431/211/422 409/160/400 408/188/399
f 431/211/422 408/188/399 430/149/421
f 474/210/465 459/200/450 465/231/456
f 465/231/456 431/211/422 430/149/421
f 364/157/355 383/209/374 384/155/375
f 375/156/366 365/220/356 364/157/355
f 275/206/266 276/143/267 267/232/258
f 255/162/246 256/171/247 247/230/238
f 267/232/258 276/143/267 277/221/268
f 277/221/268 258/238/249 257/174/248
f 162/220/153 173/156/164 174/222/165
f 174/222/165 153/186/144 152/189/143
f 216/234/207 224/223/215 226/216/217
f 226/216/217 227/179/218 217/169/208
f 296/134/287 297/147/288 294/135/285
f 107/214/98 108/207/99 145/133/136
f 141/133/132 104/139/95 105/230/96
f 105/132/96 106/201/97 143/133/134
f 480/133/471 441/137/432 442/139/433
f 214/160/205 213/188/204 234/149/225
f 234/149/225 278/210/269 269/233/260
f 269/233/260 268/231/259 235/211/226
f 235/211/226 214/160/205 234/149/225
f 307/137/298 342/133/333 341/133/332
f 94/147/85 98/183/89 111/153/102
f 111/153/102 112/158/103 102/138/93
f 102/138/93 139/133/130 138/133/129
f 138/133/129 91/135/82 94/147/85
f 94/147/85 111/153/102 102/138/93
f 300/146/291 301/183/292 297/147/288
f 254/226/245 273/225/264 274/181/265
f 265/170/256 255/162/246 254/226/245
f 298/154/289 302/190/293 299/141/290
f 427/155/418 426/209/417 468/163/459
f 133/143/124 124/232/115 123/173/114
f 300/146/291 304/217/295 319/164/310
f 319/164/310 320/237/311 305/229/296
f 305/229/296 301/183/292 300/146/291
f 116/152/107 100/218/91 110/182/101
f 97/146/88 101/217/92 117/164/108
f 117/164/108 118/237/109 111/153/102
f 111/153/102 98/183/89 97/146/88
f 317/174/308 326/232/317 327/142/318
f 327/142/318 311/214/302 310/201/301
f 179/216/170 191/241/182 192/240/183
f 180/179/171 178/243/169 177/167/168
f 179/216/170 192/240/183 180/179/171
f 115/174/106 124/232/115 125/142/116
f 125/142/116 107/214/98 106/201/97
f 322/199/313 314/182/305 313/177/304
f 113/162/104 122/170/113 123/176/114
f 407/150/398 396/185/387 395/187/386
f 330/227/321 331/165/322 319/164/310
f 418/148/409 429/196/420 430/149/421
f 430/149/421 408/188/399 407/150/398
f 364/157/355 365/220/356 354/189/345
f 335/143/326 326/232/317 325/173/316
f 316/171/307 309/230/300 308/139/299
f 222/203/213 223/148/214 212/150/203
f 340/133/331 339/133/330 293/136/284
f 193/145/184 148/141/139 149/146/140
f 475/195/466 429/196/420 428/194/419
f 358/178/349 359/190/350 392/134/383
f 198/185/189 152/189/143 153/186/144
f 391/145/382 350/141/341 351/146/342
f 432/144/423 414/172/405 399/178/390
f 399/178/390 398/239/389 409/160/400
f 432/144/423 399/178/390 409/160/400
f 432/144/423 409/160/400 431/211/422
f 465/231/456 458/244/449 446/207/437
f 446/207/437 445/214/436 454/238/445
f 473/221/464 432/144/423 431/211/422
f 446/207/437 454/238/445 473/221/464
f 473/221/464 431/211/422 465/231/456
f 156/178/147 157/190/148 194/134/185
f 417/203/408 418/148/409 407/150/398
f 417/222/408 406/242/397 405/220/396
f 371/172/362 388/144/379 389/166/380
f 389/166/380 378/199/369 372/151/363
f 471/180/462 463/176/454 462/170/453
f 219/172/210 236/144/227 237/166/228
f 237/166/228 225/224/216 220/151/211
f 153/191/144 154/205/145 196/192/187
f 172/152/163 177/167/168 178/243/169
f 167/169/158 159/236/150 158/204/149
f 172/152/163 178/243/169 167/169/158
f 157/190/148 156/178/147 166/213/157
f 166/213/157 170/172/161 171/151/162
f 374/164/365 380/179/371 381/197/372
f 381/197/372 370/228/361 369/169/360
f 228/197/219 227/179/218 274/181/265
f 455/152/446 438/218/429 447/182/438
f 380/179/371 374/164/365 373/152/364
f 184/155/175 185/202/176 174/222/165
f 185/194/176 186/196/177 175/148/166
f 130/163/121 129/165/120 184/155/175
f 450/226/441 441/137/432 440/138/431
f 440/138/431 449/158/440 461/235/452
f 425/208/416 413/184/404 412/228/403
f 450/226/441 440/138/431 461/235/452
f 469/225/460 450/226/441 461/235/452
f 425/208/416 412/228/403 424/197/415
f 469/225/460 461/235/452 425/208/416
f 284/133/275 245/137/236 246/139/237
f 365/220/356 375/156/366 376/222/367
f 376/222/367 355/186/346 354/189/345
f 134/210/125 135/195/126 120/199/111
f 334/180/325 333/181/324 380/179/371
f 323/161/314 307/137/298 306/138/297
f 382/208/373 363/158/354 362/153/353
f 362/153/353 370/228/361 381/197/372
f 323/161/314 306/138/297 328/208/319
f 382/208/373 362/153/353 381/197/372
f 323/161/314 328/208/319 382/208/373
f 328/208/319 306/138/297 305/229/296
f 305/229/296 320/237/311 332/163/323
f 383/209/374 364/157/355 363/158/354
f 328/208/319 305/229/296 332/163/323
f 383/209/374 363/158/354 382/208/373
f 328/208/319 332/163/323 383/209/374
f 368/160/359 367/188/358 387/149/378
f 336/210/327 321/200/312 313/177/304
f 313/177/304 312/207/303 329/211/320
f 390/212/381 368/160/359 387/149/378
f 336/210/327 313/177/304 329/211/320
f 329/211/320 390/212/381 387/149/378
f 388/144/379 371/172/362 361/177/352
f 361/177/352 360/207/351 368/160/359
f 361/177/352 368/160/359 390/212/381
f 312/207/303 311/214/302 327/142/318
f 388/144/379 361/177/352 390/212/381
f 329/211/320 312/207/303 327/142/318
f 327/142/318 388/144/379 390/212/381
f 121/161/112 103/137/94 102/138/93
f 102/138/93 112/158/103 126/208/117
f 182/208/173 169/184/160 168/228/159
f 121/161/112 102/138/93 126/208/117
f 182/208/173 168/228/159 181/197/172
f 121/161/112 126/208/117 182/208/173
f 114/175/105 123/173/114 124/232/115
f 208/158/199 206/138/197 205/229/196
f 205/229/196 218/228/209 228/197/219
f 208/158/199 205/229/196 228/197/219
f 229/208/220 208/158/199 228/197/219
f 229/208/220 228/197/219 273/225/264
f 244/138/235 253/158/244 264/235/255
f 254/226/245 245/137/236 244/138/235
f 264/235/255 229/208/220 273/225/264
f 273/225/264 254/226/245 244/138/235
f 194/134/185 157/190/148 148/141/139
f 148/141/139 193/145/184 200/141/191
f 200/141/191 201/146/192 194/134/185
f 415/151/406 421/224/412 419/223/410
f 419/223/410 401/204/392 410/219/401
f 204/190/195 199/154/190 149/146/140
f 149/146/140 150/183/141 203/178/194
f 402/236/393 392/134/383 391/145/382
f 180/179/171 192/240/183 131/181/122
f 131/181/122 122/170/113 121/161/112
f 121/161/112 181/197/172 180/179/171
f 241/190/232 251/182/242 242/218/233
f 242/218/233 280/133/271 291/133/282
f 161/157/152 162/220/153 152/189/143
f 220/151/211 225/224/216 224/223/215
f 224/223/215 216/234/207 207/204/198
f 207/204/198 215/219/206 220/151/211
f 350/141/341 359/190/350 372/151/363
f 372/151/363 378/199/369 373/152/364
f 400/190/391 399/178/390 414/172/405
f 414/172/405 415/151/406 410/219/401
f 210/220/201 211/242/202 197/193/188
f 403/158/394 413/184/404 425/208/416
f 461/235/452 449/158/440 448/153/439
f 404/157/395 403/158/394 425/208/416
f 426/209/417 404/157/395 425/208/416
f 461/235/452 448/153/439 457/237/448
f 426/209/417 425/208/416 461/235/452
f 461/235/452 457/237/448 468/163/459
f 233/196/224 223/148/214 222/203/213
f 427/155/418 428/202/419 417/222/408
f 433/166/424 422/216/413 419/223/410
f 241/190/232 240/178/231 262/200/253
f 262/200/253 263/199/254 251/182/242
f 227/179/218 228/197/219 218/228/209
f 278/210/269 234/149/225 233/196/224
f 232/202/223 231/155/222 271/165/262
f 428/202/419 427/155/418 467/165/458
f 186/196/177 135/195/126 134/210/125
f 201/146/192 217/169/208 218/228/209
f 205/229/196 195/147/186 194/134/185
f 201/146/192 218/228/209 205/229/196
f 471/206/462 422/216/413 433/166/424
f 311/214/302 312/207/303 347/133/338
f 334/206/325 379/216/370 389/166/380
f 310/201/301 311/214/302 346/133/337
f 437/190/428 436/178/427 459/200/450
f 459/200/450 460/199/451 447/182/438
f 343/133/334 308/139/299 309/230/300
f 481/133/472 442/139/433 443/230/434
f 312/207/303 313/177/304 348/133/339
f 446/207/437 458/244/449 459/200/450
f 436/178/427 486/133/477 485/133/476
f 446/207/437 459/200/450 436/178/427
f 404/157/395 405/220/396 394/192/385
f 394/192/385 356/205/347 357/159/348
f 333/181/324 334/180/325 325/176/316
f 468/163/459 457/237/448 456/164/447
f 474/210/465 430/149/421 429/196/420
f 281/133/272 238/146/229 239/183/230
f 336/210/327 337/195/328 322/199/313
f 259/152/250 242/218/233 251/182/242
f 271/165/262 272/163/263 261/237/252
f 453/174/444 444/201/435 443/132/434
f 153/191/144 174/203/165 175/148/166
f 175/148/166 163/150/154 154/205/145
f 159/236/150 149/146/140 148/141/139
f 327/142/318 326/232/317 335/143/326
f 335/143/326 389/166/380 388/144/379
f 414/172/405 432/144/423 433/166/424
f 433/166/424 421/224/412 415/151/406
f 149/146/140 159/236/150 167/169/158
f 167/169/158 168/228/159 150/183/141
f 222/222/213 211/242/202 210/220/201
f 455/152/446 456/164/447 439/217/430
f 331/165/322 330/227/321 385/202/376
f 459/200/450 474/210/465 475/195/466
f 223/148/214 233/196/224 234/149/225
f 234/149/225 213/188/204 212/150/203
f 247/132/238 248/201/239 287/133/278
f 256/175/247 266/173/257 267/232/258
f 200/141/191 207/204/198 216/234/207
f 216/234/207 217/169/208 201/146/192
f 466/227/457 467/165/458 456/164/447
f 404/157/395 426/209/417 427/155/418
f 416/156/407 405/220/396 404/157/395
f 205/229/196 206/138/197 165/160/156
f 165/160/156 166/213/157 156/178/147
f 156/178/147 195/147/186 205/229/196
f 450/226/441 469/225/460 470/181/461
f 462/170/453 451/162/442 450/226/441
f 471/206/462 472/143/463 464/232/455
f 275/180/266 266/176/257 265/170/256
f 258/238/249 249/214/240 248/201/239
f 398/239/389 399/178/390 352/183/343
f 352/183/343 362/153/353 363/158/354
f 454/238/445 445/214/436 444/201/435
f 132/180/123 131/181/122 192/240/183
f 209/157/200 208/158/199 229/208/220
f 264/235/255 253/158/244 252/153/243
f 230/209/221 209/157/200 229/208/220
f 252/153/243 261/237/252 272/163/263
f 230/209/221 229/208/220 264/235/255
f 264/235/255 252/153/243 272/163/263
f 309/132/300 310/201/301 345/133/336
f 476/133/467 438/218/429 439/217/430
f 434/146/425 477/133/468 476/133/467
