# Made in Blockbench 4.12.6
mtllib bj_duanmen_bg_1.mtl

o dlon_right
v -1.1090625 1.5784375 0.06275000000000014
v -1.1409375 1.5784375 0.06275000000000014
v -1.1090625 1.4996875 0.06275000000000014
v -1.1409375 1.4996875 0.06275000000000014
v -1.1409375 1.5784375 0.07843749999999998
v -1.1090625 1.5784375 0.0784375
v -1.1409375 1.4996875 0.07843749999999998
v -1.1090625 1.4996875 0.0784375
vt 0 1
vt 0.0156875 1
vt 0.0156875 0.92125
vt 0 0.92125
vt 0 1
vt 0.031875 1
vt 0.031875 0.92125
vt 0 0.92125
vt 0 1
vt 0.0156875 1
vt 0.0156875 0.92125
vt 0 0.92125
vt 0 1
vt 0.031875 1
vt 0.031875 0.92125
vt 0 0.92125
vt 0 1
vt 0.0156875 1
vt 0.0156875 0.968125
vt 0 0.968125
vt 0 1
vt 0.0156875 1
vt 0.0156875 0.968125
vt 0 0.968125
vn -1 0 -2.220446049250313e-16
vn 2.220446049250313e-16 0 -1
vn 1 0 2.220446049250313e-16
vn -2.220446049250313e-16 0 1
vn 0 1 0
vn 0 -1 0
usemtl m_87294750-3762-bbfb-a8d7-e9979ff4a36d#light
f 7/3/1 5/2/1 2/1/1
f 4/4/1 7/3/1 2/1/1
f 4/7/2 2/6/2 1/5/2
f 3/8/2 4/7/2 1/5/2
f 3/11/3 1/10/3 6/9/3
f 8/12/3 3/11/3 6/9/3
f 8/15/4 6/14/4 5/13/4
f 7/16/4 8/15/4 5/13/4
f 1/19/5 2/18/5 5/17/5
f 6/20/5 1/19/5 5/17/5
f 4/23/6 3/22/6 8/21/6
f 7/24/6 4/23/6 8/21/6
o door_right
v 0.1875 0.125 2.636779683484747e-16
v -1.0625 0.125 -1.3877787807814457e-17
v 0.1875 0 2.636779683484747e-16
v -1.0625 0 -1.3877787807814457e-17
v 0.1875 0.125 0.06250000000000026
v -1.0625 0.125 0.062499999999999986
v 0.1875 0 0.06250000000000026
v -1.0625 0 0.062499999999999986
v 0.1875 0.6875 2.636779683484747e-16
v -1.0625 0.6875 -1.3877787807814457e-17
v 0.1875 0.625 2.636779683484747e-16
v -1.0625 0.625 -1.3877787807814457e-17
v 0.1875 0.6875 0.06250000000000026
v -1.0625 0.6875 0.062499999999999986
v 0.1875 0.625 0.06250000000000026
v -1.0625 0.625 0.062499999999999986
v 0.1875 1.625 2.636779683484747e-16
v -1.0625 1.625 -1.3877787807814457e-17
v 0.1875 1.5625 2.636779683484747e-16
v -1.0625 1.5625 -1.3877787807814457e-17
v 0.1875 1.625 0.06250000000000026
v -1.0625 1.625 0.062499999999999986
v 0.1875 1.5625 0.06250000000000026
v -1.0625 1.5625 0.062499999999999986
v 0.1875 1.640625 2.636779683484747e-16
v -1.0625 1.640625 -1.3877787807814457e-17
v 0.1875 1.640625 0.06250000000000026
v -1.0625 1.640625 0.062499999999999986
v -1 1.5625 0
v -1 0.6875 0
v -1 1.5625 0.0625
v -1 0.6875 0.0625
v 0.125 1.5625 2.498001805406602e-16
v 0.125 0.6875 2.498001805406602e-16
v 0.125 1.5625 0.06250000000000025
v 0.125 0.6875 0.06250000000000025
v 0.125 0.625 0.06250000000000025
v -1 0.625 0.0625
v 0.125 0.125 0.06250000000000025
v -1 0.125 0.0625
v -1 0.625 0
v -1 0.125 0
v 0.125 0.625 2.498001805406602e-16
v 0.125 0.125 2.498001805406602e-16
v -1 1.03125 -0.077003125
v -1.03125 1.03125 -0.077003125
v -1 1.004186875 -0.061378125
v -1.03125 1.004186875 -0.061378125000000006
v -1 1.09375 0.03125
v -1.03125 1.09375 0.031249999999999993
v -1 1.066686875 0.046875
v -1.03125 1.066686875 0.04687499999999999
v 0.15625 1.03125 -0.07700312499999976
v 0.125 1.03125 -0.07700312499999976
v 0.15625 1.004186875 -0.06137812499999974
v 0.125 1.004186875 -0.06137812499999975
v 0.15625 1.09375 0.03125000000000026
v 0.125 1.09375 0.03125000000000025
v 0.15625 1.066686875 0.04687500000000026
v 0.125 1.066686875 0.04687500000000025
v 0.125 1.0546875 -0.03640812499999975
v -1 1.0546875 -0.036408125
v 0.125 1.027624375 -0.02078312499999975
v -1 1.027624375 -0.020783125
v -0.25 1.4375 0.05000000000000017
v -0.625 1.4375 0.050000000000000086
v -0.25 1.1875 0.05000000000000017
v -0.625 1.1875 0.050000000000000086
v 0.1875 1.625 2.636779683484747e-16
v -1.0625 1.625 -1.3877787807814457e-17
v 0.1875 1.625 0.06250000000000026
v -1.0625 1.625 0.062499999999999986
v -1.0625 1.5625 -1.3877787807814457e-17
v -1.0625 0.6875 -1.3877787807814457e-17
v -1.0625 1.5625 0.062499999999999986
v -1.0625 0.6875 0.062499999999999986
v 0.1875 1.5625 2.636779683484747e-16
v 0.1875 0.6875 2.636779683484747e-16
v 0.1875 1.5625 0.06250000000000026
v 0.1875 0.6875 0.06250000000000026
v 0.125 0.625 0.06250000000000025
v -1 0.625 0.0625
v 0.125 0.125 0.06250000000000025
v -1 0.125 0.0625
v -1.0625 0.625 -1.3877787807814457e-17
v -1.0625 0.125 -1.3877787807814457e-17
v -1 0.625 0.0625
v -1.0625 0.625 0.062499999999999986
v -1 0.125 0.0625
v -1.0625 0.125 0.062499999999999986
v 0.1875 0.625 2.636779683484747e-16
v 0.1875 0.125 2.636779683484747e-16
v 0.1875 0.625 0.06250000000000026
v 0.125 0.625 0.06250000000000025
v 0.1875 0.125 0.06250000000000026
v 0.125 0.125 0.06250000000000025
v 0.125 1.03125 -0.07700312499999976
v -1 1.03125 -0.077003125
v 0.125 1.004186875 -0.06137812499999975
v -1 1.004186875 -0.061378125
v -0.25 1.4375 0.05000000000000017
v -0.625 1.4375 0.050000000000000086
v -0.25 1.1875 0.05000000000000017
v -0.625 1.1875 0.050000000000000086
vt 1 0.875
vt 1 1
vt 0 1
vt 0 0.875
vt 1 0.875
vt 1 1
vt 0 1
vt 0 0.875
vt 0.0625 0
vt 0.0625 1
vt 0 1
vt 0 0
vt 0.0625 0
vt 0.0625 1
vt 0 1
vt 0 0
vt 0.0625 0.875
vt 0.0625 1
vt 0 1
vt 0 0.875
vt 0.0625 0.875
vt 0.0625 1
vt 0 1
vt 0 0.875
vt 1 0.9375
vt 1 1
vt 0 1
vt 0 0.9375
vt 1 0.9375
vt 1 1
vt 0 1
vt 0 0.9375
vt 0.0625 0
vt 0.0625 1
vt 0 1
vt 0 0
vt 0.0625 0
vt 0.0625 1
vt 0 1
vt 0 0
vt 0.0625 0.9375
vt 0.0625 1
vt 0 1
vt 0 0.9375
vt 0.0625 0.9375
vt 0.0625 1
vt 0 1
vt 0 0.9375
vt 1 0.9375
vt 1 1
vt 0 1
vt 0 0.9375
vt 1 0.9375
vt 1 1
vt 0 1
vt 0 0.9375
vt 0.0625 0
vt 0.0625 1
vt 0 1
vt 0 0
vt 0.0625 0
vt 0.0625 1
vt 0 1
vt 0 0
vt 0.0625 0.9375
vt 0.0625 1
vt 0 1
vt 0 0.9375
vt 0.0625 0.9375
vt 0.0625 1
vt 0 1
vt 0 0.9375
vt 1 0.984375
vt 1 1
vt 0 1
vt 0 0.984375
vt 1 0.984375
vt 1 1
vt 0 1
vt 0 0.984375
vt 0.0625 0
vt 0.0625 1
vt 0 1
vt 0 0
vt 0.0625 0
vt 0.0625 1
vt 0 1
vt 0 0
vt 0.0625 0.984375
vt 0.0625 1
vt 0 1
vt 0 0.984375
vt 0.0625 0.984375
vt 0.0625 1
vt 0 1
vt 0 0.984375
vt 0.0625 0.125
vt 0.0625 1
vt 0 1
vt 0 0.125
vt 0.0625 0.125
vt 0.0625 1
vt 0 1
vt 0 0.125
vt 0.0625 0.9375
vt 0.0625 1
vt 0 1
vt 0 0.9375
vt 0.0625 0.9375
vt 0.0625 1
vt 0 1
vt 0 0.9375
vt 0.0625 0.125
vt 0.0625 1
vt 0 1
vt 0 0.125
vt 0.0625 0.125
vt 0.0625 1
vt 0 1
vt 0 0.125
vt 0.0625 0.125
vt 0.0625 1
vt 0 1
vt 0 0.125
vt 0.0625 0.125
vt 0.0625 1
vt 0 1
vt 0 0.125
vt 0.0625 0.9375
vt 0.0625 1
vt 0 1
vt 0 0.9375
vt 0.0625 0.9375
vt 0.0625 1
vt 0 1
vt 0 0.9375
vt 0.0625 0.125
vt 0.0625 1
vt 0 1
vt 0 0.125
vt 0.0625 0.125
vt 0.0625 1
vt 0 1
vt 0 0.125
vt 1 0.5
vt 1 1
vt 0 1
vt 0 0.5
vt 1 0.5
vt 1 1
vt 0 1
vt 0 0.5
vt 0.0625 0.5
vt 0.0625 1
vt 0 1
vt 0 0.5
vt 0.0625 0.5
vt 0.0625 1
vt 0 1
vt 0 0.5
vt 0.0625 0.9375
vt 0.0625 1
vt 0 1
vt 0 0.9375
vt 0.0625 0.9375
vt 0.0625 1
vt 0 1
vt 0 0.9375
vt 0.0625 0.5
vt 0.0625 1
vt 0 1
vt 0 0.5
vt 0.0625 0.5
vt 0.0625 1
vt 0 1
vt 0 0.5
vt 0.0625 0.5
vt 0.0625 1
vt 0 1
vt 0 0.5
vt 0.0625 0.5
vt 0.0625 1
vt 0 1
vt 0 0.5
vt 0.0625 0.9375
vt 0.0625 1
vt 0 1
vt 0 0.9375
vt 0.0625 0.9375
vt 0.0625 1
vt 0 1
vt 0 0.9375
vt 0.0625 0.5
vt 0.0625 1
vt 0 1
vt 0 0.5
vt 0.0625 0.5
vt 0.0625 1
vt 0 1
vt 0 0.5
vt 0.03125 0.96875
vt 0.03125 1
vt 0 1
vt 0 0.96875
vt 0.03125 0.96875
vt 0.03125 1
vt 0 1
vt 0 0.96875
vt 0.125 0.96875
vt 0.125 1
vt 0 1
vt 0 0.96875
vt 0.125 0.96875
vt 0.125 1
vt 0 1
vt 0 0.96875
vt 0.125 0.96875
vt 0.125 1
vt 0 1
vt 0 0.96875
vt 0.125 0.96875
vt 0.125 1
vt 0 1
vt 0 0.96875
vt 0.03125 0.96875
vt 0.03125 1
vt 0 1
vt 0 0.96875
vt 0.03125 0.96875
vt 0.03125 1
vt 0 1
vt 0 0.96875
vt 0.125 0.96875
vt 0.125 1
vt 0 1
vt 0 0.96875
vt 0.125 0.96875
vt 0.125 1
vt 0 1
vt 0 0.96875
vt 0.125 0.96875
vt 0.125 1
vt 0 1
vt 0 0.96875
vt 0.125 0.96875
vt 0.125 1
vt 0 1
vt 0 0.96875
vt 1 0.96875
vt 1 1
vt 0 1
vt 0 0.96875
vt 1 0.96875
vt 1 1
vt 0 1
vt 0 0.96875
vt 0.046875 0
vt 0.046875 1
vt 0 1
vt 0 0
vt 0.046875 0
vt 0.046875 1
vt 0 1
vt 0 0
vt 0.046875 0.96875
vt 0.046875 1
vt 0 1
vt 0 0.96875
vt 0.046875 0.96875
vt 0.046875 1
vt 0 1
vt 0 0.96875
vt 0.375 0.75
vt 0.375 1
vt 0 1
vt 0 0.75
vt 1 0
vt 1 1
vt 0 1
vt 0 0
vt 0 1
vt 0 1
vt 0 0
vt 0 0
vt 0 1
vt 0 1
vt 0 0
vt 0 0
vt 0 1
vt 0 1
vt 0 0.5
vt 0 0.5
vt 0 1
vt 0 1
vt 0 0.5
vt 0 0.5
vt 0 1
vt 0 1
vt 0 0.625
vt 0 0.625
vt 0 1
vt 0 1
vt 0 0.625
vt 0 0.625
vt 0 1
vt 0 1
vt 0 0.75
vt 0 0.75
vt 0 1
vt 0 1
vt 0 0.75
vt 0 0.75
vn 2.220446049250313e-16 0 -1
vn -2.220446049250313e-16 0 1
vn 0 1 0
vn 0 -1 0
vn 1 0 2.220446049250313e-16
vn -1 0 -2.220446049250313e-16
vn 2.220446049250313e-16 0 -1
vn -2.220446049250313e-16 0 1
vn 0 1 0
vn 0 -1 0
vn 1 0 2.220446049250313e-16
vn -1 0 -2.220446049250313e-16
vn 2.220446049250313e-16 0 -1
vn -2.220446049250313e-16 0 1
vn 0 1 0
vn 0 -1 0
vn 1 0 2.220446049250313e-16
vn -1 0 -2.220446049250313e-16
vn 2.220446049250313e-16 0 -1
vn -2.220446049250313e-16 0 1
vn 0 1 0
vn 0 -1 0
vn 1 0 2.220446049250313e-16
vn -1 0 -2.220446049250313e-16
vn 2.220446049250313e-16 0 -1
vn -2.220446049250313e-16 0 1
vn 0 1 0
vn 0 -1 0
vn 1 0 2.220446049250313e-16
vn -1 0 -2.220446049250313e-16
vn 2.220446049250313e-16 0 -1
vn -2.220446049250313e-16 0 1
vn 0 1 0
vn 0 -1 0
vn 1 0 2.220446049250313e-16
vn -1 0 -2.220446049250313e-16
vn 2.220446049250313e-16 0 -1
vn -2.220446049250313e-16 0 1
vn 2.220446049250313e-16 0 -1
vn -2.220446049250313e-16 0 1
vn 0 1 0
vn 0 -1 0
vn 1 0 2.220446049250313e-16
vn -1 0 -2.220446049250313e-16
vn 2.220446049250313e-16 0 -1
vn -2.220446049250313e-16 0 1
vn 0 1 0
vn 0 -1 0
vn 1 0 2.220446049250313e-16
vn -1 0 -2.220446049250313e-16
vn 1.922959686659554e-16 -0.5000023399164262 -0.8660240528288453
vn -1.9229596866595542e-16 0.5000023399164261 0.8660240528288454
vn 1.1102234128564742e-16 0.8660253028382761 -0.5000001748438417
vn -1.1102234128564742e-16 -0.8660253028382761 0.5000001748438417
vn 1 0 2.220446049250313e-16
vn -1 0 -2.220446049250313e-16
vn 1.922959686659554e-16 -0.5000023399164262 -0.8660240528288453
vn -1.9229596866595542e-16 0.5000023399164261 0.8660240528288454
vn 1.1102234128564742e-16 0.8660253028382761 -0.5000001748438417
vn -1.1102234128564742e-16 -0.8660253028382761 0.5000001748438417
vn 1 0 2.220446049250313e-16
vn -1 0 -2.220446049250313e-16
vn 1.922959686659554e-16 -0.5000023399164262 -0.8660240528288453
vn -1.922959686659554e-16 0.500002339916426 0.8660240528288453
vn 1.1102218103885622e-16 0.8660257195044777 -0.4999994531564526
vn -1.1102218103885623e-16 -0.8660257195044777 0.49999945315645267
vn 1 0 2.220446049250313e-16
vn -1 0 -2.220446049250313e-16
vn 2.220446049250313e-16 0 -1
vn -2.220446049250313e-16 0 1
vn 0 0 0
vn 0 0 0
vn 0 0 0
vn 0 0 0
vn 0 0 0
vn 0 0 0
vn 0 0 0
vn 0 0 0
usemtl m_cc4cbd32-c453-a4c6-e794-5e5fa231e7f1
f 12/25/7 10/26/7 9/27/7
f 12/25/7 9/27/7 11/28/7
usemtl m_f59e3bac-8fcc-890c-63e5-9d78c1a9e541
f 15/29/8 13/30/8 14/31/8
f 15/29/8 14/31/8 16/32/8
usemtl m_cc4cbd32-c453-a4c6-e794-5e5fa231e7f1
f 9/33/9 10/34/9 14/35/9
f 9/33/9 14/35/9 13/36/9
f 12/37/10 11/38/10 15/39/10
f 12/37/10 15/39/10 16/40/10
f 11/41/11 9/42/11 13/43/11
f 11/41/11 13/43/11 15/44/11
f 16/45/12 14/46/12 10/47/12
f 16/45/12 10/47/12 12/48/12
f 20/49/13 18/50/13 17/51/13
f 20/49/13 17/51/13 19/52/13
usemtl m_95e20f84-55bb-7186-f91a-586499bd637e
f 23/53/14 21/54/14 22/55/14
f 23/53/14 22/55/14 24/56/14
usemtl m_cc4cbd32-c453-a4c6-e794-5e5fa231e7f1
f 17/57/15 18/58/15 22/59/15
f 17/57/15 22/59/15 21/60/15
f 20/61/16 19/62/16 23/63/16
f 20/61/16 23/63/16 24/64/16
f 19/65/17 17/66/17 21/67/17
f 19/65/17 21/67/17 23/68/17
f 24/69/18 22/70/18 18/71/18
f 24/69/18 18/71/18 20/72/18
f 28/73/19 26/74/19 25/75/19
f 28/73/19 25/75/19 27/76/19
usemtl m_95e20f84-55bb-7186-f91a-586499bd637e
f 31/77/20 29/78/20 30/79/20
f 31/77/20 30/79/20 32/80/20
usemtl m_cc4cbd32-c453-a4c6-e794-5e5fa231e7f1
f 25/81/21 26/82/21 30/83/21
f 25/81/21 30/83/21 29/84/21
f 28/85/22 27/86/22 31/87/22
f 28/85/22 31/87/22 32/88/22
f 27/89/23 25/90/23 29/91/23
f 27/89/23 29/91/23 31/92/23
f 32/93/24 30/94/24 26/95/24
f 32/93/24 26/95/24 28/96/24
f 78/97/25 34/98/25 33/99/25
f 78/97/25 33/99/25 77/100/25
f 79/101/26 35/102/26 36/103/26
f 79/101/26 36/103/26 80/104/26
f 33/105/27 34/106/27 36/107/27
f 33/105/27 36/107/27 35/108/27
f 78/109/28 77/110/28 79/111/28
f 78/109/28 79/111/28 80/112/28
f 77/113/29 33/114/29 35/115/29
f 77/113/29 35/115/29 79/116/29
f 80/117/30 36/118/30 34/119/30
f 80/117/30 34/119/30 78/120/30
f 82/121/31 81/122/31 37/123/31
f 82/121/31 37/123/31 38/124/31
usemtl m_95e20f84-55bb-7186-f91a-586499bd637e
f 40/125/32 39/126/32 83/127/32
f 40/125/32 83/127/32 84/128/32
usemtl m_cc4cbd32-c453-a4c6-e794-5e5fa231e7f1
f 37/129/33 81/130/33 83/131/33
f 37/129/33 83/131/33 39/132/33
f 82/133/34 38/134/34 40/135/34
f 82/133/34 40/135/34 84/136/34
f 38/137/35 37/138/35 39/139/35
f 38/137/35 39/139/35 40/140/35
f 84/141/36 83/142/36 81/143/36
f 84/141/36 81/143/36 82/144/36
f 42/145/37 41/146/37 85/147/37
f 42/145/37 85/147/37 86/148/37
usemtl m_95e20f84-55bb-7186-f91a-586499bd637e
f 88/149/38 87/150/38 43/151/38
f 88/149/38 43/151/38 44/152/38
usemtl m_cc4cbd32-c453-a4c6-e794-5e5fa231e7f1
f 85/153/39 41/154/39 43/155/39
f 85/153/39 43/155/39 87/156/39
f 42/157/40 86/158/40 88/159/40
f 42/157/40 88/159/40 44/160/40
f 86/161/41 85/162/41 87/163/41
f 86/161/41 87/163/41 88/164/41
f 44/165/42 43/166/42 41/167/42
f 44/165/42 41/167/42 42/168/42
f 48/169/43 46/170/43 45/171/43
f 48/169/43 45/171/43 47/172/43
usemtl m_f59e3bac-8fcc-890c-63e5-9d78c1a9e541
f 91/173/44 89/174/44 90/175/44
f 91/173/44 90/175/44 92/176/44
usemtl m_cc4cbd32-c453-a4c6-e794-5e5fa231e7f1
f 94/177/45 93/178/45 49/179/45
f 94/177/45 49/179/45 50/180/45
usemtl m_f59e3bac-8fcc-890c-63e5-9d78c1a9e541
f 97/181/46 95/182/46 96/183/46
f 97/181/46 96/183/46 98/184/46
usemtl m_cc4cbd32-c453-a4c6-e794-5e5fa231e7f1
f 49/185/47 93/186/47 96/187/47
f 49/185/47 96/187/47 95/188/47
f 94/189/48 50/190/48 97/191/48
f 94/189/48 97/191/48 98/192/48
f 50/193/49 49/194/49 95/195/49
f 50/193/49 95/195/49 97/196/49
f 98/197/50 96/198/50 93/199/50
f 98/197/50 93/199/50 94/200/50
f 52/201/51 51/202/51 99/203/51
f 52/201/51 99/203/51 100/204/51
usemtl m_f59e3bac-8fcc-890c-63e5-9d78c1a9e541
f 103/205/52 101/206/52 102/207/52
f 103/205/52 102/207/52 104/208/52
usemtl m_cc4cbd32-c453-a4c6-e794-5e5fa231e7f1
f 99/209/53 51/210/53 102/211/53
f 99/209/53 102/211/53 101/212/53
f 52/213/54 100/214/54 103/215/54
f 52/213/54 103/215/54 104/216/54
f 100/217/55 99/218/55 101/219/55
f 100/217/55 101/219/55 103/220/55
f 104/221/56 102/222/56 51/223/56
f 104/221/56 51/223/56 52/224/56
f 56/225/57 54/226/57 53/227/57
f 56/225/57 53/227/57 55/228/57
f 59/229/58 57/230/58 58/231/58
f 59/229/58 58/231/58 60/232/58
f 53/233/59 54/234/59 58/235/59
f 53/233/59 58/235/59 57/236/59
f 56/237/60 55/238/60 59/239/60
f 56/237/60 59/239/60 60/240/60
f 55/241/61 53/242/61 57/243/61
f 55/241/61 57/243/61 59/244/61
f 60/245/62 58/246/62 54/247/62
f 60/245/62 54/247/62 56/248/62
f 64/249/63 62/250/63 61/251/63
f 64/249/63 61/251/63 63/252/63
f 67/253/64 65/254/64 66/255/64
f 67/253/64 66/255/64 68/256/64
f 61/257/65 62/258/65 66/259/65
f 61/257/65 66/259/65 65/260/65
f 64/261/66 63/262/66 67/263/66
f 64/261/66 67/263/66 68/264/66
f 63/265/67 61/266/67 65/267/67
f 63/265/67 65/267/67 67/268/67
f 68/269/68 66/270/68 62/271/68
f 68/269/68 62/271/68 64/272/68
usemtl m_f59e3bac-8fcc-890c-63e5-9d78c1a9e541
f 108/273/69 106/274/69 105/275/69
f 108/273/69 105/275/69 107/276/69
f 71/277/70 69/278/70 70/279/70
f 71/277/70 70/279/70 72/280/70
f 105/281/71 106/282/71 70/283/71
f 105/281/71 70/283/71 69/284/71
f 108/285/72 107/286/72 71/287/72
f 108/285/72 71/287/72 72/288/72
f 107/289/73 105/290/73 69/291/73
f 107/289/73 69/291/73 71/292/73
f 72/293/74 70/294/74 106/295/74
f 72/293/74 106/295/74 108/296/74
f 76/297/75 74/298/75 73/299/75
f 76/297/75 73/299/75 75/300/75
usemtl m_aa934bf0-9db6-52d1-562f-c6f1a255b966
f 111/301/76 109/302/76 110/303/76
f 111/301/76 110/303/76 112/304/76
usemtl m_cc4cbd32-c453-a4c6-e794-5e5fa231e7f1
f 46/305/77 90/306/77 45/307/77
f 46/305/77 45/307/77 89/308/77
f 47/309/78 91/310/78 48/311/78
f 47/309/78 48/311/78 92/312/78
f 45/313/79 89/314/79 47/315/79
f 45/313/79 47/315/79 91/316/79
f 90/317/80 46/318/80 92/319/80
f 90/317/80 92/319/80 48/320/80
usemtl none
f 74/321/81 110/322/81 73/323/81
f 74/321/81 73/323/81 109/324/81
f 75/325/82 111/326/82 76/327/82
f 75/325/82 76/327/82 112/328/82
f 73/329/83 109/330/83 75/331/83
f 73/329/83 75/331/83 111/332/83
f 110/333/84 74/334/84 112/335/84
f 110/333/84 112/335/84 76/336/84
o main_right
v -1.109375 1.578125 0.06250000000000006
v -1.140625 1.578125 0.06250000000000006
v -1.109375 1.5 0.06250000000000006
v -1.140625 1.5 0.06250000000000006
v -1.109375 1.578125 0.07812500000000006
v -1.140625 1.578125 0.07812500000000006
v -1.109375 1.5 0.07812500000000006
v -1.140625 1.5 0.07812500000000006
v 0.5 1.640625 4.128641872824801e-16
v 0.1875 1.640625 3.434752482434078e-16
v 0.5 0 4.128641872824801e-16
v 0.1875 0 3.434752482434078e-16
v 0.5 1.640625 0.06250000000000042
v 0.1875 1.640625 0.06250000000000035
v 0.5 0 0.06250000000000042
v 0.1875 0 0.06250000000000035
v -1.0621875 1.64125 -0.00031249999999993436
v -1.1878125 1.64125 -0.0003124999999999621
v -1.0621875 -0.0006250000000000006 -0.00031249999999993436
v -1.1878125 -0.0006250000000000006 -0.0003124999999999621
v -1.0621875 1.64125 0.06281250000000008
v -1.1878125 1.64125 0.06281250000000003
v -1.0621875 -0.0006250000000000006 0.06281250000000008
v -1.1878125 -0.0006250000000000006 0.06281250000000003
vt 0.03125 0.921875
vt 0.03125 1
vt 0 1
vt 0 0.921875
vt 0.03125 0.921875
vt 0.03125 1
vt 0 1
vt 0 0.921875
vt 0.015625 0.96875
vt 0.015625 1
vt 0 1
vt 0 0.96875
vt 0.015625 0.96875
vt 0.015625 1
vt 0 1
vt 0 0.96875
vt 0.015625 0.921875
vt 0.015625 1
vt 0 1
vt 0 0.921875
vt 0.015625 0.921875
vt 0.015625 1
vt 0 1
vt 0 0.921875
vt 0.3125 0
vt 0.3125 1
vt 0 1
vt 0 0
vt 0.3125 0
vt 0.3125 1
vt 0 1
vt 0 0
vt 0.0625 0.6875
vt 0.0625 1
vt 0 1
vt 0 0.6875
vt 0.0625 0.6875
vt 0.0625 1
vt 0 1
vt 0 0.6875
vt 0.0625 0
vt 0.0625 1
vt 0 1
vt 0 0
vt 0.0625 0
vt 0.0625 1
vt 0 1
vt 0 0
vt 0.125 0
vt 0.125 1
vt 0 1
vt 0 0
vt 0.125 0
vt 0.125 1
vt 0 1
vt 0 0
vt 0.0625 0.875
vt 0.0625 1
vt 0 1
vt 0 0.875
vt 0.0625 0.875
vt 0.0625 1
vt 0 1
vt 0 0.875
vt 0.0625 0
vt 0.0625 1
vt 0 1
vt 0 0
vt 0.0625 0
vt 0.0625 1
vt 0 1
vt 0 0
vn 2.220446049250313e-16 0 -1
vn -2.220446049250313e-16 0 1
vn 0 1 0
vn 0 -1 0
vn 1 0 2.220446049250313e-16
vn -1 0 -2.220446049250313e-16
vn 2.220446049250313e-16 0 -1
vn -2.220446049250313e-16 0 1
vn 0 1 0
vn 0 -1 0
vn 1 0 2.220446049250313e-16
vn -1 0 -2.220446049250313e-16
vn 2.220446049250313e-16 0 -1
vn -2.220446049250313e-16 0 1
vn 0 1 0
vn 0 -1 0
vn 1 0 2.220446049250313e-16
vn -1 0 -2.220446049250313e-16
usemtl m_c4e970a6-7e7d-3bdf-035e-10403ac06252
f 116/337/85 114/338/85 113/339/85
f 116/337/85 113/339/85 115/340/85
f 119/341/86 117/342/86 118/343/86
f 119/341/86 118/343/86 120/344/86
f 113/345/87 114/346/87 118/347/87
f 113/345/87 118/347/87 117/348/87
f 116/349/88 115/350/88 119/351/88
f 116/349/88 119/351/88 120/352/88
f 115/353/89 113/354/89 117/355/89
f 115/353/89 117/355/89 119/356/89
f 120/357/90 118/358/90 114/359/90
f 120/357/90 114/359/90 116/360/90
usemtl m_cc4cbd32-c453-a4c6-e794-5e5fa231e7f1
f 124/361/91 122/362/91 121/363/91
f 124/361/91 121/363/91 123/364/91
f 127/365/92 125/366/92 126/367/92
f 127/365/92 126/367/92 128/368/92
f 121/369/93 122/370/93 126/371/93
f 121/369/93 126/371/93 125/372/93
f 124/373/94 123/374/94 127/375/94
f 124/373/94 127/375/94 128/376/94
f 123/377/95 121/378/95 125/379/95
f 123/377/95 125/379/95 127/380/95
f 128/381/96 126/382/96 122/383/96
f 128/381/96 122/383/96 124/384/96
f 132/385/97 130/386/97 129/387/97
f 132/385/97 129/387/97 131/388/97
f 135/389/98 133/390/98 134/391/98
f 135/389/98 134/391/98 136/392/98
f 129/393/99 130/394/99 134/395/99
f 129/393/99 134/395/99 133/396/99
f 132/397/100 131/398/100 135/399/100
f 132/397/100 135/399/100 136/400/100
f 131/401/101 129/402/101 133/403/101
f 131/401/101 133/403/101 135/404/101
f 136/405/102 134/406/102 130/407/102
f 136/405/102 130/407/102 132/408/102
o dlon_left
v 1.1090625 1.5784375 0.0784375
v 1.1409375 1.5784375 0.07843749999999998
v 1.1090625 1.4996875 0.0784375
v 1.1409375 1.4996875 0.07843749999999998
v 1.1409375 1.5784375 0.06275000000000014
v 1.1090625 1.5784375 0.06275000000000014
v 1.1409375 1.4996875 0.06275000000000014
v 1.1090625 1.4996875 0.06275000000000014
vt 0.0156875 1
vt 0 1
vt 0 0.92125
vt 0.0156875 0.92125
vt 0.031875 1
vt 0 1
vt 0 0.92125
vt 0.031875 0.92125
vt 0.0156875 1
vt 0 1
vt 0 0.92125
vt 0.0156875 0.92125
vt 0.031875 1
vt 0 1
vt 0 0.92125
vt 0.031875 0.92125
vt 0.0156875 1
vt 0 1
vt 0 0.968125
vt 0.0156875 0.968125
vt 0.0156875 1
vt 0 1
vt 0 0.968125
vt 0.0156875 0.968125
vn 1 0 -2.220446049250313e-16
vn 2.220446049250313e-16 0 1
vn -1 0 2.220446049250313e-16
vn -2.220446049250313e-16 0 -1
vn 0 1 0
vn 0 -1 0
usemtl m_87294750-3762-bbfb-a8d7-e9979ff4a36d#light
f 143/411/103 141/410/103 138/409/103
f 140/412/103 143/411/103 138/409/103
f 140/415/104 138/414/104 137/413/104
f 139/416/104 140/415/104 137/413/104
f 139/419/105 137/418/105 142/417/105
f 144/420/105 139/419/105 142/417/105
f 144/423/106 142/422/106 141/421/106
f 143/424/106 144/423/106 141/421/106
f 137/427/107 138/426/107 141/425/107
f 142/428/107 137/427/107 141/425/107
f 140/431/108 139/430/108 144/429/108
f 143/432/108 140/431/108 144/429/108
o main_left
v 1.109375 1.578125 0.06250000000000006
v 1.140625 1.578125 0.06250000000000006
v 1.109375 1.5 0.06250000000000006
v 1.140625 1.5 0.06250000000000006
v 1.109375 1.578125 0.07812500000000006
v 1.140625 1.578125 0.07812500000000006
v 1.109375 1.5 0.07812500000000006
v 1.140625 1.5 0.07812500000000006
v -0.5 1.640625 4.128641872824801e-16
v -0.1875 1.640625 3.434752482434078e-16
v -0.5 0 4.128641872824801e-16
v -0.1875 0 3.434752482434078e-16
v -0.5 1.640625 0.06250000000000042
v -0.1875 1.640625 0.06250000000000035
v -0.5 0 0.06250000000000042
v -0.1875 0 0.06250000000000035
v 1.0621875 1.64125 -0.00031249999999993436
v 1.1878125 1.64125 -0.0003124999999999621
v 1.0621875 -0.0006250000000000006 -0.00031249999999993436
v 1.1878125 -0.0006250000000000006 -0.0003124999999999621
v 1.0621875 1.64125 0.06281250000000008
v 1.1878125 1.64125 0.06281250000000003
v 1.0621875 -0.0006250000000000006 0.06281250000000008
v 1.1878125 -0.0006250000000000006 0.06281250000000003
vt 0 1
vt 0.03125 1
vt 0.03125 0.921875
vt 0 0.921875
vt 0 1
vt 0.03125 1
vt 0.03125 0.921875
vt 0 0.921875
vt 0 1
vt 0.015625 1
vt 0.015625 0.96875
vt 0 0.96875
vt 0 1
vt 0.015625 1
vt 0.015625 0.96875
vt 0 0.96875
vt 0 1
vt 0.015625 1
vt 0.015625 0.921875
vt 0 0.921875
vt 0 1
vt 0.015625 1
vt 0.015625 0.921875
vt 0 0.921875
vt 0 1
vt 0.3125 1
vt 0.3125 0
vt 0 0
vt 0 1
vt 0.3125 1
vt 0.3125 0
vt 0 0
vt 0 1
vt 0.0625 1
vt 0.0625 0.6875
vt 0 0.6875
vt 0 1
vt 0.0625 1
vt 0.0625 0.6875
vt 0 0.6875
vt 0 1
vt 0.0625 1
vt 0.0625 0
vt 0 0
vt 0 1
vt 0.0625 1
vt 0.0625 0
vt 0 0
vt 0 1
vt 0.125 1
vt 0.125 0
vt 0 0
vt 0 1
vt 0.125 1
vt 0.125 0
vt 0 0
vt 0 1
vt 0.0625 1
vt 0.0625 0.875
vt 0 0.875
vt 0 1
vt 0.0625 1
vt 0.0625 0.875
vt 0 0.875
vt 0 1
vt 0.0625 1
vt 0.0625 0
vt 0 0
vt 0 1
vt 0.0625 1
vt 0.0625 0
vt 0 0
vn -2.220446049250313e-16 0 -1
vn 2.220446049250313e-16 0 1
vn 0 1 0
vn 0 -1 0
vn -1 0 2.220446049250313e-16
vn 1 0 -2.220446049250313e-16
vn -2.220446049250313e-16 0 -1
vn 2.220446049250313e-16 0 1
vn 0 1 0
vn 0 -1 0
vn -1 0 2.220446049250313e-16
vn 1 0 -2.220446049250313e-16
vn -2.220446049250313e-16 0 -1
vn 2.220446049250313e-16 0 1
vn 0 1 0
vn 0 -1 0
vn -1 0 2.220446049250313e-16
vn 1 0 -2.220446049250313e-16
usemtl m_c4e970a6-7e7d-3bdf-035e-10403ac06252
f 145/433/109 146/434/109 148/435/109
f 145/433/109 148/435/109 147/436/109
f 150/437/110 149/438/110 151/439/110
f 150/437/110 151/439/110 152/440/110
f 150/441/111 146/442/111 145/443/111
f 150/441/111 145/443/111 149/444/111
f 151/445/112 147/446/112 148/447/112
f 151/445/112 148/447/112 152/448/112
f 149/449/113 145/450/113 147/451/113
f 149/449/113 147/451/113 151/452/113
f 146/453/114 150/454/114 152/455/114
f 146/453/114 152/455/114 148/456/114
usemtl m_cc4cbd32-c453-a4c6-e794-5e5fa231e7f1
f 153/457/115 154/458/115 156/459/115
f 153/457/115 156/459/115 155/460/115
f 158/461/116 157/462/116 159/463/116
f 158/461/116 159/463/116 160/464/116
f 158/465/117 154/466/117 153/467/117
f 158/465/117 153/467/117 157/468/117
f 159/469/118 155/470/118 156/471/118
f 159/469/118 156/471/118 160/472/118
f 157/473/119 153/474/119 155/475/119
f 157/473/119 155/475/119 159/476/119
f 154/477/120 158/478/120 160/479/120
f 154/477/120 160/479/120 156/480/120
f 161/481/121 162/482/121 164/483/121
f 161/481/121 164/483/121 163/484/121
f 166/485/122 165/486/122 167/487/122
f 166/485/122 167/487/122 168/488/122
f 166/489/123 162/490/123 161/491/123
f 166/489/123 161/491/123 165/492/123
f 167/493/124 163/494/124 164/495/124
f 167/493/124 164/495/124 168/496/124
f 165/497/125 161/498/125 163/499/125
f 165/497/125 163/499/125 167/500/125
f 162/501/126 166/502/126 168/503/126
f 162/501/126 168/503/126 164/504/126
o door_left
v 1.0625 0.125 2.636779683484747e-16
v -0.1875 0.125 -1.3877787807814457e-17
v 1.0625 0 2.636779683484747e-16
v -0.1875 0 -1.3877787807814457e-17
v 1.0625 0.125 0.06250000000000026
v -0.1875 0.125 0.062499999999999986
v 1.0625 0 0.06250000000000026
v -0.1875 0 0.062499999999999986
v 1.0625 0.6875 2.636779683484747e-16
v -0.1875 0.6875 -1.3877787807814457e-17
v 1.0625 0.625 2.636779683484747e-16
v -0.1875 0.625 -1.3877787807814457e-17
v 1.0625 0.6875 0.06250000000000026
v -0.1875 0.6875 0.062499999999999986
v 1.0625 0.625 0.06250000000000026
v -0.1875 0.625 0.062499999999999986
v 1.0625 1.625 2.636779683484747e-16
v -0.1875 1.625 -1.3877787807814457e-17
v 1.0625 1.5625 2.636779683484747e-16
v -0.1875 1.5625 -1.3877787807814457e-17
v 1.0625 1.625 0.06250000000000026
v -0.1875 1.625 0.062499999999999986
v 1.0625 1.5625 0.06250000000000026
v -0.1875 1.5625 0.062499999999999986
v 1.0625 1.640625 2.636779683484747e-16
v -0.1875 1.640625 -1.3877787807814457e-17
v 1.0625 1.640625 0.06250000000000026
v -0.1875 1.640625 0.062499999999999986
v -0.125 1.5625 0
v -0.125 0.6875 0
v -0.125 1.5625 0.0625
v -0.125 0.6875 0.0625
v 1 1.5625 2.498001805406602e-16
v 1 0.6875 2.498001805406602e-16
v 1 1.5625 0.06250000000000025
v 1 0.6875 0.06250000000000025
v 1 0.625 0.06250000000000025
v -0.125 0.625 0.0625
v 1 0.125 0.06250000000000025
v -0.125 0.125 0.0625
v -0.125 0.625 0
v -0.125 0.125 0
v 1 0.625 2.498001805406602e-16
v 1 0.125 2.498001805406602e-16
v -0.12499999999999999 1.03125 -0.077003125
v -0.15624999999999997 1.03125 -0.077003125
v -0.12499999999999999 1.004186875 -0.061378125
v -0.15625 1.004186875 -0.061378125000000006
v -0.125 1.09375 0.03125
v -0.15625 1.09375 0.031249999999999993
v -0.125 1.066686875 0.046875
v -0.15625 1.066686875 0.04687499999999999
v 1.03125 1.03125 -0.07700312499999976
v 1 1.03125 -0.07700312499999976
v 1.03125 1.004186875 -0.06137812499999974
v 1 1.004186875 -0.06137812499999975
v 1.03125 1.09375 0.03125000000000026
v 1 1.09375 0.03125000000000025
v 1.03125 1.066686875 0.04687500000000026
v 1 1.066686875 0.04687500000000025
v 1 1.0546875 -0.03640812499999975
v -0.12499999999999999 1.0546875 -0.036408125
v 1 1.027624375 -0.02078312499999975
v -0.125 1.027624375 -0.020783125
v 0.625 1.4375 0.05000000000000017
v 0.25 1.4375 0.050000000000000086
v 0.625 1.1875 0.05000000000000017
v 0.25 1.1875 0.050000000000000086
v 1.0625 1.625 2.636779683484747e-16
v -0.1875 1.625 -1.3877787807814457e-17
v 1.0625 1.625 0.06250000000000026
v -0.1875 1.625 0.062499999999999986
v -0.1875 1.5625 -1.3877787807814457e-17
v -0.1875 0.6875 -1.3877787807814457e-17
v -0.1875 1.5625 0.062499999999999986
v -0.1875 0.6875 0.062499999999999986
v 1.0625 1.5625 2.636779683484747e-16
v 1.0625 0.6875 2.636779683484747e-16
v 1.0625 1.5625 0.06250000000000026
v 1.0625 0.6875 0.06250000000000026
v 1 0.625 0.06250000000000025
v -0.125 0.625 0.0625
v 1 0.125 0.06250000000000025
v -0.125 0.125 0.0625
v -0.1875 0.625 -1.3877787807814457e-17
v -0.1875 0.125 -1.3877787807814457e-17
v -0.125 0.625 0.0625
v -0.1875 0.625 0.062499999999999986
v -0.125 0.125 0.0625
v -0.1875 0.125 0.062499999999999986
v 1.0625 0.625 2.636779683484747e-16
v 1.0625 0.125 2.636779683484747e-16
v 1.0625 0.625 0.06250000000000026
v 1 0.625 0.06250000000000025
v 1.0625 0.125 0.06250000000000026
v 1 0.125 0.06250000000000025
v 1 1.03125 -0.07700312499999976
v -0.12499999999999999 1.03125 -0.077003125
v 1 1.004186875 -0.06137812499999975
v -0.12499999999999999 1.004186875 -0.061378125
v 0.625 1.4375 0.05000000000000017
v 0.25 1.4375 0.050000000000000086
v 0.625 1.1875 0.05000000000000017
v 0.25 1.1875 0.050000000000000086
vt 1 0.875
vt 1 1
vt 0 1
vt 0 0.875
vt 1 0.875
vt 1 1
vt 0 1
vt 0 0.875
vt 0.0625 0
vt 0.0625 1
vt 0 1
vt 0 0
vt 0.0625 0
vt 0.0625 1
vt 0 1
vt 0 0
vt 0.0625 0.875
vt 0.0625 1
vt 0 1
vt 0 0.875
vt 0.0625 0.875
vt 0.0625 1
vt 0 1
vt 0 0.875
vt 1 0.9375
vt 1 1
vt 0 1
vt 0 0.9375
vt 1 0.9375
vt 1 1
vt 0 1
vt 0 0.9375
vt 0.0625 0
vt 0.0625 1
vt 0 1
vt 0 0
vt 0.0625 0
vt 0.0625 1
vt 0 1
vt 0 0
vt 0.0625 0.9375
vt 0.0625 1
vt 0 1
vt 0 0.9375
vt 0.0625 0.9375
vt 0.0625 1
vt 0 1
vt 0 0.9375
vt 1 0.9375
vt 1 1
vt 0 1
vt 0 0.9375
vt 1 0.9375
vt 1 1
vt 0 1
vt 0 0.9375
vt 0.0625 0
vt 0.0625 1
vt 0 1
vt 0 0
vt 0.0625 0
vt 0.0625 1
vt 0 1
vt 0 0
vt 0.0625 0.9375
vt 0.0625 1
vt 0 1
vt 0 0.9375
vt 0.0625 0.9375
vt 0.0625 1
vt 0 1
vt 0 0.9375
vt 1 0.984375
vt 1 1
vt 0 1
vt 0 0.984375
vt 1 0.984375
vt 1 1
vt 0 1
vt 0 0.984375
vt 0.0625 0
vt 0.0625 1
vt 0 1
vt 0 0
vt 0.0625 0
vt 0.0625 1
vt 0 1
vt 0 0
vt 0.0625 0.984375
vt 0.0625 1
vt 0 1
vt 0 0.984375
vt 0.0625 0.984375
vt 0.0625 1
vt 0 1
vt 0 0.984375
vt 0.0625 0.125
vt 0.0625 1
vt 0 1
vt 0 0.125
vt 0.0625 0.125
vt 0.0625 1
vt 0 1
vt 0 0.125
vt 0.0625 0.9375
vt 0.0625 1
vt 0 1
vt 0 0.9375
vt 0.0625 0.9375
vt 0.0625 1
vt 0 1
vt 0 0.9375
vt 0.0625 0.125
vt 0.0625 1
vt 0 1
vt 0 0.125
vt 0.0625 0.125
vt 0.0625 1
vt 0 1
vt 0 0.125
vt 0.0625 0.125
vt 0.0625 1
vt 0 1
vt 0 0.125
vt 0.0625 0.125
vt 0.0625 1
vt 0 1
vt 0 0.125
vt 0.0625 0.9375
vt 0.0625 1
vt 0 1
vt 0 0.9375
vt 0.0625 0.9375
vt 0.0625 1
vt 0 1
vt 0 0.9375
vt 0.0625 0.125
vt 0.0625 1
vt 0 1
vt 0 0.125
vt 0.0625 0.125
vt 0.0625 1
vt 0 1
vt 0 0.125
vt 1 0.5
vt 1 1
vt 0 1
vt 0 0.5
vt 1 0.5
vt 1 1
vt 0 1
vt 0 0.5
vt 0.0625 0.5
vt 0.0625 1
vt 0 1
vt 0 0.5
vt 0.0625 0.5
vt 0.0625 1
vt 0 1
vt 0 0.5
vt 0.0625 0.9375
vt 0.0625 1
vt 0 1
vt 0 0.9375
vt 0.0625 0.9375
vt 0.0625 1
vt 0 1
vt 0 0.9375
vt 0.0625 0.5
vt 0.0625 1
vt 0 1
vt 0 0.5
vt 0.0625 0.5
vt 0.0625 1
vt 0 1
vt 0 0.5
vt 0.0625 0.5
vt 0.0625 1
vt 0 1
vt 0 0.5
vt 0.0625 0.5
vt 0.0625 1
vt 0 1
vt 0 0.5
vt 0.0625 0.9375
vt 0.0625 1
vt 0 1
vt 0 0.9375
vt 0.0625 0.9375
vt 0.0625 1
vt 0 1
vt 0 0.9375
vt 0.0625 0.5
vt 0.0625 1
vt 0 1
vt 0 0.5
vt 0.0625 0.5
vt 0.0625 1
vt 0 1
vt 0 0.5
vt 0.03125 0.96875
vt 0.03125 1
vt 0 1
vt 0 0.96875
vt 0.03125 0.96875
vt 0.03125 1
vt 0 1
vt 0 0.96875
vt 0.125 0.96875
vt 0.125 1
vt 0 1
vt 0 0.96875
vt 0.125 0.96875
vt 0.125 1
vt 0 1
vt 0 0.96875
vt 0.125 0.96875
vt 0.125 1
vt 0 1
vt 0 0.96875
vt 0.125 0.96875
vt 0.125 1
vt 0 1
vt 0 0.96875
vt 0.03125 0.96875
vt 0.03125 1
vt 0 1
vt 0 0.96875
vt 0.03125 0.96875
vt 0.03125 1
vt 0 1
vt 0 0.96875
vt 0.125 0.96875
vt 0.125 1
vt 0 1
vt 0 0.96875
vt 0.125 0.96875
vt 0.125 1
vt 0 1
vt 0 0.96875
vt 0.125 0.96875
vt 0.125 1
vt 0 1
vt 0 0.96875
vt 0.125 0.96875
vt 0.125 1
vt 0 1
vt 0 0.96875
vt 1 0.96875
vt 1 1
vt 0 1
vt 0 0.96875
vt 1 0.96875
vt 1 1
vt 0 1
vt 0 0.96875
vt 0.046875 0
vt 0.046875 1
vt 0 1
vt 0 0
vt 0.046875 0
vt 0.046875 1
vt 0 1
vt 0 0
vt 0.046875 0.96875
vt 0.046875 1
vt 0 1
vt 0 0.96875
vt 0.046875 0.96875
vt 0.046875 1
vt 0 1
vt 0 0.96875
vt 0.375 0.75
vt 0.375 1
vt 0 1
vt 0 0.75
vt 1 0
vt 1 1
vt 0 1
vt 0 0
vt 0 1
vt 0 1
vt 0 0
vt 0 0
vt 0 1
vt 0 1
vt 0 0
vt 0 0
vt 0 1
vt 0 1
vt 0 0.5
vt 0 0.5
vt 0 1
vt 0 1
vt 0 0.5
vt 0 0.5
vt 0 1
vt 0 1
vt 0 0.625
vt 0 0.625
vt 0 1
vt 0 1
vt 0 0.625
vt 0 0.625
vt 0 1
vt 0 1
vt 0 0.75
vt 0 0.75
vt 0 1
vt 0 1
vt 0 0.75
vt 0 0.75
vn 2.220446049250313e-16 0 -1
vn -2.220446049250313e-16 0 1
vn 0 1 0
vn 0 -1 0
vn 1 0 2.220446049250313e-16
vn -1 0 -2.220446049250313e-16
vn 2.220446049250313e-16 0 -1
vn -2.220446049250313e-16 0 1
vn 0 1 0
vn 0 -1 0
vn 1 0 2.220446049250313e-16
vn -1 0 -2.220446049250313e-16
vn 2.220446049250313e-16 0 -1
vn -2.220446049250313e-16 0 1
vn 0 1 0
vn 0 -1 0
vn 1 0 2.220446049250313e-16
vn -1 0 -2.220446049250313e-16
vn 2.220446049250313e-16 0 -1
vn -2.220446049250313e-16 0 1
vn 0 1 0
vn 0 -1 0
vn 1 0 2.220446049250313e-16
vn -1 0 -2.220446049250313e-16
vn 2.220446049250313e-16 0 -1
vn -2.220446049250313e-16 0 1
vn 0 1 0
vn 0 -1 0
vn 1 0 2.220446049250313e-16
vn -1 0 -2.220446049250313e-16
vn 2.220446049250313e-16 0 -1
vn -2.220446049250313e-16 0 1
vn 0 1 0
vn 0 -1 0
vn 1 0 2.220446049250313e-16
vn -1 0 -2.220446049250313e-16
vn 2.220446049250313e-16 0 -1
vn -2.220446049250313e-16 0 1
vn 2.220446049250313e-16 0 -1
vn -2.220446049250313e-16 0 1
vn 0 1 0
vn 0 -1 0
vn 1 0 2.220446049250313e-16
vn -1 0 -2.220446049250313e-16
vn 2.220446049250313e-16 0 -1
vn -2.220446049250313e-16 0 1
vn 0 1 0
vn 0 -1 0
vn 1 0 2.220446049250313e-16
vn -1 0 -2.220446049250313e-16
vn 1.922959686659554e-16 -0.5000023399164262 -0.8660240528288453
vn -1.9229596866595542e-16 0.5000023399164261 0.8660240528288454
vn 1.1102234128564742e-16 0.8660253028382761 -0.5000001748438417
vn -1.1102234128564742e-16 -0.8660253028382761 0.5000001748438417
vn 1 0 2.220446049250313e-16
vn -1 0 -2.220446049250313e-16
vn 1.922959686659554e-16 -0.5000023399164262 -0.8660240528288453
vn -1.9229596866595542e-16 0.5000023399164261 0.8660240528288454
vn 1.1102234128564742e-16 0.8660253028382761 -0.5000001748438417
vn -1.1102234128564742e-16 -0.8660253028382761 0.5000001748438417
vn 1 0 2.220446049250313e-16
vn -1 0 -2.220446049250313e-16
vn 1.922959686659554e-16 -0.5000023399164262 -0.8660240528288453
vn -1.922959686659554e-16 0.500002339916426 0.8660240528288453
vn 1.1102218103885622e-16 0.8660257195044777 -0.4999994531564526
vn -1.1102218103885623e-16 -0.8660257195044777 0.49999945315645267
vn 1 0 2.220446049250313e-16
vn -1 0 -2.220446049250313e-16
vn 2.220446049250313e-16 0 -1
vn -2.220446049250313e-16 0 1
vn 0 0 0
vn 0 0 0
vn 0 0 0
vn 0 0 0
vn 0 0 0
vn 0 0 0
vn 0 0 0
vn 0 0 0
usemtl m_cc4cbd32-c453-a4c6-e794-5e5fa231e7f1
f 172/505/127 170/506/127 169/507/127
f 172/505/127 169/507/127 171/508/127
usemtl m_f59e3bac-8fcc-890c-63e5-9d78c1a9e541
f 175/509/128 173/510/128 174/511/128
f 175/509/128 174/511/128 176/512/128
usemtl m_cc4cbd32-c453-a4c6-e794-5e5fa231e7f1
f 169/513/129 170/514/129 174/515/129
f 169/513/129 174/515/129 173/516/129
f 172/517/130 171/518/130 175/519/130
f 172/517/130 175/519/130 176/520/130
f 171/521/131 169/522/131 173/523/131
f 171/521/131 173/523/131 175/524/131
f 176/525/132 174/526/132 170/527/132
f 176/525/132 170/527/132 172/528/132
f 180/529/133 178/530/133 177/531/133
f 180/529/133 177/531/133 179/532/133
usemtl m_95e20f84-55bb-7186-f91a-586499bd637e
f 183/533/134 181/534/134 182/535/134
f 183/533/134 182/535/134 184/536/134
usemtl m_cc4cbd32-c453-a4c6-e794-5e5fa231e7f1
f 177/537/135 178/538/135 182/539/135
f 177/537/135 182/539/135 181/540/135
f 180/541/136 179/542/136 183/543/136
f 180/541/136 183/543/136 184/544/136
f 179/545/137 177/546/137 181/547/137
f 179/545/137 181/547/137 183/548/137
f 184/549/138 182/550/138 178/551/138
f 184/549/138 178/551/138 180/552/138
f 188/553/139 186/554/139 185/555/139
f 188/553/139 185/555/139 187/556/139
usemtl m_95e20f84-55bb-7186-f91a-586499bd637e
f 191/557/140 189/558/140 190/559/140
f 191/557/140 190/559/140 192/560/140
usemtl m_cc4cbd32-c453-a4c6-e794-5e5fa231e7f1
f 185/561/141 186/562/141 190/563/141
f 185/561/141 190/563/141 189/564/141
f 188/565/142 187/566/142 191/567/142
f 188/565/142 191/567/142 192/568/142
f 187/569/143 185/570/143 189/571/143
f 187/569/143 189/571/143 191/572/143
f 192/573/144 190/574/144 186/575/144
f 192/573/144 186/575/144 188/576/144
f 238/577/145 194/578/145 193/579/145
f 238/577/145 193/579/145 237/580/145
f 239/581/146 195/582/146 196/583/146
f 239/581/146 196/583/146 240/584/146
f 193/585/147 194/586/147 196/587/147
f 193/585/147 196/587/147 195/588/147
f 238/589/148 237/590/148 239/591/148
f 238/589/148 239/591/148 240/592/148
f 237/593/149 193/594/149 195/595/149
f 237/593/149 195/595/149 239/596/149
f 240/597/150 196/598/150 194/599/150
f 240/597/150 194/599/150 238/600/150
f 242/601/151 241/602/151 197/603/151
f 242/601/151 197/603/151 198/604/151
usemtl m_95e20f84-55bb-7186-f91a-586499bd637e
f 200/605/152 199/606/152 243/607/152
f 200/605/152 243/607/152 244/608/152
usemtl m_cc4cbd32-c453-a4c6-e794-5e5fa231e7f1
f 197/609/153 241/610/153 243/611/153
f 197/609/153 243/611/153 199/612/153
f 242/613/154 198/614/154 200/615/154
f 242/613/154 200/615/154 244/616/154
f 198/617/155 197/618/155 199/619/155
f 198/617/155 199/619/155 200/620/155
f 244/621/156 243/622/156 241/623/156
f 244/621/156 241/623/156 242/624/156
f 202/625/157 201/626/157 245/627/157
f 202/625/157 245/627/157 246/628/157
usemtl m_95e20f84-55bb-7186-f91a-586499bd637e
f 248/629/158 247/630/158 203/631/158
f 248/629/158 203/631/158 204/632/158
usemtl m_cc4cbd32-c453-a4c6-e794-5e5fa231e7f1
f 245/633/159 201/634/159 203/635/159
f 245/633/159 203/635/159 247/636/159
f 202/637/160 246/638/160 248/639/160
f 202/637/160 248/639/160 204/640/160
f 246/641/161 245/642/161 247/643/161
f 246/641/161 247/643/161 248/644/161
f 204/645/162 203/646/162 201/647/162
f 204/645/162 201/647/162 202/648/162
f 208/649/163 206/650/163 205/651/163
f 208/649/163 205/651/163 207/652/163
usemtl m_f59e3bac-8fcc-890c-63e5-9d78c1a9e541
f 251/653/164 249/654/164 250/655/164
f 251/653/164 250/655/164 252/656/164
usemtl m_cc4cbd32-c453-a4c6-e794-5e5fa231e7f1
f 254/657/165 253/658/165 209/659/165
f 254/657/165 209/659/165 210/660/165
usemtl m_f59e3bac-8fcc-890c-63e5-9d78c1a9e541
f 257/661/166 255/662/166 256/663/166
f 257/661/166 256/663/166 258/664/166
usemtl m_cc4cbd32-c453-a4c6-e794-5e5fa231e7f1
f 209/665/167 253/666/167 256/667/167
f 209/665/167 256/667/167 255/668/167
f 254/669/168 210/670/168 257/671/168
f 254/669/168 257/671/168 258/672/168
f 210/673/169 209/674/169 255/675/169
f 210/673/169 255/675/169 257/676/169
f 258/677/170 256/678/170 253/679/170
f 258/677/170 253/679/170 254/680/170
f 212/681/171 211/682/171 259/683/171
f 212/681/171 259/683/171 260/684/171
usemtl m_f59e3bac-8fcc-890c-63e5-9d78c1a9e541
f 263/685/172 261/686/172 262/687/172
f 263/685/172 262/687/172 264/688/172
usemtl m_cc4cbd32-c453-a4c6-e794-5e5fa231e7f1
f 259/689/173 211/690/173 262/691/173
f 259/689/173 262/691/173 261/692/173
f 212/693/174 260/694/174 263/695/174
f 212/693/174 263/695/174 264/696/174
f 260/697/175 259/698/175 261/699/175
f 260/697/175 261/699/175 263/700/175
f 264/701/176 262/702/176 211/703/176
f 264/701/176 211/703/176 212/704/176
f 216/705/177 214/706/177 213/707/177
f 216/705/177 213/707/177 215/708/177
f 219/709/178 217/710/178 218/711/178
f 219/709/178 218/711/178 220/712/178
f 213/713/179 214/714/179 218/715/179
f 213/713/179 218/715/179 217/716/179
f 216/717/180 215/718/180 219/719/180
f 216/717/180 219/719/180 220/720/180
f 215/721/181 213/722/181 217/723/181
f 215/721/181 217/723/181 219/724/181
f 220/725/182 218/726/182 214/727/182
f 220/725/182 214/727/182 216/728/182
f 224/729/183 222/730/183 221/731/183
f 224/729/183 221/731/183 223/732/183
f 227/733/184 225/734/184 226/735/184
f 227/733/184 226/735/184 228/736/184
f 221/737/185 222/738/185 226/739/185
f 221/737/185 226/739/185 225/740/185
f 224/741/186 223/742/186 227/743/186
f 224/741/186 227/743/186 228/744/186
f 223/745/187 221/746/187 225/747/187
f 223/745/187 225/747/187 227/748/187
f 228/749/188 226/750/188 222/751/188
f 228/749/188 222/751/188 224/752/188
usemtl m_f59e3bac-8fcc-890c-63e5-9d78c1a9e541
f 268/753/189 266/754/189 265/755/189
f 268/753/189 265/755/189 267/756/189
f 231/757/190 229/758/190 230/759/190
f 231/757/190 230/759/190 232/760/190
f 265/761/191 266/762/191 230/763/191
f 265/761/191 230/763/191 229/764/191
f 268/765/192 267/766/192 231/767/192
f 268/765/192 231/767/192 232/768/192
f 267/769/193 265/770/193 229/771/193
f 267/769/193 229/771/193 231/772/193
f 232/773/194 230/774/194 266/775/194
f 232/773/194 266/775/194 268/776/194
f 236/777/195 234/778/195 233/779/195
f 236/777/195 233/779/195 235/780/195
usemtl m_aa934bf0-9db6-52d1-562f-c6f1a255b966
f 271/781/196 269/782/196 270/783/196
f 271/781/196 270/783/196 272/784/196
usemtl m_cc4cbd32-c453-a4c6-e794-5e5fa231e7f1
f 206/785/197 250/786/197 205/787/197
f 206/785/197 205/787/197 249/788/197
f 207/789/198 251/790/198 208/791/198
f 207/789/198 208/791/198 252/792/198
f 205/793/199 249/794/199 207/795/199
f 205/793/199 207/795/199 251/796/199
f 250/797/200 206/798/200 252/799/200
f 250/797/200 252/799/200 208/800/200
usemtl none
f 234/801/201 270/802/201 233/803/201
f 234/801/201 233/803/201 269/804/201
f 235/805/202 271/806/202 236/807/202
f 235/805/202 236/807/202 272/808/202
f 233/809/203 269/810/203 235/811/203
f 233/809/203 235/811/203 271/812/203
f 270/813/204 234/814/204 272/815/204
f 270/813/204 272/815/204 236/816/204