# Made in Blockbench 4.12.6
mtllib bj_sc_1_doorlight.mtl

o r
v 0.5003125 1.6246875 -0.4378121859390664
v 0.5003125 1.65625 -0.4378121859390664
v 0.5003125 1.64046875 -0.37515609257929977
v 0.5003125 1.6246875 -0.37515609257929977
v 0.43718750000000006 1.6246875 -0.37515609257929977
v 0.43718750000000006 1.64046875 -0.37515609257929977
v 0.43718750000000006 1.65625 -0.4378121859390664
v 0.43718750000000006 1.6246875 -0.4378121859390664
v 0.5003125 1.6246875 -0.3124999992195332
v 0.5003125 1.64046875 -0.3124999992195332
v 0.5003125 1.65625 -0.18718781250000002
v 0.5003125 1.6246875 -0.18718781250000002
v 0.43718750000000006 1.6246875 -0.18718781250000002
v 0.43718750000000006 1.65625 -0.18718781250000002
v 0.43718750000000006 1.64046875 -0.3124999992195332
v 0.43718750000000006 1.6246875 -0.3124999992195332
v 0.5003125 1.67178821875 -0.24444858966055708
v 0.43718750000000006 1.67178821875 -0.24444858966055708
v 0.5003125 1.682416575 -0.3065796249579689
v 0.43718750000000006 1.682416575 -0.3065796249579689
v 0.5003125 1.6878125 -0.3716937168602391
v 0.43718750000000006 1.6878125 -0.3716937168602391
v 0.5003125 1.6878125 -0.43781281250000004
v 0.43718750000000006 1.6878125 -0.43781281250000004
vt 0.1875 0.96875
vt 0.1875 1
vt 0 1
vt 0.1875 0.96875
vt 0 1
vt 0 0.96875
vt 0.1875 0.96875
vt 0.1875 1
vt 0 1
vt 0.1875 0.96875
vt 0 1
vt 0 0.96875
vt 0.0625 0.8125
vt 0.0625 1
vt 0 1
vt 0.0625 0.8125
vt 0 1
vt 0 0.8125
vt 0.0625 0.96875
vt 0.0625 1
vt 0 1
vt 0.0625 0.96875
vt 0 1
vt 0 0.96875
vt 0.0625 0.96875
vt 0.0625 1
vt 0 1
vt 0.0625 0.96875
vt 0 1
vt 0 0.96875
vt 0.1875 0.96875
vt 0.1875 1
vt 0 1
vt 0.1875 0.96875
vt 0 1
vt 0 0.96875
vt 0.1875 0.96875
vt 0.1875 1
vt 0 1
vt 0.1875 0.96875
vt 0 1
vt 0 0.96875
vt 0.0625 0.8125
vt 0.0625 1
vt 0 1
vt 0.0625 0.8125
vt 0 1
vt 0 0.8125
vt 0.0625 0.96875
vt 0.0625 1
vt 0 1
vt 0.0625 0.96875
vt 0 1
vt 0 0.96875
vt 0.0625 0.96875
vt 0.0625 1
vt 0 1
vt 0.0625 0.96875
vt 0 1
vt 0 0.96875
vt 0.0625 0.9375
vt 0.0625 1
vt 0 1
vt 0.0625 0.9375
vt 0 1
vt 0 0.9375
vt 0.501913125 0.91284625
vt 0.49428125 1
vt 0 0.91284625
vt 0 0.5
vt 0.0874875 0.5
vt 0.0874875 1
vt 0 0.5
vt 0.0874875 1
vt 0 1
vt 0 0.49809375
vt 0.087155 0.505711875
vt 0 1
vt 0.501909375 0.912845
vt 0.494288125 1
vt 0 0.912845
vt 0 0.5
vt 0.0874875 0.5
vt 0.0874875 1
vt 0 0.5
vt 0.0874875 1
vt 0 1
vt 0 0.49808687500000004
vt 0.08715375 0.505715625
vt 0 1
vt 0.50191 0.91284125
vt 0.494283125 1
vt 0 0.91284125
vt 0 0.5
vt 0.0874875 0.5
vt 0.0874875 1
vt 0 0.5
vt 0.0874875 1
vt 0 1
vt 0 0.498090625
vt 0.08715875 0.505715625
vt 0 1
vt 0 0.5
vt 0.0874875 0.5
vt 0.0874875 1
vt 0 0.5
vt 0.0874875 1
vt 0 1
vt 0.5 0.9125125000000001
vt 0.5 1
vt 0 0.95625625
vt 0.5 0.9125125000000001
vt 0.5 1
vt 0 0.95625625
vt 0 0.5
vt 0.50759375 0.5
vt 0.50759375 1
vt 0 0.5
vt 0.50759375 1
vt 0 1
vt 0.25 1
vt 0 1
vt 0.0625 0.984375
vt 0.25 1
vt 0.0625 0.984375
vt 0.125 0.984375
vt 0.25 1
vt 0 1
vt 0.125 0.984375
vt 0.25 1
vt 0.125 0.984375
vt 0.1875 0.984375
vn 1 0 0
vn 1 0 0
vn -1 0 0
vn -1 0 0
vn 0 -1 0
vn 0 -1 0
vn 0 0 1
vn 0 0 1
vn 0 0 -1
vn 0 0 -1
vn 1 0 0
vn 1 0 0
vn -1 0 0
vn -1 0 0
vn 0 -1 0
vn 0 -1 0
vn 0 0 1
vn 0 0 1
vn 0 0 -1
vn 0 0 -1
vn 0 -1 0
vn 0 -1 0
vn 1 0 0
vn 0 0.9650982827485627 0.2618879619909542
vn 0 0.9650982827485627 0.2618879619909542
vn -1 0 0
vn 1 0 0
vn 0 0.9856821090587534 0.16861429323010507
vn 0 0.9856821090587534 0.16861429323010507
vn -1 0 0
vn 1 0 0
vn 0 0.9965839670930379 0.08258569206044604
vn 0 0.9965839670930379 0.08258569206044604
vn -1 0 0
vn 0 1 0
vn 0 1 0
vn -1 0 0
vn 1 0 0
vn 0 -0.000019851435517243187 -0.9999999998029604
vn 0 -0.000019851435517243187 -0.9999999998029604
vn -1 0 0
vn -1 0 0
vn 1 0 0
vn 1 0 0
usemtl m_edee29b7-c4cd-a560-a643-377fcd1af890#light
f 1/1/1 2/2/1 3/3/1
f 1/4/2 3/5/2 4/6/2
f 5/7/3 6/8/3 7/9/3
f 5/10/4 7/11/4 8/12/4
f 1/13/5 4/14/5 5/15/5
f 1/16/6 5/17/6 8/18/6
f 4/19/7 3/20/7 6/21/7
f 4/22/8 6/23/8 5/24/8
f 8/25/9 7/26/9 2/27/9
f 8/28/10 2/29/10 1/30/10
f 9/31/11 10/32/11 11/33/11
f 9/34/12 11/35/12 12/36/12
f 13/37/13 14/38/13 15/39/13
f 13/40/14 15/41/14 16/42/14
f 9/43/15 12/44/15 13/45/15
f 9/46/16 13/47/16 16/48/16
f 12/49/17 11/50/17 14/51/17
f 12/52/18 14/53/18 13/54/18
f 16/55/19 15/56/19 10/57/19
f 16/58/20 10/59/20 9/60/20
f 3/61/21 10/62/21 15/63/21
f 3/64/22 15/65/22 6/66/22
f 17/67/23 11/68/23 2/69/23
f 11/70/24 17/71/24 18/72/24
f 11/73/25 18/74/25 14/75/25
f 14/76/26 18/77/26 7/78/26
f 19/79/27 17/80/27 2/81/27
f 17/82/28 19/83/28 20/84/28
f 17/85/29 20/86/29 18/87/29
f 18/88/30 20/89/30 7/90/30
f 21/91/31 19/92/31 2/93/31
f 19/94/32 21/95/32 22/96/32
f 19/97/33 22/98/33 20/99/33
f 20/100/34 22/101/34 7/102/34
f 21/103/35 23/104/35 24/105/35
f 21/106/36 24/107/36 22/108/36
f 22/109/37 24/110/37 7/111/37
f 23/112/38 21/113/38 2/114/38
f 23/115/39 2/116/39 7/117/39
f 23/118/40 7/119/40 24/120/40
f 14/121/41 7/122/41 6/123/41
f 14/124/42 6/125/42 15/126/42
f 2/127/43 11/128/43 10/129/43
f 2/130/44 10/131/44 3/132/44
o l
v -0.4371875 1.6246875 -0.4378121859390664
v -0.4371875 1.65625 -0.4378121859390664
v -0.4371875 1.64046875 -0.37515609257929977
v -0.4371875 1.6246875 -0.37515609257929977
v -0.5003125 1.6246875 -0.37515609257929977
v -0.5003125 1.64046875 -0.37515609257929977
v -0.5003125 1.65625 -0.4378121859390664
v -0.5003125 1.6246875 -0.4378121859390664
v -0.4371875 1.6246875 -0.3124999992195332
v -0.4371875 1.64046875 -0.3124999992195332
v -0.4371875 1.65625 -0.18718781250000002
v -0.4371875 1.6246875 -0.18718781250000002
v -0.5003125 1.6246875 -0.18718781250000002
v -0.5003125 1.65625 -0.18718781250000002
v -0.5003125 1.64046875 -0.3124999992195332
v -0.5003125 1.6246875 -0.3124999992195332
v -0.4371875 1.67178821875 -0.24444858966055708
v -0.5003125 1.67178821875 -0.24444858966055708
v -0.4371875 1.682416575 -0.3065796249579689
v -0.5003125 1.682416575 -0.3065796249579689
v -0.4371875 1.6878125 -0.3716937168602391
v -0.5003125 1.6878125 -0.3716937168602391
v -0.4371875 1.6878125 -0.43781281250000004
v -0.5003125 1.6878125 -0.43781281250000004
vt 0.1875 0.96875
vt 0.1875 1
vt 0 1
vt 0.1875 0.96875
vt 0 1
vt 0 0.96875
vt 0.1875 0.96875
vt 0.1875 1
vt 0 1
vt 0.1875 0.96875
vt 0 1
vt 0 0.96875
vt 0.0625 0.8125
vt 0.0625 1
vt 0 1
vt 0.0625 0.8125
vt 0 1
vt 0 0.8125
vt 0.0625 0.96875
vt 0.0625 1
vt 0 1
vt 0.0625 0.96875
vt 0 1
vt 0 0.96875
vt 0.0625 0.96875
vt 0.0625 1
vt 0 1
vt 0.0625 0.96875
vt 0 1
vt 0 0.96875
vt 0.1875 0.96875
vt 0.1875 1
vt 0 1
vt 0.1875 0.96875
vt 0 1
vt 0 0.96875
vt 0.1875 0.96875
vt 0.1875 1
vt 0 1
vt 0.1875 0.96875
vt 0 1
vt 0 0.96875
vt 0.0625 0.8125
vt 0.0625 1
vt 0 1
vt 0.0625 0.8125
vt 0 1
vt 0 0.8125
vt 0.0625 0.96875
vt 0.0625 1
vt 0 1
vt 0.0625 0.96875
vt 0 1
vt 0 0.96875
vt 0.0625 0.96875
vt 0.0625 1
vt 0 1
vt 0.0625 0.96875
vt 0 1
vt 0 0.96875
vt 0.0625 0.9375
vt 0.0625 1
vt 0 1
vt 0.0625 0.9375
vt 0 1
vt 0 0.9375
vt 0.501913125 0.91284625
vt 0.49428125 1
vt 0 0.91284625
vt 0 0.5
vt 0.0874875 0.5
vt 0.0874875 1
vt 0 0.5
vt 0.0874875 1
vt 0 1
vt 0 0.49809375
vt 0.087155 0.505711875
vt 0 1
vt 0.501909375 0.912845
vt 0.494288125 1
vt 0 0.912845
vt 0 0.5
vt 0.0874875 0.5
vt 0.0874875 1
vt 0 0.5
vt 0.0874875 1
vt 0 1
vt 0 0.49808687500000004
vt 0.08715375 0.505715625
vt 0 1
vt 0.50191 0.91284125
vt 0.494283125 1
vt 0 0.91284125
vt 0 0.5
vt 0.0874875 0.5
vt 0.0874875 1
vt 0 0.5
vt 0.0874875 1
vt 0 1
vt 0 0.498090625
vt 0.08715875 0.505715625
vt 0 1
vt 0 0.5
vt 0.0874875 0.5
vt 0.0874875 1
vt 0 0.5
vt 0.0874875 1
vt 0 1
vt 0.5 0.9125125000000001
vt 0.5 1
vt 0 0.95625625
vt 0.5 0.9125125000000001
vt 0.5 1
vt 0 0.95625625
vt 0 0.5
vt 0.50759375 0.5
vt 0.50759375 1
vt 0 0.5
vt 0.50759375 1
vt 0 1
vt 0.25 1
vt 0 1
vt 0.0625 0.984375
vt 0.25 1
vt 0.0625 0.984375
vt 0.125 0.984375
vt 0.25 1
vt 0 1
vt 0.125 0.984375
vt 0.25 1
vt 0.125 0.984375
vt 0.1875 0.984375
vn 1 0 0
vn 1 0 0
vn -1 0 0
vn -1 0 0
vn 0 -1 0
vn 0 -1 0
vn 0 0 1
vn 0 0 1
vn 0 0 -1
vn 0 0 -1
vn 1 0 0
vn 1 0 0
vn -1 0 0
vn -1 0 0
vn 0 -1 0
vn 0 -1 0
vn 0 0 1
vn 0 0 1
vn 0 0 -1
vn 0 0 -1
vn 0 -1 0
vn 0 -1 0
vn 1 0 0
vn 0 0.9650982827485628 0.26188796199095427
vn 0 0.9650982827485628 0.26188796199095427
vn -1 0 0
vn 1 0 0
vn 0 0.9856821090587535 0.16861429323010504
vn 0 0.9856821090587535 0.16861429323010504
vn -1 0 0
vn 1 0 0
vn 0 0.9965839670930379 0.08258569206044604
vn 0 0.9965839670930379 0.08258569206044604
vn -1 0 0
vn 0 1 0
vn 0 1 0
vn -1 0 0
vn 1 0 0
vn 0 -0.000019851435517243187 -0.9999999998029604
vn 0 -0.000019851435517243187 -0.9999999998029604
vn -1 0 0
vn -1 0 0
vn 1 0 0
vn 1 0 0
usemtl m_edee29b7-c4cd-a560-a643-377fcd1af890#light
f 25/133/45 26/134/45 27/135/45
f 25/136/46 27/137/46 28/138/46
f 29/139/47 30/140/47 31/141/47
f 29/142/48 31/143/48 32/144/48
f 25/145/49 28/146/49 29/147/49
f 25/148/50 29/149/50 32/150/50
f 28/151/51 27/152/51 30/153/51
f 28/154/52 30/155/52 29/156/52
f 32/157/53 31/158/53 26/159/53
f 32/160/54 26/161/54 25/162/54
f 33/163/55 34/164/55 35/165/55
f 33/166/56 35/167/56 36/168/56
f 37/169/57 38/170/57 39/171/57
f 37/172/58 39/173/58 40/174/58
f 33/175/59 36/176/59 37/177/59
f 33/178/60 37/179/60 40/180/60
f 36/181/61 35/182/61 38/183/61
f 36/184/62 38/185/62 37/186/62
f 40/187/63 39/188/63 34/189/63
f 40/190/64 34/191/64 33/192/64
f 27/193/65 34/194/65 39/195/65
f 27/196/66 39/197/66 30/198/66
f 41/199/67 35/200/67 26/201/67
f 35/202/68 41/203/68 42/204/68
f 35/205/69 42/206/69 38/207/69
f 38/208/70 42/209/70 31/210/70
f 43/211/71 41/212/71 26/213/71
f 41/214/72 43/215/72 44/216/72
f 41/217/73 44/218/73 42/219/73
f 42/220/74 44/221/74 31/222/74
f 45/223/75 43/224/75 26/225/75
f 43/226/76 45/227/76 46/228/76
f 43/229/77 46/230/77 44/231/77
f 44/232/78 46/233/78 31/234/78
f 45/235/79 47/236/79 48/237/79
f 45/238/80 48/239/80 46/240/80
f 46/241/81 48/242/81 31/243/81
f 47/244/82 45/245/82 26/246/82
f 47/247/83 26/248/83 31/249/83
f 47/250/84 31/251/84 48/252/84
f 38/253/85 31/254/85 30/255/85
f 38/256/86 30/257/86 39/258/86
f 26/259/87 35/260/87 34/261/87
f 26/262/88 34/263/88 27/264/88